<?xml version="1.0" encoding="utf-8"?>
<!-- Generator: Adobe Illustrator 22.0.0, SVG Export Plug-In . SVG Version: 6.00 Build 0)  -->
<svg version="1.1" id="Layer_1" xmlns="http://www.w3.org/2000/svg" xmlns:xlink="http://www.w3.org/1999/xlink" x="0px" y="0px"
	 viewBox="0 0 512 512" style="enable-background:new 0 0 512 512;" xml:space="preserve">
<style type="text/css">
	.st0{opacity:0.6;}
	.st1{fill:#F2F2F2;}
</style>
<circle class="st0" cx="256.4" cy="256.1" r="256"/>
<path class="st1" d="M367.2,242.1h-96.5v-96.5c0-8.8-7.2-16-16-16s-16,7.2-16,16v96.5h-96.5c-8.8,0-16,7.2-16,16
	c0,4.4,1.8,8.4,4.7,11.3c2.9,2.9,6.9,4.7,11.3,4.7h96.5v96.5c0,4.4,1.8,8.4,4.7,11.3s6.9,4.7,11.3,4.7c8.8,0,16-7.2,16-16v-96.5
	h96.5c8.8,0,16-7.2,16-16S376,242.1,367.2,242.1z"/>
</svg>
