<?xml version="1.0" encoding="utf-8"?>
<!-- Generator: Adobe Illustrator 22.0.0, SVG Export Plug-In . SVG Version: 6.00 Build 0)  -->
<svg version="1.1" id="Layer_1" xmlns="http://www.w3.org/2000/svg" xmlns:xlink="http://www.w3.org/1999/xlink" x="0px" y="0px"
	 viewBox="0 0 512 512" style="enable-background:new 0 0 512 512;" xml:space="preserve">
<style type="text/css">
	.st0{fill:#600094;}
	.st1{fill:none;stroke:#6F6F6F;}
	.st2{fill:#FF0AAF;}
	.st3{fill:none;stroke:#FF65CD;}
</style>
<g>
	<circle class="st0" cx="256.5" cy="256.5" r="240.5"/>
	<g>
		<g>
			<g>
				<path class="st1" d="M508.3,283c0.4-4.4,0.7-8.8,1-13.2l0.3-13.2"/>
				<path class="st1" d="M504.6,282.6c0.4-4.3,0.7-8.7,1-13l0.3-13"/>
				<path class="st1" d="M498.5,256.5l-0.3,12.7c-0.3,4.2-0.6,8.4-1,12.6"/>
				<path class="st1" d="M500.9,282.2c0.4-4.3,0.7-8.6,1-12.8l0.3-12.9"/>
				<path class="st1" d="M494.8,256.5l-0.3,12.5c-0.3,4.1-0.6,8.3-1,12.4"/>
			</g>
			<g>
				<path class="st1" d="M504.1,309.1l0.4-1.6l0.3-1.6l0.6-3.3l1.2-6.5c0.7-4.4,1.1-8.8,1.7-13.1"/>
				<path class="st1" d="M500.5,308.4l0.4-1.6l0.3-1.6l0.6-3.2l1.1-6.4c0.7-4.3,1.1-8.6,1.7-12.9"/>
				<path class="st1" d="M497.2,281.8c-0.6,4.2-1,8.4-1.6,12.6l-1.1,6.2l-0.6,3.1l-0.3,1.6l-0.4,1.5"/>
				<path class="st1" d="M496.9,307.6l0.4-1.6l0.3-1.6l0.6-3.2l1.1-6.3c0.6-4.2,1.1-8.5,1.7-12.8"/>
				<path class="st1" d="M493.5,281.4c-0.5,4.1-1,8.3-1.6,12.4l-1.1,6.1l-0.5,3.1l-0.3,1.5l-0.4,1.5"/>
			</g>
			<g>
				<path class="st1" d="M497.3,334.7l1.1-3.1l0.9-3.2l1.8-6.4c0.6-2.1,1.1-4.3,1.6-6.4l1.5-6.5"/>
				<path class="st1" d="M493.8,333.6l1-3.1l0.9-3.1l1.8-6.3c0.6-2.1,1.1-4.2,1.6-6.3l1.5-6.4"/>
				<path class="st1" d="M493.3,306.8l-1.4,6.2c-0.5,2.1-0.9,4.1-1.5,6.1l-1.7,6.1l-0.9,3l-1,3"/>
				<path class="st1" d="M490.2,332.4l1-3.1l0.9-3.1l1.8-6.2c0.6-2.1,1.1-4.2,1.6-6.2l1.4-6.3"/>
				<path class="st1" d="M489.6,306.1l-1.4,6.1c-0.5,2-0.9,4.1-1.5,6.1l-1.7,6l-0.9,3l-1,3"/>
			</g>
			<g>
				<path class="st1" d="M487.8,359.5c1.9-4,3.5-8.1,5.1-12.2l1.2-3.1c0.4-1,0.7-2.1,1.1-3.1l2.1-6.3"/>
				<path class="st1" d="M484.4,358c1.9-3.9,3.4-8,5-12.1l1.2-3c0.4-1,0.7-2.1,1.1-3.1l2.1-6.2"/>
				<path class="st1" d="M486.7,331.3l-2,6c-0.4,1-0.6,2-1,3l-1.2,2.9c-1.6,3.9-3,7.9-4.9,11.7"/>
				<path class="st1" d="M481,356.5c1.8-3.9,3.4-7.9,4.9-11.9l1.2-3c0.4-1,0.7-2,1.1-3l2.1-6.1"/>
				<path class="st1" d="M483.2,330.2l-2,5.9c-0.3,1-0.6,2-1,2.9l-1.1,2.9c-1.5,3.9-3,7.8-4.8,11.5"/>
			</g>
			<g>
				<path class="st1" d="M475.7,383.1l3.3-5.7l3-5.9c1-2,2-3.9,3-5.9l2.7-6"/>
				<path class="st1" d="M472.5,381.2l3.3-5.7l3-5.8c1-1.9,2-3.9,2.9-5.8l2.7-6"/>
				<path class="st1" d="M477.6,354.9l-2.6,5.8c-0.9,1.9-1.9,3.8-2.9,5.7l-2.9,5.6l-3.2,5.5"/>
				<path class="st1" d="M469.3,379.4l3.2-5.6l2.9-5.7c1-1.9,2-3.8,2.9-5.7l2.7-5.9"/>
				<path class="st1" d="M474.2,353.4l-2.6,5.7c-0.9,1.9-1.9,3.7-2.8,5.6l-2.9,5.6l-3.1,5.4"/>
			</g>
			<g>
				<path class="st1" d="M461.3,405.3c2.5-3.6,5.2-7.1,7.5-10.9l3.6-5.6c1.2-1.9,2.2-3.8,3.4-5.7"/>
				<path class="st1" d="M458.3,403.1c2.5-3.6,5.1-7,7.4-10.8l3.5-5.5c1.2-1.8,2.2-3.8,3.3-5.6"/>
				<path class="st1" d="M466.1,377.5c-1.1,1.8-2.1,3.7-3.2,5.5l-3.4,5.3c-2.2,3.6-4.7,7-7.2,10.4"/>
				<path class="st1" d="M455.3,400.9c2.5-3.5,5-6.9,7.3-10.6l3.5-5.4c1.2-1.8,2.2-3.7,3.3-5.5"/>
				<path class="st1" d="M462.9,375.6c-1.1,1.8-2,3.6-3.2,5.4l-3.4,5.3c-2.2,3.6-4.7,6.9-7.1,10.3"/>
			</g>
			<g>
				<path class="st1" d="M444.6,425.9l4.3-5c1.4-1.7,2.9-3.3,4.3-5.1l4.1-5.2l2-2.6l1.9-2.7"/>
				<path class="st1" d="M441.9,423.4l4.3-4.9c1.4-1.7,2.9-3.3,4.2-5l4-5.1l2-2.6l1.9-2.7"/>
				<path class="st1" d="M452.3,398.7l-1.8,2.6l-2,2.5l-3.9,5c-1.3,1.7-2.7,3.3-4.1,4.9l-4.1,4.8"/>
				<path class="st1" d="M439.1,420.9l4.2-4.9c1.4-1.6,2.8-3.2,4.1-4.9l4-5.1l2-2.5l1.9-2.6"/>
				<path class="st1" d="M449.3,396.6l-1.8,2.5l-1.9,2.5l-3.9,4.9c-1.3,1.7-2.7,3.2-4,4.8l-4.1,4.7"/>
			</g>
			<g>
				<path class="st1" d="M425.9,444.6c3.3-3,6.4-6.1,9.6-9.1c3-3.2,6.1-6.4,9.1-9.6"/>
				<path class="st1" d="M423.4,441.9c3.2-2.9,6.3-6,9.5-9c3-3.2,6-6.3,9-9.5"/>
				<path class="st1" d="M436.4,418.4c-2.8,3.1-5.8,6.1-8.7,9.2c-3.1,2.9-6.1,5.9-9.2,8.7"/>
				<path class="st1" d="M420.9,439.1c3.2-2.9,6.2-5.9,9.3-8.8c2.9-3.1,6-6.2,8.8-9.3"/>
				<path class="st1" d="M433.6,416c-2.8,3.1-5.7,6-8.6,9.1c-3,2.9-6,5.8-9.1,8.6"/>
			</g>
			<g>
				<path class="st1" d="M405.3,461.3l2.7-1.9l2.6-2l5.2-4.1c1.8-1.3,3.4-2.8,5.1-4.3l5-4.3"/>
				<path class="st1" d="M403.1,458.3l2.7-1.9l2.6-2l5.1-4c1.7-1.3,3.3-2.8,5-4.2l4.9-4.3"/>
				<path class="st1" d="M418.4,436.4l-4.8,4.1c-1.6,1.4-3.2,2.8-4.9,4.1l-5,3.9l-2.5,2l-2.6,1.8"/>
				<path class="st1" d="M400.9,455.3l2.6-1.9l2.5-2l5.1-4c1.7-1.3,3.3-2.7,4.9-4.1l4.9-4.2"/>
				<path class="st1" d="M416,433.6l-4.7,4.1c-1.6,1.4-3.1,2.8-4.8,4l-4.9,3.9l-2.5,1.9l-2.5,1.8"/>
			</g>
			<g>
				<path class="st1" d="M383.1,475.7c1.9-1.1,3.9-2.2,5.7-3.4l5.6-3.6c3.8-2.3,7.3-5,10.9-7.5"/>
				<path class="st1" d="M381.2,472.5c1.9-1.1,3.8-2.1,5.6-3.3l5.5-3.5c3.7-2.3,7.2-4.9,10.8-7.4"/>
				<path class="st1" d="M398.7,452.3c-3.5,2.4-6.8,5-10.4,7.2l-5.3,3.4c-1.8,1.1-3.6,2.1-5.5,3.2"/>
				<path class="st1" d="M379.4,469.3c1.8-1.1,3.7-2.1,5.5-3.3l5.4-3.5c3.7-2.2,7.1-4.8,10.6-7.3"/>
				<path class="st1" d="M396.6,449.3c-3.4,2.4-6.7,4.9-10.3,7.1l-5.3,3.4c-1.7,1.1-3.6,2.1-5.4,3.2"/>
			</g>
			<g>
				<path class="st1" d="M359.5,487.8l6-2.7c2-0.9,3.9-2,5.9-3l5.9-3l5.7-3.3"/>
				<path class="st1" d="M358,484.4l6-2.7c2-0.9,3.9-2,5.8-2.9l5.8-3l5.7-3.3"/>
				<path class="st1" d="M377.5,466.1l-5.5,3.2l-5.6,2.9c-1.9,0.9-3.7,2-5.7,2.9l-5.8,2.6"/>
				<path class="st1" d="M356.5,481l5.9-2.7c1.9-0.9,3.8-1.9,5.7-2.9l5.7-2.9l5.6-3.2"/>
				<path class="st1" d="M375.6,462.9l-5.4,3.1l-5.6,2.9c-1.9,0.9-3.7,1.9-5.6,2.8l-5.7,2.6"/>
			</g>
			<g>
				<path class="st1" d="M334.7,497.3l6.3-2.1c1-0.4,2.1-0.7,3.1-1.1l3.1-1.2c4.1-1.6,8.2-3.2,12.2-5.1"/>
				<path class="st1" d="M333.6,493.8l6.2-2.1c1-0.4,2.1-0.7,3.1-1.1l3-1.2c4-1.6,8.1-3.1,12.1-5"/>
				<path class="st1" d="M354.9,477.6c-3.8,1.8-7.8,3.3-11.7,4.9l-2.9,1.2c-1,0.4-2,0.7-3,1l-6,2"/>
				<path class="st1" d="M332.4,490.2l6.1-2.1c1-0.4,2-0.7,3-1.1l3-1.2c4-1.6,8-3.1,11.9-4.9"/>
				<path class="st1" d="M353.4,474.2c-3.8,1.8-7.7,3.3-11.5,4.8l-2.9,1.1c-1,0.4-2,0.7-2.9,1l-5.9,2"/>
			</g>
			<g>
				<path class="st1" d="M309.1,504.1l6.5-1.5c2.2-0.5,4.3-1,6.4-1.6l6.4-1.8l3.2-0.9l3.1-1.1"/>
				<path class="st1" d="M308.4,500.5l6.4-1.5c2.1-0.5,4.3-0.9,6.3-1.6l6.3-1.8l3.1-0.9l3.1-1"/>
				<path class="st1" d="M331.3,486.7l-3,1l-3,0.9l-6.1,1.7c-2,0.6-4.1,1.1-6.1,1.5l-6.2,1.4"/>
				<path class="st1" d="M307.6,496.9l6.3-1.4c2.1-0.5,4.2-0.9,6.2-1.6l6.2-1.8l3.1-0.9l3.1-1"/>
				<path class="st1" d="M330.2,483.2l-3,1l-3,0.9l-6,1.7c-2,0.6-4,1-6.1,1.5l-6.1,1.4"/>
			</g>
			<g>
				<path class="st1" d="M283,508.3c4.4-0.6,8.8-1.1,13.1-1.7l6.5-1.2l3.3-0.6l1.6-0.3l1.6-0.4"/>
				<path class="st1" d="M282.6,504.6c4.3-0.6,8.6-1,12.9-1.7l6.4-1.1l3.2-0.6l1.6-0.3l1.6-0.4"/>
				<path class="st1" d="M306.8,493.3l-1.5,0.4l-1.6,0.3l-3.1,0.6l-6.2,1.1c-4.2,0.6-8.4,1.1-12.6,1.6"/>
				<path class="st1" d="M282.2,500.9c4.3-0.6,8.5-1,12.8-1.7l6.3-1.1l3.2-0.6l1.6-0.3l1.6-0.4"/>
				<path class="st1" d="M306.1,489.6l-1.5,0.4l-1.5,0.3l-3.1,0.5l-6.1,1.1c-4.1,0.6-8.2,1.1-12.4,1.6"/>
			</g>
			<g>
				<path class="st1" d="M256.5,509.7l13.2-0.3c4.4-0.3,8.8-0.6,13.2-1"/>
				<path class="st1" d="M256.5,506l13-0.3c4.3-0.3,8.7-0.6,13-1"/>
				<path class="st1" d="M281.8,497.2c-4.2,0.4-8.4,0.7-12.6,1l-12.7,0.3"/>
				<path class="st1" d="M256.5,502.2l12.9-0.3c4.3-0.3,8.6-0.6,12.8-1"/>
				<path class="st1" d="M281.4,493.5c-4.1,0.4-8.3,0.6-12.4,1l-12.5,0.3"/>
			</g>
			<g>
				<path class="st1" d="M230,508.3c4.4,0.4,8.8,0.7,13.2,1l13.2,0.3"/>
				<path class="st1" d="M230.4,504.6c4.3,0.4,8.7,0.7,13,1l13,0.3"/>
				<path class="st1" d="M256.5,498.5l-12.7-0.3c-4.2-0.3-8.4-0.6-12.6-1"/>
				<path class="st1" d="M230.8,500.9c4.3,0.4,8.6,0.7,12.8,1l12.9,0.3"/>
				<path class="st1" d="M256.5,494.8l-12.5-0.3c-4.1-0.3-8.3-0.6-12.4-1"/>
			</g>
			<g>
				<path class="st1" d="M203.9,504.1l1.6,0.4l1.6,0.3l3.3,0.6l6.5,1.2c4.4,0.7,8.8,1.1,13.1,1.7"/>
				<path class="st1" d="M204.6,500.5l1.6,0.4l1.6,0.3l3.2,0.6l6.4,1.1c4.3,0.7,8.6,1.1,12.9,1.7"/>
				<path class="st1" d="M231.2,497.2c-4.2-0.6-8.4-1-12.6-1.6l-6.2-1.1l-3.1-0.6l-1.6-0.3l-1.5-0.4"/>
				<path class="st1" d="M205.4,496.9l1.6,0.4l1.6,0.3l3.2,0.6l6.3,1.1c4.2,0.6,8.5,1.1,12.8,1.7"/>
				<path class="st1" d="M231.6,493.5c-4.1-0.5-8.3-1-12.4-1.6l-6.1-1.1l-3.1-0.5l-1.5-0.3l-1.5-0.4"/>
			</g>
			<g>
				<path class="st1" d="M178.3,497.3l3.1,1.1l3.2,0.9l6.4,1.8c2.1,0.6,4.3,1.1,6.4,1.6l6.5,1.5"/>
				<path class="st1" d="M179.4,493.8l3.1,1l3.1,0.9l6.3,1.8c2.1,0.6,4.2,1.1,6.3,1.6l6.4,1.5"/>
				<path class="st1" d="M206.2,493.3l-6.2-1.4c-2.1-0.5-4.1-0.9-6.1-1.5l-6.1-1.7l-3-0.9l-3-1"/>
				<path class="st1" d="M180.6,490.2l3.1,1l3.1,0.9l6.2,1.8c2.1,0.6,4.2,1.1,6.2,1.6l6.3,1.4"/>
				<path class="st1" d="M206.9,489.6l-6.1-1.4c-2-0.5-4.1-0.9-6.1-1.5l-6-1.7l-3-0.9l-3-1"/>
			</g>
			<g>
				<path class="st1" d="M153.5,487.8c4,1.9,8.1,3.5,12.2,5.1l3.1,1.2c1,0.4,2.1,0.7,3.1,1.1l6.3,2.1"/>
				<path class="st1" d="M155,484.4c3.9,1.9,8,3.4,12.1,5l3,1.2c1,0.4,2.1,0.7,3.1,1.1l6.2,2.1"/>
				<path class="st1" d="M181.7,486.7l-6-2c-1-0.4-2-0.6-3-1l-2.9-1.2c-3.9-1.6-7.9-3-11.7-4.9"/>
				<path class="st1" d="M156.5,481c3.9,1.8,7.9,3.4,11.9,4.9l3,1.2c1,0.4,2,0.7,3,1.1l6.1,2.1"/>
				<path class="st1" d="M182.8,483.2l-5.9-2c-1-0.3-2-0.6-2.9-1l-2.9-1.1c-3.9-1.5-7.8-3-11.5-4.8"/>
			</g>
			<g>
				<path class="st1" d="M129.9,475.7l5.7,3.3l5.9,3c2,1,3.9,2,5.9,3l6,2.7"/>
				<path class="st1" d="M131.8,472.5l5.7,3.3l5.8,3c1.9,1,3.9,2,5.8,2.9l6,2.7"/>
				<path class="st1" d="M158.1,477.6l-5.8-2.6c-1.9-0.9-3.8-1.9-5.7-2.9l-5.6-2.9l-5.5-3.2"/>
				<path class="st1" d="M133.6,469.3l5.6,3.2l5.7,2.9c1.9,1,3.8,2,5.7,2.9l5.9,2.7"/>
				<path class="st1" d="M159.6,474.2l-5.7-2.6c-1.9-0.9-3.7-1.9-5.6-2.8l-5.6-2.9l-5.4-3.1"/>
			</g>
			<g>
				<path class="st1" d="M107.7,461.3c3.6,2.5,7.1,5.2,10.9,7.5l5.6,3.6c1.9,1.2,3.8,2.2,5.7,3.4"/>
				<path class="st1" d="M109.9,458.3c3.6,2.5,7,5.1,10.8,7.4l5.5,3.5c1.8,1.2,3.8,2.2,5.6,3.3"/>
				<path class="st1" d="M135.5,466.1c-1.8-1.1-3.7-2.1-5.5-3.2l-5.3-3.4c-3.6-2.2-7-4.7-10.4-7.2"/>
				<path class="st1" d="M112.1,455.3c3.5,2.5,6.9,5,10.6,7.3l5.4,3.5c1.8,1.2,3.7,2.2,5.5,3.3"/>
				<path class="st1" d="M137.4,462.9c-1.8-1.1-3.6-2-5.4-3.2l-5.3-3.4c-3.6-2.2-6.9-4.7-10.3-7.1"/>
			</g>
			<g>
				<path class="st1" d="M87.1,444.6l5,4.3c1.7,1.4,3.3,2.9,5.1,4.3l5.2,4.1l2.6,2l2.7,1.9"/>
				<path class="st1" d="M89.6,441.9l4.9,4.3c1.7,1.4,3.3,2.9,5,4.2l5.1,4l2.6,2l2.7,1.9"/>
				<path class="st1" d="M114.3,452.3l-2.6-1.8l-2.5-2l-5-3.9c-1.7-1.3-3.3-2.7-4.9-4.1l-4.8-4.1"/>
				<path class="st1" d="M92.1,439.1l4.9,4.2c1.6,1.4,3.2,2.8,4.9,4.1l5.1,4l2.5,2l2.6,1.9"/>
				<path class="st1" d="M116.4,449.3l-2.5-1.8l-2.5-1.9l-4.9-3.9c-1.7-1.3-3.2-2.7-4.8-4l-4.7-4.1"/>
			</g>
			<g>
				<path class="st1" d="M68.4,425.9c3,3.3,6.1,6.4,9.1,9.6c3.2,3,6.4,6.1,9.6,9.1"/>
				<path class="st1" d="M71.1,423.4c2.9,3.2,6,6.3,9,9.5c3.2,3,6.3,6,9.5,9"/>
				<path class="st1" d="M94.6,436.4c-3.1-2.8-6.1-5.8-9.2-8.7c-2.9-3.1-5.9-6.1-8.7-9.2"/>
				<path class="st1" d="M73.9,420.9c2.9,3.2,5.9,6.2,8.8,9.3c3.1,2.9,6.2,6,9.3,8.8"/>
				<path class="st1" d="M97,433.6c-3.1-2.8-6-5.7-9.1-8.6c-2.9-3-5.8-6-8.6-9.1"/>
			</g>
			<g>
				<path class="st1" d="M51.7,405.3l1.9,2.7l2,2.6l4.1,5.2c1.3,1.8,2.8,3.4,4.3,5.1l4.3,5"/>
				<path class="st1" d="M54.7,403.1l1.9,2.7l2,2.6l4,5.1c1.3,1.7,2.8,3.3,4.2,5l4.3,4.9"/>
				<path class="st1" d="M76.6,418.4l-4.1-4.8c-1.4-1.6-2.8-3.2-4.1-4.9l-3.9-5l-2-2.5l-1.8-2.6"/>
				<path class="st1" d="M57.7,400.9l1.9,2.6l2,2.5l4,5.1c1.3,1.7,2.7,3.3,4.1,4.9l4.2,4.9"/>
				<path class="st1" d="M79.4,416l-4.1-4.7c-1.4-1.6-2.8-3.1-4-4.8l-3.9-4.9l-1.9-2.5l-1.8-2.5"/>
			</g>
			<g>
				<path class="st1" d="M37.3,383.1c1.1,1.9,2.2,3.9,3.4,5.7l3.6,5.6c2.3,3.8,5,7.3,7.5,10.9"/>
				<path class="st1" d="M40.5,381.2c1.1,1.9,2.1,3.8,3.3,5.6l3.5,5.5c2.3,3.7,4.9,7.2,7.4,10.8"/>
				<path class="st1" d="M60.7,398.7c-2.4-3.5-5-6.8-7.2-10.4l-3.4-5.3c-1.1-1.8-2.1-3.6-3.2-5.5"/>
				<path class="st1" d="M43.7,379.4c1.1,1.8,2.1,3.7,3.3,5.5l3.5,5.4c2.2,3.7,4.8,7.1,7.3,10.6"/>
				<path class="st1" d="M63.7,396.6c-2.4-3.4-4.9-6.7-7.1-10.3l-3.4-5.3c-1.1-1.7-2.1-3.6-3.2-5.4"/>
			</g>
			<g>
				<path class="st1" d="M25.2,359.5l2.7,6c0.9,2,2,3.9,3,5.9l3,5.9l3.3,5.7"/>
				<path class="st1" d="M28.6,358l2.7,6c0.9,2,2,3.9,2.9,5.8l3,5.8l3.3,5.7"/>
				<path class="st1" d="M46.9,377.5l-3.2-5.5l-2.9-5.6c-0.9-1.9-2-3.7-2.9-5.7l-2.6-5.8"/>
				<path class="st1" d="M32,356.5l2.7,5.9c0.9,1.9,1.9,3.8,2.9,5.7l2.9,5.7l3.2,5.6"/>
				<path class="st1" d="M50.1,375.6l-3.1-5.4l-2.9-5.6c-0.9-1.9-1.9-3.7-2.8-5.6l-2.6-5.7"/>
			</g>
			<g>
				<path class="st1" d="M15.7,334.7l2.1,6.3c0.4,1,0.7,2.1,1.1,3.1l1.2,3.1c1.6,4.1,3.2,8.2,5.1,12.2"/>
				<path class="st1" d="M19.2,333.6l2.1,6.2c0.4,1,0.7,2.1,1.1,3.1l1.2,3c1.6,4,3.1,8.1,5,12.1"/>
				<path class="st1" d="M35.4,354.9c-1.8-3.8-3.3-7.8-4.9-11.7l-1.2-2.9c-0.4-1-0.7-2-1-3l-2-6"/>
				<path class="st1" d="M22.8,332.4l2.1,6.1c0.4,1,0.7,2,1.1,3l1.2,3c1.6,4,3.1,8,4.9,11.9"/>
				<path class="st1" d="M38.8,353.4c-1.8-3.8-3.3-7.7-4.8-11.5l-1.1-2.9c-0.4-1-0.7-2-1-2.9l-2-5.9"/>
			</g>
			<g>
				<path class="st1" d="M8.9,309.1l1.5,6.5c0.5,2.2,1,4.3,1.6,6.4l1.8,6.4l0.9,3.2l1.1,3.1"/>
				<path class="st1" d="M12.5,308.4l1.5,6.4c0.5,2.1,0.9,4.3,1.6,6.3l1.8,6.3l0.9,3.1l1,3.1"/>
				<path class="st1" d="M26.3,331.3l-1-3l-0.9-3l-1.7-6.1c-0.6-2-1.1-4.1-1.5-6.1l-1.4-6.2"/>
				<path class="st1" d="M16.1,307.6l1.4,6.3c0.5,2.1,0.9,4.2,1.6,6.2l1.8,6.2l0.9,3.1l1,3.1"/>
				<path class="st1" d="M29.8,330.2l-1-3l-0.9-3l-1.7-6c-0.6-2-1-4-1.5-6.1l-1.4-6.1"/>
			</g>
			<g>
				<path class="st1" d="M4.7,283c0.6,4.4,1.1,8.8,1.7,13.1l1.2,6.5l0.6,3.3l0.3,1.6l0.4,1.6"/>
				<path class="st1" d="M8.4,282.6c0.6,4.3,1,8.6,1.7,12.9l1.1,6.4l0.6,3.2l0.3,1.6l0.4,1.6"/>
				<path class="st1" d="M19.7,306.8l-0.4-1.5l-0.3-1.6l-0.6-3.1l-1.1-6.2c-0.6-4.2-1.1-8.4-1.6-12.6"/>
				<path class="st1" d="M12.1,282.2c0.6,4.3,1,8.5,1.7,12.8l1.1,6.3l0.6,3.2l0.3,1.6l0.4,1.6"/>
				<path class="st1" d="M23.4,306.1l-0.4-1.5l-0.3-1.5l-0.5-3.1l-1.1-6.1c-0.6-4.1-1.1-8.2-1.6-12.4"/>
			</g>
			<g>
				<path class="st1" d="M3.3,256.5l0.3,13.2c0.3,4.4,0.6,8.8,1,13.2"/>
				<path class="st1" d="M7,256.5l0.3,13c0.3,4.3,0.6,8.7,1,13"/>
				<path class="st1" d="M15.8,281.8c-0.4-4.2-0.7-8.4-1-12.6l-0.3-12.7"/>
				<path class="st1" d="M10.8,256.5l0.3,12.9c0.3,4.3,0.6,8.6,1,12.8"/>
				<path class="st1" d="M19.5,281.4c-0.4-4.1-0.6-8.3-1-12.4l-0.3-12.5"/>
			</g>
			<g>
				<path class="st1" d="M4.7,230c-0.4,4.4-0.7,8.8-1,13.2l-0.3,13.2"/>
				<path class="st1" d="M8.4,230.4c-0.4,4.3-0.7,8.7-1,13l-0.3,13"/>
				<path class="st1" d="M14.5,256.5l0.3-12.7c0.3-4.2,0.6-8.4,1-12.6"/>
				<path class="st1" d="M12.1,230.8c-0.4,4.3-0.7,8.6-1,12.8l-0.3,12.9"/>
				<path class="st1" d="M18.2,256.5l0.3-12.5c0.3-4.1,0.6-8.3,1-12.4"/>
			</g>
			<g>
				<path class="st1" d="M8.9,203.9l-0.4,1.6l-0.3,1.6l-0.6,3.3l-1.2,6.5c-0.7,4.4-1.1,8.8-1.7,13.1"/>
				<path class="st1" d="M12.5,204.6l-0.4,1.6l-0.3,1.6l-0.6,3.2l-1.1,6.4c-0.7,4.3-1.1,8.6-1.7,12.9"/>
				<path class="st1" d="M15.8,231.2c0.6-4.2,1-8.4,1.6-12.6l1.1-6.2l0.6-3.1l0.3-1.6l0.4-1.5"/>
				<path class="st1" d="M16.1,205.4l-0.4,1.6l-0.3,1.6l-0.6,3.2l-1.1,6.3c-0.6,4.2-1.1,8.5-1.7,12.8"/>
				<path class="st1" d="M19.5,231.6c0.5-4.1,1-8.3,1.6-12.4l1.1-6.1l0.5-3.1l0.3-1.5l0.4-1.5"/>
			</g>
			<g>
				<path class="st1" d="M15.7,178.3l-1.1,3.1l-0.9,3.2L12,191c-0.6,2.1-1.1,4.3-1.6,6.4l-1.5,6.5"/>
				<path class="st1" d="M19.2,179.4l-1,3.1l-0.9,3.1l-1.8,6.3c-0.6,2.1-1.1,4.2-1.6,6.3l-1.5,6.4"/>
				<path class="st1" d="M19.7,206.2l1.4-6.2c0.5-2.1,0.9-4.1,1.5-6.1l1.7-6.1l0.9-3l1-3"/>
				<path class="st1" d="M22.8,180.6l-1,3.1l-0.9,3.1l-1.8,6.2c-0.6,2.1-1.1,4.2-1.6,6.2l-1.4,6.3"/>
				<path class="st1" d="M23.4,206.9l1.4-6.1c0.5-2,0.9-4.1,1.5-6.1l1.7-6l0.9-3l1-3"/>
			</g>
			<g>
				<path class="st1" d="M25.2,153.5c-1.9,4-3.5,8.1-5.1,12.2l-1.2,3.1c-0.4,1-0.7,2.1-1.1,3.1l-2.1,6.3"/>
				<path class="st1" d="M28.6,155c-1.9,3.9-3.4,8-5,12.1l-1.2,3c-0.4,1-0.7,2.1-1.1,3.1l-2.1,6.2"/>
				<path class="st1" d="M26.3,181.7l2-6c0.4-1,0.6-2,1-3l1.2-2.9c1.6-3.9,3-7.9,4.9-11.7"/>
				<path class="st1" d="M32,156.5c-1.8,3.9-3.4,7.9-4.9,11.9l-1.2,3c-0.4,1-0.7,2-1.1,3l-2.1,6.1"/>
				<path class="st1" d="M29.8,182.8l2-5.9c0.3-1,0.6-2,1-2.9l1.1-2.9c1.5-3.9,3-7.8,4.8-11.5"/>
			</g>
			<g>
				<path class="st1" d="M37.3,129.9l-3.3,5.7l-3,5.9c-1,2-2,3.9-3,5.9l-2.7,6"/>
				<path class="st1" d="M40.5,131.8l-3.3,5.7l-3,5.8c-1,1.9-2,3.9-2.9,5.8l-2.7,6"/>
				<path class="st1" d="M35.4,158.1l2.6-5.8c0.9-1.9,1.9-3.8,2.9-5.7l2.9-5.6l3.2-5.5"/>
				<path class="st1" d="M43.7,133.6l-3.2,5.6l-2.9,5.7c-1,1.9-2,3.8-2.9,5.7l-2.7,5.9"/>
				<path class="st1" d="M38.8,159.6l2.6-5.7c0.9-1.9,1.9-3.7,2.8-5.6l2.9-5.6l3.1-5.4"/>
			</g>
			<g>
				<path class="st1" d="M51.7,107.7c-2.5,3.6-5.2,7.1-7.5,10.9l-3.6,5.6c-1.2,1.9-2.2,3.8-3.4,5.7"/>
				<path class="st1" d="M54.7,109.9c-2.5,3.6-5.1,7-7.4,10.8l-3.5,5.5c-1.2,1.8-2.2,3.8-3.3,5.6"/>
				<path class="st1" d="M46.9,135.5c1.1-1.8,2.1-3.7,3.2-5.5l3.4-5.3c2.2-3.6,4.7-7,7.2-10.4"/>
				<path class="st1" d="M57.7,112.1c-2.5,3.5-5,6.9-7.3,10.6l-3.5,5.4c-1.2,1.8-2.2,3.7-3.3,5.5"/>
				<path class="st1" d="M50.1,137.4c1.1-1.8,2-3.6,3.2-5.4l3.4-5.3c2.2-3.6,4.7-6.9,7.1-10.3"/>
			</g>
			<g>
				<path class="st1" d="M68.4,87.1l-4.3,5c-1.4,1.7-2.9,3.3-4.3,5.1l-4.1,5.2l-2,2.6l-1.9,2.7"/>
				<path class="st1" d="M71.1,89.6l-4.3,4.9c-1.4,1.7-2.9,3.3-4.2,5l-4,5.1l-2,2.6l-1.9,2.7"/>
				<path class="st1" d="M60.7,114.3l1.8-2.6l2-2.5l3.9-5c1.3-1.7,2.7-3.3,4.1-4.9l4.1-4.8"/>
				<path class="st1" d="M73.9,92.1L69.7,97c-1.4,1.6-2.8,3.2-4.1,4.9l-4,5.1l-2,2.5l-1.9,2.6"/>
				<path class="st1" d="M63.7,116.4l1.8-2.5l1.9-2.5l3.9-4.9c1.3-1.7,2.7-3.2,4-4.8l4.1-4.7"/>
			</g>
			<g>
				<path class="st1" d="M87.1,68.4c-3.3,3-6.4,6.1-9.6,9.1c-3,3.2-6.1,6.4-9.1,9.6"/>
				<path class="st1" d="M89.6,71.1c-3.2,2.9-6.3,6-9.5,9c-3,3.2-6,6.3-9,9.5"/>
				<path class="st1" d="M76.6,94.6c2.8-3.1,5.8-6.1,8.7-9.2c3.1-2.9,6.1-5.9,9.2-8.7"/>
				<path class="st1" d="M92.1,73.9c-3.2,2.9-6.2,5.9-9.3,8.8c-2.9,3.1-6,6.2-8.8,9.3"/>
				<path class="st1" d="M79.4,97c2.8-3.1,5.7-6,8.6-9.1c3-2.9,6-5.8,9.1-8.6"/>
			</g>
			<g>
				<path class="st1" d="M107.7,51.7l-2.7,1.9l-2.6,2l-5.2,4.1c-1.8,1.3-3.4,2.8-5.1,4.3l-5,4.3"/>
				<path class="st1" d="M109.9,54.7l-2.7,1.9l-2.6,2l-5.1,4c-1.7,1.3-3.3,2.8-5,4.2l-4.9,4.3"/>
				<path class="st1" d="M94.6,76.6l4.8-4.1c1.6-1.4,3.2-2.8,4.9-4.1l5-3.9l2.5-2l2.6-1.8"/>
				<path class="st1" d="M112.1,57.7l-2.6,1.9l-2.5,2l-5.1,4c-1.7,1.3-3.3,2.7-4.9,4.1l-4.9,4.2"/>
				<path class="st1" d="M97,79.4l4.7-4.1c1.6-1.4,3.1-2.8,4.8-4l4.9-3.9l2.5-1.9l2.5-1.8"/>
			</g>
			<g>
				<path class="st1" d="M129.9,37.3c-1.9,1.1-3.9,2.2-5.7,3.4l-5.6,3.6c-3.8,2.3-7.3,5-10.9,7.5"/>
				<path class="st1" d="M131.8,40.5c-1.9,1.1-3.8,2.1-5.6,3.3l-5.5,3.5c-3.7,2.3-7.2,4.9-10.8,7.4"/>
				<path class="st1" d="M114.3,60.7c3.5-2.4,6.8-5,10.4-7.2l5.3-3.4c1.8-1.1,3.6-2.1,5.5-3.2"/>
				<path class="st1" d="M133.6,43.7c-1.8,1.1-3.7,2.1-5.5,3.3l-5.4,3.5c-3.7,2.2-7.1,4.8-10.6,7.3"/>
				<path class="st1" d="M116.4,63.7c3.4-2.4,6.7-4.9,10.3-7.1l5.3-3.4c1.7-1.1,3.6-2.1,5.4-3.2"/>
			</g>
			<g>
				<path class="st1" d="M153.5,25.2l-6,2.7c-2,0.9-3.9,2-5.9,3l-5.9,3l-5.7,3.3"/>
				<path class="st1" d="M155,28.6l-6,2.7c-2,0.9-3.9,2-5.8,2.9l-5.8,3l-5.7,3.3"/>
				<path class="st1" d="M135.5,46.9l5.5-3.2l5.6-2.9c1.9-0.9,3.7-2,5.7-2.9l5.8-2.6"/>
				<path class="st1" d="M156.5,32l-5.9,2.7c-1.9,0.9-3.8,1.9-5.7,2.9l-5.7,2.9l-5.6,3.2"/>
				<path class="st1" d="M137.4,50.1l5.4-3.1l5.6-2.9c1.9-0.9,3.7-1.9,5.6-2.8l5.7-2.6"/>
			</g>
			<g>
				<path class="st1" d="M178.3,15.7l-6.3,2.1c-1,0.4-2.1,0.7-3.1,1.1l-3.1,1.2c-4.1,1.6-8.2,3.2-12.2,5.1"/>
				<path class="st1" d="M179.4,19.2l-6.2,2.1c-1,0.4-2.1,0.7-3.1,1.1l-3,1.2c-4,1.6-8.1,3.1-12.1,5"/>
				<path class="st1" d="M158.1,35.4c3.8-1.8,7.8-3.3,11.7-4.9l2.9-1.2c1-0.4,2-0.7,3-1l6-2"/>
				<path class="st1" d="M180.6,22.8l-6.1,2.1c-1,0.4-2,0.7-3,1.1l-3,1.2c-4,1.6-8,3.1-11.9,4.9"/>
				<path class="st1" d="M159.6,38.8c3.8-1.8,7.7-3.3,11.5-4.8l2.9-1.1c1-0.4,2-0.7,2.9-1l5.9-2"/>
			</g>
			<g>
				<path class="st1" d="M203.9,8.9l-6.5,1.5c-2.2,0.5-4.3,1-6.4,1.6l-6.4,1.8l-3.2,0.9l-3.1,1.1"/>
				<path class="st1" d="M204.6,12.5l-6.4,1.5c-2.1,0.5-4.3,0.9-6.3,1.6l-6.3,1.8l-3.1,0.9l-3.1,1"/>
				<path class="st1" d="M181.7,26.3l3-1l3-0.9l6.1-1.7c2-0.6,4.1-1.1,6.1-1.5l6.2-1.4"/>
				<path class="st1" d="M205.4,16.1l-6.3,1.4c-2.1,0.5-4.2,0.9-6.2,1.6l-6.2,1.8l-3.1,0.9l-3.1,1"/>
				<path class="st1" d="M182.8,29.8l3-1l3-0.9l6-1.7c2-0.6,4-1,6.1-1.5l6.1-1.4"/>
			</g>
			<g>
				<path class="st1" d="M230,4.7c-4.4,0.6-8.8,1.1-13.1,1.7l-6.5,1.2l-3.3,0.6l-1.6,0.3l-1.6,0.4"/>
				<path class="st1" d="M230.4,8.4c-4.3,0.6-8.6,1-12.9,1.7l-6.4,1.1l-3.2,0.6l-1.6,0.3l-1.6,0.4"/>
				<path class="st1" d="M206.2,19.7l1.5-0.4l1.6-0.3l3.1-0.6l6.2-1.1c4.2-0.6,8.4-1.1,12.6-1.6"/>
				<path class="st1" d="M230.8,12.1c-4.3,0.6-8.5,1-12.8,1.7l-6.3,1.1l-3.2,0.6l-1.6,0.3l-1.6,0.4"/>
				<path class="st1" d="M206.9,23.4l1.5-0.4l1.5-0.3l3.1-0.5l6.1-1.1c4.1-0.6,8.2-1.1,12.4-1.6"/>
			</g>
			<g>
				<path class="st1" d="M256.5,3.3l-13.2,0.3c-4.4,0.3-8.8,0.6-13.2,1"/>
				<path class="st1" d="M256.5,7l-13,0.3c-4.3,0.3-8.7,0.6-13,1"/>
				<path class="st1" d="M231.2,15.8c4.2-0.4,8.4-0.7,12.6-1l12.7-0.3"/>
				<path class="st1" d="M256.5,10.8l-12.9,0.3c-4.3,0.3-8.6,0.6-12.8,1"/>
				<path class="st1" d="M231.6,19.5c4.1-0.4,8.3-0.6,12.4-1l12.5-0.3"/>
			</g>
			<g>
				<path class="st1" d="M283,4.7c-4.4-0.4-8.8-0.7-13.2-1l-13.2-0.3"/>
				<path class="st1" d="M282.6,8.4c-4.3-0.4-8.7-0.7-13-1l-13-0.3"/>
				<path class="st1" d="M256.5,14.5l12.7,0.3c4.2,0.3,8.4,0.6,12.6,1"/>
				<path class="st1" d="M282.2,12.1c-4.3-0.4-8.6-0.7-12.8-1l-12.9-0.3"/>
				<path class="st1" d="M256.5,18.2l12.5,0.3c4.1,0.3,8.3,0.6,12.4,1"/>
			</g>
			<g>
				<path class="st1" d="M309.1,8.9l-1.6-0.4l-1.6-0.3l-3.3-0.6l-6.5-1.2c-4.4-0.7-8.8-1.1-13.1-1.7"/>
				<path class="st1" d="M308.4,12.5l-1.6-0.4l-1.6-0.3l-3.2-0.6l-6.4-1.1c-4.3-0.7-8.6-1.1-12.9-1.7"/>
				<path class="st1" d="M281.8,15.8c4.2,0.6,8.4,1,12.6,1.6l6.2,1.1l3.1,0.6l1.6,0.3l1.5,0.4"/>
				<path class="st1" d="M307.6,16.1l-1.6-0.4l-1.6-0.3l-3.2-0.6l-6.3-1.1c-4.2-0.6-8.5-1.1-12.8-1.7"/>
				<path class="st1" d="M281.4,19.5c4.1,0.5,8.3,1,12.4,1.6l6.1,1.1l3.1,0.5l1.5,0.3l1.5,0.4"/>
			</g>
			<g>
				<path class="st1" d="M334.7,15.7l-3.1-1.1l-3.2-0.9L322,12c-2.1-0.6-4.3-1.1-6.4-1.6l-6.5-1.5"/>
				<path class="st1" d="M333.6,19.2l-3.1-1l-3.1-0.9l-6.3-1.8c-2.1-0.6-4.2-1.1-6.3-1.6l-6.4-1.5"/>
				<path class="st1" d="M306.8,19.7l6.2,1.4c2.1,0.5,4.1,0.9,6.1,1.5l6.1,1.7l3,0.9l3,1"/>
				<path class="st1" d="M332.4,22.8l-3.1-1l-3.1-0.9l-6.2-1.8c-2.1-0.6-4.2-1.1-6.2-1.6l-6.3-1.4"/>
				<path class="st1" d="M306.1,23.4l6.1,1.4c2,0.5,4.1,0.9,6.1,1.5l6,1.7l3,0.9l3,1"/>
			</g>
			<g>
				<path class="st1" d="M359.5,25.2c-4-1.9-8.1-3.5-12.2-5.1l-3.1-1.2c-1-0.4-2.1-0.7-3.1-1.1l-6.3-2.1"/>
				<path class="st1" d="M358,28.6c-3.9-1.9-8-3.4-12.1-5l-3-1.2c-1-0.4-2.1-0.7-3.1-1.1l-6.2-2.1"/>
				<path class="st1" d="M331.3,26.3l6,2c1,0.4,2,0.6,3,1l2.9,1.2c3.9,1.6,7.9,3,11.7,4.9"/>
				<path class="st1" d="M356.5,32c-3.9-1.8-7.9-3.4-11.9-4.9l-3-1.2c-1-0.4-2-0.7-3-1.1l-6.1-2.1"/>
				<path class="st1" d="M330.2,29.8l5.9,2c1,0.3,2,0.6,2.9,1l2.9,1.1c3.9,1.5,7.8,3,11.5,4.8"/>
			</g>
			<g>
				<path class="st1" d="M383.1,37.3l-5.7-3.3l-5.9-3c-2-1-3.9-2-5.9-3l-6-2.7"/>
				<path class="st1" d="M381.2,40.5l-5.7-3.3l-5.8-3c-1.9-1-3.9-2-5.8-2.9l-6-2.7"/>
				<path class="st1" d="M354.9,35.4l5.8,2.6c1.9,0.9,3.8,1.9,5.7,2.9l5.6,2.9l5.5,3.2"/>
				<path class="st1" d="M379.4,43.7l-5.6-3.2l-5.7-2.9c-1.9-1-3.8-2-5.7-2.9l-5.9-2.7"/>
				<path class="st1" d="M353.4,38.8l5.7,2.6c1.9,0.9,3.7,1.9,5.6,2.8l5.6,2.9l5.4,3.1"/>
			</g>
			<g>
				<path class="st1" d="M405.3,51.7c-3.6-2.5-7.1-5.2-10.9-7.5l-5.6-3.6c-1.9-1.2-3.8-2.2-5.7-3.4"/>
				<path class="st1" d="M403.1,54.7c-3.6-2.5-7-5.1-10.8-7.4l-5.5-3.5c-1.8-1.2-3.8-2.2-5.6-3.3"/>
				<path class="st1" d="M377.5,46.9c1.8,1.1,3.7,2.1,5.5,3.2l5.3,3.4c3.6,2.2,7,4.7,10.4,7.2"/>
				<path class="st1" d="M400.9,57.7c-3.5-2.5-6.9-5-10.6-7.3l-5.4-3.5c-1.8-1.2-3.7-2.2-5.5-3.3"/>
				<path class="st1" d="M375.6,50.1c1.8,1.1,3.6,2,5.4,3.2l5.3,3.4c3.6,2.2,6.9,4.7,10.3,7.1"/>
			</g>
			<g>
				<path class="st1" d="M425.9,68.4l-5-4.3c-1.7-1.4-3.3-2.9-5.1-4.3l-5.2-4.1l-2.6-2l-2.7-1.9"/>
				<path class="st1" d="M423.4,71.1l-4.9-4.3c-1.7-1.4-3.3-2.9-5-4.2l-5.1-4l-2.6-2l-2.7-1.9"/>
				<path class="st1" d="M398.7,60.7l2.6,1.8l2.5,2l5,3.9c1.7,1.3,3.3,2.7,4.9,4.1l4.8,4.1"/>
				<path class="st1" d="M420.9,73.9l-4.9-4.2c-1.6-1.4-3.2-2.8-4.9-4.1l-5.1-4l-2.5-2l-2.6-1.9"/>
				<path class="st1" d="M396.6,63.7l2.5,1.8l2.5,1.9l4.9,3.9c1.7,1.3,3.2,2.7,4.8,4l4.7,4.1"/>
			</g>
			<g>
				<path class="st1" d="M444.6,87.1c-3-3.3-6.1-6.4-9.1-9.6c-3.2-3-6.4-6.1-9.6-9.1"/>
				<path class="st1" d="M441.9,89.6c-2.9-3.2-6-6.3-9-9.5c-3.2-3-6.3-6-9.5-9"/>
				<path class="st1" d="M418.4,76.6c3.1,2.8,6.1,5.8,9.2,8.7c2.9,3.1,5.9,6.1,8.7,9.2"/>
				<path class="st1" d="M439.1,92.1c-2.9-3.2-5.9-6.2-8.8-9.3c-3.1-2.9-6.2-6-9.3-8.8"/>
				<path class="st1" d="M416,79.4c3.1,2.8,6,5.7,9.1,8.6c2.9,3,5.8,6,8.6,9.1"/>
			</g>
			<g>
				<path class="st1" d="M461.3,107.7l-1.9-2.7l-2-2.6l-4.1-5.2c-1.3-1.8-2.8-3.4-4.3-5.1l-4.3-5"/>
				<path class="st1" d="M458.3,109.9l-1.9-2.7l-2-2.6l-4-5.1c-1.3-1.7-2.8-3.3-4.2-5l-4.3-4.9"/>
				<path class="st1" d="M436.4,94.6l4.1,4.8c1.4,1.6,2.8,3.2,4.1,4.9l3.9,5l2,2.5l1.8,2.6"/>
				<path class="st1" d="M455.3,112.1l-1.9-2.6l-2-2.5l-4-5.1c-1.3-1.7-2.7-3.3-4.1-4.9l-4.2-4.9"/>
				<path class="st1" d="M433.6,97l4.1,4.7c1.4,1.6,2.8,3.1,4,4.8l3.9,4.9l1.9,2.5l1.8,2.5"/>
			</g>
			<g>
				<path class="st1" d="M475.7,129.9c-1.1-1.9-2.2-3.9-3.4-5.7l-3.6-5.6c-2.3-3.8-5-7.3-7.5-10.9"/>
				<path class="st1" d="M472.5,131.8c-1.1-1.9-2.1-3.8-3.3-5.6l-3.5-5.5c-2.3-3.7-4.9-7.2-7.4-10.8"/>
				<path class="st1" d="M452.3,114.3c2.4,3.5,5,6.8,7.2,10.4l3.4,5.3c1.1,1.8,2.1,3.6,3.2,5.5"/>
				<path class="st1" d="M469.3,133.6c-1.1-1.8-2.1-3.7-3.3-5.5l-3.5-5.4c-2.2-3.7-4.8-7.1-7.3-10.6"/>
				<path class="st1" d="M449.3,116.4c2.4,3.4,4.9,6.7,7.1,10.3l3.4,5.3c1.1,1.7,2.1,3.6,3.2,5.4"/>
			</g>
			<g>
				<path class="st1" d="M487.8,153.5l-2.7-6c-0.9-2-2-3.9-3-5.9l-3-5.9l-3.3-5.7"/>
				<path class="st1" d="M484.4,155l-2.7-6c-0.9-2-2-3.9-2.9-5.8l-3-5.8l-3.3-5.7"/>
				<path class="st1" d="M466.1,135.5l3.2,5.5l2.9,5.6c0.9,1.9,2,3.7,2.9,5.7l2.6,5.8"/>
				<path class="st1" d="M481,156.5l-2.7-5.9c-0.9-1.9-1.9-3.8-2.9-5.7l-2.9-5.7l-3.2-5.6"/>
				<path class="st1" d="M462.9,137.4l3.1,5.4l2.9,5.6c0.9,1.9,1.9,3.7,2.8,5.6l2.6,5.7"/>
			</g>
			<g>
				<path class="st1" d="M497.3,178.3l-2.1-6.3c-0.4-1-0.7-2.1-1.1-3.1l-1.2-3.1c-1.6-4.1-3.2-8.2-5.1-12.2"/>
				<path class="st1" d="M493.8,179.4l-2.1-6.2c-0.4-1-0.7-2.1-1.1-3.1l-1.2-3c-1.6-4-3.1-8.1-5-12.1"/>
				<path class="st1" d="M477.6,158.1c1.8,3.8,3.3,7.8,4.9,11.7l1.2,2.9c0.4,1,0.7,2,1,3l2,6"/>
				<path class="st1" d="M490.2,180.6l-2.1-6.1c-0.4-1-0.7-2-1.1-3l-1.2-3c-1.6-4-3.1-8-4.9-11.9"/>
				<path class="st1" d="M474.2,159.6c1.8,3.8,3.3,7.7,4.8,11.5l1.1,2.9c0.4,1,0.7,2,1,2.9l2,5.9"/>
			</g>
			<g>
				<path class="st1" d="M504.1,203.9l-1.5-6.5c-0.5-2.2-1-4.3-1.6-6.4l-1.8-6.4l-0.9-3.2l-1.1-3.1"/>
				<path class="st1" d="M500.5,204.6l-1.5-6.4c-0.5-2.1-0.9-4.3-1.6-6.3l-1.8-6.3l-0.9-3.1l-1-3.1"/>
				<path class="st1" d="M486.7,181.7l1,3l0.9,3l1.7,6.1c0.6,2,1.1,4.1,1.5,6.1l1.4,6.2"/>
				<path class="st1" d="M496.9,205.4l-1.4-6.3c-0.5-2.1-0.9-4.2-1.6-6.2l-1.8-6.2l-0.9-3.1l-1-3.1"/>
				<path class="st1" d="M483.2,182.8l1,3l0.9,3l1.7,6c0.6,2,1,4,1.5,6.1l1.4,6.1"/>
			</g>
			<g>
				<path class="st1" d="M508.3,230c-0.6-4.4-1.1-8.8-1.7-13.1l-1.2-6.5l-0.6-3.3l-0.3-1.6l-0.4-1.6"/>
				<path class="st1" d="M504.6,230.4c-0.6-4.3-1-8.6-1.7-12.9l-1.1-6.4l-0.6-3.2l-0.3-1.6l-0.4-1.6"/>
				<path class="st1" d="M493.3,206.2l0.4,1.5l0.3,1.6l0.6,3.1l1.1,6.2c0.6,4.2,1.1,8.4,1.6,12.6"/>
				<path class="st1" d="M500.9,230.8c-0.6-4.3-1-8.5-1.7-12.8l-1.1-6.3l-0.6-3.2l-0.3-1.6l-0.4-1.6"/>
				<path class="st1" d="M489.6,206.9l0.4,1.5l0.3,1.5l0.5,3.1l1.1,6.1c0.6,4.1,1.1,8.2,1.6,12.4"/>
			</g>
			<g>
				<path class="st1" d="M509.7,256.5l-0.3-13.2c-0.3-4.4-0.6-8.8-1-13.2"/>
				<path class="st1" d="M506,256.5l-0.3-13c-0.3-4.3-0.6-8.7-1-13"/>
				<path class="st1" d="M497.2,231.2c0.4,4.2,0.7,8.4,1,12.6l0.3,12.7"/>
				<path class="st1" d="M502.2,256.5l-0.3-12.9c-0.3-4.3-0.6-8.6-1-12.8"/>
				<path class="st1" d="M493.5,231.6c0.4,4.1,0.6,8.3,1,12.4l0.3,12.5"/>
			</g>
		</g>
	</g>
</g>
<g>
	<path class="st2" d="M426.5,265.4L426.5,265.4c11.2,16.1,7.2,38.2-8.9,49.4L241.1,437.6c-16.1,11.2-38.2,7.2-49.4-8.9l0,0
		c-11.2-16.1-7.2-38.2,8.9-49.4l176.6-122.8C393.2,245.3,415.4,249.3,426.5,265.4z"/>
	<g>
		<g>
			<g>
				<path class="st3" d="M445.3,290.4c0.6-5.6,0.1-11.4-1.3-16.9c-1.4-5.5-3.8-10.7-7.1-15.4"/>
				<path class="st3" d="M441.6,290.1c0.5-5.2,0.1-10.5-1.2-15.6c-1.3-5.1-3.5-10-6.5-14.2"/>
				<path class="st3" d="M427.8,264.5c5,7.1,7.3,16.1,6.5,24.9"/>
				<path class="st3" d="M437.9,289.8c0.4-4.8,0.1-9.7-1.1-14.3s-3.3-9.1-5.9-13.1"/>
				<path class="st3" d="M424.7,266.6c4.5,6.5,6.6,14.5,5.8,22.4"/>
			</g>
			<g>
				<path class="st3" d="M430.6,320.4c8.2-7.8,13.6-18.7,14.6-29.9"/>
				<path class="st3" d="M428.1,317.7c7.6-7.3,12.6-17.3,13.5-27.7"/>
				<path class="st3" d="M434.2,289.4c-0.8,8.7-4.9,17.1-11.3,23.1"/>
				<path class="st3" d="M425.5,315.1c7-6.6,11.5-15.8,12.5-25.3"/>
				<path class="st3" d="M430.6,289c-0.8,7.8-4.4,15.4-10.2,20.7"/>
			</g>
			<g>
				<path class="st3" d="M408.8,336.4l10.3-7.2l5.2-3.6l0.7-0.5l0.9-0.6l1.7-1.3c0.5-0.5,1.1-0.9,1.6-1.4l1.6-1.4"/>
				<path class="st3" d="M406.7,333.4l10.3-7.2l5.2-3.6l0.7-0.5l0.8-0.6l1.6-1.2c0.6-0.4,1.1-0.7,1.6-1.2l1.4-1.3"/>
				<path class="st3" d="M423,312.4l-1.2,1.1c-0.4,0.4-0.8,0.7-1.3,1c-0.9,0.6-1.7,1.3-2.6,1.9l-5.2,3.6l-10.3,7.2"/>
				<path class="st3" d="M404.5,330.3l10.3-7.2l5.2-3.6l0.7-0.5l0.7-0.5l1.4-1.1c0.5-0.3,1-0.7,1.4-1.1l1.3-1.3"/>
				<path class="st3" d="M420.4,309.7l-1.1,1c-0.4,0.4-0.8,0.7-1.2,0.9l-1.2,0.9l-0.6,0.4l-0.7,0.5l-5.2,3.6l-10.2,7.1"/>
			</g>
			<g>
				<line class="st3" x1="388.2" y1="350.7" x2="408.8" y2="336.4"/>
				<line class="st3" x1="386.1" y1="347.7" x2="406.7" y2="333.4"/>
				<line class="st3" x1="402.4" y1="327.2" x2="381.8" y2="341.5"/>
				<line class="st3" x1="383.9" y1="344.6" x2="404.5" y2="330.3"/>
				<line class="st3" x1="400.3" y1="324.2" x2="379.7" y2="338.5"/>
			</g>
			<g>
				<line class="st3" x1="367.5" y1="365.1" x2="388.2" y2="350.7"/>
				<line class="st3" x1="365.4" y1="362.1" x2="386.1" y2="347.7"/>
				<line class="st3" x1="381.8" y1="341.5" x2="361.1" y2="355.9"/>
				<line class="st3" x1="363.2" y1="359" x2="383.9" y2="344.6"/>
				<line class="st3" x1="379.7" y1="338.5" x2="359" y2="352.9"/>
			</g>
			<g>
				<line class="st3" x1="346.9" y1="379.5" x2="367.5" y2="365.1"/>
				<line class="st3" x1="344.8" y1="376.4" x2="365.4" y2="362.1"/>
				<line class="st3" x1="361.1" y1="355.9" x2="340.5" y2="370.3"/>
				<line class="st3" x1="342.6" y1="373.3" x2="363.2" y2="359"/>
				<line class="st3" x1="359" y1="352.9" x2="338.4" y2="367.2"/>
			</g>
			<g>
				<line class="st3" x1="326.3" y1="393.8" x2="346.9" y2="379.5"/>
				<line class="st3" x1="324.2" y1="390.7" x2="344.8" y2="376.4"/>
				<line class="st3" x1="340.5" y1="370.3" x2="319.9" y2="384.6"/>
				<line class="st3" x1="322" y1="387.6" x2="342.6" y2="373.3"/>
				<line class="st3" x1="338.4" y1="367.2" x2="317.8" y2="381.6"/>
			</g>
			<g>
				<line class="st3" x1="305.7" y1="408.1" x2="326.3" y2="393.8"/>
				<line class="st3" x1="303.6" y1="405.1" x2="324.2" y2="390.7"/>
				<line class="st3" x1="319.9" y1="384.6" x2="299.3" y2="398.9"/>
				<line class="st3" x1="301.4" y1="402" x2="322" y2="387.6"/>
				<line class="st3" x1="317.8" y1="381.6" x2="297.2" y2="395.9"/>
			</g>
			<g>
				<line class="st3" x1="285" y1="422.5" x2="305.7" y2="408.1"/>
				<line class="st3" x1="282.9" y1="419.5" x2="303.6" y2="405.1"/>
				<line class="st3" x1="299.3" y1="398.9" x2="278.6" y2="413.3"/>
				<line class="st3" x1="280.7" y1="416.3" x2="301.4" y2="402"/>
				<line class="st3" x1="297.2" y1="395.9" x2="276.5" y2="410.3"/>
			</g>
			<g>
				<line class="st3" x1="264.4" y1="436.8" x2="285" y2="422.5"/>
				<line class="st3" x1="262.3" y1="433.8" x2="282.9" y2="419.5"/>
				<line class="st3" x1="278.6" y1="413.3" x2="258" y2="427.6"/>
				<line class="st3" x1="260.1" y1="430.7" x2="280.7" y2="416.3"/>
				<line class="st3" x1="276.5" y1="410.3" x2="255.9" y2="424.6"/>
			</g>
			<g>
				<path class="st3" d="M241.8,451.7l1.9-1c0.6-0.3,1.2-0.7,1.8-1l1.8-1.1l0.9-0.6l0.7-0.5l5.2-3.6l10.3-7.2"/>
				<path class="st3" d="M240.3,448.4l1.7-0.8c0.5-0.3,1.1-0.7,1.7-1.1l1.7-1.1l0.8-0.6l0.7-0.5l5.2-3.6l10.3-7.2"/>
				<path class="st3" d="M258,427.6l-10.3,7.2l-5.2,3.6c-0.8,0.6-1.9,1.2-2.7,1.7c-0.4,0.3-0.9,0.6-1.4,0.8l-1.4,0.7"/>
				<path class="st3" d="M238.6,445.1l1.6-0.8c0.5-0.3,1-0.6,1.5-0.9l1.5-0.9l0.7-0.5l0.7-0.5l5.2-3.6l10.3-7.2"/>
				<path class="st3" d="M255.9,424.6l-10.3,7.2l-5.2,3.6c-0.4,0.3-0.8,0.6-1.2,0.9l-1.3,0.8c-0.4,0.3-0.8,0.6-1.3,0.8l-1.3,0.7"/>
			</g>
			<g>
				<path class="st3" d="M208.6,455c11,3,23,1.7,33.1-3.3"/>
				<path class="st3" d="M209.6,451.5c10.2,2.7,21.2,1.6,30.6-3"/>
				<path class="st3" d="M237,441.8c-7.8,3.8-17.1,4.8-25.5,2.5"/>
				<path class="st3" d="M210.6,447.9c9.3,2.5,19.5,1.4,28.1-2.9"/>
				<path class="st3" d="M235.4,438.4c-7.1,3.5-15.4,4.4-23,2.3"/>
			</g>
			<g>
				<path class="st3" d="M181.2,436c3.3,4.7,7.3,8.7,12,12c4.7,3.2,9.9,5.7,15.4,7.1"/>
				<path class="st3" d="M184.3,433.9c3,4.3,6.8,8,11.1,11c4.3,3,9.1,5.2,14.2,6.6"/>
				<path class="st3" d="M211.5,444.3c-8.4-2.2-16-7.5-21.1-14.7"/>
				<path class="st3" d="M187.4,431.7c2.7,3.9,6.2,7.4,10.2,10.1c4,2.7,8.3,4.8,13.1,6"/>
				<path class="st3" d="M212.4,440.7c-7.6-2-14.4-6.8-19-13.2"/>
			</g>
			<g>
				<path class="st3" d="M172.9,403.7c-0.6,5.6-0.1,11.4,1.3,16.9c1.4,5.5,3.8,10.7,7.1,15.4"/>
				<path class="st3" d="M176.6,404c-0.5,5.2-0.1,10.5,1.2,15.6s3.5,10,6.5,14.2"/>
				<path class="st3" d="M190.4,429.6c-5-7.1-7.3-16.1-6.5-24.9"/>
				<path class="st3" d="M180.3,404.3c-0.4,4.8-0.1,9.7,1.1,14.3c1.2,4.7,3.3,9.1,5.9,13.1"/>
				<path class="st3" d="M193.5,427.5c-4.5-6.5-6.6-14.5-5.8-22.4"/>
			</g>
			<g>
				<path class="st3" d="M187.6,373.7c-8.2,7.8-13.6,18.7-14.6,29.9"/>
				<path class="st3" d="M190.2,376.3c-7.6,7.3-12.6,17.3-13.5,27.7"/>
				<path class="st3" d="M184,404.7c0.8-8.7,4.9-17.1,11.3-23.1"/>
				<path class="st3" d="M192.7,379c-7,6.6-11.5,15.8-12.5,25.3"/>
				<path class="st3" d="M187.6,405.1c0.8-7.8,4.4-15.4,10.2-20.7"/>
			</g>
			<g>
				<path class="st3" d="M209.4,357.7l-10.3,7.2l-5.2,3.6l-0.7,0.5l-0.9,0.6l-1.7,1.3c-0.5,0.5-1.1,0.9-1.6,1.4l-1.6,1.4"/>
				<path class="st3" d="M211.5,360.7l-10.3,7.2l-5.2,3.6l-0.7,0.5l-0.8,0.6l-1.6,1.2c-0.6,0.4-1.1,0.7-1.6,1.2l-1.4,1.3"/>
				<path class="st3" d="M195.2,381.7l1.2-1.1c0.4-0.4,0.8-0.7,1.3-1c0.9-0.6,1.7-1.3,2.6-1.9l5.2-3.6l10.3-7.2"/>
				<path class="st3" d="M213.7,363.8l-10.3,7.2l-5.2,3.6l-0.7,0.5l-0.7,0.5l-1.4,1.1c-0.5,0.3-1,0.7-1.4,1.1l-1.3,1.3"/>
				<path class="st3" d="M197.8,384.4l1.1-1c0.4-0.4,0.8-0.7,1.2-0.9l1.2-0.9l0.6-0.4l0.7-0.5l5.2-3.6l10.3-7.2"/>
			</g>
			<g>
				<line class="st3" x1="230" y1="343.4" x2="209.4" y2="357.7"/>
				<line class="st3" x1="232.1" y1="346.4" x2="211.5" y2="360.7"/>
				<line class="st3" x1="215.8" y1="366.9" x2="236.4" y2="352.6"/>
				<line class="st3" x1="234.3" y1="349.5" x2="213.7" y2="363.8"/>
				<line class="st3" x1="217.9" y1="369.9" x2="238.5" y2="355.6"/>
			</g>
			<g>
				<line class="st3" x1="250.7" y1="329" x2="230" y2="343.4"/>
				<line class="st3" x1="252.8" y1="332" x2="232.1" y2="346.4"/>
				<line class="st3" x1="236.4" y1="352.6" x2="257.1" y2="338.2"/>
				<line class="st3" x1="255" y1="335.1" x2="234.3" y2="349.5"/>
				<line class="st3" x1="238.5" y1="355.6" x2="259.2" y2="341.2"/>
			</g>
			<g>
				<line class="st3" x1="271.3" y1="314.6" x2="250.7" y2="329"/>
				<line class="st3" x1="273.4" y1="317.7" x2="252.8" y2="332"/>
				<line class="st3" x1="257.1" y1="338.2" x2="277.7" y2="323.8"/>
				<line class="st3" x1="275.6" y1="320.8" x2="255" y2="335.1"/>
				<line class="st3" x1="259.2" y1="341.2" x2="279.8" y2="326.9"/>
			</g>
			<g>
				<line class="st3" x1="291.9" y1="300.3" x2="271.3" y2="314.6"/>
				<line class="st3" x1="294" y1="303.4" x2="273.4" y2="317.7"/>
				<line class="st3" x1="277.7" y1="323.8" x2="298.3" y2="309.5"/>
				<line class="st3" x1="296.2" y1="306.5" x2="275.6" y2="320.8"/>
				<line class="st3" x1="279.8" y1="326.9" x2="300.4" y2="312.5"/>
			</g>
			<g>
				<line class="st3" x1="312.5" y1="286" x2="291.9" y2="300.3"/>
				<line class="st3" x1="314.6" y1="289" x2="294" y2="303.4"/>
				<line class="st3" x1="298.3" y1="309.5" x2="318.9" y2="295.2"/>
				<line class="st3" x1="316.8" y1="292.1" x2="296.2" y2="306.5"/>
				<line class="st3" x1="300.4" y1="312.5" x2="321" y2="298.2"/>
			</g>
			<g>
				<line class="st3" x1="333.2" y1="271.6" x2="312.5" y2="286"/>
				<line class="st3" x1="335.3" y1="274.6" x2="314.6" y2="289"/>
				<line class="st3" x1="318.9" y1="295.2" x2="339.6" y2="280.8"/>
				<line class="st3" x1="337.5" y1="277.8" x2="316.8" y2="292.1"/>
				<line class="st3" x1="321" y1="298.2" x2="341.7" y2="283.8"/>
			</g>
			<g>
				<line class="st3" x1="353.8" y1="257.3" x2="333.2" y2="271.6"/>
				<line class="st3" x1="355.9" y1="260.3" x2="335.3" y2="274.6"/>
				<line class="st3" x1="339.6" y1="280.8" x2="360.2" y2="266.5"/>
				<line class="st3" x1="358.1" y1="263.4" x2="337.5" y2="277.8"/>
				<line class="st3" x1="341.7" y1="283.8" x2="362.3" y2="269.5"/>
			</g>
			<g>
				<path class="st3" d="M376.4,242.4l-1.9,1c-0.6,0.3-1.2,0.7-1.8,1l-1.8,1.1l-0.9,0.6l-0.7,0.5l-5.2,3.6l-10.3,7.1"/>
				<path class="st3" d="M378,245.7l-1.7,0.8c-0.5,0.3-1.1,0.7-1.7,1.1l-1.7,1.1l-0.8,0.6l-0.7,0.5l-5.2,3.6l-10.3,7.1"/>
				<path class="st3" d="M360.2,266.5l10.3-7.2l5.2-3.6c0.8-0.6,1.9-1.2,2.7-1.7c0.4-0.3,0.9-0.6,1.4-0.8l1.4-0.7"/>
				<path class="st3" d="M379.6,249l-1.6,0.8c-0.5,0.3-1,0.6-1.5,0.9l-1.5,0.9l-0.7,0.5l-0.7,0.5l-5.2,3.6l-10.3,7.1"/>
				<path class="st3" d="M362.3,269.5l10.3-7.2l5.2-3.6c0.4-0.3,0.8-0.6,1.2-0.9l1.3-0.8c0.4-0.3,0.8-0.6,1.3-0.8l1.3-0.7"/>
			</g>
			<g>
				<path class="st3" d="M409.6,239.1c-11-3-23-1.7-33.1,3.3"/>
				<path class="st3" d="M408.6,242.6c-10.2-2.7-21.2-1.6-30.6,3"/>
				<path class="st3" d="M381.2,252.3c7.8-3.8,17.1-4.8,25.5-2.5"/>
				<path class="st3" d="M407.6,246.2c-9.3-2.5-19.5-1.4-28.1,2.9"/>
				<path class="st3" d="M382.8,255.7c7.1-3.5,15.4-4.4,23-2.3"/>
			</g>
			<g>
				<path class="st3" d="M437,258.1c-3.3-4.7-7.3-8.7-12-12c-4.7-3.2-9.9-5.7-15.4-7.1"/>
				<path class="st3" d="M433.9,260.2c-3-4.3-6.8-8-11.1-11c-4.3-3-9.1-5.2-14.2-6.6"/>
				<path class="st3" d="M406.7,249.8c8.4,2.2,16,7.5,21.1,14.7"/>
				<path class="st3" d="M430.9,262.4c-2.7-3.9-6.2-7.4-10.2-10.1c-4-2.7-8.3-4.8-13.1-6"/>
				<path class="st3" d="M405.8,253.4c7.6,2,14.4,6.8,19,13.2"/>
			</g>
		</g>
	</g>
</g>
<g>
	<path class="st2" d="M191.6,89.1L191.6,89.1c11.5-15.9,33.7-19.5,49.6-8L415.6,207c15.9,11.5,19.5,33.7,8,49.6l0,0
		c-11.5,15.9-33.7,19.5-49.6,8L199.6,138.7C183.7,127.2,180.1,105,191.6,89.1z"/>
	<g>
		<g>
			<g>
				<path class="st3" d="M209,63.1c-5.5,1.3-10.8,3.7-15.5,6.8c-4.7,3.1-8.9,7.2-12.2,11.8"/>
				<path class="st3" d="M209.9,66.7c-5.1,1.3-10,3.4-14.3,6.3s-8.2,6.6-11.3,10.8"/>
				<path class="st3" d="M190.4,88.3c5.1-7.1,12.8-12.2,21.3-14.3"/>
				<path class="st3" d="M210.8,70.3c-4.7,1.2-9.2,3.1-13.2,5.8c-4,2.7-7.5,6.1-10.4,9.9"/>
				<path class="st3" d="M193.4,90.4c4.6-6.4,11.5-11,19.2-12.9"/>
			</g>
			<g>
				<path class="st3" d="M242.2,67.1c-10.1-5.2-22.1-6.6-33.1-3.9"/>
				<path class="st3" d="M240.6,70.3c-9.4-4.8-20.5-6.1-30.6-3.6"/>
				<path class="st3" d="M211.7,73.9c8.5-2.2,17.7-1,25.5,3"/>
				<path class="st3" d="M238.8,73.6c-8.5-4.4-18.7-5.6-28-3.3"/>
				<path class="st3" d="M212.6,77.5c7.6-1.9,16-0.9,22.9,2.7"/>
			</g>
			<g>
				<path class="st3" d="M264.5,82.3l-10.2-7.4l-5.1-3.7l-0.6-0.5l-0.9-0.6l-1.8-1.1c-0.6-0.3-1.2-0.7-1.8-1.1l-1.9-1"/>
				<path class="st3" d="M262.3,85.3l-10.2-7.4l-5.1-3.7l-0.6-0.5l-0.8-0.6l-1.7-1.1c-0.6-0.4-1.1-0.8-1.7-1.1l-1.7-0.9"/>
				<path class="st3" d="M237.2,76.9l1.4,0.8c0.5,0.2,1,0.6,1.4,0.9c0.9,0.6,1.8,1.2,2.7,1.8l5.1,3.7l10.2,7.4"/>
				<path class="st3" d="M260.1,88.4L249.9,81l-5.1-3.7l-0.6-0.5l-0.7-0.5l-1.5-1c-0.5-0.4-1-0.7-1.5-1l-1.6-0.8"/>
				<path class="st3" d="M235.5,80.2l1.3,0.7c0.5,0.2,0.9,0.5,1.3,0.8l1.3,0.8L240,83l0.6,0.5l5.1,3.7l10.2,7.4"/>
			</g>
			<g>
				<line class="st3" x1="284.8" y1="97" x2="264.5" y2="82.3"/>
				<line class="st3" x1="282.7" y1="100" x2="262.3" y2="85.3"/>
				<line class="st3" x1="257.9" y1="91.4" x2="278.3" y2="106.1"/>
				<line class="st3" x1="280.5" y1="103.1" x2="260.1" y2="88.4"/>
				<line class="st3" x1="255.8" y1="94.4" x2="276.1" y2="109.1"/>
			</g>
			<g>
				<line class="st3" x1="305.3" y1="111.7" x2="284.8" y2="97"/>
				<line class="st3" x1="303.1" y1="114.7" x2="282.7" y2="100"/>
				<line class="st3" x1="278.3" y1="106.1" x2="298.7" y2="120.8"/>
				<line class="st3" x1="300.9" y1="117.8" x2="280.5" y2="103.1"/>
				<line class="st3" x1="276.1" y1="109.1" x2="296.6" y2="123.8"/>
			</g>
			<g>
				<line class="st3" x1="325.6" y1="126.4" x2="305.3" y2="111.7"/>
				<line class="st3" x1="323.5" y1="129.4" x2="303.1" y2="114.7"/>
				<line class="st3" x1="298.7" y1="120.8" x2="319.1" y2="135.5"/>
				<line class="st3" x1="321.2" y1="132.5" x2="300.9" y2="117.8"/>
				<line class="st3" x1="296.6" y1="123.8" x2="316.9" y2="138.5"/>
			</g>
			<g>
				<line class="st3" x1="346" y1="141.1" x2="325.6" y2="126.4"/>
				<line class="st3" x1="343.8" y1="144.1" x2="323.5" y2="129.4"/>
				<line class="st3" x1="319.1" y1="135.5" x2="339.4" y2="150.2"/>
				<line class="st3" x1="341.6" y1="147.2" x2="321.2" y2="132.5"/>
				<line class="st3" x1="316.9" y1="138.5" x2="337.3" y2="153.2"/>
			</g>
			<g>
				<line class="st3" x1="366.3" y1="155.8" x2="346" y2="141.1"/>
				<line class="st3" x1="364.2" y1="158.8" x2="343.8" y2="144.1"/>
				<line class="st3" x1="339.4" y1="150.2" x2="359.8" y2="164.9"/>
				<line class="st3" x1="361.9" y1="161.9" x2="341.6" y2="147.2"/>
				<line class="st3" x1="337.3" y1="153.2" x2="357.6" y2="167.9"/>
			</g>
			<g>
				<line class="st3" x1="386.8" y1="170.6" x2="366.3" y2="155.8"/>
				<line class="st3" x1="384.6" y1="173.6" x2="364.2" y2="158.8"/>
				<line class="st3" x1="359.8" y1="164.9" x2="380.2" y2="179.6"/>
				<line class="st3" x1="382.4" y1="176.6" x2="361.9" y2="161.9"/>
				<line class="st3" x1="357.6" y1="167.9" x2="378.1" y2="182.6"/>
			</g>
			<g>
				<line class="st3" x1="407.1" y1="185.2" x2="386.8" y2="170.6"/>
				<line class="st3" x1="405" y1="188.2" x2="384.6" y2="173.6"/>
				<line class="st3" x1="380.2" y1="179.6" x2="400.6" y2="194.3"/>
				<line class="st3" x1="402.7" y1="191.3" x2="382.4" y2="176.6"/>
				<line class="st3" x1="378.1" y1="182.6" x2="398.4" y2="197.3"/>
			</g>
			<g>
				<path class="st3" d="M428.6,201.6l-1.5-1.5c-0.5-0.5-1.1-0.9-1.6-1.4l-1.6-1.3l-0.9-0.6l-0.6-0.5l-5.1-3.7l-10.2-7.4"/>
				<path class="st3" d="M426.1,204.2l-1.4-1.4c-0.4-0.4-1-0.8-1.6-1.3l-1.6-1.3l-0.8-0.6l-0.6-0.5l-5.1-3.7l-10.2-7.4"/>
				<path class="st3" d="M400.6,194.3l10.1,7.3l5.1,3.7c0.8,0.6,1.7,1.4,2.5,2c0.4,0.3,0.9,0.6,1.2,1l1.2,1.1"/>
				<path class="st3" d="M423.4,206.9l-1.3-1.3c-0.4-0.4-0.9-0.8-1.4-1.1l-1.4-1.1l-0.7-0.5l-0.6-0.5l-5.1-3.7l-10.2-7.4"/>
				<path class="st3" d="M398.4,197.3l10.1,7.3l5.1,3.7c0.4,0.3,0.8,0.6,1.2,0.9l1.2,1c0.4,0.3,0.8,0.6,1.2,1l1.1,1"/>
			</g>
			<g>
				<path class="st3" d="M442.8,231.8c-0.8-11.3-6-22.2-14.1-30.2"/>
				<path class="st3" d="M439.1,232.1c-0.8-10.5-5.5-20.5-13-27.9"/>
				<path class="st3" d="M420.8,209.5c6.2,6.1,10.2,14.5,10.8,23.2"/>
				<path class="st3" d="M435.4,232.4c-0.7-9.6-5.1-18.9-12-25.6"/>
				<path class="st3" d="M418.2,212.1c5.6,5.5,9.2,13.1,9.8,20.9"/>
			</g>
			<g>
				<path class="st3" d="M433.9,264c3.3-4.6,5.8-9.7,7.3-15.3c1.5-5.5,2.1-11.2,1.6-16.9"/>
				<path class="st3" d="M430.9,261.8c3-4.2,5.3-9.1,6.7-14.1c1.4-5,1.9-10.3,1.5-15.6"/>
				<path class="st3" d="M431.7,232.7c0.8,8.7-1.7,17.6-6.9,24.8"/>
				<path class="st3" d="M427.9,259.7c2.8-3.9,4.9-8.3,6.1-13c1.3-4.6,1.8-9.5,1.3-14.3"/>
				<path class="st3" d="M428,233c0.6,7.8-1.6,15.9-6.2,22.3"/>
			</g>
			<g>
				<path class="st3" d="M406.2,282.6c5.5-1.3,10.8-3.7,15.5-6.8c4.7-3.1,8.9-7.2,12.2-11.8"/>
				<path class="st3" d="M405.3,279c5.1-1.3,10-3.4,14.3-6.3c4.3-2.9,8.2-6.6,11.3-10.8"/>
				<path class="st3" d="M424.8,257.5c-5.1,7.1-12.8,12.2-21.3,14.3"/>
				<path class="st3" d="M404.4,275.4c4.7-1.2,9.2-3.1,13.2-5.8c4-2.7,7.5-6.1,10.4-9.9"/>
				<path class="st3" d="M421.8,255.3c-4.6,6.4-11.5,11-19.2,12.9"/>
			</g>
			<g>
				<path class="st3" d="M373,278.6c10.1,5.2,22.1,6.6,33.1,3.9"/>
				<path class="st3" d="M374.7,275.4c9.4,4.8,20.5,6.1,30.6,3.6"/>
				<path class="st3" d="M403.5,271.8c-8.5,2.2-17.7,1-25.5-3"/>
				<path class="st3" d="M376.4,272.1c8.5,4.4,18.7,5.6,28,3.3"/>
				<path class="st3" d="M402.6,268.2c-7.6,1.9-16,0.9-22.9-2.7"/>
			</g>
			<g>
				<path class="st3" d="M350.7,263.4l10.1,7.3l5.1,3.7l0.6,0.5l0.9,0.6l1.8,1.1c0.6,0.3,1.2,0.7,1.8,1.1l1.9,1"/>
				<path class="st3" d="M352.9,260.4l10.1,7.3l5.1,3.7l0.6,0.5l0.8,0.6l1.7,1.1c0.6,0.4,1.1,0.8,1.7,1.1l1.7,0.9"/>
				<path class="st3" d="M378,268.8l-1.4-0.8c-0.5-0.2-1-0.6-1.4-0.9c-0.9-0.6-1.8-1.2-2.7-1.8l-5.1-3.7l-10.2-7.4"/>
				<path class="st3" d="M355.1,257.3l10.1,7.3l5.1,3.7l0.6,0.5l0.7,0.5l1.5,1c0.5,0.4,1,0.7,1.5,1l1.6,0.8"/>
				<path class="st3" d="M379.7,265.5l-1.3-0.7c-0.5-0.2-0.9-0.5-1.3-0.8l-1.3-0.8l-0.6-0.4l-0.6-0.5l-5.1-3.7l-10.2-7.4"/>
			</g>
			<g>
				<line class="st3" x1="330.4" y1="248.7" x2="350.7" y2="263.4"/>
				<line class="st3" x1="332.5" y1="245.7" x2="352.9" y2="260.4"/>
				<line class="st3" x1="357.3" y1="254.3" x2="336.9" y2="239.6"/>
				<line class="st3" x1="334.7" y1="242.6" x2="355.1" y2="257.3"/>
				<line class="st3" x1="359.4" y1="251.3" x2="339.1" y2="236.6"/>
			</g>
			<g>
				<line class="st3" x1="309.9" y1="234" x2="330.4" y2="248.7"/>
				<line class="st3" x1="312.1" y1="231" x2="332.5" y2="245.7"/>
				<line class="st3" x1="336.9" y1="239.6" x2="316.5" y2="224.9"/>
				<line class="st3" x1="314.3" y1="227.9" x2="334.7" y2="242.6"/>
				<line class="st3" x1="339.1" y1="236.6" x2="318.6" y2="221.9"/>
			</g>
			<g>
				<line class="st3" x1="289.6" y1="219.3" x2="309.9" y2="234"/>
				<line class="st3" x1="291.7" y1="216.3" x2="312.1" y2="231"/>
				<line class="st3" x1="316.5" y1="224.9" x2="296.1" y2="210.2"/>
				<line class="st3" x1="294" y1="213.2" x2="314.3" y2="227.9"/>
				<line class="st3" x1="318.6" y1="221.9" x2="298.3" y2="207.2"/>
			</g>
			<g>
				<line class="st3" x1="269.2" y1="204.6" x2="289.6" y2="219.3"/>
				<line class="st3" x1="271.4" y1="201.6" x2="291.7" y2="216.3"/>
				<line class="st3" x1="296.1" y1="210.2" x2="275.8" y2="195.5"/>
				<line class="st3" x1="273.6" y1="198.5" x2="294" y2="213.2"/>
				<line class="st3" x1="298.3" y1="207.2" x2="277.9" y2="192.5"/>
			</g>
			<g>
				<line class="st3" x1="248.9" y1="189.9" x2="269.2" y2="204.6"/>
				<line class="st3" x1="251" y1="186.9" x2="271.4" y2="201.6"/>
				<line class="st3" x1="275.8" y1="195.5" x2="255.4" y2="180.8"/>
				<line class="st3" x1="253.3" y1="183.8" x2="273.6" y2="198.5"/>
				<line class="st3" x1="277.9" y1="192.5" x2="257.6" y2="177.8"/>
			</g>
			<g>
				<line class="st3" x1="228.4" y1="175.2" x2="248.9" y2="189.9"/>
				<line class="st3" x1="230.6" y1="172.2" x2="251" y2="186.9"/>
				<line class="st3" x1="255.4" y1="180.8" x2="235" y2="166.1"/>
				<line class="st3" x1="232.8" y1="169.1" x2="253.3" y2="183.8"/>
				<line class="st3" x1="257.6" y1="177.8" x2="237.1" y2="163.1"/>
			</g>
			<g>
				<line class="st3" x1="208.1" y1="160.5" x2="228.4" y2="175.2"/>
				<line class="st3" x1="210.2" y1="157.5" x2="230.6" y2="172.2"/>
				<line class="st3" x1="235" y1="166.1" x2="214.6" y2="151.4"/>
				<line class="st3" x1="212.5" y1="154.4" x2="232.8" y2="169.1"/>
				<line class="st3" x1="237.1" y1="163.1" x2="216.8" y2="148.4"/>
			</g>
			<g>
				<path class="st3" d="M186.6,144.1l1.5,1.5c0.5,0.5,1.1,0.9,1.6,1.4l1.6,1.3l0.9,0.6l0.6,0.5l5.1,3.7l10.2,7.4"/>
				<path class="st3" d="M189.2,141.5l1.4,1.4c0.4,0.4,1,0.8,1.6,1.3l1.6,1.3l0.8,0.6l0.6,0.5l5.1,3.7l10.2,7.4"/>
				<path class="st3" d="M214.6,151.4l-10.2-7.4l-5.1-3.7c-0.8-0.6-1.7-1.4-2.5-2c-0.4-0.3-0.9-0.6-1.2-1l-1.2-1.1"/>
				<path class="st3" d="M191.8,138.8l1.3,1.3c0.4,0.4,0.9,0.8,1.4,1.1l1.4,1.1l0.7,0.5l0.6,0.5l5.1,3.7l10.2,7.4"/>
				<path class="st3" d="M216.8,148.4l-10.2-7.4l-5.1-3.7c-0.4-0.3-0.8-0.6-1.2-0.9l-1.2-1c-0.4-0.3-0.8-0.6-1.2-1l-1.1-1"/>
			</g>
			<g>
				<path class="st3" d="M172.4,113.9c0.8,11.3,6,22.2,14.1,30.2"/>
				<path class="st3" d="M176.1,113.6c0.8,10.5,5.5,20.5,13,27.9"/>
				<path class="st3" d="M194.4,136.3c-6.2-6.1-10.2-14.5-10.8-23.2"/>
				<path class="st3" d="M179.8,113.3c0.7,9.6,5.1,18.9,12,25.6"/>
				<path class="st3" d="M197,133.6c-5.6-5.5-9.2-13.1-9.8-20.9"/>
			</g>
			<g>
				<path class="st3" d="M181.3,81.7c-3.3,4.6-5.8,9.7-7.3,15.3c-1.5,5.5-2.1,11.2-1.6,16.9"/>
				<path class="st3" d="M184.3,83.9c-3,4.2-5.3,9.1-6.7,14.1s-1.9,10.3-1.5,15.6"/>
				<path class="st3" d="M183.5,113c-0.8-8.7,1.7-17.6,6.9-24.8"/>
				<path class="st3" d="M187.4,86.1c-2.8,3.9-4.9,8.3-6.1,13c-1.3,4.6-1.8,9.5-1.3,14.3"/>
				<path class="st3" d="M187.2,112.7c-0.6-7.8,1.6-15.9,6.2-22.3"/>
			</g>
		</g>
	</g>
</g>
</svg>
