<?xml version="1.0" encoding="utf-8"?>
<!-- Generator: Adobe Illustrator 22.0.0, SVG Export Plug-In . SVG Version: 6.00 Build 0)  -->
<svg version="1.1" id="Layer_1" xmlns="http://www.w3.org/2000/svg" xmlns:xlink="http://www.w3.org/1999/xlink" x="0px" y="0px"
	 viewBox="0 0 512 512" style="enable-background:new 0 0 512 512;" xml:space="preserve">
<style type="text/css">
	.st0{fill:#600094;}
	.st1{fill:none;stroke:#6F6F6F;}
	.st2{fill:#FF0AAF;}
	.st3{fill:none;}
	.st4{fill:none;stroke:#FF60CB;}
	.st5{fill:none;stroke:#FF60CB;stroke-linecap:round;}
</style>
<g>
	<circle class="st0" cx="257" cy="256.3" r="240.5"/>
	<g>
		<g>
			<g>
				<path class="st1" d="M5.2,229.8c-0.4,4.4-0.7,8.8-1,13.2l-0.3,13.2"/>
				<path class="st1" d="M8.9,230.1c-0.4,4.3-0.7,8.7-1,13l-0.3,13"/>
				<path class="st1" d="M15,256.3l0.3-12.7c0.3-4.2,0.6-8.4,1-12.6"/>
				<path class="st1" d="M12.6,230.5c-0.4,4.3-0.7,8.6-1,12.8l-0.3,12.9"/>
				<path class="st1" d="M18.7,256.3l0.3-12.5c0.3-4.1,0.6-8.3,1-12.4"/>
			</g>
			<g>
				<path class="st1" d="M9.4,203.6L9,205.3l-0.3,1.6l-0.6,3.3l-1.2,6.5c-0.7,4.4-1.1,8.8-1.7,13.1"/>
				<path class="st1" d="M13,204.4l-0.4,1.6l-0.3,1.6l-0.6,3.2l-1.1,6.4c-0.7,4.3-1.1,8.6-1.7,12.9"/>
				<path class="st1" d="M16.3,231c0.6-4.2,1-8.4,1.6-12.6l1.1-6.2l0.6-3.1l0.3-1.6l0.4-1.5"/>
				<path class="st1" d="M16.6,205.1l-0.4,1.6l-0.3,1.6l-0.6,3.2l-1.1,6.3c-0.6,4.2-1.1,8.5-1.7,12.8"/>
				<path class="st1" d="M20,231.4c0.5-4.1,1-8.3,1.6-12.4l1.1-6.1l0.5-3.1l0.3-1.5l0.4-1.5"/>
			</g>
			<g>
				<path class="st1" d="M16.2,178l-1.1,3.1l-0.9,3.2l-1.8,6.4c-0.6,2.1-1.1,4.3-1.6,6.4l-1.5,6.5"/>
				<path class="st1" d="M19.7,179.1l-1,3.1l-0.9,3.1l-1.8,6.3c-0.6,2.1-1.1,4.2-1.6,6.3l-1.5,6.4"/>
				<path class="st1" d="M20.2,206l1.4-6.2c0.5-2.1,0.9-4.1,1.5-6.1l1.7-6.1l0.9-3l1-3"/>
				<path class="st1" d="M23.3,180.4l-1,3.1l-0.9,3.1l-1.8,6.2c-0.6,2.1-1.1,4.2-1.6,6.2l-1.4,6.3"/>
				<path class="st1" d="M23.9,206.6l1.4-6.1c0.5-2,0.9-4.1,1.5-6.1l1.7-6l0.9-3l1-3"/>
			</g>
			<g>
				<path class="st1" d="M25.7,153.3c-1.9,4-3.5,8.1-5.1,12.2l-1.2,3.1c-0.4,1-0.7,2.1-1.1,3.1l-2.1,6.3"/>
				<path class="st1" d="M29.1,154.8c-1.9,3.9-3.4,8-5,12.1l-1.2,3c-0.4,1-0.7,2.1-1.1,3.1l-2.1,6.2"/>
				<path class="st1" d="M26.8,181.5l2-6c0.4-1,0.6-2,1-3l1.2-2.9c1.6-3.9,3-7.9,4.9-11.7"/>
				<path class="st1" d="M32.5,156.3c-1.8,3.9-3.4,7.9-4.9,11.9l-1.2,3c-0.4,1-0.7,2-1.1,3l-2.1,6.1"/>
				<path class="st1" d="M30.3,182.5l2-5.9c0.3-1,0.6-2,1-2.9l1.1-2.9c1.5-3.9,3-7.8,4.8-11.5"/>
			</g>
			<g>
				<path class="st1" d="M37.8,129.6l-3.3,5.7l-3,5.9c-1,2-2,3.9-3,5.9l-2.7,6"/>
				<path class="st1" d="M41,131.5l-3.3,5.7l-3,5.8c-1,1.9-2,3.9-2.9,5.8l-2.7,6"/>
				<path class="st1" d="M35.9,157.9l2.6-5.8c0.9-1.9,1.9-3.8,2.9-5.7l2.9-5.6l3.2-5.5"/>
				<path class="st1" d="M44.2,133.4L41,139l-2.9,5.7c-1,1.9-2,3.8-2.9,5.7l-2.7,5.9"/>
				<path class="st1" d="M39.3,159.4l2.6-5.7c0.9-1.9,1.9-3.7,2.8-5.6l2.9-5.6l3.1-5.4"/>
			</g>
			<g>
				<path class="st1" d="M52.2,107.5c-2.5,3.6-5.2,7.1-7.5,10.9l-3.6,5.6c-1.2,1.9-2.2,3.8-3.4,5.7"/>
				<path class="st1" d="M55.2,109.7c-2.5,3.6-5.1,7-7.4,10.8l-3.5,5.5c-1.2,1.8-2.2,3.8-3.3,5.6"/>
				<path class="st1" d="M47.4,135.3c1.1-1.8,2.1-3.7,3.2-5.5l3.4-5.3c2.2-3.6,4.7-7,7.2-10.4"/>
				<path class="st1" d="M58.2,111.9c-2.5,3.5-5,6.9-7.3,10.6l-3.5,5.4c-1.2,1.8-2.2,3.7-3.3,5.5"/>
				<path class="st1" d="M50.6,137.1c1.1-1.8,2-3.6,3.2-5.4l3.4-5.3c2.2-3.6,4.7-6.9,7.1-10.3"/>
			</g>
			<g>
				<path class="st1" d="M68.9,86.9l-4.3,5c-1.4,1.7-2.9,3.3-4.3,5.1l-4.1,5.2l-2,2.6l-1.9,2.7"/>
				<path class="st1" d="M71.6,89.4l-4.3,4.9c-1.4,1.7-2.9,3.3-4.2,5l-4,5.1l-2,2.6l-1.9,2.7"/>
				<path class="st1" d="M61.2,114l1.8-2.6l2-2.5l3.9-5c1.3-1.7,2.7-3.3,4.1-4.9l4.1-4.8"/>
				<path class="st1" d="M74.4,91.9l-4.2,4.9c-1.4,1.6-2.8,3.2-4.1,4.9l-4,5.1l-2,2.5l-1.9,2.6"/>
				<path class="st1" d="M64.2,116.2l1.8-2.5l1.9-2.5l3.9-4.9c1.3-1.7,2.7-3.2,4-4.8l4.1-4.7"/>
			</g>
			<g>
				<path class="st1" d="M87.6,68.2c-3.3,3-6.4,6.1-9.6,9.1c-3,3.2-6.1,6.4-9.1,9.6"/>
				<path class="st1" d="M90.1,70.9c-3.2,2.9-6.3,6-9.5,9c-3,3.2-6,6.3-9,9.5"/>
				<path class="st1" d="M77.1,94.4c2.8-3.1,5.8-6.1,8.7-9.2c3.1-2.9,6.1-5.9,9.2-8.7"/>
				<path class="st1" d="M92.6,73.7c-3.2,2.9-6.2,5.9-9.3,8.8c-2.9,3.1-6,6.2-8.8,9.3"/>
				<path class="st1" d="M79.9,96.8c2.8-3.1,5.7-6,8.6-9.1c3-2.9,6-5.8,9.1-8.6"/>
			</g>
			<g>
				<path class="st1" d="M108.2,51.5l-2.7,1.9l-2.6,2l-5.2,4.1c-1.8,1.3-3.4,2.8-5.1,4.3l-5,4.3"/>
				<path class="st1" d="M110.4,54.5l-2.7,1.9l-2.6,2l-5.1,4c-1.7,1.3-3.3,2.8-5,4.2l-4.9,4.3"/>
				<path class="st1" d="M95.1,76.4l4.8-4.1c1.6-1.4,3.2-2.8,4.9-4.1l5-3.9l2.5-2l2.6-1.8"/>
				<path class="st1" d="M112.6,57.5l-2.6,1.9l-2.5,2l-5.1,4c-1.7,1.3-3.3,2.7-4.9,4.1l-4.9,4.2"/>
				<path class="st1" d="M97.5,79.2l4.7-4.1c1.6-1.4,3.1-2.8,4.8-4l4.9-3.9l2.5-1.9l2.5-1.8"/>
			</g>
			<g>
				<path class="st1" d="M130.4,37c-1.9,1.1-3.9,2.2-5.7,3.4l-5.6,3.6c-3.8,2.3-7.3,5-10.9,7.5"/>
				<path class="st1" d="M132.3,40.3c-1.9,1.1-3.8,2.1-5.6,3.3l-5.5,3.5c-3.7,2.3-7.2,4.9-10.8,7.4"/>
				<path class="st1" d="M114.8,60.5c3.5-2.4,6.8-5,10.4-7.2l5.3-3.4c1.8-1.1,3.6-2.1,5.5-3.2"/>
				<path class="st1" d="M134.1,43.5c-1.8,1.1-3.7,2.1-5.5,3.3l-5.4,3.5c-3.7,2.2-7.1,4.8-10.6,7.3"/>
				<path class="st1" d="M116.9,63.5c3.4-2.4,6.7-4.9,10.3-7.1l5.3-3.4c1.7-1.1,3.6-2.1,5.4-3.2"/>
			</g>
			<g>
				<path class="st1" d="M154,25l-6,2.7c-2,0.9-3.9,2-5.9,3l-5.9,3l-5.7,3.3"/>
				<path class="st1" d="M155.5,28.4l-6,2.7c-2,0.9-3.9,2-5.8,2.9l-5.8,3l-5.7,3.3"/>
				<path class="st1" d="M136,46.7l5.5-3.2l5.6-2.9c1.9-0.9,3.7-2,5.7-2.9l5.8-2.6"/>
				<path class="st1" d="M157,31.8l-5.9,2.7c-1.9,0.9-3.8,1.9-5.7,2.9l-5.7,2.9l-5.6,3.2"/>
				<path class="st1" d="M137.9,49.9l5.4-3.1l5.6-2.9c1.9-0.9,3.7-1.9,5.6-2.8l5.7-2.6"/>
			</g>
			<g>
				<path class="st1" d="M178.8,15.5l-6.3,2.1c-1,0.4-2.1,0.7-3.1,1.1l-3.1,1.2c-4.1,1.6-8.2,3.2-12.2,5.1"/>
				<path class="st1" d="M179.9,19l-6.2,2.1c-1,0.4-2.1,0.7-3.1,1.1l-3,1.2c-4,1.6-8.1,3.1-12.1,5"/>
				<path class="st1" d="M158.6,35.2c3.8-1.8,7.8-3.3,11.7-4.9l2.9-1.2c1-0.4,2-0.7,3-1l6-2"/>
				<path class="st1" d="M181.1,22.5l-6.1,2.1c-1,0.4-2,0.7-3,1.1l-3,1.2c-4,1.6-8,3.1-11.9,4.9"/>
				<path class="st1" d="M160.1,38.5c3.8-1.8,7.7-3.3,11.5-4.8l2.9-1.1c1-0.4,2-0.7,2.9-1l5.9-2"/>
			</g>
			<g>
				<path class="st1" d="M204.4,8.7l-6.5,1.5c-2.2,0.5-4.3,1-6.4,1.6l-6.4,1.8l-3.2,0.9l-3.1,1.1"/>
				<path class="st1" d="M205.1,12.3l-6.4,1.5c-2.1,0.5-4.3,0.9-6.3,1.6l-6.3,1.8L183,18l-3.1,1"/>
				<path class="st1" d="M182.2,26l3-1l3-0.9l6.1-1.7c2-0.6,4.1-1.1,6.1-1.5l6.2-1.4"/>
				<path class="st1" d="M205.9,15.9l-6.3,1.4c-2.1,0.5-4.2,0.9-6.2,1.6l-6.2,1.8l-3.1,0.9l-3.1,1"/>
				<path class="st1" d="M183.3,29.5l3-1l3-0.9l6-1.7c2-0.6,4-1,6.1-1.5l6.1-1.4"/>
			</g>
			<g>
				<path class="st1" d="M230.5,4.5c-4.4,0.6-8.8,1.1-13.1,1.7l-6.5,1.2L207.6,8L206,8.3l-1.6,0.4"/>
				<path class="st1" d="M230.9,8.2c-4.3,0.6-8.6,1-12.9,1.7l-6.4,1.1l-3.2,0.6l-1.6,0.3l-1.6,0.4"/>
				<path class="st1" d="M206.7,19.5l1.5-0.4l1.6-0.3l3.1-0.6l6.2-1.1c4.2-0.6,8.4-1.1,12.6-1.6"/>
				<path class="st1" d="M231.3,11.9c-4.3,0.6-8.5,1-12.8,1.7l-6.3,1.1l-3.2,0.6l-1.6,0.3l-1.6,0.4"/>
				<path class="st1" d="M207.4,23.2l1.5-0.4l1.5-0.3l3.1-0.5l6.1-1.1c4.1-0.6,8.2-1.1,12.4-1.6"/>
			</g>
			<g>
				<path class="st1" d="M257,3l-13.2,0.3c-4.4,0.3-8.8,0.6-13.2,1"/>
				<path class="st1" d="M257,6.8L244,7c-4.3,0.3-8.7,0.6-13,1"/>
				<path class="st1" d="M231.7,15.5c4.2-0.4,8.4-0.7,12.6-1l12.7-0.3"/>
				<path class="st1" d="M257,10.5l-12.9,0.3c-4.3,0.3-8.6,0.6-12.8,1"/>
				<path class="st1" d="M232.1,19.3c4.1-0.4,8.3-0.6,12.4-1L257,18"/>
			</g>
			<g>
				<path class="st1" d="M283.5,4.5c-4.4-0.4-8.8-0.7-13.2-1l-13.2-0.3"/>
				<path class="st1" d="M283.1,8.2c-4.3-0.4-8.7-0.7-13-1l-13-0.3"/>
				<path class="st1" d="M257,14.3l12.7,0.3c4.2,0.3,8.4,0.6,12.6,1"/>
				<path class="st1" d="M282.7,11.9c-4.3-0.4-8.6-0.7-12.8-1L257,10.6"/>
				<path class="st1" d="M257,18l12.5,0.3c4.1,0.3,8.3,0.6,12.4,1"/>
			</g>
			<g>
				<path class="st1" d="M309.6,8.7L308,8.3L306.4,8l-3.3-0.6l-6.5-1.2c-4.4-0.7-8.8-1.1-13.1-1.7"/>
				<path class="st1" d="M308.9,12.3l-1.6-0.4l-1.6-0.3l-3.2-0.6l-6.4-1.1c-4.3-0.7-8.6-1.1-12.9-1.7"/>
				<path class="st1" d="M282.3,15.5c4.2,0.6,8.4,1,12.6,1.6l6.2,1.1l3.1,0.6l1.6,0.3l1.5,0.4"/>
				<path class="st1" d="M308.1,15.9l-1.6-0.4l-1.6-0.3l-3.2-0.6l-6.3-1.1c-4.2-0.6-8.5-1.1-12.8-1.7"/>
				<path class="st1" d="M281.9,19.3c4.1,0.5,8.3,1,12.4,1.6l6.1,1.1l3.1,0.5l1.5,0.3l1.5,0.4"/>
			</g>
			<g>
				<path class="st1" d="M335.2,15.5l-3.1-1.1l-3.2-0.9l-6.4-1.8c-2.1-0.6-4.3-1.1-6.4-1.6l-6.5-1.5"/>
				<path class="st1" d="M334.1,19l-3.1-1l-3.1-0.9l-6.3-1.8c-2.1-0.6-4.2-1.1-6.3-1.6l-6.4-1.5"/>
				<path class="st1" d="M307.3,19.5l6.2,1.4c2.1,0.5,4.1,0.9,6.1,1.5l6.1,1.7l3,0.9l3,1"/>
				<path class="st1" d="M332.9,22.5l-3.1-1l-3.1-0.9l-6.2-1.8c-2.1-0.6-4.2-1.1-6.2-1.6l-6.3-1.4"/>
				<path class="st1" d="M306.6,23.2l6.1,1.4c2,0.5,4.1,0.9,6.1,1.5l6,1.7l3,0.9l3,1"/>
			</g>
			<g>
				<path class="st1" d="M360,25c-4-1.9-8.1-3.5-12.2-5.1l-3.1-1.2c-1-0.4-2.1-0.7-3.1-1.1l-6.3-2.1"/>
				<path class="st1" d="M358.5,28.4c-3.9-1.9-8-3.4-12.1-5l-3-1.2c-1-0.4-2.1-0.7-3.1-1.1l-6.2-2.1"/>
				<path class="st1" d="M331.8,26l6,2c1,0.4,2,0.6,3,1l2.9,1.2c3.9,1.6,7.9,3,11.7,4.9"/>
				<path class="st1" d="M357,31.8c-3.9-1.8-7.9-3.4-11.9-4.9l-3-1.2c-1-0.4-2-0.7-3-1.1l-6.1-2.1"/>
				<path class="st1" d="M330.7,29.5l5.9,2c1,0.3,2,0.6,2.9,1l2.9,1.1c3.9,1.5,7.8,3,11.5,4.8"/>
			</g>
			<g>
				<path class="st1" d="M383.6,37l-5.7-3.3l-5.9-3c-2-1-3.9-2-5.9-3l-6-2.7"/>
				<path class="st1" d="M381.7,40.3L376,37l-5.8-3c-1.9-1-3.9-2-5.8-2.9l-6-2.7"/>
				<path class="st1" d="M355.4,35.2l5.8,2.6c1.9,0.9,3.8,1.9,5.7,2.9l5.6,2.9l5.5,3.2"/>
				<path class="st1" d="M379.9,43.5l-5.6-3.2l-5.7-2.9c-1.9-1-3.8-2-5.7-2.9l-5.9-2.7"/>
				<path class="st1" d="M353.9,38.5l5.7,2.6c1.9,0.9,3.7,1.9,5.6,2.8l5.6,2.9l5.4,3.1"/>
			</g>
			<g>
				<path class="st1" d="M405.8,51.5c-3.6-2.5-7.1-5.2-10.9-7.5l-5.6-3.6c-1.9-1.2-3.8-2.2-5.7-3.4"/>
				<path class="st1" d="M403.6,54.5c-3.6-2.5-7-5.1-10.8-7.4l-5.5-3.5c-1.8-1.2-3.8-2.2-5.6-3.3"/>
				<path class="st1" d="M378,46.7c1.8,1.1,3.7,2.1,5.5,3.2l5.3,3.4c3.6,2.2,7,4.7,10.4,7.2"/>
				<path class="st1" d="M401.4,57.5c-3.5-2.5-6.9-5-10.6-7.3l-5.4-3.5c-1.8-1.2-3.7-2.2-5.5-3.3"/>
				<path class="st1" d="M376.1,49.9c1.8,1.1,3.6,2,5.4,3.2l5.3,3.4c3.6,2.2,6.9,4.7,10.3,7.1"/>
			</g>
			<g>
				<path class="st1" d="M426.4,68.2l-5-4.3c-1.7-1.4-3.3-2.9-5.1-4.3l-5.2-4.1l-2.6-2l-2.7-1.9"/>
				<path class="st1" d="M423.9,70.9l-4.9-4.3c-1.7-1.4-3.3-2.9-5-4.2l-5.1-4l-2.6-2l-2.7-1.9"/>
				<path class="st1" d="M399.2,60.5l2.6,1.8l2.5,2l5,3.9c1.7,1.3,3.3,2.7,4.9,4.1l4.8,4.1"/>
				<path class="st1" d="M421.4,73.7l-4.9-4.2c-1.6-1.4-3.2-2.8-4.9-4.1l-5.1-4l-2.5-2l-2.6-1.9"/>
				<path class="st1" d="M397.1,63.5l2.5,1.8l2.5,1.9L407,71c1.7,1.3,3.2,2.7,4.8,4l4.7,4.1"/>
			</g>
			<g>
				<path class="st1" d="M445.1,86.9c-3-3.3-6.1-6.4-9.1-9.6c-3.2-3-6.4-6.1-9.6-9.1"/>
				<path class="st1" d="M442.4,89.4c-2.9-3.2-6-6.3-9-9.5c-3.2-3-6.3-6-9.5-9"/>
				<path class="st1" d="M418.9,76.4c3.1,2.8,6.1,5.8,9.2,8.7c2.9,3.1,5.9,6.1,8.7,9.2"/>
				<path class="st1" d="M439.6,91.9c-2.9-3.2-5.9-6.2-8.8-9.3c-3.1-2.9-6.2-6-9.3-8.8"/>
				<path class="st1" d="M416.5,79.2c3.1,2.8,6,5.7,9.1,8.6c2.9,3,5.8,6,8.6,9.1"/>
			</g>
			<g>
				<path class="st1" d="M461.8,107.5l-1.9-2.7l-2-2.6l-4.1-5.2c-1.3-1.8-2.8-3.4-4.3-5.1l-4.3-5"/>
				<path class="st1" d="M458.8,109.7l-1.9-2.7l-2-2.6l-4-5.1c-1.3-1.7-2.8-3.3-4.2-5l-4.3-4.9"/>
				<path class="st1" d="M436.9,94.4l4.1,4.8c1.4,1.6,2.8,3.2,4.1,4.9l3.9,5l2,2.5l1.8,2.6"/>
				<path class="st1" d="M455.8,111.9l-1.9-2.6l-2-2.5l-4-5.1c-1.3-1.7-2.7-3.3-4.1-4.9l-4.2-4.9"/>
				<path class="st1" d="M434.1,96.8l4.1,4.7c1.4,1.6,2.8,3.1,4,4.8l3.9,4.9l1.9,2.5l1.8,2.5"/>
			</g>
			<g>
				<path class="st1" d="M476.2,129.6c-1.1-1.9-2.2-3.9-3.4-5.7l-3.6-5.6c-2.3-3.8-5-7.3-7.5-10.9"/>
				<path class="st1" d="M473,131.5c-1.1-1.9-2.1-3.8-3.3-5.6l-3.5-5.5c-2.3-3.7-4.9-7.2-7.4-10.8"/>
				<path class="st1" d="M452.8,114c2.4,3.5,5,6.8,7.2,10.4l3.4,5.3c1.1,1.8,2.1,3.6,3.2,5.5"/>
				<path class="st1" d="M469.8,133.4c-1.1-1.8-2.1-3.7-3.3-5.5l-3.5-5.4c-2.2-3.7-4.8-7.1-7.3-10.6"/>
				<path class="st1" d="M449.8,116.2c2.4,3.4,4.9,6.7,7.1,10.3l3.4,5.3c1.1,1.7,2.1,3.6,3.2,5.4"/>
			</g>
			<g>
				<path class="st1" d="M488.3,153.3l-2.7-6c-0.9-2-2-3.9-3-5.9l-3-5.9l-3.3-5.7"/>
				<path class="st1" d="M484.9,154.8l-2.7-6c-0.9-2-2-3.9-2.9-5.8l-3-5.8l-3.3-5.7"/>
				<path class="st1" d="M466.6,135.3l3.2,5.5l2.9,5.6c0.9,1.9,2,3.7,2.9,5.7l2.6,5.8"/>
				<path class="st1" d="M481.5,156.3l-2.7-5.9c-0.9-1.9-1.9-3.8-2.9-5.7l-2.9-5.7l-3.2-5.6"/>
				<path class="st1" d="M463.4,137.1l3.1,5.4l2.9,5.6c0.9,1.9,1.9,3.7,2.8,5.6l2.6,5.7"/>
			</g>
			<g>
				<path class="st1" d="M497.8,178l-2.1-6.3c-0.4-1-0.7-2.1-1.1-3.1l-1.2-3.1c-1.6-4.1-3.2-8.2-5.1-12.2"/>
				<path class="st1" d="M494.3,179.1l-2.1-6.2c-0.4-1-0.7-2.1-1.1-3.1l-1.2-3c-1.6-4-3.1-8.1-5-12.1"/>
				<path class="st1" d="M478.1,157.9c1.8,3.8,3.3,7.8,4.9,11.7l1.2,2.9c0.4,1,0.7,2,1,3l2,6"/>
				<path class="st1" d="M490.7,180.4l-2.1-6.1c-0.4-1-0.7-2-1.1-3l-1.2-3c-1.6-4-3.1-8-4.9-11.9"/>
				<path class="st1" d="M474.7,159.4c1.8,3.8,3.3,7.7,4.8,11.5l1.1,2.9c0.4,1,0.7,2,1,2.9l2,5.9"/>
			</g>
			<g>
				<path class="st1" d="M504.6,203.6l-1.5-6.5c-0.5-2.2-1-4.3-1.6-6.4l-1.8-6.4l-0.9-3.2l-1.1-3.1"/>
				<path class="st1" d="M501,204.4l-1.5-6.4c-0.5-2.1-0.9-4.3-1.6-6.3l-1.8-6.3l-0.9-3.1l-1-3.1"/>
				<path class="st1" d="M487.2,181.5l1,3l0.9,3l1.7,6.1c0.6,2,1.1,4.1,1.5,6.1l1.4,6.2"/>
				<path class="st1" d="M497.4,205.1l-1.4-6.3c-0.5-2.1-0.9-4.2-1.6-6.2l-1.8-6.2l-0.9-3.1l-1-3.1"/>
				<path class="st1" d="M483.7,182.5l1,3l0.9,3l1.7,6c0.6,2,1,4,1.5,6.1l1.4,6.1"/>
			</g>
			<g>
				<path class="st1" d="M508.8,229.8c-0.6-4.4-1.1-8.8-1.7-13.1l-1.2-6.5l-0.6-3.3l-0.3-1.6l-0.4-1.6"/>
				<path class="st1" d="M505.1,230.1c-0.6-4.3-1-8.6-1.7-12.9l-1.1-6.4l-0.6-3.2l-0.3-1.6l-0.4-1.6"/>
				<path class="st1" d="M493.8,206l0.4,1.5l0.3,1.6l0.6,3.1l1.1,6.2c0.6,4.2,1.1,8.4,1.6,12.6"/>
				<path class="st1" d="M501.4,230.5c-0.6-4.3-1-8.5-1.7-12.8l-1.1-6.3l-0.6-3.2l-0.3-1.6l-0.4-1.6"/>
				<path class="st1" d="M490.1,206.6l0.4,1.5l0.3,1.5l0.5,3.1l1.1,6.1c0.6,4.1,1.1,8.2,1.6,12.4"/>
			</g>
			<g>
				<path class="st1" d="M510.2,256.3l-0.3-13.2c-0.3-4.4-0.6-8.8-1-13.2"/>
				<path class="st1" d="M506.5,256.3l-0.3-13c-0.3-4.3-0.6-8.7-1-13"/>
				<path class="st1" d="M497.7,231c0.4,4.2,0.7,8.4,1,12.6l0.3,12.7"/>
				<path class="st1" d="M502.7,256.3l-0.3-12.9c-0.3-4.3-0.6-8.6-1-12.8"/>
				<path class="st1" d="M494,231.4c0.4,4.1,0.6,8.3,1,12.4l0.3,12.5"/>
			</g>
			<g>
				<path class="st1" d="M508.8,282.8c0.4-4.4,0.7-8.8,1-13.2l0.3-13.2"/>
				<path class="st1" d="M505.1,282.4c0.4-4.3,0.7-8.7,1-13l0.3-13"/>
				<path class="st1" d="M499,256.3l-0.3,12.7c-0.3,4.2-0.6,8.4-1,12.6"/>
				<path class="st1" d="M501.4,282c0.4-4.3,0.7-8.6,1-12.8l0.3-12.9"/>
				<path class="st1" d="M495.3,256.3l-0.3,12.5c-0.3,4.1-0.6,8.3-1,12.4"/>
			</g>
			<g>
				<path class="st1" d="M504.6,308.9l0.4-1.6l0.3-1.6l0.6-3.3l1.2-6.5c0.7-4.4,1.1-8.8,1.7-13.1"/>
				<path class="st1" d="M501,308.1l0.4-1.6l0.3-1.6l0.6-3.2l1.1-6.4c0.7-4.3,1.1-8.6,1.7-12.9"/>
				<path class="st1" d="M497.7,281.6c-0.6,4.2-1,8.4-1.6,12.6l-1.1,6.2l-0.6,3.1l-0.3,1.6l-0.4,1.5"/>
				<path class="st1" d="M497.4,307.4l0.4-1.6l0.3-1.6l0.6-3.2l1.1-6.3c0.6-4.2,1.1-8.5,1.7-12.8"/>
				<path class="st1" d="M494,281.1c-0.5,4.1-1,8.3-1.6,12.4l-1.1,6.1l-0.5,3.1l-0.3,1.5l-0.4,1.5"/>
			</g>
			<g>
				<path class="st1" d="M497.8,334.5l1.1-3.1l0.9-3.2l1.7-6.4c0.6-2.1,1.1-4.3,1.6-6.4l1.5-6.5"/>
				<path class="st1" d="M494.3,333.4l1-3.1l0.9-3.1l1.8-6.3c0.6-2.1,1.1-4.2,1.6-6.3l1.5-6.4"/>
				<path class="st1" d="M493.8,306.6l-1.4,6.2c-0.5,2.1-0.9,4.1-1.5,6.1l-1.7,6.1l-0.9,3l-1,3"/>
				<path class="st1" d="M490.7,332.1l1-3.1l0.9-3.1l1.8-6.2c0.6-2.1,1.1-4.2,1.6-6.2l1.4-6.3"/>
				<path class="st1" d="M490.1,305.9l-1.4,6.1c-0.5,2-0.9,4.1-1.5,6.1l-1.7,6l-0.9,3l-1,3"/>
			</g>
			<g>
				<path class="st1" d="M488.3,359.3c1.9-4,3.5-8.1,5.1-12.2l1.2-3.1c0.4-1,0.7-2.1,1.1-3.1l2.1-6.3"/>
				<path class="st1" d="M484.9,357.8c1.9-3.9,3.4-8,5-12.1l1.2-3c0.4-1,0.7-2.1,1.1-3.1l2.1-6.2"/>
				<path class="st1" d="M487.2,331.1l-2,6c-0.4,1-0.6,2-1,3L483,343c-1.6,3.9-3,7.9-4.9,11.7"/>
				<path class="st1" d="M481.5,356.3c1.8-3.9,3.4-7.9,4.9-11.9l1.2-3c0.4-1,0.7-2,1.1-3l2.1-6.1"/>
				<path class="st1" d="M483.7,330l-2,5.9c-0.3,1-0.6,2-1,2.9l-1.1,2.9c-1.5,3.9-3,7.8-4.8,11.5"/>
			</g>
			<g>
				<path class="st1" d="M476.2,382.9l3.3-5.7l3-5.9c1-2,2-3.9,3-5.9l2.7-6"/>
				<path class="st1" d="M473,381l3.3-5.7l3-5.8c1-1.9,2-3.9,2.9-5.8l2.7-6"/>
				<path class="st1" d="M478.1,354.6l-2.6,5.8c-0.9,1.9-1.9,3.8-2.9,5.7l-2.9,5.6l-3.2,5.5"/>
				<path class="st1" d="M469.8,379.1l3.2-5.6l2.9-5.7c1-1.9,2-3.8,2.9-5.7l2.7-5.9"/>
				<path class="st1" d="M474.7,353.1l-2.6,5.7c-0.9,1.9-1.9,3.7-2.8,5.6l-2.9,5.6l-3.1,5.4"/>
			</g>
			<g>
				<path class="st1" d="M461.8,405.1c2.5-3.6,5.2-7.1,7.5-10.9l3.6-5.6c1.2-1.9,2.2-3.8,3.4-5.7"/>
				<path class="st1" d="M458.8,402.9c2.5-3.6,5.1-7,7.4-10.8l3.5-5.5c1.2-1.8,2.2-3.8,3.3-5.6"/>
				<path class="st1" d="M466.6,377.3c-1.1,1.8-2.1,3.7-3.2,5.5l-3.4,5.3c-2.2,3.6-4.7,7-7.2,10.4"/>
				<path class="st1" d="M455.8,400.6c2.5-3.5,5-6.9,7.3-10.6l3.5-5.4c1.2-1.8,2.2-3.7,3.3-5.5"/>
				<path class="st1" d="M463.4,375.4c-1.1,1.8-2,3.6-3.2,5.4l-3.4,5.3c-2.2,3.6-4.7,6.9-7.1,10.3"/>
			</g>
			<g>
				<path class="st1" d="M445.1,425.6l4.3-5c1.4-1.7,2.9-3.3,4.3-5.1l4.1-5.2l2-2.6l1.9-2.7"/>
				<path class="st1" d="M442.4,423.1l4.3-4.9c1.4-1.7,2.9-3.3,4.2-5l4-5.1l2-2.6l1.9-2.7"/>
				<path class="st1" d="M452.8,398.5L451,401l-2,2.5l-3.9,5c-1.3,1.7-2.7,3.3-4.1,4.9l-4.1,4.8"/>
				<path class="st1" d="M439.6,420.6l4.2-4.9c1.4-1.6,2.8-3.2,4.1-4.9l4-5.1l2-2.5l1.9-2.6"/>
				<path class="st1" d="M449.8,396.4l-1.8,2.5l-1.9,2.5l-3.9,4.9c-1.3,1.7-2.7,3.2-4,4.8l-4.1,4.7"/>
			</g>
			<g>
				<path class="st1" d="M426.4,444.4c3.3-3,6.4-6.1,9.6-9.1c3-3.2,6.1-6.4,9.1-9.6"/>
				<path class="st1" d="M423.9,441.6c3.2-2.9,6.3-6,9.5-9c3-3.2,6-6.3,9-9.5"/>
				<path class="st1" d="M436.9,418.1c-2.8,3.1-5.8,6.1-8.7,9.2c-3.1,2.9-6.1,5.9-9.2,8.7"/>
				<path class="st1" d="M421.4,438.9c3.2-2.9,6.2-5.9,9.3-8.8c2.9-3.1,6-6.2,8.8-9.3"/>
				<path class="st1" d="M434.1,415.8c-2.8,3.1-5.7,6-8.6,9.1c-3,2.9-6,5.8-9.1,8.6"/>
			</g>
			<g>
				<path class="st1" d="M405.8,461.1l2.7-1.9l2.6-2l5.2-4.1c1.8-1.3,3.4-2.8,5.1-4.3l5-4.3"/>
				<path class="st1" d="M403.6,458.1l2.7-1.9l2.6-2l5.1-4c1.7-1.3,3.3-2.8,5-4.2l4.9-4.3"/>
				<path class="st1" d="M418.9,436.1l-4.8,4.1c-1.6,1.4-3.2,2.8-4.9,4.1l-5,3.9l-2.5,2l-2.6,1.8"/>
				<path class="st1" d="M401.4,455.1l2.6-1.9l2.5-2l5.1-4c1.7-1.3,3.3-2.7,4.9-4.1l4.9-4.2"/>
				<path class="st1" d="M416.5,433.4l-4.7,4.1c-1.6,1.4-3.1,2.8-4.8,4l-4.9,3.9l-2.5,1.9l-2.5,1.8"/>
			</g>
			<g>
				<path class="st1" d="M383.6,475.5c1.9-1.1,3.9-2.2,5.7-3.4l5.6-3.6c3.8-2.3,7.3-5,10.9-7.5"/>
				<path class="st1" d="M381.7,472.3c1.9-1.1,3.8-2.1,5.6-3.3l5.5-3.5c3.7-2.3,7.2-4.9,10.8-7.4"/>
				<path class="st1" d="M399.2,452.1c-3.5,2.4-6.8,5-10.4,7.2l-5.3,3.4c-1.8,1.1-3.6,2.1-5.5,3.2"/>
				<path class="st1" d="M379.9,469.1c1.8-1.1,3.7-2.1,5.5-3.3l5.4-3.5c3.7-2.2,7.1-4.8,10.6-7.3"/>
				<path class="st1" d="M397.1,449.1c-3.4,2.4-6.7,4.9-10.3,7.1l-5.3,3.4c-1.7,1.1-3.6,2.1-5.4,3.2"/>
			</g>
			<g>
				<path class="st1" d="M360,487.6l6-2.7c2-0.9,3.9-2,5.9-3l5.9-3l5.7-3.3"/>
				<path class="st1" d="M358.5,484.1l6-2.7c2-0.9,3.9-2,5.8-2.9l5.8-3l5.7-3.3"/>
				<path class="st1" d="M378,465.9l-5.5,3.2l-5.6,2.9c-1.9,0.9-3.7,2-5.7,2.9l-5.8,2.6"/>
				<path class="st1" d="M357,480.8l5.9-2.7c1.9-0.9,3.8-1.9,5.7-2.9l5.7-2.9l5.6-3.2"/>
				<path class="st1" d="M376.1,462.6l-5.4,3.1l-5.6,2.9c-1.9,0.9-3.7,1.9-5.6,2.8l-5.7,2.6"/>
			</g>
			<g>
				<path class="st1" d="M335.2,497.1l6.3-2.1c1-0.4,2.1-0.7,3.1-1.1l3.1-1.2c4.1-1.6,8.2-3.2,12.2-5.1"/>
				<path class="st1" d="M334.1,493.6l6.2-2.1c1-0.4,2.1-0.7,3.1-1.1l3-1.2c4-1.6,8.1-3.1,12.1-5"/>
				<path class="st1" d="M355.4,477.4c-3.8,1.8-7.8,3.3-11.7,4.9l-2.9,1.2c-1,0.4-2,0.7-3,1l-6,2"/>
				<path class="st1" d="M332.9,490l6.1-2.1c1-0.4,2-0.7,3-1.1l3-1.2c4-1.6,8-3.1,11.9-4.9"/>
				<path class="st1" d="M353.9,474c-3.8,1.8-7.7,3.3-11.5,4.8l-2.9,1.1c-1,0.4-2,0.7-2.9,1l-5.9,2"/>
			</g>
			<g>
				<path class="st1" d="M309.6,503.9l6.5-1.5c2.2-0.5,4.3-1,6.4-1.6l6.4-1.8l3.2-0.9l3.1-1.1"/>
				<path class="st1" d="M308.9,500.3l6.4-1.5c2.1-0.5,4.3-0.9,6.3-1.6l6.3-1.8l3.1-0.9l3.1-1"/>
				<path class="st1" d="M331.8,486.5l-3,1l-3,0.9l-6.1,1.7c-2,0.6-4.1,1.1-6.1,1.5l-6.2,1.4"/>
				<path class="st1" d="M308.1,496.6l6.3-1.4c2.1-0.5,4.2-0.9,6.2-1.6l6.2-1.8l3.1-0.9l3.1-1"/>
				<path class="st1" d="M330.7,483l-3,1l-3,0.9l-6,1.7c-2,0.6-4,1-6.1,1.5l-6.1,1.4"/>
			</g>
			<g>
				<path class="st1" d="M283.5,508.1c4.4-0.6,8.8-1.1,13.1-1.7l6.5-1.2l3.3-0.6l1.6-0.3l1.6-0.4"/>
				<path class="st1" d="M283.1,504.4c4.3-0.6,8.6-1,12.9-1.7l6.4-1.1l3.2-0.6l1.6-0.3l1.6-0.4"/>
				<path class="st1" d="M307.3,493.1l-1.5,0.4l-1.6,0.3l-3.1,0.6l-6.2,1.1c-4.2,0.6-8.4,1.1-12.6,1.6"/>
				<path class="st1" d="M282.7,500.6c4.3-0.6,8.5-1,12.8-1.7l6.3-1.1l3.2-0.6l1.6-0.3l1.6-0.4"/>
				<path class="st1" d="M306.6,489.4l-1.5,0.4l-1.5,0.3l-3.1,0.5l-6.1,1.1c-4.1,0.6-8.2,1.1-12.4,1.6"/>
			</g>
			<g>
				<path class="st1" d="M257,509.5l13.2-0.3c4.4-0.3,8.8-0.6,13.2-1"/>
				<path class="st1" d="M257,505.8l13-0.3c4.3-0.3,8.7-0.6,13-1"/>
				<path class="st1" d="M282.3,497c-4.2,0.4-8.4,0.7-12.6,1l-12.7,0.3"/>
				<path class="st1" d="M257,502l12.9-0.3c4.3-0.3,8.6-0.6,12.8-1"/>
				<path class="st1" d="M281.9,493.3c-4.1,0.4-8.3,0.6-12.4,1l-12.5,0.3"/>
			</g>
			<g>
				<path class="st1" d="M230.5,508.1c4.4,0.4,8.8,0.7,13.2,1l13.2,0.3"/>
				<path class="st1" d="M230.9,504.4c4.3,0.4,8.7,0.7,13,1l13,0.3"/>
				<path class="st1" d="M257,498.3l-12.7-0.3c-4.2-0.3-8.4-0.6-12.6-1"/>
				<path class="st1" d="M231.3,500.6c4.3,0.4,8.6,0.7,12.8,1L257,502"/>
				<path class="st1" d="M257,494.6l-12.5-0.3c-4.1-0.3-8.3-0.6-12.4-1"/>
			</g>
			<g>
				<path class="st1" d="M204.4,503.9l1.6,0.4l1.6,0.3l3.3,0.6l6.5,1.2c4.4,0.7,8.8,1.1,13.1,1.7"/>
				<path class="st1" d="M205.1,500.3l1.6,0.4l1.6,0.3l3.2,0.6l6.4,1.1c4.3,0.7,8.6,1.1,12.9,1.7"/>
				<path class="st1" d="M231.7,497c-4.2-0.6-8.4-1-12.6-1.6l-6.2-1.1l-3.1-0.6l-1.6-0.3l-1.5-0.4"/>
				<path class="st1" d="M205.9,496.6l1.6,0.4l1.6,0.3l3.2,0.6l6.3,1.1c4.2,0.6,8.5,1.1,12.8,1.7"/>
				<path class="st1" d="M232.1,493.3c-4.1-0.5-8.3-1-12.4-1.6l-6.1-1.1l-3.1-0.5l-1.5-0.3l-1.5-0.4"/>
			</g>
			<g>
				<path class="st1" d="M178.8,497.1l3.1,1.1l3.2,0.9l6.4,1.7c2.1,0.6,4.3,1.1,6.4,1.6l6.5,1.5"/>
				<path class="st1" d="M179.9,493.6l3.1,1l3.1,0.9l6.3,1.8c2.1,0.6,4.2,1.1,6.3,1.6l6.4,1.5"/>
				<path class="st1" d="M206.7,493.1l-6.2-1.4c-2.1-0.5-4.1-0.9-6.1-1.5l-6.1-1.7l-3-0.9l-3-1"/>
				<path class="st1" d="M181.1,490l3.1,1l3.1,0.9l6.2,1.8c2.1,0.6,4.2,1.1,6.2,1.6l6.3,1.4"/>
				<path class="st1" d="M207.4,489.4l-6.1-1.4c-2-0.5-4.1-0.9-6.1-1.5l-6-1.7l-3-0.9l-3-1"/>
			</g>
			<g>
				<path class="st1" d="M154,487.6c4,1.9,8.1,3.5,12.2,5.1l3.1,1.2c1,0.4,2.1,0.7,3.1,1.1l6.3,2.1"/>
				<path class="st1" d="M155.5,484.1c3.9,1.9,8,3.4,12.1,5l3,1.2c1,0.4,2.1,0.7,3.1,1.1l6.2,2.1"/>
				<path class="st1" d="M182.2,486.5l-6-2c-1-0.4-2-0.6-3-1l-2.9-1.2c-3.9-1.6-7.9-3-11.7-4.9"/>
				<path class="st1" d="M157,480.8c3.9,1.8,7.9,3.4,11.9,4.9l3,1.2c1,0.4,2,0.7,3,1.1l6.1,2.1"/>
				<path class="st1" d="M183.3,483l-5.9-2c-1-0.3-2-0.6-2.9-1l-2.9-1.1c-3.9-1.5-7.8-3-11.5-4.8"/>
			</g>
			<g>
				<path class="st1" d="M130.4,475.5l5.7,3.3l5.9,3c2,1,3.9,2,5.9,3l6,2.7"/>
				<path class="st1" d="M132.3,472.3l5.7,3.3l5.8,3c1.9,1,3.9,2,5.8,2.9l6,2.7"/>
				<path class="st1" d="M158.6,477.4l-5.8-2.6c-1.9-0.9-3.8-1.9-5.7-2.9l-5.6-2.9l-5.5-3.2"/>
				<path class="st1" d="M134.1,469.1l5.6,3.2l5.7,2.9c1.9,1,3.8,2,5.7,2.9l5.9,2.7"/>
				<path class="st1" d="M160.1,474l-5.7-2.6c-1.9-0.9-3.7-1.9-5.6-2.8l-5.6-2.9l-5.4-3.1"/>
			</g>
			<g>
				<path class="st1" d="M108.2,461.1c3.6,2.5,7.1,5.2,10.9,7.5l5.6,3.6c1.9,1.2,3.8,2.2,5.7,3.4"/>
				<path class="st1" d="M110.4,458.1c3.6,2.5,7,5.1,10.8,7.4l5.5,3.5c1.8,1.2,3.8,2.2,5.6,3.3"/>
				<path class="st1" d="M136,465.9c-1.8-1.1-3.7-2.1-5.5-3.2l-5.3-3.4c-3.6-2.2-7-4.7-10.4-7.2"/>
				<path class="st1" d="M112.6,455.1c3.5,2.5,6.9,5,10.6,7.3l5.4,3.5c1.8,1.2,3.7,2.2,5.5,3.3"/>
				<path class="st1" d="M137.9,462.6c-1.8-1.1-3.6-2-5.4-3.2l-5.3-3.4c-3.6-2.2-6.9-4.7-10.3-7.1"/>
			</g>
			<g>
				<path class="st1" d="M87.6,444.4l5,4.3c1.7,1.4,3.3,2.9,5.1,4.3l5.2,4.1l2.6,2l2.7,1.9"/>
				<path class="st1" d="M90.1,441.6L95,446c1.7,1.4,3.3,2.9,5,4.2l5.1,4l2.6,2l2.7,1.9"/>
				<path class="st1" d="M114.8,452.1l-2.6-1.8l-2.5-2l-5-3.9c-1.7-1.3-3.3-2.7-4.9-4.1l-4.8-4.1"/>
				<path class="st1" d="M92.6,438.9l4.9,4.2c1.6,1.4,3.2,2.8,4.9,4.1l5.1,4l2.5,2l2.6,1.9"/>
				<path class="st1" d="M116.9,449.1l-2.5-1.8l-2.5-1.9l-4.9-3.9c-1.7-1.3-3.2-2.7-4.8-4l-4.7-4.1"/>
			</g>
			<g>
				<path class="st1" d="M68.9,425.6c3,3.3,6.1,6.4,9.1,9.6c3.2,3,6.4,6.1,9.6,9.1"/>
				<path class="st1" d="M71.6,423.1c2.9,3.2,6,6.3,9,9.5c3.2,3,6.3,6,9.5,9"/>
				<path class="st1" d="M95.1,436.1c-3.1-2.8-6.1-5.8-9.2-8.7c-2.9-3.1-5.9-6.1-8.7-9.2"/>
				<path class="st1" d="M74.4,420.6c2.9,3.2,5.9,6.2,8.8,9.3c3.1,2.9,6.2,6,9.3,8.8"/>
				<path class="st1" d="M97.5,433.4c-3.1-2.8-6-5.7-9.1-8.6c-2.9-3-5.8-6-8.6-9.1"/>
			</g>
			<g>
				<path class="st1" d="M52.2,405.1l1.9,2.7l2,2.6l4.1,5.2c1.3,1.8,2.8,3.4,4.3,5.1l4.3,5"/>
				<path class="st1" d="M55.2,402.9l1.9,2.7l2,2.6l4,5.1c1.3,1.7,2.8,3.3,4.2,5l4.3,4.9"/>
				<path class="st1" d="M77.1,418.1l-4.1-4.8c-1.4-1.6-2.8-3.2-4.1-4.9l-3.9-5l-2-2.5l-1.8-2.6"/>
				<path class="st1" d="M58.2,400.6l1.9,2.6l2,2.5l4,5.1c1.3,1.7,2.7,3.3,4.1,4.9l4.2,4.9"/>
				<path class="st1" d="M79.9,415.8l-4.1-4.7c-1.4-1.6-2.8-3.1-4-4.8l-3.9-4.9l-1.9-2.5l-1.8-2.5"/>
			</g>
			<g>
				<path class="st1" d="M37.8,382.9c1.1,1.9,2.2,3.9,3.4,5.7l3.6,5.6c2.3,3.8,5,7.3,7.5,10.9"/>
				<path class="st1" d="M41,381c1.1,1.9,2.1,3.8,3.3,5.6l3.5,5.5c2.3,3.7,4.9,7.2,7.4,10.8"/>
				<path class="st1" d="M61.2,398.5c-2.4-3.5-5-6.8-7.2-10.4l-3.4-5.3c-1.1-1.8-2.1-3.6-3.2-5.5"/>
				<path class="st1" d="M44.2,379.1c1.1,1.8,2.1,3.7,3.3,5.5L51,390c2.2,3.7,4.8,7.1,7.3,10.6"/>
				<path class="st1" d="M64.2,396.4c-2.4-3.4-4.9-6.7-7.1-10.3l-3.4-5.3c-1.1-1.7-2.1-3.6-3.2-5.4"/>
			</g>
			<g>
				<path class="st1" d="M25.7,359.3l2.7,6c0.9,2,2,3.9,3,5.9l3,5.9l3.3,5.7"/>
				<path class="st1" d="M29.1,357.8l2.7,6c0.9,2,2,3.9,2.9,5.8l3,5.8l3.3,5.7"/>
				<path class="st1" d="M47.4,377.3l-3.2-5.5l-2.9-5.6c-0.9-1.9-2-3.7-2.9-5.7l-2.6-5.8"/>
				<path class="st1" d="M32.5,356.3l2.7,5.9c0.9,1.9,1.9,3.8,2.9,5.7l2.9,5.7l3.2,5.6"/>
				<path class="st1" d="M50.6,375.4l-3.1-5.4l-2.9-5.6c-0.9-1.9-1.9-3.7-2.8-5.6l-2.6-5.7"/>
			</g>
			<g>
				<path class="st1" d="M16.2,334.5l2.1,6.3c0.4,1,0.7,2.1,1.1,3.1l1.2,3.1c1.6,4.1,3.2,8.2,5.1,12.2"/>
				<path class="st1" d="M19.7,333.4l2.1,6.2c0.4,1,0.7,2.1,1.1,3.1l1.2,3c1.6,4,3.1,8.1,5,12.1"/>
				<path class="st1" d="M35.9,354.6c-1.8-3.8-3.3-7.8-4.9-11.7l-1.2-2.9c-0.4-1-0.7-2-1-3l-2-6"/>
				<path class="st1" d="M23.3,332.1l2.1,6.1c0.4,1,0.7,2,1.1,3l1.2,3c1.6,4,3.1,8,4.9,11.9"/>
				<path class="st1" d="M39.3,353.1c-1.8-3.8-3.3-7.7-4.8-11.5l-1.1-2.9c-0.4-1-0.7-2-1-2.9l-2-5.9"/>
			</g>
			<g>
				<path class="st1" d="M9.4,308.9l1.5,6.5c0.5,2.2,1,4.3,1.6,6.4l1.8,6.4l0.9,3.2l1.1,3.1"/>
				<path class="st1" d="M13,308.1l1.5,6.4c0.5,2.1,0.9,4.3,1.6,6.3l1.8,6.3l0.9,3.1l1,3.1"/>
				<path class="st1" d="M26.8,331.1l-1-3l-0.9-3l-1.7-6.1c-0.6-2-1.1-4.1-1.5-6.1l-1.4-6.2"/>
				<path class="st1" d="M16.6,307.4l1.4,6.3c0.5,2.1,0.9,4.2,1.6,6.2l1.8,6.2l0.9,3.1l1,3.1"/>
				<path class="st1" d="M30.3,330l-1-3l-0.9-3l-1.7-6c-0.6-2-1-4-1.5-6.1l-1.4-6.1"/>
			</g>
			<g>
				<path class="st1" d="M5.2,282.8c0.6,4.4,1.1,8.8,1.7,13.1l1.2,6.5l0.6,3.3l0.3,1.6l0.4,1.6"/>
				<path class="st1" d="M8.9,282.4c0.6,4.3,1,8.6,1.7,12.9l1.1,6.4l0.6,3.2l0.3,1.6l0.4,1.6"/>
				<path class="st1" d="M20.2,306.6l-0.4-1.5l-0.3-1.6l-0.6-3.1l-1.1-6.2c-0.6-4.2-1.1-8.4-1.6-12.6"/>
				<path class="st1" d="M12.6,282c0.6,4.3,1,8.5,1.7,12.8l1.1,6.3l0.6,3.2l0.3,1.6l0.4,1.6"/>
				<path class="st1" d="M23.9,305.9l-0.4-1.5l-0.3-1.5l-0.5-3.1l-1.1-6.1c-0.6-4.1-1.1-8.2-1.6-12.4"/>
			</g>
			<g>
				<path class="st1" d="M3.8,256.3l0.3,13.2c0.3,4.4,0.6,8.8,1,13.2"/>
				<path class="st1" d="M7.5,256.3l0.3,13c0.3,4.3,0.6,8.7,1,13"/>
				<path class="st1" d="M16.3,281.6c-0.4-4.2-0.7-8.4-1-12.6L15,256.3"/>
				<path class="st1" d="M11.3,256.3l0.3,12.9c0.3,4.3,0.6,8.6,1,12.8"/>
				<path class="st1" d="M20,281.1c-0.4-4.1-0.6-8.3-1-12.4l-0.3-12.5"/>
			</g>
		</g>
	</g>
</g>
<g>
	<g>
		<path class="st2" d="M140,173.3h-0.6l-36.7,19.8l-5.5-21.7l46.1-24.7h24.3v211H140V173.3z"/>
		<g>
			<path class="st3" d="M140,173.3h-0.6l-36.7,19.8l-5.5-21.7l46.1-24.7h24.3v211H140V173.3z"/>
			<g>
				<g>
					<line class="st4" x1="123.8" y1="142.8" x2="99.9" y2="155.5"/>
					<line class="st4" x1="125.5" y1="146" x2="101.7" y2="158.8"/>
					<line class="st4" x1="105.2" y1="165.3" x2="129" y2="152.6"/>
					<line class="st4" x1="127.3" y1="149.3" x2="103.4" y2="162.1"/>
					<line class="st4" x1="106.9" y1="168.6" x2="130.8" y2="155.8"/>
				</g>
				<g>
					<polyline class="st4" points="154.9,134 140.1,134 123.8,142.8 					"/>
					<polyline class="st4" points="154.9,137.7 141,137.7 125.5,146 					"/>
					<polyline class="st4" points="129,152.6 142.9,145.1 154.9,145.1 					"/>
					<polyline class="st4" points="154.9,141.4 141.9,141.4 127.3,149.3 					"/>
					<polyline class="st4" points="130.8,155.8 143.8,148.9 154.9,148.9 					"/>
				</g>
				<g>
					<line class="st4" x1="180.3" y1="185.9" x2="180.3" y2="159.4"/>
					<line class="st4" x1="176.6" y1="185.9" x2="176.6" y2="159.4"/>
					<line class="st4" x1="169.1" y1="159.4" x2="169.1" y2="185.9"/>
					<line class="st4" x1="172.8" y1="185.9" x2="172.8" y2="159.4"/>
					<line class="st4" x1="165.4" y1="159.4" x2="165.4" y2="185.9"/>
				</g>
				<g>
					<line class="st4" x1="180.3" y1="212.4" x2="180.3" y2="185.9"/>
					<line class="st4" x1="176.6" y1="212.4" x2="176.6" y2="185.9"/>
					<line class="st4" x1="169.1" y1="185.9" x2="169.1" y2="212.4"/>
					<line class="st4" x1="172.8" y1="212.4" x2="172.8" y2="185.9"/>
					<line class="st4" x1="165.4" y1="185.9" x2="165.4" y2="212.4"/>
				</g>
				<g>
					<line class="st4" x1="180.3" y1="238.9" x2="180.3" y2="212.4"/>
					<line class="st4" x1="176.6" y1="238.9" x2="176.6" y2="212.4"/>
					<line class="st4" x1="169.1" y1="212.4" x2="169.1" y2="238.9"/>
					<line class="st4" x1="172.8" y1="238.9" x2="172.8" y2="212.4"/>
					<line class="st4" x1="165.4" y1="212.4" x2="165.4" y2="238.9"/>
				</g>
				<g>
					<line class="st4" x1="180.3" y1="265.4" x2="180.3" y2="238.9"/>
					<line class="st4" x1="176.6" y1="265.4" x2="176.6" y2="238.9"/>
					<line class="st4" x1="169.1" y1="238.9" x2="169.1" y2="265.4"/>
					<line class="st4" x1="172.8" y1="265.4" x2="172.8" y2="238.9"/>
					<line class="st4" x1="165.4" y1="238.9" x2="165.4" y2="265.4"/>
				</g>
				<g>
					<line class="st4" x1="180.3" y1="292" x2="180.3" y2="265.4"/>
					<line class="st4" x1="176.6" y1="292" x2="176.6" y2="265.4"/>
					<line class="st4" x1="169.1" y1="265.4" x2="169.1" y2="292"/>
					<line class="st4" x1="172.8" y1="292" x2="172.8" y2="265.4"/>
					<line class="st4" x1="165.4" y1="265.4" x2="165.4" y2="292"/>
				</g>
				<g>
					<line class="st4" x1="180.3" y1="318.5" x2="180.3" y2="292"/>
					<line class="st4" x1="176.6" y1="318.5" x2="176.6" y2="292"/>
					<line class="st4" x1="169.1" y1="292" x2="169.1" y2="318.5"/>
					<line class="st4" x1="172.8" y1="318.5" x2="172.8" y2="292"/>
					<line class="st4" x1="165.4" y1="292" x2="165.4" y2="318.5"/>
				</g>
				<g>
					<line class="st4" x1="180.3" y1="345" x2="180.3" y2="318.5"/>
					<line class="st4" x1="176.6" y1="345" x2="176.6" y2="318.5"/>
					<line class="st4" x1="169.1" y1="318.5" x2="169.1" y2="345"/>
					<line class="st4" x1="172.8" y1="345" x2="172.8" y2="318.5"/>
					<line class="st4" x1="165.4" y1="318.5" x2="165.4" y2="345"/>
				</g>
				<g>
					<line class="st4" x1="152.7" y1="370.3" x2="154.9" y2="370.3"/>
					<line class="st4" x1="152.7" y1="366.6" x2="154.9" y2="366.6"/>
					<line class="st4" x1="154.9" y1="359.2" x2="152.7" y2="359.2"/>
					<line class="st4" x1="152.7" y1="362.9" x2="154.9" y2="362.9"/>
					<line class="st4" x1="154.9" y1="355.5" x2="152.7" y2="355.5"/>
				</g>
				<g>
					<line class="st4" x1="127.4" y1="319.9" x2="127.4" y2="345"/>
					<line class="st4" x1="131.1" y1="319.9" x2="131.1" y2="345"/>
					<line class="st4" x1="138.5" y1="345" x2="138.5" y2="319.9"/>
					<line class="st4" x1="134.8" y1="319.9" x2="134.8" y2="345"/>
					<line class="st4" x1="142.2" y1="345" x2="142.2" y2="319.9"/>
				</g>
				<g>
					<line class="st4" x1="127.4" y1="294.7" x2="127.4" y2="319.9"/>
					<line class="st4" x1="131.1" y1="294.7" x2="131.1" y2="319.9"/>
					<line class="st4" x1="138.5" y1="319.9" x2="138.5" y2="294.7"/>
					<line class="st4" x1="134.8" y1="294.7" x2="134.8" y2="319.9"/>
					<line class="st4" x1="142.2" y1="319.9" x2="142.2" y2="294.7"/>
				</g>
				<g>
					<line class="st4" x1="127.4" y1="269.6" x2="127.4" y2="294.7"/>
					<line class="st4" x1="131.1" y1="269.6" x2="131.1" y2="294.7"/>
					<line class="st4" x1="138.5" y1="294.7" x2="138.5" y2="269.6"/>
					<line class="st4" x1="134.8" y1="269.6" x2="134.8" y2="294.7"/>
					<line class="st4" x1="142.2" y1="294.7" x2="142.2" y2="269.6"/>
				</g>
				<g>
					<line class="st4" x1="127.4" y1="244.4" x2="127.4" y2="269.6"/>
					<line class="st4" x1="131.1" y1="244.4" x2="131.1" y2="269.6"/>
					<line class="st4" x1="138.5" y1="269.6" x2="138.5" y2="244.4"/>
					<line class="st4" x1="134.8" y1="244.4" x2="134.8" y2="269.6"/>
					<line class="st4" x1="142.2" y1="269.6" x2="142.2" y2="244.4"/>
				</g>
				<g>
					<line class="st4" x1="127.4" y1="219.3" x2="127.4" y2="244.4"/>
					<line class="st4" x1="131.1" y1="219.3" x2="131.1" y2="244.4"/>
					<line class="st4" x1="138.5" y1="244.4" x2="138.5" y2="219.3"/>
					<line class="st4" x1="134.8" y1="219.3" x2="134.8" y2="244.4"/>
					<line class="st4" x1="142.2" y1="244.4" x2="142.2" y2="219.3"/>
				</g>
				<g>
					<line class="st4" x1="127.4" y1="194.2" x2="127.4" y2="219.3"/>
					<line class="st4" x1="131.1" y1="194.2" x2="131.1" y2="219.3"/>
					<line class="st4" x1="138.5" y1="219.3" x2="138.5" y2="194.2"/>
					<line class="st4" x1="134.8" y1="194.2" x2="134.8" y2="219.3"/>
					<line class="st4" x1="142.2" y1="219.3" x2="142.2" y2="194.2"/>
				</g>
				<g>
					<line class="st4" x1="123" y1="196.5" x2="127.4" y2="194.2"/>
					<line class="st4" x1="121.2" y1="193.3" x2="125.6" y2="190.9"/>
					<line class="st4" x1="122.1" y1="184.4" x2="117.7" y2="186.7"/>
					<line class="st4" x1="119.5" y1="190" x2="123.8" y2="187.7"/>
					<line class="st4" x1="120.3" y1="181.1" x2="116" y2="183.5"/>
				</g>
				<g>
					<path class="st5" d="M100.1,155.4l-4.2,2.3l-0.3,0.2l-0.3,0.2l-0.3,0.2l-0.3,0.2l-0.3,0.2L94,159l-0.3,0.2l-0.3,0.3l-0.3,0.3
						l-0.3,0.3l-0.3,0.3l-0.3,0.3l-0.2,0.3l-0.2,0.3l-0.2,0.3l-0.2,0.3l-0.2,0.3l-0.2,0.3l-0.2,0.3l-0.2,0.3l-0.2,0.4l-0.2,0.4
						l-0.2,0.4l-0.1,0.4l-0.1,0.4l-0.1,0.4l-0.1,0.4l-0.1,0.4l-0.1,0.4l-0.1,0.4l-0.1,0.4l-0.1,0.4l0,0.1l0,0c0,0,0,0,0,0l0,0l0,0
						l-0.1,0.1l-0.1,0.2l-0.2,0.3l-0.2,0.3l-0.2,0.3l-0.2,0.3l-0.2,0.3l-0.2,0.4l-0.2,0.4l-0.2,0.4l-0.2,0.4l-0.2,0.4l-0.1,0.4
						l-0.1,0.4l-0.1,0.4l-0.1,0.4l-0.1,0.4l-0.1,0.4l-0.1,0.4l-0.1,0.4l-0.1,0.4l0,0.4l0,0.4l0,0.4l0,0.4l0,0.4l0,0.4l0,0.4l0,0.4
						l0,0.4l0.1,0.4l0.1,0.4l0.1,0.4l1.2,4.7"/>
					<polyline class="st5" points="101.7,158.8 97.6,161 97.4,161.1 97.1,161.3 96.8,161.4 96.6,161.6 96.3,161.8 96.1,162 
						95.8,162.2 95.6,162.4 95.4,162.6 95.1,162.8 94.9,163.1 94.7,163.3 94.5,163.5 94.3,163.8 94.2,164 94,164.3 93.8,164.6 
						93.7,164.8 93.5,165.1 93.3,165.4 93.2,165.7 93.1,166 92.9,166.3 92.8,166.6 92.7,166.9 92.6,167.2 92.4,167.8 92.3,168.5 
						92.1,169.1 91.7,169.7 91.4,170.2 91,170.8 90.9,171.1 90.7,171.4 90.6,171.7 90.4,172 90.3,172.3 90.2,172.6 90.1,172.8 
						90,173.2 89.9,173.5 89.8,173.8 89.7,174.1 89.7,174.4 89.6,174.7 89.6,175 89.5,175.3 89.5,175.6 89.5,175.9 89.5,176.2 
						89.5,176.5 89.5,176.8 89.5,177.2 89.6,177.5 89.6,177.8 89.7,178.1 89.7,178.4 89.8,178.7 90.9,183.2 					"/>
					<polyline class="st5" points="103.4,162.1 99.4,164.2 99.2,164.3 99,164.5 98.8,164.6 98.6,164.7 98.4,164.9 98.2,165 
						98,165.2 97.8,165.3 97.6,165.5 97.5,165.7 97.3,165.8 97.2,166 97,166.2 96.9,166.4 96.7,166.6 96.6,166.8 96.3,167.2 
						96.1,167.6 95.9,168.1 95.7,168.5 95.5,169 95.4,169.5 95.3,170 95.2,170.5 94.9,170.9 94.6,171.3 94.3,171.7 94.1,172.2 
						93.9,172.6 93.7,173.1 93.5,173.5 93.4,174 93.3,174.2 93.3,174.5 93.3,174.7 93.2,174.9 93.2,175.2 93.2,175.4 93.2,175.7 
						93.2,175.9 93.2,176.1 93.2,176.4 93.2,176.6 93.2,176.8 93.2,177.1 93.3,177.3 93.3,177.6 93.4,177.8 94.5,182.2 					"/>
					<polyline class="st5" points="105.2,165.3 101.1,167.5 100.8,167.7 100.6,167.8 100.3,168 100,168.3 99.8,168.5 99.6,168.7 
						99.4,169 99.2,169.3 99,169.5 98.9,169.8 98.7,170.1 98.6,170.5 98.5,170.8 98.4,171.1 98.3,171.5 98.2,171.8 98,172.1 
						97.8,172.4 97.6,172.7 97.5,173 97.3,173.3 97.2,173.6 97.1,173.9 97,174.3 96.9,174.6 96.9,174.9 96.8,175.2 96.8,175.6 
						96.8,175.9 96.9,176.2 96.9,176.6 97,176.9 98.1,181.3 					"/>
					<polyline class="st5" points="101.7,180.4 100.6,176 100.5,175.8 100.5,175.6 100.5,175.4 100.5,175.2 100.5,175.1 
						100.5,174.9 100.5,174.7 100.6,174.5 100.6,174.3 100.7,174.2 100.8,174 100.8,173.8 100.9,173.6 101,173.5 101.1,173.3 
						101.3,173.2 101.3,173 101.3,172.8 101.4,172.6 101.5,172.4 101.5,172.2 101.6,172.1 101.7,171.9 101.8,171.7 101.9,171.6 
						102,171.4 102.1,171.3 102.3,171.2 102.4,171.1 102.6,171 102.7,170.8 102.9,170.8 106.9,168.6 					"/>
				</g>
				<g>
					<polyline class="st5" points="180.3,159.6 180.3,153.5 180.3,153 180.2,152.5 180.2,152 180.2,151.5 180.1,151 180,150.5 
						180,150.1 179.9,149.6 179.8,149.1 179.7,148.6 179.5,148.2 179.4,147.7 179.2,147.3 179.1,146.8 178.9,146.4 178.7,145.9 
						178.6,145.5 178.4,145.1 178.2,144.7 177.9,144.3 177.7,143.8 177.5,143.4 177.2,143 177,142.7 176.7,142.3 176.4,141.9 
						176.2,141.5 175.9,141.2 175.6,140.8 175.3,140.5 174.9,140.1 174.6,139.8 174.3,139.5 173.9,139.1 173.6,138.8 173.2,138.5 
						172.9,138.2 172.5,138 172.1,137.7 171.8,137.4 171.4,137.1 171,136.9 170.6,136.7 170.2,136.4 169.8,136.2 169.3,136 
						168.9,135.8 168.5,135.6 168.1,135.4 167.6,135.3 167.2,135.1 166.7,134.9 166.3,134.8 165.8,134.7 165.3,134.6 164.9,134.5 
						164.4,134.4 163.9,134.3 163.4,134.2 163,134.1 162.5,134.1 162,134.1 161.5,134 161,134 154.9,134 					"/>
					<polyline class="st5" points="176.6,159.4 176.6,153.5 176.5,153.1 176.5,152.7 176.5,152.3 176.5,151.9 176.4,151.5 
						176.4,151.1 176.3,150.7 176.2,150.3 176.2,149.9 176.1,149.5 176,149.2 175.8,148.8 175.7,148.4 175.6,148.1 175.5,147.7 
						175.3,147.4 175.2,147 175,146.7 174.8,146.3 174.7,146 174.5,145.6 174.3,145.3 174.1,145 173.9,144.7 173.6,144.4 
						173.4,144.1 173.2,143.8 173,143.5 172.7,143.2 172.5,142.9 172.2,142.6 171.9,142.3 171.7,142.1 171.4,141.8 171.1,141.6 
						170.8,141.3 170.5,141.1 170.2,140.9 169.9,140.6 169.6,140.4 169.3,140.2 169,140 168.6,139.8 168.3,139.6 168,139.5 
						167.6,139.3 167.3,139.1 166.9,139 166.6,138.8 166.2,138.7 165.9,138.6 165.5,138.4 165.1,138.3 164.7,138.2 164.4,138.1 
						164,138.1 163.6,138 163.2,137.9 162.8,137.9 162.4,137.8 162,137.8 161.6,137.8 161.2,137.7 160.8,137.7 154.9,137.7 					"/>
					<polyline class="st5" points="172.8,159.4 172.8,153.5 172.8,152.9 172.8,152.3 172.7,151.6 172.6,151.1 172.5,150.5 
						172.3,149.9 172.1,149.3 171.9,148.8 171.7,148.3 171.4,147.7 171.1,147.2 170.8,146.7 170.5,146.3 170.1,145.8 169.7,145.4 
						169.3,145 168.9,144.6 168.5,144.2 168,143.8 167.5,143.5 167.1,143.2 166.5,142.9 166,142.6 165.5,142.4 164.9,142.2 
						164.4,142 163.8,141.8 163.2,141.7 162.6,141.6 162,141.5 161.4,141.5 160.8,141.4 154.9,141.4 					"/>
					<polyline class="st5" points="169.1,159.4 169.1,153.5 169.1,153.1 169.1,152.6 169,152.2 169,151.8 168.9,151.4 168.8,151 
						168.6,150.6 168.5,150.2 168.3,149.9 168.1,149.5 167.9,149.2 167.7,148.8 167.5,148.5 167.2,148.2 167,147.9 166.7,147.6 
						166.4,147.3 166.1,147 165.8,146.8 165.5,146.6 165.1,146.4 164.8,146.2 164.4,146 164.1,145.8 163.7,145.7 163.3,145.5 
						162.9,145.4 162.5,145.3 162.1,145.2 161.7,145.2 161.2,145.2 160.8,145.1 154.9,145.1 					"/>
					<polyline class="st5" points="154.9,148.9 160.8,148.9 161,148.9 161.3,148.9 161.5,148.9 161.7,148.9 162,149 162.2,149.1 
						162.4,149.1 162.6,149.2 162.8,149.3 163,149.4 163.2,149.5 163.4,149.6 163.6,149.8 163.8,149.9 163.9,150.1 164.1,150.2 
						164.2,150.4 164.4,150.5 164.5,150.7 164.6,150.9 164.8,151.1 164.9,151.3 165,151.5 165.1,151.7 165.2,151.9 165.2,152.1 
						165.3,152.3 165.3,152.5 165.4,152.8 165.4,153 165.4,153.2 165.4,153.5 165.4,159.4 					"/>
				</g>
				<g>
					<polyline class="st5" points="154.7,370.3 160.8,370.3 161.3,370.3 161.8,370.3 162.3,370.3 162.8,370.2 163.3,370.2 
						163.8,370.1 164.2,370 164.7,369.9 165.2,369.8 165.6,369.7 166.1,369.6 166.6,369.4 167,369.3 167.5,369.1 167.9,369 
						168.3,368.8 168.8,368.6 169.2,368.4 169.6,368.2 170,368 170.4,367.8 170.8,367.5 171.2,367.3 171.6,367 172,366.8 
						172.4,366.5 172.8,366.2 173.1,365.9 173.5,365.6 173.8,365.3 174.2,365 174.5,364.7 174.8,364.3 175.1,364 175.5,363.7 
						175.8,363.3 176.1,362.9 176.3,362.6 176.6,362.2 176.9,361.8 177.1,361.4 177.4,361 177.6,360.6 177.9,360.2 178.1,359.8 
						178.3,359.4 178.5,359 178.7,358.5 178.9,358.1 179,357.7 179.2,357.2 179.3,356.8 179.5,356.3 179.6,355.9 179.7,355.4 
						179.8,354.9 179.9,354.4 180,354 180.1,353.5 180.1,353 180.2,352.5 180.2,352 180.2,351.5 180.3,351 180.3,344.9 					"/>
					<polyline class="st5" points="154.9,366.6 160.8,366.6 161.2,366.6 161.6,366.6 162,366.6 162.4,366.5 162.8,366.5 
						163.2,366.4 163.6,366.4 164,366.3 164.4,366.2 164.7,366.1 165.1,366 165.5,365.9 165.9,365.8 166.2,365.6 166.6,365.5 
						166.9,365.4 167.3,365.2 167.6,365.1 168,364.9 168.3,364.7 168.6,364.5 169,364.3 169.3,364.1 169.6,363.9 169.9,363.7 
						170.2,363.5 170.5,363.2 170.8,363 171.1,362.8 171.4,362.5 171.7,362.3 171.9,362 172.2,361.7 172.5,361.4 172.7,361.2 
						173,360.9 173.2,360.6 173.4,360.3 173.6,360 173.9,359.7 174.1,359.3 174.3,359 174.5,358.7 174.7,358.4 174.8,358 175,357.7 
						175.2,357.3 175.3,357 175.5,356.6 175.6,356.3 175.7,355.9 175.8,355.5 176,355.2 176.1,354.8 176.2,354.4 176.2,354 
						176.3,353.6 176.4,353.3 176.4,352.9 176.5,352.5 176.5,352.1 176.5,351.7 176.5,351.3 176.6,350.9 176.6,345 					"/>
					<polyline class="st5" points="154.9,362.9 160.8,362.9 161.4,362.9 162,362.8 162.6,362.8 163.2,362.7 163.8,362.5 
						164.4,362.4 164.9,362.2 165.5,362 166,361.7 166.5,361.4 167.1,361.2 167.5,360.8 168,360.5 168.5,360.1 168.9,359.8 
						169.3,359.4 169.7,359 170.1,358.5 170.5,358.1 170.8,357.6 171.1,357.1 171.4,356.6 171.7,356.1 171.9,355.5 172.1,355 
						172.3,354.4 172.5,353.9 172.6,353.3 172.7,352.7 172.8,352.1 172.8,351.5 172.8,350.9 172.8,345 					"/>
					<polyline class="st5" points="154.9,359.2 160.8,359.2 161.2,359.2 161.7,359.2 162.1,359.1 162.5,359 162.9,358.9 
						163.3,358.8 163.7,358.7 164.1,358.5 164.4,358.4 164.8,358.2 165.1,358 165.5,357.8 165.8,357.5 166.1,357.3 166.4,357 
						166.7,356.8 167,356.5 167.2,356.2 167.5,355.8 167.7,355.5 167.9,355.2 168.1,354.8 168.3,354.5 168.5,354.1 168.6,353.7 
						168.8,353.3 168.9,352.9 169,352.5 169,352.1 169.1,351.7 169.1,351.3 169.1,350.9 169.1,345 					"/>
					<polyline class="st5" points="165.4,345 165.4,350.9 165.4,351.1 165.4,351.3 165.4,351.6 165.3,351.8 165.3,352 165.2,352.2 
						165.2,352.4 165.1,352.7 165,352.9 164.9,353.1 164.8,353.3 164.6,353.4 164.5,353.6 164.4,353.8 164.2,354 164.1,354.1 
						163.9,354.3 163.8,354.4 163.6,354.6 163.4,354.7 163.2,354.8 163,354.9 162.8,355 162.6,355.1 162.4,355.2 162.2,355.3 
						162,355.3 161.7,355.4 161.5,355.4 161.3,355.5 161,355.5 160.8,355.5 154.9,355.5 					"/>
				</g>
				<g>
					<polyline class="st5" points="127.4,344.8 127.4,350.9 127.4,351.4 127.4,351.9 127.4,352.3 127.5,352.8 127.5,353.3 
						127.6,353.8 127.7,354.3 127.7,354.8 127.8,355.2 128,355.7 128.1,356.2 128.2,356.6 128.4,357.1 128.5,357.5 128.7,358 
						128.9,358.4 129.1,358.8 129.3,359.3 129.5,359.7 129.7,360.1 129.9,360.5 130.1,360.9 130.4,361.3 130.6,361.7 130.9,362.1 
						131.2,362.4 131.5,362.8 131.8,363.2 132,363.5 132.4,363.9 132.7,364.2 133,364.6 133.3,364.9 133.7,365.2 134,365.5 
						134.4,365.8 134.7,366.1 135.1,366.4 135.5,366.7 135.8,366.9 136.2,367.2 136.6,367.4 137,367.7 137.4,367.9 137.8,368.1 
						138.3,368.3 138.7,368.5 139.1,368.7 139.6,368.9 140,369.1 140.4,369.2 140.9,369.4 141.4,369.5 141.8,369.7 142.3,369.8 
						142.7,369.9 143.2,370 143.7,370.1 144.2,370.1 144.7,370.2 145.1,370.2 145.6,370.3 146.1,370.3 146.6,370.3 152.8,370.3 
											"/>
					<polyline class="st5" points="131.1,345 131.1,350.9 131.1,351.3 131.1,351.7 131.1,352.1 131.1,352.5 131.2,352.9 
						131.2,353.3 131.3,353.6 131.4,354 131.5,354.4 131.6,354.8 131.7,355.2 131.8,355.5 131.9,355.9 132,356.3 132.1,356.6 
						132.3,357 132.4,357.3 132.6,357.7 132.8,358 133,358.4 133.1,358.7 133.3,359 133.5,359.3 133.7,359.7 134,360 134.2,360.3 
						134.4,360.6 134.7,360.9 134.9,361.2 135.1,361.4 135.4,361.7 135.7,362 135.9,362.3 136.2,362.5 136.5,362.8 136.8,363 
						137.1,363.2 137.4,363.5 137.7,363.7 138,363.9 138.3,364.1 138.6,364.3 139,364.5 139.3,364.7 139.6,364.9 140,365.1 
						140.3,365.2 140.7,365.4 141,365.5 141.4,365.6 141.8,365.8 142.1,365.9 142.5,366 142.9,366.1 143.2,366.2 143.6,366.3 
						144,366.4 144.4,366.4 144.8,366.5 145.2,366.5 145.6,366.6 146,366.6 146.4,366.6 146.8,366.6 152.7,366.6 					"/>
					<polyline class="st5" points="134.8,345 134.8,350.9 134.8,351.5 134.8,352.1 134.9,352.7 135,353.3 135.1,353.9 135.3,354.4 
						135.5,355 135.7,355.5 136,356.1 136.2,356.6 136.5,357.1 136.8,357.6 137.2,358.1 137.5,358.5 137.9,359 138.3,359.4 
						138.7,359.8 139.1,360.2 139.6,360.5 140.1,360.8 140.6,361.2 141.1,361.4 141.6,361.7 142.1,362 142.7,362.2 143.2,362.4 
						143.8,362.5 144.4,362.7 145,362.8 145.6,362.8 146.2,362.9 146.8,362.9 152.7,362.9 					"/>
					<polyline class="st5" points="138.5,345 138.5,350.9 138.5,351.3 138.5,351.7 138.6,352.1 138.6,352.5 138.7,352.9 
						138.8,353.3 139,353.7 139.1,354.1 139.3,354.5 139.5,354.8 139.7,355.2 139.9,355.5 140.1,355.8 140.4,356.2 140.6,356.5 
						140.9,356.8 141.2,357 141.5,357.3 141.8,357.5 142.1,357.8 142.5,358 142.8,358.2 143.2,358.4 143.6,358.5 143.9,358.7 
						144.3,358.8 144.7,358.9 145.1,359 145.5,359.1 146,359.2 146.4,359.2 146.8,359.2 152.7,359.2 					"/>
					<polyline class="st5" points="152.7,355.5 146.8,355.5 146.6,355.5 146.3,355.5 146.1,355.4 145.9,355.4 145.6,355.3 
						145.4,355.3 145.2,355.2 145,355.1 144.8,355 144.6,354.9 144.4,354.8 144.2,354.7 144,354.6 143.9,354.4 143.7,354.3 
						143.5,354.1 143.4,354 143.2,353.8 143.1,353.6 143,353.4 142.8,353.3 142.7,353.1 142.6,352.9 142.5,352.7 142.5,352.5 
						142.4,352.2 142.3,352 142.3,351.8 142.2,351.6 142.2,351.3 142.2,351.1 142.2,350.9 142.2,345 					"/>
				</g>
				<g>
					<path class="st5" d="M86.4,180.3l1.9,7.5l0.2,0.6l0.2,0.6l0.2,0.6l0.2,0.6l0.2,0.6l0.2,0.6l0.2,0.6l0.2,0.6l0.2,0.6l0.3,0.6
						l0.3,0.5l0.3,0.5l0.3,0.5l0.3,0.5l0.3,0.5l0.3,0.5l0.3,0.5l0.3,0.5l0.3,0.5l0.3,0.5l0.3,0.5l0.4,0.4l0.4,0.4l0.4,0.4l0.4,0.4
						l0.4,0.4l0.4,0.4l0.4,0.4l0.4,0.4l0.4,0.4l0.4,0.3l0.4,0.3l0.1,0l0,0c0,0,0,0,0,0l0,0l0,0l0.1,0l0.3,0l0.5,0.1l0.5,0.1l0.5,0
						l0.5,0l0.6,0l0.6,0l0.6,0l0.6,0l0.6,0l0.6,0l0.6,0l0.6-0.1l0.6-0.1l0.6-0.1l0.6-0.1l0.6-0.1l0.6-0.1l0.6-0.1l0.6-0.1l0.6-0.2
						l0.6-0.2l0.6-0.2l0.6-0.2l0.6-0.2l0.6-0.2l0.6-0.2l0.6-0.2l0.6-0.3l0.6-0.3l0.6-0.3l0.6-0.3l6.9-3.7"/>
					<polyline class="st5" points="90,179.6 91.9,186.9 92,187.4 92.1,187.9 92.3,188.4 92.5,188.8 92.8,189.8 93.2,190.7 
						93.6,191.6 94,192.5 94.5,193.4 95,194.2 95.5,195 96.1,195.7 96.4,196.1 96.7,196.4 96.9,196.8 97.2,197.1 97.6,197.5 
						97.9,197.8 98.2,198.1 98.5,198.4 98.8,198.7 99.2,199 99.5,199.3 99.8,199.6 100.3,199.6 100.7,199.7 101.2,199.7 
						101.6,199.8 102,199.8 102.5,199.8 102.9,199.8 103.4,199.8 103.9,199.8 104.3,199.8 104.8,199.8 105.2,199.7 106.2,199.6 
						107.1,199.5 108,199.3 109,199.1 109.9,198.8 110.9,198.5 111.8,198.1 112.8,197.8 113.2,197.5 113.7,197.3 114.1,197.1 
						114.6,196.8 121.2,193.3 					"/>
					<polyline class="st5" points="93.6,178.6 95.5,185.9 95.7,186.7 95.9,187.5 96.2,188.2 96.5,188.9 96.8,189.6 97.1,190.3 
						97.5,190.9 97.9,191.5 98.3,192.1 98.7,192.7 99.1,193.3 99.6,193.8 100,194.3 100.5,194.8 101,195.2 101.6,195.7 102.2,195.8 
						102.9,195.8 103.6,195.9 104.3,195.9 105,195.9 105.7,195.8 106.4,195.7 107.1,195.6 107.8,195.5 108.6,195.3 109.3,195.1 
						110,194.8 110.7,194.6 111.4,194.3 112.1,193.9 112.8,193.6 119.5,190 					"/>
					<polyline class="st5" points="97.2,177.7 99,185 99.2,185.6 99.4,186.1 99.5,186.6 99.7,187.1 100,187.6 100.2,188 
						100.4,188.5 100.7,188.9 101,189.3 101.3,189.7 101.6,190.1 101.9,190.5 102.2,190.8 102.6,191.2 102.9,191.5 103.3,191.8 
						103.7,191.8 104.2,191.9 104.7,191.9 105.2,191.9 105.6,191.9 106.1,191.9 106.6,191.8 107.1,191.7 107.6,191.6 108.1,191.5 
						108.6,191.4 109.1,191.2 109.6,191 110.1,190.8 110.6,190.6 111.1,190.3 117.7,186.7 					"/>
					<polyline class="st5" points="116,183.5 109.3,187.1 109.1,187.2 108.8,187.3 108.5,187.4 108.2,187.5 108,187.6 107.7,187.7 
						107.4,187.8 107.1,187.8 106.8,187.9 106.6,187.9 106.3,187.9 106,187.9 105.8,187.9 105.5,187.9 105.2,187.9 105,187.9 
						104.8,187.7 104.6,187.5 104.4,187.3 104.2,187.1 104,186.9 103.9,186.7 103.7,186.5 103.6,186.3 103.4,186 103.3,185.8 
						103.1,185.5 103,185.3 102.9,185 102.8,184.7 102.7,184.4 102.6,184.1 100.8,176.8 					"/>
				</g>
			</g>
		</g>
	</g>
	<g>
		<path class="st2" d="M246.8,226.5c0-12,8.1-20.4,19.5-20.4s18.8,8.4,19.1,20.4c0,11.4-7.5,20.1-19.5,20.1
			C254.6,246.7,246.8,237.9,246.8,226.5z M246.8,341.1c0-12,8.1-20.4,19.5-20.4s18.8,8.4,19.1,20.4c0,11.4-7.5,20.1-19.5,20.1
			C254.6,361.2,246.8,352.5,246.8,341.1z"/>
		<g>
			<path class="st3" d="M246.8,226.5c0-12,8.1-20.4,19.5-20.4s18.8,8.4,19.1,20.4c0,11.4-7.5,20.1-19.5,20.1
				C254.6,246.7,246.8,237.9,246.8,226.5z M246.8,341.1c0-12,8.1-20.4,19.5-20.4s18.8,8.4,19.1,20.4c0,11.4-7.5,20.1-19.5,20.1
				C254.6,361.2,246.8,352.5,246.8,341.1z"/>
			<g>
				<g>
					<path class="st4" d="M255.9,309.6c-6.6,2.1-12.7,6.8-16.5,12.7c-1.9,2.9-3.2,6.1-4.1,9.3c-0.8,3.2-1.2,6.4-1.2,9.5"/>
					<path class="st4" d="M257,313.1c-5.9,1.8-11.2,6-14.5,11.2c-1.6,2.6-2.8,5.4-3.6,8.3c-0.8,2.9-1.1,5.7-1.1,8.5"/>
					<path class="st4" d="M245.2,341.1c0-2.2,0.3-4.4,0.8-6.6c0.6-2.2,1.5-4.2,2.7-6.2c2.4-3.8,6.2-6.8,10.6-8.1"/>
					<path class="st4" d="M258.2,316.7c-5.1,1.6-9.7,5.2-12.5,9.7c-1.4,2.3-2.5,4.7-3.2,7.2c-0.7,2.5-0.9,5-1,7.6"/>
					<path class="st4" d="M249,341.1c0-1.9,0.2-3.8,0.7-5.6c0.5-1.8,1.2-3.5,2.2-5.1c2-3.1,5-5.5,8.6-6.6"/>
				</g>
				<g>
					<path class="st4" d="M292.6,322.1c-1.8-2.9-4.3-5.7-7.2-7.8c-2.9-2.2-6.2-3.9-9.6-4.9c-3.4-1-6.8-1.4-10-1.4
						c-3.3,0-6.6,0.6-9.9,1.6"/>
					<path class="st4" d="M289.5,324.1c-1.6-2.6-3.8-5-6.3-6.9c-2.5-1.9-5.4-3.4-8.4-4.3c-6-1.7-11.8-1.6-17.7,0.2"/>
					<path class="st4" d="M259.3,320.2c4.3-1.4,8.9-1.4,13.3-0.2c4.3,1.3,8.2,4.2,10.6,8.1"/>
					<path class="st4" d="M286.4,326.1c-2.8-4.5-7.5-8.1-12.7-9.7c-5.2-1.5-10.4-1.4-15.5,0.2"/>
					<path class="st4" d="M260.5,323.7c3.5-1.1,7.5-1.2,11.1-0.1c3.5,1.1,6.6,3.4,8.6,6.6"/>
				</g>
				<g>
					<path class="st4" d="M292.8,359.6c1.9-3,3.2-6.2,4.1-9.4c0.4-1.6,0.7-3.2,0.9-4.8l0.1-1.2l0.1-1.2c0-0.8,0.1-1.7,0.1-2.5
						c-0.1-3.2-0.6-6.2-1.4-9.3c-0.9-3.1-2.2-6.2-4.1-9.1"/>
					<path class="st4" d="M289.7,357.6c1.7-2.6,2.8-5.4,3.6-8.3c0.7-2.9,1-5.7,1-8.7c-0.1-2.9-0.5-5.6-1.3-8.4
						c-0.8-2.8-2-5.5-3.6-8.1"/>
					<path class="st4" d="M283.2,328.1c1.2,1.9,2.1,4,2.7,6.1c0.6,2.2,0.9,4.3,1,6.6c0,2.2-0.2,4.5-0.8,6.6
						c-0.6,2.2-1.5,4.3-2.7,6.2"/>
					<path class="st4" d="M286.6,355.6c1.4-2.3,2.5-4.7,3.1-7.2c0.6-2.5,0.9-5,0.9-7.7c-0.1-2.6-0.5-5-1.1-7.5
						c-0.7-2.5-1.7-4.9-3.2-7.1"/>
					<path class="st4" d="M280.1,330.1c1,1.6,1.7,3.3,2.3,5.1c0.5,1.8,0.8,3.8,0.8,5.7c0,1.9-0.2,3.8-0.7,5.6
						c-0.5,1.8-1.2,3.5-2.2,5.1"/>
				</g>
				<g>
					<path class="st4" d="M256.3,372.5c3.4,1,6.8,1.4,10,1.4c3.2,0,6.5-0.5,9.8-1.5c6.6-2,12.9-6.7,16.6-12.7"/>
					<path class="st4" d="M257.4,368.9c3,0.9,6,1.2,8.9,1.2c2.9,0,5.8-0.5,8.7-1.4c5.9-1.8,11.4-5.9,14.6-11.2"/>
					<path class="st4" d="M283.5,353.6c-2.4,3.9-6.3,6.7-10.6,8.1c-4.3,1.3-8.9,1.4-13.3,0.1"/>
					<path class="st4" d="M258.5,365.4c2.6,0.8,5.2,1.1,7.8,1.1c2.5,0,5.1-0.4,7.7-1.2c5.1-1.6,9.8-5.1,12.6-9.6"/>
					<path class="st4" d="M280.4,351.6c-2,3.1-5.1,5.4-8.6,6.6c-1.8,0.5-3.6,0.8-5.6,0.8c-1.9,0-3.8-0.2-5.5-0.8"/>
				</g>
				<g>
					<path class="st4" d="M234.1,341.1c0,3.2,0.4,6.4,1.3,9.6c0.9,3.2,2.3,6.4,4.2,9.3c3.8,5.9,10,10.5,16.7,12.5"/>
					<path class="st4" d="M237.8,341.1c0,2.9,0.4,5.7,1.2,8.6c0.8,2.9,2.1,5.6,3.7,8.2c3.3,5.2,8.8,9.2,14.7,11"/>
					<path class="st4" d="M259.6,361.8c-4.3-1.3-8.2-4.2-10.7-8c-1.2-1.9-2.2-4-2.8-6.1c-0.6-2.2-0.9-4.4-0.9-6.6"/>
					<path class="st4" d="M241.5,341.1c0,2.5,0.3,5.1,1,7.6c0.7,2.5,1.8,4.9,3.3,7.2c2.9,4.5,7.6,7.9,12.7,9.5"/>
					<path class="st4" d="M260.7,358.3c-3.5-1.1-6.7-3.4-8.7-6.5c-1-1.6-1.8-3.3-2.3-5.1c-0.5-1.8-0.7-3.7-0.8-5.6"/>
				</g>
			</g>
			<g>
				<g>
					<path class="st4" d="M255.9,195.1c-6.6,2.1-12.7,6.8-16.5,12.7c-1.9,2.9-3.2,6.1-4.1,9.3c-0.8,3.2-1.2,6.4-1.2,9.5"/>
					<path class="st4" d="M257,198.6c-5.9,1.8-11.2,6-14.5,11.2c-1.6,2.6-2.8,5.4-3.6,8.3c-0.8,2.9-1.1,5.7-1.1,8.5"/>
					<path class="st4" d="M245.2,226.5c0-2.2,0.3-4.4,0.8-6.6c0.6-2.2,1.5-4.2,2.7-6.2c2.4-3.8,6.2-6.8,10.6-8.1"/>
					<path class="st4" d="M258.2,202.1c-5.1,1.6-9.7,5.2-12.5,9.7c-1.4,2.3-2.5,4.7-3.2,7.2c-0.7,2.5-0.9,5-1,7.6"/>
					<path class="st4" d="M249,226.5c0-1.9,0.2-3.8,0.7-5.6c0.5-1.8,1.2-3.5,2.2-5.1c2-3.1,5-5.5,8.6-6.6"/>
				</g>
				<g>
					<path class="st4" d="M292.6,207.6c-1.8-2.9-4.3-5.7-7.2-7.8c-2.9-2.2-6.2-3.9-9.6-4.9c-3.4-1-6.8-1.4-10-1.4
						c-3.3,0-6.6,0.6-9.9,1.6"/>
					<path class="st4" d="M289.5,209.6c-1.6-2.6-3.8-5-6.3-6.9c-2.5-1.9-5.4-3.4-8.4-4.3c-6-1.7-11.8-1.6-17.7,0.2"/>
					<path class="st4" d="M259.3,205.6c4.3-1.4,8.9-1.4,13.3-0.2c4.3,1.3,8.2,4.2,10.6,8.1"/>
					<path class="st4" d="M286.4,211.6c-2.8-4.5-7.5-8.1-12.7-9.7c-5.2-1.5-10.4-1.4-15.5,0.2"/>
					<path class="st4" d="M260.5,209.1c3.5-1.1,7.5-1.2,11.1-0.1c3.5,1.1,6.6,3.4,8.6,6.6"/>
				</g>
				<g>
					<path class="st4" d="M292.8,245.1c1.9-3,3.2-6.2,4.1-9.4c0.4-1.6,0.7-3.2,0.9-4.8l0.1-1.2l0.1-1.2c0-0.8,0.1-1.7,0.1-2.5
						c-0.1-3.2-0.6-6.2-1.4-9.3c-0.9-3.1-2.2-6.2-4.1-9.1"/>
					<path class="st4" d="M289.7,243.1c1.7-2.6,2.8-5.4,3.6-8.3c0.7-2.9,1-5.7,1-8.7c-0.1-2.9-0.5-5.6-1.3-8.4
						c-0.8-2.8-2-5.5-3.6-8.1"/>
					<path class="st4" d="M283.2,213.6c1.2,1.9,2.1,4,2.7,6.1c0.6,2.2,0.9,4.3,1,6.6c0,2.2-0.2,4.5-0.8,6.6
						c-0.6,2.2-1.5,4.3-2.7,6.2"/>
					<path class="st4" d="M286.6,241.1c1.4-2.3,2.5-4.7,3.1-7.2c0.6-2.5,0.9-5,0.9-7.7c-0.1-2.6-0.5-5-1.1-7.5
						c-0.7-2.5-1.7-4.9-3.2-7.1"/>
					<path class="st4" d="M280.1,215.6c1,1.6,1.7,3.3,2.3,5.1c0.5,1.8,0.8,3.8,0.8,5.7c0,1.9-0.2,3.8-0.7,5.6
						c-0.5,1.8-1.2,3.5-2.2,5.1"/>
				</g>
				<g>
					<path class="st4" d="M256.3,257.9c3.4,1,6.8,1.4,10,1.4c3.2,0,6.5-0.5,9.8-1.5c6.6-2,12.9-6.7,16.6-12.7"/>
					<path class="st4" d="M257.4,254.4c3,0.9,6,1.2,8.9,1.2c2.9,0,5.8-0.5,8.7-1.4c5.9-1.8,11.4-5.9,14.6-11.2"/>
					<path class="st4" d="M283.5,239.1c-2.4,3.9-6.3,6.7-10.6,8.1c-4.3,1.3-8.9,1.4-13.3,0.1"/>
					<path class="st4" d="M258.5,250.8c2.6,0.8,5.2,1.1,7.8,1.1c2.5,0,5.1-0.4,7.7-1.2c5.1-1.6,9.8-5.1,12.6-9.6"/>
					<path class="st4" d="M280.4,237.1c-2,3.1-5.1,5.4-8.6,6.6c-1.8,0.5-3.6,0.8-5.6,0.8c-1.9,0-3.8-0.2-5.5-0.8"/>
				</g>
				<g>
					<path class="st4" d="M234.1,226.5c0,3.2,0.4,6.4,1.3,9.6c0.9,3.2,2.3,6.4,4.2,9.3c3.8,5.9,10,10.5,16.7,12.5"/>
					<path class="st4" d="M237.8,226.5c0,2.9,0.4,5.7,1.2,8.6c0.8,2.9,2.1,5.6,3.7,8.2c3.3,5.2,8.8,9.2,14.7,11"/>
					<path class="st4" d="M259.6,247.3c-4.3-1.3-8.2-4.2-10.7-8c-1.2-1.9-2.2-4-2.8-6.1c-0.6-2.2-0.9-4.4-0.9-6.6"/>
					<path class="st4" d="M241.5,226.5c0,2.5,0.3,5.1,1,7.6c0.7,2.5,1.8,4.9,3.3,7.2c2.9,4.5,7.6,7.9,12.7,9.5"/>
					<path class="st4" d="M260.7,243.7c-3.5-1.1-6.7-3.4-8.7-6.5c-1-1.6-1.8-3.3-2.3-5.1c-0.5-1.8-0.7-3.7-0.8-5.6"/>
				</g>
			</g>
		</g>
	</g>
	<g>
		<path class="st2" d="M373.7,173.3H373l-36.7,19.8l-5.5-21.7l46.1-24.7h24.3v211h-27.6V173.3z"/>
		<g>
			<path class="st3" d="M373.7,173.3H373l-36.7,19.8l-5.5-21.7l46.1-24.7h24.3v211h-27.6V173.3z"/>
			<g>
				<g>
					<line class="st4" x1="357.4" y1="142.8" x2="333.6" y2="155.5"/>
					<line class="st4" x1="359.2" y1="146" x2="335.4" y2="158.8"/>
					<line class="st4" x1="338.8" y1="165.3" x2="362.7" y2="152.6"/>
					<line class="st4" x1="360.9" y1="149.3" x2="337.1" y2="162.1"/>
					<line class="st4" x1="340.6" y1="168.6" x2="364.4" y2="155.8"/>
				</g>
				<g>
					<polyline class="st4" points="388.6,134 373.8,134 357.4,142.8 					"/>
					<polyline class="st4" points="388.6,137.7 374.7,137.7 359.2,146 					"/>
					<polyline class="st4" points="362.7,152.6 376.5,145.1 388.6,145.1 					"/>
					<polyline class="st4" points="388.6,141.4 375.6,141.4 360.9,149.3 					"/>
					<polyline class="st4" points="364.4,155.8 377.5,148.9 388.6,148.9 					"/>
				</g>
				<g>
					<line class="st4" x1="413.9" y1="185.9" x2="413.9" y2="159.4"/>
					<line class="st4" x1="410.2" y1="185.9" x2="410.2" y2="159.4"/>
					<line class="st4" x1="402.8" y1="159.4" x2="402.8" y2="185.9"/>
					<line class="st4" x1="406.5" y1="185.9" x2="406.5" y2="159.4"/>
					<line class="st4" x1="399.1" y1="159.4" x2="399.1" y2="185.9"/>
				</g>
				<g>
					<line class="st4" x1="413.9" y1="212.4" x2="413.9" y2="185.9"/>
					<line class="st4" x1="410.2" y1="212.4" x2="410.2" y2="185.9"/>
					<line class="st4" x1="402.8" y1="185.9" x2="402.8" y2="212.4"/>
					<line class="st4" x1="406.5" y1="212.4" x2="406.5" y2="185.9"/>
					<line class="st4" x1="399.1" y1="185.9" x2="399.1" y2="212.4"/>
				</g>
				<g>
					<line class="st4" x1="413.9" y1="238.9" x2="413.9" y2="212.4"/>
					<line class="st4" x1="410.2" y1="238.9" x2="410.2" y2="212.4"/>
					<line class="st4" x1="402.8" y1="212.4" x2="402.8" y2="238.9"/>
					<line class="st4" x1="406.5" y1="238.9" x2="406.5" y2="212.4"/>
					<line class="st4" x1="399.1" y1="212.4" x2="399.1" y2="238.9"/>
				</g>
				<g>
					<line class="st4" x1="413.9" y1="265.4" x2="413.9" y2="238.9"/>
					<line class="st4" x1="410.2" y1="265.4" x2="410.2" y2="238.9"/>
					<line class="st4" x1="402.8" y1="238.9" x2="402.8" y2="265.4"/>
					<line class="st4" x1="406.5" y1="265.4" x2="406.5" y2="238.9"/>
					<line class="st4" x1="399.1" y1="238.9" x2="399.1" y2="265.4"/>
				</g>
				<g>
					<line class="st4" x1="413.9" y1="292" x2="413.9" y2="265.4"/>
					<line class="st4" x1="410.2" y1="292" x2="410.2" y2="265.4"/>
					<line class="st4" x1="402.8" y1="265.4" x2="402.8" y2="292"/>
					<line class="st4" x1="406.5" y1="292" x2="406.5" y2="265.4"/>
					<line class="st4" x1="399.1" y1="265.4" x2="399.1" y2="292"/>
				</g>
				<g>
					<line class="st4" x1="413.9" y1="318.5" x2="413.9" y2="292"/>
					<line class="st4" x1="410.2" y1="318.5" x2="410.2" y2="292"/>
					<line class="st4" x1="402.8" y1="292" x2="402.8" y2="318.5"/>
					<line class="st4" x1="406.5" y1="318.5" x2="406.5" y2="292"/>
					<line class="st4" x1="399.1" y1="292" x2="399.1" y2="318.5"/>
				</g>
				<g>
					<line class="st4" x1="413.9" y1="345" x2="413.9" y2="318.5"/>
					<line class="st4" x1="410.2" y1="345" x2="410.2" y2="318.5"/>
					<line class="st4" x1="402.8" y1="318.5" x2="402.8" y2="345"/>
					<line class="st4" x1="406.5" y1="345" x2="406.5" y2="318.5"/>
					<line class="st4" x1="399.1" y1="318.5" x2="399.1" y2="345"/>
				</g>
				<g>
					<line class="st4" x1="386.3" y1="370.3" x2="388.6" y2="370.3"/>
					<line class="st4" x1="386.3" y1="366.6" x2="388.6" y2="366.6"/>
					<line class="st4" x1="388.6" y1="359.2" x2="386.3" y2="359.2"/>
					<line class="st4" x1="386.3" y1="362.9" x2="388.6" y2="362.9"/>
					<line class="st4" x1="388.6" y1="355.5" x2="386.3" y2="355.5"/>
				</g>
				<g>
					<line class="st4" x1="361" y1="319.9" x2="361" y2="345"/>
					<line class="st4" x1="364.7" y1="319.9" x2="364.7" y2="345"/>
					<line class="st4" x1="372.1" y1="345" x2="372.1" y2="319.9"/>
					<line class="st4" x1="368.4" y1="319.9" x2="368.4" y2="345"/>
					<line class="st4" x1="375.8" y1="345" x2="375.8" y2="319.9"/>
				</g>
				<g>
					<line class="st4" x1="361" y1="294.7" x2="361" y2="319.9"/>
					<line class="st4" x1="364.7" y1="294.7" x2="364.7" y2="319.9"/>
					<line class="st4" x1="372.1" y1="319.9" x2="372.1" y2="294.7"/>
					<line class="st4" x1="368.4" y1="294.7" x2="368.4" y2="319.9"/>
					<line class="st4" x1="375.8" y1="319.9" x2="375.8" y2="294.7"/>
				</g>
				<g>
					<line class="st4" x1="361" y1="269.6" x2="361" y2="294.7"/>
					<line class="st4" x1="364.7" y1="269.6" x2="364.7" y2="294.7"/>
					<line class="st4" x1="372.1" y1="294.7" x2="372.1" y2="269.6"/>
					<line class="st4" x1="368.4" y1="269.6" x2="368.4" y2="294.7"/>
					<line class="st4" x1="375.8" y1="294.7" x2="375.8" y2="269.6"/>
				</g>
				<g>
					<line class="st4" x1="361" y1="244.4" x2="361" y2="269.6"/>
					<line class="st4" x1="364.7" y1="244.4" x2="364.7" y2="269.6"/>
					<line class="st4" x1="372.1" y1="269.6" x2="372.1" y2="244.4"/>
					<line class="st4" x1="368.4" y1="244.4" x2="368.4" y2="269.6"/>
					<line class="st4" x1="375.8" y1="269.6" x2="375.8" y2="244.4"/>
				</g>
				<g>
					<line class="st4" x1="361" y1="219.3" x2="361" y2="244.4"/>
					<line class="st4" x1="364.7" y1="219.3" x2="364.7" y2="244.4"/>
					<line class="st4" x1="372.1" y1="244.4" x2="372.1" y2="219.3"/>
					<line class="st4" x1="368.4" y1="219.3" x2="368.4" y2="244.4"/>
					<line class="st4" x1="375.8" y1="244.4" x2="375.8" y2="219.3"/>
				</g>
				<g>
					<line class="st4" x1="361" y1="194.2" x2="361" y2="219.3"/>
					<line class="st4" x1="364.7" y1="194.2" x2="364.7" y2="219.3"/>
					<line class="st4" x1="372.1" y1="219.3" x2="372.1" y2="194.2"/>
					<line class="st4" x1="368.4" y1="194.2" x2="368.4" y2="219.3"/>
					<line class="st4" x1="375.8" y1="219.3" x2="375.8" y2="194.2"/>
				</g>
				<g>
					<line class="st4" x1="356.7" y1="196.5" x2="361" y2="194.2"/>
					<line class="st4" x1="354.9" y1="193.3" x2="359.3" y2="190.9"/>
					<line class="st4" x1="355.7" y1="184.4" x2="351.4" y2="186.7"/>
					<line class="st4" x1="353.1" y1="190" x2="357.5" y2="187.7"/>
					<line class="st4" x1="354" y1="181.1" x2="349.6" y2="183.5"/>
				</g>
				<g>
					<path class="st5" d="M333.8,155.4l-4.2,2.3l-0.3,0.2l-0.3,0.2l-0.3,0.2l-0.3,0.2l-0.3,0.2l-0.3,0.2l-0.3,0.2l-0.3,0.3l-0.3,0.3
						l-0.3,0.3l-0.3,0.3l-0.3,0.3l-0.2,0.3l-0.2,0.3l-0.2,0.3l-0.2,0.3l-0.2,0.3l-0.2,0.3l-0.2,0.3l-0.2,0.3l-0.2,0.4l-0.2,0.4
						l-0.2,0.4l-0.1,0.4l-0.1,0.4l-0.1,0.4l-0.1,0.4l-0.1,0.4l-0.1,0.4l-0.1,0.4l-0.1,0.4l-0.1,0.4l0,0.1l0,0c0,0,0,0,0,0l0,0l0,0
						l-0.1,0.1l-0.1,0.2l-0.2,0.3l-0.2,0.3l-0.2,0.3l-0.2,0.3l-0.2,0.3l-0.2,0.4l-0.2,0.4l-0.2,0.4l-0.2,0.4l-0.2,0.4l-0.1,0.4
						l-0.1,0.4l-0.1,0.4L320,173l-0.1,0.4l-0.1,0.4l-0.1,0.4l-0.1,0.4l-0.1,0.4l0,0.4l0,0.4l0,0.4l0,0.4l0,0.4l0,0.4l0,0.4l0,0.4
						l0,0.4l0.1,0.4l0.1,0.4l0.1,0.4l1.2,4.7"/>
					<polyline class="st5" points="335.4,158.8 331.3,161 331,161.1 330.8,161.3 330.5,161.4 330.2,161.6 330,161.8 329.7,162 
						329.5,162.2 329.3,162.4 329,162.6 328.8,162.8 328.6,163.1 328.4,163.3 328.2,163.5 328,163.8 327.8,164 327.7,164.3 
						327.5,164.6 327.3,164.8 327.2,165.1 327,165.4 326.9,165.7 326.7,166 326.6,166.3 326.5,166.6 326.4,166.9 326.3,167.2 
						326.1,167.8 325.9,168.5 325.8,169.1 325.4,169.7 325,170.2 324.7,170.8 324.5,171.1 324.4,171.4 324.2,171.7 324.1,172 
						324,172.3 323.9,172.6 323.8,172.8 323.7,173.2 323.6,173.5 323.5,173.8 323.4,174.1 323.4,174.4 323.3,174.7 323.3,175 
						323.2,175.3 323.2,175.6 323.2,175.9 323.2,176.2 323.2,176.5 323.2,176.8 323.2,177.2 323.2,177.5 323.3,177.8 323.3,178.1 
						323.4,178.4 323.5,178.7 324.6,183.2 					"/>
					<polyline class="st5" points="337.1,162.1 333.1,164.2 332.8,164.3 332.6,164.5 332.4,164.6 332.2,164.7 332,164.9 331.9,165 
						331.7,165.2 331.5,165.3 331.3,165.5 331.2,165.7 331,165.8 330.8,166 330.7,166.2 330.5,166.4 330.4,166.6 330.3,166.8 
						330,167.2 329.8,167.6 329.6,168.1 329.4,168.5 329.2,169 329.1,169.5 328.9,170 328.8,170.5 328.5,170.9 328.3,171.3 
						328,171.7 327.8,172.2 327.5,172.6 327.4,173.1 327.2,173.5 327.1,174 327,174.2 327,174.5 326.9,174.7 326.9,174.9 
						326.9,175.2 326.9,175.4 326.8,175.7 326.8,175.9 326.8,176.1 326.8,176.4 326.9,176.6 326.9,176.8 326.9,177.1 327,177.3 
						327,177.6 327.1,177.8 328.2,182.2 					"/>
					<polyline class="st5" points="338.8,165.3 334.8,167.5 334.5,167.7 334.2,167.8 334,168 333.7,168.3 333.5,168.5 333.3,168.7 
						333.1,169 332.9,169.3 332.7,169.5 332.5,169.8 332.4,170.1 332.3,170.5 332.1,170.8 332,171.1 332,171.5 331.9,171.8 
						331.7,172.1 331.5,172.4 331.3,172.7 331.1,173 331,173.3 330.9,173.6 330.8,173.9 330.7,174.3 330.6,174.6 330.5,174.9 
						330.5,175.2 330.5,175.6 330.5,175.9 330.5,176.2 330.6,176.6 330.7,176.9 331.8,181.3 					"/>
					<polyline class="st5" points="335.4,180.4 334.2,176 334.2,175.8 334.2,175.6 334.2,175.4 334.2,175.2 334.2,175.1 
						334.2,174.9 334.2,174.7 334.2,174.5 334.3,174.3 334.4,174.2 334.4,174 334.5,173.8 334.6,173.6 334.7,173.5 334.8,173.3 
						334.9,173.2 335,173 335,172.8 335.1,172.6 335.1,172.4 335.2,172.2 335.3,172.1 335.4,171.9 335.5,171.7 335.6,171.6 
						335.7,171.4 335.8,171.3 335.9,171.2 336.1,171.1 336.2,171 336.4,170.8 336.5,170.8 340.6,168.6 					"/>
				</g>
				<g>
					<polyline class="st5" points="413.9,159.6 413.9,153.5 413.9,153 413.9,152.5 413.9,152 413.8,151.5 413.8,151 413.7,150.5 
						413.6,150.1 413.5,149.6 413.4,149.1 413.3,148.6 413.2,148.2 413.1,147.7 412.9,147.3 412.8,146.8 412.6,146.4 412.4,145.9 
						412.2,145.5 412,145.1 411.8,144.7 411.6,144.3 411.4,143.8 411.1,143.4 410.9,143 410.6,142.7 410.4,142.3 410.1,141.9 
						409.8,141.5 409.5,141.2 409.2,140.8 408.9,140.5 408.6,140.1 408.3,139.8 408,139.5 407.6,139.1 407.3,138.8 406.9,138.5 
						406.6,138.2 406.2,138 405.8,137.7 405.4,137.4 405,137.1 404.7,136.9 404.3,136.7 403.8,136.4 403.4,136.2 403,136 
						402.6,135.8 402.2,135.6 401.7,135.4 401.3,135.3 400.8,135.1 400.4,134.9 399.9,134.8 399.5,134.7 399,134.6 398.5,134.5 
						398.1,134.4 397.6,134.3 397.1,134.2 396.6,134.1 396.1,134.1 395.6,134.1 395.1,134 394.6,134 388.5,134 					"/>
					<polyline class="st5" points="410.2,159.4 410.2,153.5 410.2,153.1 410.2,152.7 410.2,152.3 410.1,151.9 410.1,151.5 
						410,151.1 410,150.7 409.9,150.3 409.8,149.9 409.7,149.5 409.6,149.2 409.5,148.8 409.4,148.4 409.3,148.1 409.1,147.7 
						409,147.4 408.8,147 408.7,146.7 408.5,146.3 408.3,146 408.1,145.6 407.9,145.3 407.7,145 407.5,144.7 407.3,144.4 
						407.1,144.1 406.9,143.8 406.6,143.5 406.4,143.2 406.1,142.9 405.9,142.6 405.6,142.3 405.3,142.1 405.1,141.8 404.8,141.6 
						404.5,141.3 404.2,141.1 403.9,140.9 403.6,140.6 403.3,140.4 403,140.2 402.6,140 402.3,139.8 402,139.6 401.6,139.5 
						401.3,139.3 401,139.1 400.6,139 400.3,138.8 399.9,138.7 399.5,138.6 399.2,138.4 398.8,138.3 398.4,138.2 398,138.1 
						397.7,138.1 397.3,138 396.9,137.9 396.5,137.9 396.1,137.8 395.7,137.8 395.3,137.8 394.9,137.7 394.5,137.7 388.6,137.7 
											"/>
					<polyline class="st5" points="406.5,159.4 406.5,153.5 406.5,152.9 406.5,152.3 406.4,151.6 406.3,151.1 406.1,150.5 
						406,149.9 405.8,149.3 405.6,148.8 405.3,148.3 405.1,147.7 404.8,147.2 404.5,146.7 404.1,146.3 403.8,145.8 403.4,145.4 
						403,145 402.6,144.6 402.1,144.2 401.7,143.8 401.2,143.5 400.7,143.2 400.2,142.9 399.7,142.6 399.2,142.4 398.6,142.2 
						398.1,142 397.5,141.8 396.9,141.7 396.3,141.6 395.7,141.5 395.1,141.5 394.5,141.4 388.6,141.4 					"/>
					<polyline class="st5" points="402.8,159.4 402.8,153.5 402.8,153.1 402.8,152.6 402.7,152.2 402.6,151.8 402.6,151.4 
						402.4,151 402.3,150.6 402.2,150.2 402,149.9 401.8,149.5 401.6,149.2 401.4,148.8 401.2,148.5 400.9,148.2 400.6,147.9 
						400.4,147.6 400.1,147.3 399.8,147 399.5,146.8 399.1,146.6 398.8,146.4 398.5,146.2 398.1,146 397.7,145.8 397.3,145.7 
						397,145.5 396.6,145.4 396.2,145.3 395.7,145.2 395.3,145.2 394.9,145.2 394.5,145.1 388.6,145.1 					"/>
					<polyline class="st5" points="388.6,148.9 394.5,148.9 394.7,148.9 395,148.9 395.2,148.9 395.4,148.9 395.6,149 395.9,149.1 
						396.1,149.1 396.3,149.2 396.5,149.3 396.7,149.4 396.9,149.5 397.1,149.6 397.2,149.8 397.4,149.9 397.6,150.1 397.8,150.2 
						397.9,150.4 398.1,150.5 398.2,150.7 398.3,150.9 398.4,151.1 398.5,151.3 398.7,151.5 398.7,151.7 398.8,151.9 398.9,152.1 
						399,152.3 399,152.5 399.1,152.8 399.1,153 399.1,153.2 399.1,153.5 399.1,159.4 					"/>
				</g>
				<g>
					<polyline class="st5" points="388.4,370.3 394.5,370.3 395,370.3 395.5,370.3 396,370.3 396.5,370.2 396.9,370.2 397.4,370.1 
						397.9,370 398.4,369.9 398.8,369.8 399.3,369.7 399.8,369.6 400.2,369.4 400.7,369.3 401.1,369.1 401.6,369 402,368.8 
						402.4,368.6 402.9,368.4 403.3,368.2 403.7,368 404.1,367.8 404.5,367.5 404.9,367.3 405.3,367 405.7,366.8 406.1,366.5 
						406.4,366.2 406.8,365.9 407.2,365.6 407.5,365.3 407.8,365 408.2,364.7 408.5,364.3 408.8,364 409.1,363.7 409.4,363.3 
						409.7,362.9 410,362.6 410.3,362.2 410.6,361.8 410.8,361.4 411.1,361 411.3,360.6 411.5,360.2 411.8,359.8 412,359.4 
						412.2,359 412.4,358.5 412.5,358.1 412.7,357.7 412.9,357.2 413,356.8 413.2,356.3 413.3,355.9 413.4,355.4 413.5,354.9 
						413.6,354.4 413.7,354 413.8,353.5 413.8,353 413.9,352.5 413.9,352 413.9,351.5 413.9,351 413.9,344.9 					"/>
					<polyline class="st5" points="388.6,366.6 394.5,366.6 394.9,366.6 395.3,366.6 395.7,366.6 396.1,366.5 396.5,366.5 
						396.9,366.4 397.3,366.4 397.7,366.3 398,366.2 398.4,366.1 398.8,366 399.2,365.9 399.5,365.8 399.9,365.6 400.3,365.5 
						400.6,365.4 401,365.2 401.3,365.1 401.6,364.9 402,364.7 402.3,364.5 402.6,364.3 403,364.1 403.3,363.9 403.6,363.7 
						403.9,363.5 404.2,363.2 404.5,363 404.8,362.8 405.1,362.5 405.3,362.3 405.6,362 405.9,361.7 406.1,361.4 406.4,361.2 
						406.6,360.9 406.9,360.6 407.1,360.3 407.3,360 407.5,359.7 407.7,359.3 407.9,359 408.1,358.7 408.3,358.4 408.5,358 
						408.7,357.7 408.8,357.3 409,357 409.1,356.6 409.3,356.3 409.4,355.9 409.5,355.5 409.6,355.2 409.7,354.8 409.8,354.4 
						409.9,354 410,353.6 410,353.3 410.1,352.9 410.1,352.5 410.2,352.1 410.2,351.7 410.2,351.3 410.2,350.9 410.2,345 					"/>
					<polyline class="st5" points="388.6,362.9 394.5,362.9 395.1,362.9 395.7,362.8 396.3,362.8 396.9,362.7 397.5,362.5 
						398.1,362.4 398.6,362.2 399.2,362 399.7,361.7 400.2,361.4 400.7,361.2 401.2,360.8 401.7,360.5 402.1,360.1 402.6,359.8 
						403,359.4 403.4,359 403.8,358.5 404.1,358.1 404.5,357.6 404.8,357.1 405.1,356.6 405.3,356.1 405.6,355.5 405.8,355 
						406,354.4 406.1,353.9 406.3,353.3 406.4,352.7 406.5,352.1 406.5,351.5 406.5,350.9 406.5,345 					"/>
					<polyline class="st5" points="388.6,359.2 394.5,359.2 394.9,359.2 395.3,359.2 395.7,359.1 396.2,359 396.6,358.9 397,358.8 
						397.3,358.7 397.7,358.5 398.1,358.4 398.5,358.2 398.8,358 399.1,357.8 399.5,357.5 399.8,357.3 400.1,357 400.4,356.8 
						400.6,356.5 400.9,356.2 401.2,355.8 401.4,355.5 401.6,355.2 401.8,354.8 402,354.5 402.2,354.1 402.3,353.7 402.4,353.3 
						402.6,352.9 402.6,352.5 402.7,352.1 402.8,351.7 402.8,351.3 402.8,350.9 402.8,345 					"/>
					<polyline class="st5" points="399.1,345 399.1,350.9 399.1,351.1 399.1,351.3 399.1,351.6 399,351.8 399,352 398.9,352.2 
						398.8,352.4 398.7,352.7 398.7,352.9 398.6,353.1 398.4,353.3 398.3,353.4 398.2,353.6 398.1,353.8 397.9,354 397.8,354.1 
						397.6,354.3 397.4,354.4 397.2,354.6 397.1,354.7 396.9,354.8 396.7,354.9 396.5,355 396.3,355.1 396.1,355.2 395.9,355.3 
						395.6,355.3 395.4,355.4 395.2,355.4 395,355.5 394.7,355.5 394.5,355.5 388.6,355.5 					"/>
				</g>
				<g>
					<polyline class="st5" points="361,344.8 361,350.9 361,351.4 361,351.9 361.1,352.3 361.1,352.8 361.2,353.3 361.2,353.8 
						361.3,354.3 361.4,354.8 361.5,355.2 361.6,355.7 361.8,356.2 361.9,356.6 362,357.1 362.2,357.5 362.4,358 362.5,358.4 
						362.7,358.8 362.9,359.3 363.1,359.7 363.3,360.1 363.6,360.5 363.8,360.9 364.1,361.3 364.3,361.7 364.6,362.1 364.8,362.4 
						365.1,362.8 365.4,363.2 365.7,363.5 366,363.9 366.3,364.2 366.7,364.6 367,364.9 367.3,365.2 367.7,365.5 368,365.8 
						368.4,366.1 368.8,366.4 369.1,366.7 369.5,366.9 369.9,367.2 370.3,367.4 370.7,367.7 371.1,367.9 371.5,368.1 371.9,368.3 
						372.4,368.5 372.8,368.7 373.2,368.9 373.7,369.1 374.1,369.2 374.6,369.4 375,369.5 375.5,369.7 375.9,369.8 376.4,369.9 
						376.9,370 377.4,370.1 377.8,370.1 378.3,370.2 378.8,370.2 379.3,370.3 379.8,370.3 380.3,370.3 386.4,370.3 					"/>
					<polyline class="st5" points="364.7,345 364.7,350.9 364.7,351.3 364.7,351.7 364.8,352.1 364.8,352.5 364.9,352.9 
						364.9,353.3 365,353.6 365,354 365.1,354.4 365.2,354.8 365.3,355.2 365.4,355.5 365.6,355.9 365.7,356.3 365.8,356.6 366,357 
						366.1,357.3 366.3,357.7 366.5,358 366.6,358.4 366.8,358.7 367,359 367.2,359.3 367.4,359.7 367.6,360 367.9,360.3 
						368.1,360.6 368.3,360.9 368.6,361.2 368.8,361.4 369.1,361.7 369.3,362 369.6,362.3 369.9,362.5 370.2,362.8 370.5,363 
						370.8,363.2 371.1,363.5 371.4,363.7 371.7,363.9 372,364.1 372.3,364.3 372.6,364.5 373,364.7 373.3,364.9 373.6,365.1 
						374,365.2 374.3,365.4 374.7,365.5 375.1,365.6 375.4,365.8 375.8,365.9 376.2,366 376.5,366.1 376.9,366.2 377.3,366.3 
						377.7,366.4 378.1,366.4 378.5,366.5 378.9,366.5 379.3,366.6 379.7,366.6 380.1,366.6 380.5,366.6 386.3,366.6 					"/>
					<polyline class="st5" points="368.4,345 368.4,350.9 368.5,351.5 368.5,352.1 368.6,352.7 368.7,353.3 368.8,353.9 369,354.4 
						369.2,355 369.4,355.5 369.6,356.1 369.9,356.6 370.2,357.1 370.5,357.6 370.8,358.1 371.2,358.5 371.6,359 372,359.4 
						372.4,359.8 372.8,360.2 373.3,360.5 373.7,360.8 374.2,361.2 374.7,361.4 375.3,361.7 375.8,362 376.3,362.2 376.9,362.4 
						377.5,362.5 378,362.7 378.6,362.8 379.2,362.8 379.9,362.9 380.5,362.9 386.3,362.9 					"/>
					<polyline class="st5" points="372.1,345 372.1,350.9 372.2,351.3 372.2,351.7 372.2,352.1 372.3,352.5 372.4,352.9 
						372.5,353.3 372.6,353.7 372.8,354.1 373,354.5 373.1,354.8 373.3,355.2 373.6,355.5 373.8,355.8 374,356.2 374.3,356.5 
						374.6,356.8 374.9,357 375.2,357.3 375.5,357.5 375.8,357.8 376.2,358 376.5,358.2 376.9,358.4 377.2,358.5 377.6,358.7 
						378,358.8 378.4,358.9 378.8,359 379.2,359.1 379.6,359.2 380,359.2 380.5,359.2 386.3,359.2 					"/>
					<polyline class="st5" points="386.3,355.5 380.5,355.5 380.2,355.5 380,355.5 379.8,355.4 379.5,355.4 379.3,355.3 
						379.1,355.3 378.9,355.2 378.7,355.1 378.5,355 378.3,354.9 378.1,354.8 377.9,354.7 377.7,354.6 377.5,354.4 377.4,354.3 
						377.2,354.1 377,354 376.9,353.8 376.8,353.6 376.6,353.4 376.5,353.3 376.4,353.1 376.3,352.9 376.2,352.7 376.1,352.5 
						376.1,352.2 376,352 375.9,351.8 375.9,351.6 375.9,351.3 375.9,351.1 375.8,350.9 375.8,345 					"/>
				</g>
				<g>
					<path class="st5" d="M320,180.3l1.9,7.5l0.2,0.6l0.2,0.6l0.2,0.6l0.2,0.6l0.2,0.6l0.2,0.6l0.2,0.6l0.2,0.6l0.2,0.6l0.3,0.6
						l0.3,0.5l0.3,0.5l0.3,0.5l0.3,0.5l0.3,0.5l0.3,0.5l0.3,0.5l0.3,0.5l0.3,0.5l0.3,0.5l0.3,0.5l0.4,0.4l0.4,0.4l0.4,0.4l0.4,0.4
						l0.4,0.4l0.4,0.4l0.4,0.4l0.4,0.4l0.4,0.4l0.4,0.3l0.4,0.3l0.1,0l0,0c0,0,0,0,0,0l0,0l0,0l0.1,0l0.3,0l0.5,0.1l0.5,0.1l0.5,0
						l0.5,0l0.6,0l0.6,0l0.6,0l0.6,0l0.6,0l0.6,0l0.6,0l0.6-0.1l0.6-0.1l0.6-0.1l0.6-0.1l0.6-0.1l0.6-0.1l0.6-0.1l0.6-0.1l0.6-0.2
						l0.6-0.2l0.6-0.2l0.6-0.2l0.6-0.2l0.6-0.2l0.6-0.2l0.6-0.2l0.6-0.3l0.6-0.3l0.6-0.3l0.6-0.3l6.9-3.7"/>
					<polyline class="st5" points="323.7,179.6 325.5,186.9 325.7,187.4 325.8,187.9 326,188.4 326.1,188.8 326.5,189.8 
						326.8,190.7 327.3,191.6 327.7,192.5 328.2,193.4 328.7,194.2 329.2,195 329.7,195.7 330,196.1 330.3,196.4 330.6,196.8 
						330.9,197.1 331.2,197.5 331.5,197.8 331.9,198.1 332.2,198.4 332.5,198.7 332.8,199 333.2,199.3 333.5,199.6 334,199.6 
						334.4,199.7 334.8,199.7 335.3,199.8 335.7,199.8 336.2,199.8 336.6,199.8 337.1,199.8 337.5,199.8 338,199.8 338.4,199.8 
						338.9,199.7 339.8,199.6 340.8,199.5 341.7,199.3 342.7,199.1 343.6,198.8 344.5,198.5 345.5,198.1 346.4,197.8 346.9,197.5 
						347.4,197.3 347.8,197.1 348.3,196.8 354.9,193.3 					"/>
					<polyline class="st5" points="327.3,178.6 329.1,185.9 329.3,186.7 329.6,187.5 329.8,188.2 330.1,188.9 330.4,189.6 
						330.8,190.3 331.1,190.9 331.5,191.5 331.9,192.1 332.3,192.7 332.8,193.3 333.2,193.8 333.7,194.3 334.2,194.8 334.7,195.2 
						335.2,195.7 335.9,195.8 336.6,195.8 337.3,195.9 337.9,195.9 338.6,195.9 339.4,195.8 340.1,195.7 340.8,195.6 341.5,195.5 
						342.2,195.3 342.9,195.1 343.7,194.8 344.4,194.6 345.1,194.3 345.8,193.9 346.5,193.6 353.1,190 					"/>
					<polyline class="st5" points="330.9,177.7 332.7,185 332.9,185.6 333,186.1 333.2,186.6 333.4,187.1 333.6,187.6 333.9,188 
						334.1,188.5 334.4,188.9 334.7,189.3 335,189.7 335.3,190.1 335.6,190.5 335.9,190.8 336.2,191.2 336.6,191.5 336.9,191.8 
						337.4,191.8 337.9,191.9 338.3,191.9 338.8,191.9 339.3,191.9 339.8,191.9 340.3,191.8 340.8,191.7 341.3,191.6 341.8,191.5 
						342.3,191.4 342.8,191.2 343.3,191 343.8,190.8 344.3,190.6 344.8,190.3 351.4,186.7 					"/>
					<polyline class="st5" points="349.6,183.5 343,187.1 342.7,187.2 342.5,187.3 342.2,187.4 341.9,187.5 341.6,187.6 
						341.3,187.7 341.1,187.8 340.8,187.8 340.5,187.9 340.2,187.9 340,187.9 339.7,187.9 339.4,187.9 339.2,187.9 338.9,187.9 
						338.7,187.9 338.5,187.7 338.3,187.5 338.1,187.3 337.9,187.1 337.7,186.9 337.6,186.7 337.4,186.5 337.2,186.3 337.1,186 
						336.9,185.8 336.8,185.5 336.7,185.3 336.6,185 336.5,184.7 336.4,184.4 336.3,184.1 334.5,176.8 					"/>
				</g>
			</g>
		</g>
	</g>
</g>
</svg>
