<?xml version="1.0" encoding="utf-8"?>
<!-- Generator: Adobe Illustrator 22.0.0, SVG Export Plug-In . SVG Version: 6.00 Build 0)  -->
<svg version="1.1" id="Layer_1" xmlns="http://www.w3.org/2000/svg" xmlns:xlink="http://www.w3.org/1999/xlink" x="0px" y="0px"
	 viewBox="0 0 512 512" style="enable-background:new 0 0 512 512;" xml:space="preserve">
<style type="text/css">
	.st0{fill:#600094;}
	.st1{fill:none;stroke:#6F6F6F;}
	.st2{fill:#FF0AAF;}
	.st3{fill:none;stroke:#FF65CD;}
</style>
<g>
	<circle class="st0" cx="256.5" cy="256.5" r="240.5"/>
	<g>
		<g>
			<g>
				<path class="st1" d="M508.3,283c0.4-4.4,0.7-8.8,1-13.2l0.3-13.2"/>
				<path class="st1" d="M504.6,282.6c0.4-4.3,0.7-8.7,1-13l0.3-13"/>
				<path class="st1" d="M498.5,256.5l-0.3,12.7c-0.3,4.2-0.6,8.4-1,12.6"/>
				<path class="st1" d="M500.9,282.2c0.4-4.3,0.7-8.6,1-12.8l0.3-12.9"/>
				<path class="st1" d="M494.8,256.5l-0.3,12.5c-0.3,4.1-0.6,8.3-1,12.4"/>
			</g>
			<g>
				<path class="st1" d="M504.1,309.1l0.4-1.6l0.3-1.6l0.6-3.3l1.2-6.5c0.7-4.4,1.1-8.8,1.7-13.1"/>
				<path class="st1" d="M500.5,308.4l0.4-1.6l0.3-1.6l0.6-3.2l1.1-6.4c0.7-4.3,1.1-8.6,1.7-12.9"/>
				<path class="st1" d="M497.2,281.8c-0.6,4.2-1,8.4-1.6,12.6l-1.1,6.2l-0.6,3.1l-0.3,1.6l-0.4,1.5"/>
				<path class="st1" d="M496.9,307.6l0.4-1.6l0.3-1.6l0.6-3.2l1.1-6.3c0.6-4.2,1.1-8.5,1.7-12.8"/>
				<path class="st1" d="M493.5,281.4c-0.5,4.1-1,8.3-1.6,12.4l-1.1,6.1l-0.5,3.1l-0.3,1.5l-0.4,1.5"/>
			</g>
			<g>
				<path class="st1" d="M497.3,334.7l1.1-3.1l0.9-3.2l1.8-6.4c0.6-2.1,1.1-4.3,1.6-6.4l1.5-6.5"/>
				<path class="st1" d="M493.8,333.6l1-3.1l0.9-3.1l1.8-6.3c0.6-2.1,1.1-4.2,1.6-6.3l1.5-6.4"/>
				<path class="st1" d="M493.3,306.8l-1.4,6.2c-0.5,2.1-0.9,4.1-1.5,6.1l-1.7,6.1l-0.9,3l-1,3"/>
				<path class="st1" d="M490.2,332.4l1-3.1l0.9-3.1l1.8-6.2c0.6-2.1,1.1-4.2,1.6-6.2l1.4-6.3"/>
				<path class="st1" d="M489.6,306.1l-1.4,6.1c-0.5,2-0.9,4.1-1.5,6.1l-1.7,6l-0.9,3l-1,3"/>
			</g>
			<g>
				<path class="st1" d="M487.8,359.5c1.9-4,3.5-8.1,5.1-12.2l1.2-3.1c0.4-1,0.7-2.1,1.1-3.1l2.1-6.3"/>
				<path class="st1" d="M484.4,358c1.9-3.9,3.4-8,5-12.1l1.2-3c0.4-1,0.7-2.1,1.1-3.1l2.1-6.2"/>
				<path class="st1" d="M486.7,331.3l-2,6c-0.4,1-0.6,2-1,3l-1.2,2.9c-1.6,3.9-3,7.9-4.9,11.7"/>
				<path class="st1" d="M481,356.5c1.8-3.9,3.4-7.9,4.9-11.9l1.2-3c0.4-1,0.7-2,1.1-3l2.1-6.1"/>
				<path class="st1" d="M483.2,330.2l-2,5.9c-0.3,1-0.6,2-1,2.9l-1.1,2.9c-1.5,3.9-3,7.8-4.8,11.5"/>
			</g>
			<g>
				<path class="st1" d="M475.7,383.1l3.3-5.7l3-5.9c1-2,2-3.9,3-5.9l2.7-6"/>
				<path class="st1" d="M472.5,381.2l3.3-5.7l3-5.8c1-1.9,2-3.9,2.9-5.8l2.7-6"/>
				<path class="st1" d="M477.6,354.9l-2.6,5.8c-0.9,1.9-1.9,3.8-2.9,5.7l-2.9,5.6l-3.2,5.5"/>
				<path class="st1" d="M469.3,379.4l3.2-5.6l2.9-5.7c1-1.9,2-3.8,2.9-5.7l2.7-5.9"/>
				<path class="st1" d="M474.2,353.4l-2.6,5.7c-0.9,1.9-1.9,3.7-2.8,5.6l-2.9,5.6l-3.1,5.4"/>
			</g>
			<g>
				<path class="st1" d="M461.3,405.3c2.5-3.6,5.2-7.1,7.5-10.9l3.6-5.6c1.2-1.9,2.2-3.8,3.4-5.7"/>
				<path class="st1" d="M458.3,403.1c2.5-3.6,5.1-7,7.4-10.8l3.5-5.5c1.2-1.8,2.2-3.8,3.3-5.6"/>
				<path class="st1" d="M466.1,377.5c-1.1,1.8-2.1,3.7-3.2,5.5l-3.4,5.3c-2.2,3.6-4.7,7-7.2,10.4"/>
				<path class="st1" d="M455.3,400.9c2.5-3.5,5-6.9,7.3-10.6l3.5-5.4c1.2-1.8,2.2-3.7,3.3-5.5"/>
				<path class="st1" d="M462.9,375.6c-1.1,1.8-2,3.6-3.2,5.4l-3.4,5.3c-2.2,3.6-4.7,6.9-7.1,10.3"/>
			</g>
			<g>
				<path class="st1" d="M444.6,425.9l4.3-5c1.4-1.7,2.9-3.3,4.3-5.1l4.1-5.2l2-2.6l1.9-2.7"/>
				<path class="st1" d="M441.9,423.4l4.3-4.9c1.4-1.7,2.9-3.3,4.2-5l4-5.1l2-2.6l1.9-2.7"/>
				<path class="st1" d="M452.3,398.7l-1.8,2.6l-2,2.5l-3.9,5c-1.3,1.7-2.7,3.3-4.1,4.9l-4.1,4.8"/>
				<path class="st1" d="M439.1,420.9l4.2-4.9c1.4-1.6,2.8-3.2,4.1-4.9l4-5.1l2-2.5l1.9-2.6"/>
				<path class="st1" d="M449.3,396.6l-1.8,2.5l-1.9,2.5l-3.9,4.9c-1.3,1.7-2.7,3.2-4,4.8l-4.1,4.7"/>
			</g>
			<g>
				<path class="st1" d="M425.9,444.6c3.3-3,6.4-6.1,9.6-9.1c3-3.2,6.1-6.4,9.1-9.6"/>
				<path class="st1" d="M423.4,441.9c3.2-2.9,6.3-6,9.5-9c3-3.2,6-6.3,9-9.5"/>
				<path class="st1" d="M436.4,418.4c-2.8,3.1-5.8,6.1-8.7,9.2c-3.1,2.9-6.1,5.9-9.2,8.7"/>
				<path class="st1" d="M420.9,439.1c3.2-2.9,6.2-5.9,9.3-8.8c2.9-3.1,6-6.2,8.8-9.3"/>
				<path class="st1" d="M433.6,416c-2.8,3.1-5.7,6-8.6,9.1c-3,2.9-6,5.8-9.1,8.6"/>
			</g>
			<g>
				<path class="st1" d="M405.3,461.3l2.7-1.9l2.6-2l5.2-4.1c1.8-1.3,3.4-2.8,5.1-4.3l5-4.3"/>
				<path class="st1" d="M403.1,458.3l2.7-1.9l2.6-2l5.1-4c1.7-1.3,3.3-2.8,5-4.2l4.9-4.3"/>
				<path class="st1" d="M418.4,436.4l-4.8,4.1c-1.6,1.4-3.2,2.8-4.9,4.1l-5,3.9l-2.5,2l-2.6,1.8"/>
				<path class="st1" d="M400.9,455.3l2.6-1.9l2.5-2l5.1-4c1.7-1.3,3.3-2.7,4.9-4.1l4.9-4.2"/>
				<path class="st1" d="M416,433.6l-4.7,4.1c-1.6,1.4-3.1,2.8-4.8,4l-4.9,3.9l-2.5,1.9l-2.5,1.8"/>
			</g>
			<g>
				<path class="st1" d="M383.1,475.7c1.9-1.1,3.9-2.2,5.7-3.4l5.6-3.6c3.8-2.3,7.3-5,10.9-7.5"/>
				<path class="st1" d="M381.2,472.5c1.9-1.1,3.8-2.1,5.6-3.3l5.5-3.5c3.7-2.3,7.2-4.9,10.8-7.4"/>
				<path class="st1" d="M398.7,452.3c-3.5,2.4-6.8,5-10.4,7.2l-5.3,3.4c-1.8,1.1-3.6,2.1-5.5,3.2"/>
				<path class="st1" d="M379.4,469.3c1.8-1.1,3.7-2.1,5.5-3.3l5.4-3.5c3.7-2.2,7.1-4.8,10.6-7.3"/>
				<path class="st1" d="M396.6,449.3c-3.4,2.4-6.7,4.9-10.3,7.1l-5.3,3.4c-1.7,1.1-3.6,2.1-5.4,3.2"/>
			</g>
			<g>
				<path class="st1" d="M359.5,487.8l6-2.7c2-0.9,3.9-2,5.9-3l5.9-3l5.7-3.3"/>
				<path class="st1" d="M358,484.4l6-2.7c2-0.9,3.9-2,5.8-2.9l5.8-3l5.7-3.3"/>
				<path class="st1" d="M377.5,466.1l-5.5,3.2l-5.6,2.9c-1.9,0.9-3.7,2-5.7,2.9l-5.8,2.6"/>
				<path class="st1" d="M356.5,481l5.9-2.7c1.9-0.9,3.8-1.9,5.7-2.9l5.7-2.9l5.6-3.2"/>
				<path class="st1" d="M375.6,462.9l-5.4,3.1l-5.6,2.9c-1.9,0.9-3.7,1.9-5.6,2.8l-5.7,2.6"/>
			</g>
			<g>
				<path class="st1" d="M334.7,497.3l6.3-2.1c1-0.4,2.1-0.7,3.1-1.1l3.1-1.2c4.1-1.6,8.2-3.2,12.2-5.1"/>
				<path class="st1" d="M333.6,493.8l6.2-2.1c1-0.4,2.1-0.7,3.1-1.1l3-1.2c4-1.6,8.1-3.1,12.1-5"/>
				<path class="st1" d="M354.9,477.6c-3.8,1.8-7.8,3.3-11.7,4.9l-2.9,1.2c-1,0.4-2,0.7-3,1l-6,2"/>
				<path class="st1" d="M332.4,490.2l6.1-2.1c1-0.4,2-0.7,3-1.1l3-1.2c4-1.6,8-3.1,11.9-4.9"/>
				<path class="st1" d="M353.4,474.2c-3.8,1.8-7.7,3.3-11.5,4.8l-2.9,1.1c-1,0.4-2,0.7-2.9,1l-5.9,2"/>
			</g>
			<g>
				<path class="st1" d="M309.1,504.1l6.5-1.5c2.2-0.5,4.3-1,6.4-1.6l6.4-1.8l3.2-0.9l3.1-1.1"/>
				<path class="st1" d="M308.4,500.5l6.4-1.5c2.1-0.5,4.3-0.9,6.3-1.6l6.3-1.8l3.1-0.9l3.1-1"/>
				<path class="st1" d="M331.3,486.7l-3,1l-3,0.9l-6.1,1.7c-2,0.6-4.1,1.1-6.1,1.5l-6.2,1.4"/>
				<path class="st1" d="M307.6,496.9l6.3-1.4c2.1-0.5,4.2-0.9,6.2-1.6l6.2-1.8l3.1-0.9l3.1-1"/>
				<path class="st1" d="M330.2,483.2l-3,1l-3,0.9l-6,1.7c-2,0.6-4,1-6.1,1.5l-6.1,1.4"/>
			</g>
			<g>
				<path class="st1" d="M283,508.3c4.4-0.6,8.8-1.1,13.1-1.7l6.5-1.2l3.3-0.6l1.6-0.3l1.6-0.4"/>
				<path class="st1" d="M282.6,504.6c4.3-0.6,8.6-1,12.9-1.7l6.4-1.1l3.2-0.6l1.6-0.3l1.6-0.4"/>
				<path class="st1" d="M306.8,493.3l-1.5,0.4l-1.6,0.3l-3.1,0.6l-6.2,1.1c-4.2,0.6-8.4,1.1-12.6,1.6"/>
				<path class="st1" d="M282.2,500.9c4.3-0.6,8.5-1,12.8-1.7l6.3-1.1l3.2-0.6l1.6-0.3l1.6-0.4"/>
				<path class="st1" d="M306.1,489.6l-1.5,0.4l-1.5,0.3l-3.1,0.5l-6.1,1.1c-4.1,0.6-8.2,1.1-12.4,1.6"/>
			</g>
			<g>
				<path class="st1" d="M256.5,509.7l13.2-0.3c4.4-0.3,8.8-0.6,13.2-1"/>
				<path class="st1" d="M256.5,506l13-0.3c4.3-0.3,8.7-0.6,13-1"/>
				<path class="st1" d="M281.8,497.2c-4.2,0.4-8.4,0.7-12.6,1l-12.7,0.3"/>
				<path class="st1" d="M256.5,502.2l12.9-0.3c4.3-0.3,8.6-0.6,12.8-1"/>
				<path class="st1" d="M281.4,493.5c-4.1,0.4-8.3,0.6-12.4,1l-12.5,0.3"/>
			</g>
			<g>
				<path class="st1" d="M230,508.3c4.4,0.4,8.8,0.7,13.2,1l13.2,0.3"/>
				<path class="st1" d="M230.4,504.6c4.3,0.4,8.7,0.7,13,1l13,0.3"/>
				<path class="st1" d="M256.5,498.5l-12.7-0.3c-4.2-0.3-8.4-0.6-12.6-1"/>
				<path class="st1" d="M230.8,500.9c4.3,0.4,8.6,0.7,12.8,1l12.9,0.3"/>
				<path class="st1" d="M256.5,494.8l-12.5-0.3c-4.1-0.3-8.3-0.6-12.4-1"/>
			</g>
			<g>
				<path class="st1" d="M203.9,504.1l1.6,0.4l1.6,0.3l3.3,0.6l6.5,1.2c4.4,0.7,8.8,1.1,13.1,1.7"/>
				<path class="st1" d="M204.6,500.5l1.6,0.4l1.6,0.3l3.2,0.6l6.4,1.1c4.3,0.7,8.6,1.1,12.9,1.7"/>
				<path class="st1" d="M231.2,497.2c-4.2-0.6-8.4-1-12.6-1.6l-6.2-1.1l-3.1-0.6l-1.6-0.3l-1.5-0.4"/>
				<path class="st1" d="M205.4,496.9l1.6,0.4l1.6,0.3l3.2,0.6l6.3,1.1c4.2,0.6,8.5,1.1,12.8,1.7"/>
				<path class="st1" d="M231.6,493.5c-4.1-0.5-8.3-1-12.4-1.6l-6.1-1.1l-3.1-0.5l-1.5-0.3l-1.5-0.4"/>
			</g>
			<g>
				<path class="st1" d="M178.3,497.3l3.1,1.1l3.2,0.9l6.4,1.8c2.1,0.6,4.3,1.1,6.4,1.6l6.5,1.5"/>
				<path class="st1" d="M179.4,493.8l3.1,1l3.1,0.9l6.3,1.8c2.1,0.6,4.2,1.1,6.3,1.6l6.4,1.5"/>
				<path class="st1" d="M206.2,493.3l-6.2-1.4c-2.1-0.5-4.1-0.9-6.1-1.5l-6.1-1.7l-3-0.9l-3-1"/>
				<path class="st1" d="M180.6,490.2l3.1,1l3.1,0.9l6.2,1.8c2.1,0.6,4.2,1.1,6.2,1.6l6.3,1.4"/>
				<path class="st1" d="M206.9,489.6l-6.1-1.4c-2-0.5-4.1-0.9-6.1-1.5l-6-1.7l-3-0.9l-3-1"/>
			</g>
			<g>
				<path class="st1" d="M153.5,487.8c4,1.9,8.1,3.5,12.2,5.1l3.1,1.2c1,0.4,2.1,0.7,3.1,1.1l6.3,2.1"/>
				<path class="st1" d="M155,484.4c3.9,1.9,8,3.4,12.1,5l3,1.2c1,0.4,2.1,0.7,3.1,1.1l6.2,2.1"/>
				<path class="st1" d="M181.7,486.7l-6-2c-1-0.4-2-0.6-3-1l-2.9-1.2c-3.9-1.6-7.9-3-11.7-4.9"/>
				<path class="st1" d="M156.5,481c3.9,1.8,7.9,3.4,11.9,4.9l3,1.2c1,0.4,2,0.7,3,1.1l6.1,2.1"/>
				<path class="st1" d="M182.8,483.2l-5.9-2c-1-0.3-2-0.6-2.9-1l-2.9-1.1c-3.9-1.5-7.8-3-11.5-4.8"/>
			</g>
			<g>
				<path class="st1" d="M129.9,475.7l5.7,3.3l5.9,3c2,1,3.9,2,5.9,3l6,2.7"/>
				<path class="st1" d="M131.8,472.5l5.7,3.3l5.8,3c1.9,1,3.9,2,5.8,2.9l6,2.7"/>
				<path class="st1" d="M158.1,477.6l-5.8-2.6c-1.9-0.9-3.8-1.9-5.7-2.9l-5.6-2.9l-5.5-3.2"/>
				<path class="st1" d="M133.6,469.3l5.6,3.2l5.7,2.9c1.9,1,3.8,2,5.7,2.9l5.9,2.7"/>
				<path class="st1" d="M159.6,474.2l-5.7-2.6c-1.9-0.9-3.7-1.9-5.6-2.8l-5.6-2.9l-5.4-3.1"/>
			</g>
			<g>
				<path class="st1" d="M107.7,461.3c3.6,2.5,7.1,5.2,10.9,7.5l5.6,3.6c1.9,1.2,3.8,2.2,5.7,3.4"/>
				<path class="st1" d="M109.9,458.3c3.6,2.5,7,5.1,10.8,7.4l5.5,3.5c1.8,1.2,3.8,2.2,5.6,3.3"/>
				<path class="st1" d="M135.5,466.1c-1.8-1.1-3.7-2.1-5.5-3.2l-5.3-3.4c-3.6-2.2-7-4.7-10.4-7.2"/>
				<path class="st1" d="M112.1,455.3c3.5,2.5,6.9,5,10.6,7.3l5.4,3.5c1.8,1.2,3.7,2.2,5.5,3.3"/>
				<path class="st1" d="M137.4,462.9c-1.8-1.1-3.6-2-5.4-3.2l-5.3-3.4c-3.6-2.2-6.9-4.7-10.3-7.1"/>
			</g>
			<g>
				<path class="st1" d="M87.1,444.6l5,4.3c1.7,1.4,3.3,2.9,5.1,4.3l5.2,4.1l2.6,2l2.7,1.9"/>
				<path class="st1" d="M89.6,441.9l4.9,4.3c1.7,1.4,3.3,2.9,5,4.2l5.1,4l2.6,2l2.7,1.9"/>
				<path class="st1" d="M114.3,452.3l-2.6-1.8l-2.5-2l-5-3.9c-1.7-1.3-3.3-2.7-4.9-4.1l-4.8-4.1"/>
				<path class="st1" d="M92.1,439.1l4.9,4.2c1.6,1.4,3.2,2.8,4.9,4.1l5.1,4l2.5,2l2.6,1.9"/>
				<path class="st1" d="M116.4,449.3l-2.5-1.8l-2.5-1.9l-4.9-3.9c-1.7-1.3-3.2-2.7-4.8-4l-4.7-4.1"/>
			</g>
			<g>
				<path class="st1" d="M68.4,425.9c3,3.3,6.1,6.4,9.1,9.6c3.2,3,6.4,6.1,9.6,9.1"/>
				<path class="st1" d="M71.1,423.4c2.9,3.2,6,6.3,9,9.5c3.2,3,6.3,6,9.5,9"/>
				<path class="st1" d="M94.6,436.4c-3.1-2.8-6.1-5.8-9.2-8.7c-2.9-3.1-5.9-6.1-8.7-9.2"/>
				<path class="st1" d="M73.9,420.9c2.9,3.2,5.9,6.2,8.8,9.3c3.1,2.9,6.2,6,9.3,8.8"/>
				<path class="st1" d="M97,433.6c-3.1-2.8-6-5.7-9.1-8.6c-2.9-3-5.8-6-8.6-9.1"/>
			</g>
			<g>
				<path class="st1" d="M51.7,405.3l1.9,2.7l2,2.6l4.1,5.2c1.3,1.8,2.8,3.4,4.3,5.1l4.3,5"/>
				<path class="st1" d="M54.7,403.1l1.9,2.7l2,2.6l4,5.1c1.3,1.7,2.8,3.3,4.2,5l4.3,4.9"/>
				<path class="st1" d="M76.6,418.4l-4.1-4.8c-1.4-1.6-2.8-3.2-4.1-4.9l-3.9-5l-2-2.5l-1.8-2.6"/>
				<path class="st1" d="M57.7,400.9l1.9,2.6l2,2.5l4,5.1c1.3,1.7,2.7,3.3,4.1,4.9l4.2,4.9"/>
				<path class="st1" d="M79.4,416l-4.1-4.7c-1.4-1.6-2.8-3.1-4-4.8l-3.9-4.9l-1.9-2.5l-1.8-2.5"/>
			</g>
			<g>
				<path class="st1" d="M37.3,383.1c1.1,1.9,2.2,3.9,3.4,5.7l3.6,5.6c2.3,3.8,5,7.3,7.5,10.9"/>
				<path class="st1" d="M40.5,381.2c1.1,1.9,2.1,3.8,3.3,5.6l3.5,5.5c2.3,3.7,4.9,7.2,7.4,10.8"/>
				<path class="st1" d="M60.7,398.7c-2.4-3.5-5-6.8-7.2-10.4l-3.4-5.3c-1.1-1.8-2.1-3.6-3.2-5.5"/>
				<path class="st1" d="M43.7,379.4c1.1,1.8,2.1,3.7,3.3,5.5l3.5,5.4c2.2,3.7,4.8,7.1,7.3,10.6"/>
				<path class="st1" d="M63.7,396.6c-2.4-3.4-4.9-6.7-7.1-10.3l-3.4-5.3c-1.1-1.7-2.1-3.6-3.2-5.4"/>
			</g>
			<g>
				<path class="st1" d="M25.2,359.5l2.7,6c0.9,2,2,3.9,3,5.9l3,5.9l3.3,5.7"/>
				<path class="st1" d="M28.6,358l2.7,6c0.9,2,2,3.9,2.9,5.8l3,5.8l3.3,5.7"/>
				<path class="st1" d="M46.9,377.5l-3.2-5.5l-2.9-5.6c-0.9-1.9-2-3.7-2.9-5.7l-2.6-5.8"/>
				<path class="st1" d="M32,356.5l2.7,5.9c0.9,1.9,1.9,3.8,2.9,5.7l2.9,5.7l3.2,5.6"/>
				<path class="st1" d="M50.1,375.6l-3.1-5.4l-2.9-5.6c-0.9-1.9-1.9-3.7-2.8-5.6l-2.6-5.7"/>
			</g>
			<g>
				<path class="st1" d="M15.7,334.7l2.1,6.3c0.4,1,0.7,2.1,1.1,3.1l1.2,3.1c1.6,4.1,3.2,8.2,5.1,12.2"/>
				<path class="st1" d="M19.2,333.6l2.1,6.2c0.4,1,0.7,2.1,1.1,3.1l1.2,3c1.6,4,3.1,8.1,5,12.1"/>
				<path class="st1" d="M35.4,354.9c-1.8-3.8-3.3-7.8-4.9-11.7l-1.2-2.9c-0.4-1-0.7-2-1-3l-2-6"/>
				<path class="st1" d="M22.8,332.4l2.1,6.1c0.4,1,0.7,2,1.1,3l1.2,3c1.6,4,3.1,8,4.9,11.9"/>
				<path class="st1" d="M38.8,353.4c-1.8-3.8-3.3-7.7-4.8-11.5l-1.1-2.9c-0.4-1-0.7-2-1-2.9l-2-5.9"/>
			</g>
			<g>
				<path class="st1" d="M8.9,309.1l1.5,6.5c0.5,2.2,1,4.3,1.6,6.4l1.8,6.4l0.9,3.2l1.1,3.1"/>
				<path class="st1" d="M12.5,308.4l1.5,6.4c0.5,2.1,0.9,4.3,1.6,6.3l1.8,6.3l0.9,3.1l1,3.1"/>
				<path class="st1" d="M26.3,331.3l-1-3l-0.9-3l-1.7-6.1c-0.6-2-1.1-4.1-1.5-6.1l-1.4-6.2"/>
				<path class="st1" d="M16.1,307.6l1.4,6.3c0.5,2.1,0.9,4.2,1.6,6.2l1.8,6.2l0.9,3.1l1,3.1"/>
				<path class="st1" d="M29.8,330.2l-1-3l-0.9-3l-1.7-6c-0.6-2-1-4-1.5-6.1l-1.4-6.1"/>
			</g>
			<g>
				<path class="st1" d="M4.7,283c0.6,4.4,1.1,8.8,1.7,13.1l1.2,6.5l0.6,3.3l0.3,1.6l0.4,1.6"/>
				<path class="st1" d="M8.4,282.6c0.6,4.3,1,8.6,1.7,12.9l1.1,6.4l0.6,3.2l0.3,1.6l0.4,1.6"/>
				<path class="st1" d="M19.7,306.8l-0.4-1.5l-0.3-1.6l-0.6-3.1l-1.1-6.2c-0.6-4.2-1.1-8.4-1.6-12.6"/>
				<path class="st1" d="M12.1,282.2c0.6,4.3,1,8.5,1.7,12.8l1.1,6.3l0.6,3.2l0.3,1.6l0.4,1.6"/>
				<path class="st1" d="M23.4,306.1l-0.4-1.5l-0.3-1.5l-0.5-3.1l-1.1-6.1c-0.6-4.1-1.1-8.2-1.6-12.4"/>
			</g>
			<g>
				<path class="st1" d="M3.3,256.5l0.3,13.2c0.3,4.4,0.6,8.8,1,13.2"/>
				<path class="st1" d="M7,256.5l0.3,13c0.3,4.3,0.6,8.7,1,13"/>
				<path class="st1" d="M15.8,281.8c-0.4-4.2-0.7-8.4-1-12.6l-0.3-12.7"/>
				<path class="st1" d="M10.8,256.5l0.3,12.9c0.3,4.3,0.6,8.6,1,12.8"/>
				<path class="st1" d="M19.5,281.4c-0.4-4.1-0.6-8.3-1-12.4l-0.3-12.5"/>
			</g>
			<g>
				<path class="st1" d="M4.7,230c-0.4,4.4-0.7,8.8-1,13.2l-0.3,13.2"/>
				<path class="st1" d="M8.4,230.4c-0.4,4.3-0.7,8.7-1,13l-0.3,13"/>
				<path class="st1" d="M14.5,256.5l0.3-12.7c0.3-4.2,0.6-8.4,1-12.6"/>
				<path class="st1" d="M12.1,230.8c-0.4,4.3-0.7,8.6-1,12.8l-0.3,12.9"/>
				<path class="st1" d="M18.2,256.5l0.3-12.5c0.3-4.1,0.6-8.3,1-12.4"/>
			</g>
			<g>
				<path class="st1" d="M8.9,203.9l-0.4,1.6l-0.3,1.6l-0.6,3.3l-1.2,6.5c-0.7,4.4-1.1,8.8-1.7,13.1"/>
				<path class="st1" d="M12.5,204.6l-0.4,1.6l-0.3,1.6l-0.6,3.2l-1.1,6.4c-0.7,4.3-1.1,8.6-1.7,12.9"/>
				<path class="st1" d="M15.8,231.2c0.6-4.2,1-8.4,1.6-12.6l1.1-6.2l0.6-3.1l0.3-1.6l0.4-1.5"/>
				<path class="st1" d="M16.1,205.4l-0.4,1.6l-0.3,1.6l-0.6,3.2l-1.1,6.3c-0.6,4.2-1.1,8.5-1.7,12.8"/>
				<path class="st1" d="M19.5,231.6c0.5-4.1,1-8.3,1.6-12.4l1.1-6.1l0.5-3.1l0.3-1.5l0.4-1.5"/>
			</g>
			<g>
				<path class="st1" d="M15.7,178.3l-1.1,3.1l-0.9,3.2L12,191c-0.6,2.1-1.1,4.3-1.6,6.4l-1.5,6.5"/>
				<path class="st1" d="M19.2,179.4l-1,3.1l-0.9,3.1l-1.8,6.3c-0.6,2.1-1.1,4.2-1.6,6.3l-1.5,6.4"/>
				<path class="st1" d="M19.7,206.2l1.4-6.2c0.5-2.1,0.9-4.1,1.5-6.1l1.7-6.1l0.9-3l1-3"/>
				<path class="st1" d="M22.8,180.6l-1,3.1l-0.9,3.1l-1.8,6.2c-0.6,2.1-1.1,4.2-1.6,6.2l-1.4,6.3"/>
				<path class="st1" d="M23.4,206.9l1.4-6.1c0.5-2,0.9-4.1,1.5-6.1l1.7-6l0.9-3l1-3"/>
			</g>
			<g>
				<path class="st1" d="M25.2,153.5c-1.9,4-3.5,8.1-5.1,12.2l-1.2,3.1c-0.4,1-0.7,2.1-1.1,3.1l-2.1,6.3"/>
				<path class="st1" d="M28.6,155c-1.9,3.9-3.4,8-5,12.1l-1.2,3c-0.4,1-0.7,2.1-1.1,3.1l-2.1,6.2"/>
				<path class="st1" d="M26.3,181.7l2-6c0.4-1,0.6-2,1-3l1.2-2.9c1.6-3.9,3-7.9,4.9-11.7"/>
				<path class="st1" d="M32,156.5c-1.8,3.9-3.4,7.9-4.9,11.9l-1.2,3c-0.4,1-0.7,2-1.1,3l-2.1,6.1"/>
				<path class="st1" d="M29.8,182.8l2-5.9c0.3-1,0.6-2,1-2.9l1.1-2.9c1.5-3.9,3-7.8,4.8-11.5"/>
			</g>
			<g>
				<path class="st1" d="M37.3,129.9l-3.3,5.7l-3,5.9c-1,2-2,3.9-3,5.9l-2.7,6"/>
				<path class="st1" d="M40.5,131.8l-3.3,5.7l-3,5.8c-1,1.9-2,3.9-2.9,5.8l-2.7,6"/>
				<path class="st1" d="M35.4,158.1l2.6-5.8c0.9-1.9,1.9-3.8,2.9-5.7l2.9-5.6l3.2-5.5"/>
				<path class="st1" d="M43.7,133.6l-3.2,5.6l-2.9,5.7c-1,1.9-2,3.8-2.9,5.7l-2.7,5.9"/>
				<path class="st1" d="M38.8,159.6l2.6-5.7c0.9-1.9,1.9-3.7,2.8-5.6l2.9-5.6l3.1-5.4"/>
			</g>
			<g>
				<path class="st1" d="M51.7,107.7c-2.5,3.6-5.2,7.1-7.5,10.9l-3.6,5.6c-1.2,1.9-2.2,3.8-3.4,5.7"/>
				<path class="st1" d="M54.7,109.9c-2.5,3.6-5.1,7-7.4,10.8l-3.5,5.5c-1.2,1.8-2.2,3.8-3.3,5.6"/>
				<path class="st1" d="M46.9,135.5c1.1-1.8,2.1-3.7,3.2-5.5l3.4-5.3c2.2-3.6,4.7-7,7.2-10.4"/>
				<path class="st1" d="M57.7,112.1c-2.5,3.5-5,6.9-7.3,10.6l-3.5,5.4c-1.2,1.8-2.2,3.7-3.3,5.5"/>
				<path class="st1" d="M50.1,137.4c1.1-1.8,2-3.6,3.2-5.4l3.4-5.3c2.2-3.6,4.7-6.9,7.1-10.3"/>
			</g>
			<g>
				<path class="st1" d="M68.4,87.1l-4.3,5c-1.4,1.7-2.9,3.3-4.3,5.1l-4.1,5.2l-2,2.6l-1.9,2.7"/>
				<path class="st1" d="M71.1,89.6l-4.3,4.9c-1.4,1.7-2.9,3.3-4.2,5l-4,5.1l-2,2.6l-1.9,2.7"/>
				<path class="st1" d="M60.7,114.3l1.8-2.6l2-2.5l3.9-5c1.3-1.7,2.7-3.3,4.1-4.9l4.1-4.8"/>
				<path class="st1" d="M73.9,92.1l-4.2,4.9c-1.4,1.6-2.8,3.2-4.1,4.9l-4,5.1l-2,2.5l-1.9,2.6"/>
				<path class="st1" d="M63.7,116.4l1.8-2.5l1.9-2.5l3.9-4.9c1.3-1.7,2.7-3.2,4-4.8l4.1-4.7"/>
			</g>
			<g>
				<path class="st1" d="M87.1,68.4c-3.3,3-6.4,6.1-9.6,9.1c-3,3.2-6.1,6.4-9.1,9.6"/>
				<path class="st1" d="M89.6,71.1c-3.2,2.9-6.3,6-9.5,9c-3,3.2-6,6.3-9,9.5"/>
				<path class="st1" d="M76.6,94.6c2.8-3.1,5.8-6.1,8.7-9.2c3.1-2.9,6.1-5.9,9.2-8.7"/>
				<path class="st1" d="M92.1,73.9c-3.2,2.9-6.2,5.9-9.3,8.8c-2.9,3.1-6,6.2-8.8,9.3"/>
				<path class="st1" d="M79.4,97c2.8-3.1,5.7-6,8.6-9.1c3-2.9,6-5.8,9.1-8.6"/>
			</g>
			<g>
				<path class="st1" d="M107.7,51.7l-2.7,1.9l-2.6,2l-5.2,4.1c-1.8,1.3-3.4,2.8-5.1,4.3l-5,4.3"/>
				<path class="st1" d="M109.9,54.7l-2.7,1.9l-2.6,2l-5.1,4c-1.7,1.3-3.3,2.8-5,4.2l-4.9,4.3"/>
				<path class="st1" d="M94.6,76.6l4.8-4.1c1.6-1.4,3.2-2.8,4.9-4.1l5-3.9l2.5-2l2.6-1.8"/>
				<path class="st1" d="M112.1,57.7l-2.6,1.9l-2.5,2l-5.1,4c-1.7,1.3-3.3,2.7-4.9,4.1l-4.9,4.2"/>
				<path class="st1" d="M97,79.4l4.7-4.1c1.6-1.4,3.1-2.8,4.8-4l4.9-3.9l2.5-1.9l2.5-1.8"/>
			</g>
			<g>
				<path class="st1" d="M129.9,37.3c-1.9,1.1-3.9,2.2-5.7,3.4l-5.6,3.6c-3.8,2.3-7.3,5-10.9,7.5"/>
				<path class="st1" d="M131.8,40.5c-1.9,1.1-3.8,2.1-5.6,3.3l-5.5,3.5c-3.7,2.3-7.2,4.9-10.8,7.4"/>
				<path class="st1" d="M114.3,60.7c3.5-2.4,6.8-5,10.4-7.2l5.3-3.4c1.8-1.1,3.6-2.1,5.5-3.2"/>
				<path class="st1" d="M133.6,43.7c-1.8,1.1-3.7,2.1-5.5,3.3l-5.4,3.5c-3.7,2.2-7.1,4.8-10.6,7.3"/>
				<path class="st1" d="M116.4,63.7c3.4-2.4,6.7-4.9,10.3-7.1l5.3-3.4c1.7-1.1,3.6-2.1,5.4-3.2"/>
			</g>
			<g>
				<path class="st1" d="M153.5,25.2l-6,2.7c-2,0.9-3.9,2-5.9,3l-5.9,3l-5.7,3.3"/>
				<path class="st1" d="M155,28.6l-6,2.7c-2,0.9-3.9,2-5.8,2.9l-5.8,3l-5.7,3.3"/>
				<path class="st1" d="M135.5,46.9l5.5-3.2l5.6-2.9c1.9-0.9,3.7-2,5.7-2.9l5.8-2.6"/>
				<path class="st1" d="M156.5,32l-5.9,2.7c-1.9,0.9-3.8,1.9-5.7,2.9l-5.7,2.9l-5.6,3.2"/>
				<path class="st1" d="M137.4,50.1l5.4-3.1l5.6-2.9c1.9-0.9,3.7-1.9,5.6-2.8l5.7-2.6"/>
			</g>
			<g>
				<path class="st1" d="M178.3,15.7l-6.3,2.1c-1,0.4-2.1,0.7-3.1,1.1l-3.1,1.2c-4.1,1.6-8.2,3.2-12.2,5.1"/>
				<path class="st1" d="M179.4,19.2l-6.2,2.1c-1,0.4-2.1,0.7-3.1,1.1l-3,1.2c-4,1.6-8.1,3.1-12.1,5"/>
				<path class="st1" d="M158.1,35.4c3.8-1.8,7.8-3.3,11.7-4.9l2.9-1.2c1-0.4,2-0.7,3-1l6-2"/>
				<path class="st1" d="M180.6,22.8l-6.1,2.1c-1,0.4-2,0.7-3,1.1l-3,1.2c-4,1.6-8,3.1-11.9,4.9"/>
				<path class="st1" d="M159.6,38.8c3.8-1.8,7.7-3.3,11.5-4.8l2.9-1.1c1-0.4,2-0.7,2.9-1l5.9-2"/>
			</g>
			<g>
				<path class="st1" d="M203.9,8.9l-6.5,1.5c-2.2,0.5-4.3,1-6.4,1.6l-6.4,1.8l-3.2,0.9l-3.1,1.1"/>
				<path class="st1" d="M204.6,12.5l-6.4,1.5c-2.1,0.5-4.3,0.9-6.3,1.6l-6.3,1.8l-3.1,0.9l-3.1,1"/>
				<path class="st1" d="M181.7,26.3l3-1l3-0.9l6.1-1.7c2-0.6,4.1-1.1,6.1-1.5l6.2-1.4"/>
				<path class="st1" d="M205.4,16.1l-6.3,1.4c-2.1,0.5-4.2,0.9-6.2,1.6l-6.2,1.8l-3.1,0.9l-3.1,1"/>
				<path class="st1" d="M182.8,29.8l3-1l3-0.9l6-1.7c2-0.6,4-1,6.1-1.5l6.1-1.4"/>
			</g>
			<g>
				<path class="st1" d="M230,4.7c-4.4,0.6-8.8,1.1-13.1,1.7l-6.5,1.2l-3.3,0.6l-1.6,0.3l-1.6,0.4"/>
				<path class="st1" d="M230.4,8.4c-4.3,0.6-8.6,1-12.9,1.7l-6.4,1.1l-3.2,0.6l-1.6,0.3l-1.6,0.4"/>
				<path class="st1" d="M206.2,19.7l1.5-0.4l1.6-0.3l3.1-0.6l6.2-1.1c4.2-0.6,8.4-1.1,12.6-1.6"/>
				<path class="st1" d="M230.8,12.1c-4.3,0.6-8.5,1-12.8,1.7l-6.3,1.1l-3.2,0.6l-1.6,0.3l-1.6,0.4"/>
				<path class="st1" d="M206.9,23.4l1.5-0.4l1.5-0.3l3.1-0.5l6.1-1.1c4.1-0.6,8.2-1.1,12.4-1.6"/>
			</g>
			<g>
				<path class="st1" d="M256.5,3.3l-13.2,0.3c-4.4,0.3-8.8,0.6-13.2,1"/>
				<path class="st1" d="M256.5,7l-13,0.3c-4.3,0.3-8.7,0.6-13,1"/>
				<path class="st1" d="M231.2,15.8c4.2-0.4,8.4-0.7,12.6-1l12.7-0.3"/>
				<path class="st1" d="M256.5,10.8l-12.9,0.3c-4.3,0.3-8.6,0.6-12.8,1"/>
				<path class="st1" d="M231.6,19.5c4.1-0.4,8.3-0.6,12.4-1l12.5-0.3"/>
			</g>
			<g>
				<path class="st1" d="M283,4.7c-4.4-0.4-8.8-0.7-13.2-1l-13.2-0.3"/>
				<path class="st1" d="M282.6,8.4c-4.3-0.4-8.7-0.7-13-1l-13-0.3"/>
				<path class="st1" d="M256.5,14.5l12.7,0.3c4.2,0.3,8.4,0.6,12.6,1"/>
				<path class="st1" d="M282.2,12.1c-4.3-0.4-8.6-0.7-12.8-1l-12.9-0.3"/>
				<path class="st1" d="M256.5,18.2l12.5,0.3c4.1,0.3,8.3,0.6,12.4,1"/>
			</g>
			<g>
				<path class="st1" d="M309.1,8.9l-1.6-0.4l-1.6-0.3l-3.3-0.6l-6.5-1.2c-4.4-0.7-8.8-1.1-13.1-1.7"/>
				<path class="st1" d="M308.4,12.5l-1.6-0.4l-1.6-0.3l-3.2-0.6l-6.4-1.1c-4.3-0.7-8.6-1.1-12.9-1.7"/>
				<path class="st1" d="M281.8,15.8c4.2,0.6,8.4,1,12.6,1.6l6.2,1.1l3.1,0.6l1.6,0.3l1.5,0.4"/>
				<path class="st1" d="M307.6,16.1l-1.6-0.4l-1.6-0.3l-3.2-0.6l-6.3-1.1c-4.2-0.6-8.5-1.1-12.8-1.7"/>
				<path class="st1" d="M281.4,19.5c4.1,0.5,8.3,1,12.4,1.6l6.1,1.1l3.1,0.5l1.5,0.3l1.5,0.4"/>
			</g>
			<g>
				<path class="st1" d="M334.7,15.7l-3.1-1.1l-3.2-0.9L322,12c-2.1-0.6-4.3-1.1-6.4-1.6l-6.5-1.5"/>
				<path class="st1" d="M333.6,19.2l-3.1-1l-3.1-0.9l-6.3-1.8c-2.1-0.6-4.2-1.1-6.3-1.6l-6.4-1.5"/>
				<path class="st1" d="M306.8,19.7l6.2,1.4c2.1,0.5,4.1,0.9,6.1,1.5l6.1,1.7l3,0.9l3,1"/>
				<path class="st1" d="M332.4,22.8l-3.1-1l-3.1-0.9l-6.2-1.8c-2.1-0.6-4.2-1.1-6.2-1.6l-6.3-1.4"/>
				<path class="st1" d="M306.1,23.4l6.1,1.4c2,0.5,4.1,0.9,6.1,1.5l6,1.7l3,0.9l3,1"/>
			</g>
			<g>
				<path class="st1" d="M359.5,25.2c-4-1.9-8.1-3.5-12.2-5.1l-3.1-1.2c-1-0.4-2.1-0.7-3.1-1.1l-6.3-2.1"/>
				<path class="st1" d="M358,28.6c-3.9-1.9-8-3.4-12.1-5l-3-1.2c-1-0.4-2.1-0.7-3.1-1.1l-6.2-2.1"/>
				<path class="st1" d="M331.3,26.3l6,2c1,0.4,2,0.6,3,1l2.9,1.2c3.9,1.6,7.9,3,11.7,4.9"/>
				<path class="st1" d="M356.5,32c-3.9-1.8-7.9-3.4-11.9-4.9l-3-1.2c-1-0.4-2-0.7-3-1.1l-6.1-2.1"/>
				<path class="st1" d="M330.2,29.8l5.9,2c1,0.3,2,0.6,2.9,1l2.9,1.1c3.9,1.5,7.8,3,11.5,4.8"/>
			</g>
			<g>
				<path class="st1" d="M383.1,37.3l-5.7-3.3l-5.9-3c-2-1-3.9-2-5.9-3l-6-2.7"/>
				<path class="st1" d="M381.2,40.5l-5.7-3.3l-5.8-3c-1.9-1-3.9-2-5.8-2.9l-6-2.7"/>
				<path class="st1" d="M354.9,35.4l5.8,2.6c1.9,0.9,3.8,1.9,5.7,2.9l5.6,2.9l5.5,3.2"/>
				<path class="st1" d="M379.4,43.7l-5.6-3.2l-5.7-2.9c-1.9-1-3.8-2-5.7-2.9l-5.9-2.7"/>
				<path class="st1" d="M353.4,38.8l5.7,2.6c1.9,0.9,3.7,1.9,5.6,2.8l5.6,2.9l5.4,3.1"/>
			</g>
			<g>
				<path class="st1" d="M405.3,51.7c-3.6-2.5-7.1-5.2-10.9-7.5l-5.6-3.6c-1.9-1.2-3.8-2.2-5.7-3.4"/>
				<path class="st1" d="M403.1,54.7c-3.6-2.5-7-5.1-10.8-7.4l-5.5-3.5c-1.8-1.2-3.8-2.2-5.6-3.3"/>
				<path class="st1" d="M377.5,46.9c1.8,1.1,3.7,2.1,5.5,3.2l5.3,3.4c3.6,2.2,7,4.7,10.4,7.2"/>
				<path class="st1" d="M400.9,57.7c-3.5-2.5-6.9-5-10.6-7.3l-5.4-3.5c-1.8-1.2-3.7-2.2-5.5-3.3"/>
				<path class="st1" d="M375.6,50.1c1.8,1.1,3.6,2,5.4,3.2l5.3,3.4c3.6,2.2,6.9,4.7,10.3,7.1"/>
			</g>
			<g>
				<path class="st1" d="M425.9,68.4l-5-4.3c-1.7-1.4-3.3-2.9-5.1-4.3l-5.2-4.1l-2.6-2l-2.7-1.9"/>
				<path class="st1" d="M423.4,71.1l-4.9-4.3c-1.7-1.4-3.3-2.9-5-4.2l-5.1-4l-2.6-2l-2.7-1.9"/>
				<path class="st1" d="M398.7,60.7l2.6,1.8l2.5,2l5,3.9c1.7,1.3,3.3,2.7,4.9,4.1l4.8,4.1"/>
				<path class="st1" d="M420.9,73.9l-4.9-4.2c-1.6-1.4-3.2-2.8-4.9-4.1l-5.1-4l-2.5-2l-2.6-1.9"/>
				<path class="st1" d="M396.6,63.7l2.5,1.8l2.5,1.9l4.9,3.9c1.7,1.3,3.2,2.7,4.8,4l4.7,4.1"/>
			</g>
			<g>
				<path class="st1" d="M444.6,87.1c-3-3.3-6.1-6.4-9.1-9.6c-3.2-3-6.4-6.1-9.6-9.1"/>
				<path class="st1" d="M441.9,89.6c-2.9-3.2-6-6.3-9-9.5c-3.2-3-6.3-6-9.5-9"/>
				<path class="st1" d="M418.4,76.6c3.1,2.8,6.1,5.8,9.2,8.7c2.9,3.1,5.9,6.1,8.7,9.2"/>
				<path class="st1" d="M439.1,92.1c-2.9-3.2-5.9-6.2-8.8-9.3c-3.1-2.9-6.2-6-9.3-8.8"/>
				<path class="st1" d="M416,79.4c3.1,2.8,6,5.7,9.1,8.6c2.9,3,5.8,6,8.6,9.1"/>
			</g>
			<g>
				<path class="st1" d="M461.3,107.7l-1.9-2.7l-2-2.6l-4.1-5.2c-1.3-1.8-2.8-3.4-4.3-5.1l-4.3-5"/>
				<path class="st1" d="M458.3,109.9l-1.9-2.7l-2-2.6l-4-5.1c-1.3-1.7-2.8-3.3-4.2-5l-4.3-4.9"/>
				<path class="st1" d="M436.4,94.6l4.1,4.8c1.4,1.6,2.8,3.2,4.1,4.9l3.9,5l2,2.5l1.8,2.6"/>
				<path class="st1" d="M455.3,112.1l-1.9-2.6l-2-2.5l-4-5.1c-1.3-1.7-2.7-3.3-4.1-4.9l-4.2-4.9"/>
				<path class="st1" d="M433.6,97l4.1,4.7c1.4,1.6,2.8,3.1,4,4.8l3.9,4.9l1.9,2.5l1.8,2.5"/>
			</g>
			<g>
				<path class="st1" d="M475.7,129.9c-1.1-1.9-2.2-3.9-3.4-5.7l-3.6-5.6c-2.3-3.8-5-7.3-7.5-10.9"/>
				<path class="st1" d="M472.5,131.8c-1.1-1.9-2.1-3.8-3.3-5.6l-3.5-5.5c-2.3-3.7-4.9-7.2-7.4-10.8"/>
				<path class="st1" d="M452.3,114.3c2.4,3.5,5,6.8,7.2,10.4l3.4,5.3c1.1,1.8,2.1,3.6,3.2,5.5"/>
				<path class="st1" d="M469.3,133.6c-1.1-1.8-2.1-3.7-3.3-5.5l-3.5-5.4c-2.2-3.7-4.8-7.1-7.3-10.6"/>
				<path class="st1" d="M449.3,116.4c2.4,3.4,4.9,6.7,7.1,10.3l3.4,5.3c1.1,1.7,2.1,3.6,3.2,5.4"/>
			</g>
			<g>
				<path class="st1" d="M487.8,153.5l-2.7-6c-0.9-2-2-3.9-3-5.9l-3-5.9l-3.3-5.7"/>
				<path class="st1" d="M484.4,155l-2.7-6c-0.9-2-2-3.9-2.9-5.8l-3-5.8l-3.3-5.7"/>
				<path class="st1" d="M466.1,135.5l3.2,5.5l2.9,5.6c0.9,1.9,2,3.7,2.9,5.7l2.6,5.8"/>
				<path class="st1" d="M481,156.5l-2.7-5.9c-0.9-1.9-1.9-3.8-2.9-5.7l-2.9-5.7l-3.2-5.6"/>
				<path class="st1" d="M462.9,137.4l3.1,5.4l2.9,5.6c0.9,1.9,1.9,3.7,2.8,5.6l2.6,5.7"/>
			</g>
			<g>
				<path class="st1" d="M497.3,178.3l-2.1-6.3c-0.4-1-0.7-2.1-1.1-3.1l-1.2-3.1c-1.6-4.1-3.2-8.2-5.1-12.2"/>
				<path class="st1" d="M493.8,179.4l-2.1-6.2c-0.4-1-0.7-2.1-1.1-3.1l-1.2-3c-1.6-4-3.1-8.1-5-12.1"/>
				<path class="st1" d="M477.6,158.1c1.8,3.8,3.3,7.8,4.9,11.7l1.2,2.9c0.4,1,0.7,2,1,3l2,6"/>
				<path class="st1" d="M490.2,180.6l-2.1-6.1c-0.4-1-0.7-2-1.1-3l-1.2-3c-1.6-4-3.1-8-4.9-11.9"/>
				<path class="st1" d="M474.2,159.6c1.8,3.8,3.3,7.7,4.8,11.5l1.1,2.9c0.4,1,0.7,2,1,2.9l2,5.9"/>
			</g>
			<g>
				<path class="st1" d="M504.1,203.9l-1.5-6.5c-0.5-2.2-1-4.3-1.6-6.4l-1.8-6.4l-0.9-3.2l-1.1-3.1"/>
				<path class="st1" d="M500.5,204.6l-1.5-6.4c-0.5-2.1-0.9-4.3-1.6-6.3l-1.8-6.3l-0.9-3.1l-1-3.1"/>
				<path class="st1" d="M486.7,181.7l1,3l0.9,3l1.7,6.1c0.6,2,1.1,4.1,1.5,6.1l1.4,6.2"/>
				<path class="st1" d="M496.9,205.4l-1.4-6.3c-0.5-2.1-0.9-4.2-1.6-6.2l-1.8-6.2l-0.9-3.1l-1-3.1"/>
				<path class="st1" d="M483.2,182.8l1,3l0.9,3l1.7,6c0.6,2,1,4,1.5,6.1l1.4,6.1"/>
			</g>
			<g>
				<path class="st1" d="M508.3,230c-0.6-4.4-1.1-8.8-1.7-13.1l-1.2-6.5l-0.6-3.3l-0.3-1.6l-0.4-1.6"/>
				<path class="st1" d="M504.6,230.4c-0.6-4.3-1-8.6-1.7-12.9l-1.1-6.4l-0.6-3.2l-0.3-1.6l-0.4-1.6"/>
				<path class="st1" d="M493.3,206.2l0.4,1.5l0.3,1.6l0.6,3.1l1.1,6.2c0.6,4.2,1.1,8.4,1.6,12.6"/>
				<path class="st1" d="M500.9,230.8c-0.6-4.3-1-8.5-1.7-12.8l-1.1-6.3l-0.6-3.2l-0.3-1.6l-0.4-1.6"/>
				<path class="st1" d="M489.6,206.9l0.4,1.5l0.3,1.5l0.5,3.1l1.1,6.1c0.6,4.1,1.1,8.2,1.6,12.4"/>
			</g>
			<g>
				<path class="st1" d="M509.7,256.5l-0.3-13.2c-0.3-4.4-0.6-8.8-1-13.2"/>
				<path class="st1" d="M506,256.5l-0.3-13c-0.3-4.3-0.6-8.7-1-13"/>
				<path class="st1" d="M497.2,231.2c0.4,4.2,0.7,8.4,1,12.6l0.3,12.7"/>
				<path class="st1" d="M502.2,256.5l-0.3-12.9c-0.3-4.3-0.6-8.6-1-12.8"/>
				<path class="st1" d="M493.5,231.6c0.4,4.1,0.6,8.3,1,12.4l0.3,12.5"/>
			</g>
		</g>
	</g>
</g>
<g>
	<path class="st2" d="M174.5,400.1L174.5,400.1c-19.6,0-35.5-15.9-35.5-35.5V149.5c0-19.6,15.9-35.5,35.5-35.5h0
		c19.6,0,35.5,15.9,35.5,35.5v215.1C210,384.2,194.1,400.1,174.5,400.1z"/>
	<g>
		<g>
			<g>
				<path class="st3" d="M143.2,401.2c4.3,3.7,9.3,6.6,14.6,8.6c5.3,2,11,3,16.7,3"/>
				<path class="st3" d="M145.6,398.4c4,3.4,8.6,6.1,13.5,7.9c4.9,1.8,10.2,2.8,15.4,2.8"/>
				<path class="st3" d="M174.5,401.6c-8.7,0-17.4-3.2-24.1-8.9"/>
				<path class="st3" d="M148,395.5c3.7,3.1,7.9,5.6,12.4,7.3c4.5,1.7,9.3,2.5,14.1,2.6"/>
				<path class="st3" d="M174.5,397.9c-7.9,0-15.7-2.9-21.7-8"/>
			</g>
			<g>
				<path class="st3" d="M127,372c1.7,11.2,7.6,21.8,16.2,29.1"/>
				<path class="st3" d="M130.6,371.5c1.6,10.4,7,20.2,15,26.9"/>
				<path class="st3" d="M150.4,392.7c-6.7-5.6-11.2-13.8-12.5-22.4"/>
				<path class="st3" d="M134.3,370.9c1.4,9.5,6.4,18.5,13.7,24.7"/>
				<path class="st3" d="M152.8,389.9c-6-5.1-10.1-12.4-11.2-20.2"/>
			</g>
			<g>
				<path class="st3" d="M126.3,345v12.6v6.3l0,0.8l0,1.1l0.1,2.1c0.1,0.7,0.1,1.4,0.2,2.1l0.3,2.1"/>
				<path class="st3" d="M130,345v12.6v6.3l0,0.8l0,1l0.1,2c0,0.7,0,1.3,0.1,2l0.3,1.9"/>
				<path class="st3" d="M137.9,370.3l-0.2-1.6c-0.1-0.5-0.1-1.1-0.1-1.6c0-1.1-0.1-2.2-0.1-3.2v-6.3V345"/>
				<path class="st3" d="M133.8,345v12.6v6.3l0,0.8l0,0.9l0.1,1.8c0,0.6,0,1.2,0.1,1.8l0.3,1.8"/>
				<path class="st3" d="M141.6,369.7l-0.2-1.5c-0.1-0.5-0.1-1-0.1-1.5l-0.1-1.5l0-0.7l0-0.8v-6.3V345"/>
			</g>
			<g>
				<line class="st3" x1="126.3" y1="319.9" x2="126.3" y2="345"/>
				<line class="st3" x1="130" y1="319.9" x2="130" y2="345"/>
				<line class="st3" x1="137.5" y1="345" x2="137.5" y2="319.9"/>
				<line class="st3" x1="133.8" y1="319.9" x2="133.8" y2="345"/>
				<line class="st3" x1="141.2" y1="345" x2="141.2" y2="319.9"/>
			</g>
			<g>
				<line class="st3" x1="126.3" y1="294.7" x2="126.3" y2="319.9"/>
				<line class="st3" x1="130" y1="294.7" x2="130" y2="319.9"/>
				<line class="st3" x1="137.5" y1="319.9" x2="137.5" y2="294.7"/>
				<line class="st3" x1="133.8" y1="294.7" x2="133.8" y2="319.9"/>
				<line class="st3" x1="141.2" y1="319.9" x2="141.2" y2="294.7"/>
			</g>
			<g>
				<line class="st3" x1="126.3" y1="269.6" x2="126.3" y2="294.7"/>
				<line class="st3" x1="130" y1="269.6" x2="130" y2="294.7"/>
				<line class="st3" x1="137.5" y1="294.7" x2="137.5" y2="269.6"/>
				<line class="st3" x1="133.8" y1="269.6" x2="133.8" y2="294.7"/>
				<line class="st3" x1="141.2" y1="294.7" x2="141.2" y2="269.6"/>
			</g>
			<g>
				<line class="st3" x1="126.3" y1="244.5" x2="126.3" y2="269.6"/>
				<line class="st3" x1="130" y1="244.5" x2="130" y2="269.6"/>
				<line class="st3" x1="137.5" y1="269.6" x2="137.5" y2="244.5"/>
				<line class="st3" x1="133.8" y1="244.5" x2="133.8" y2="269.6"/>
				<line class="st3" x1="141.2" y1="269.6" x2="141.2" y2="244.5"/>
			</g>
			<g>
				<line class="st3" x1="126.3" y1="219.4" x2="126.3" y2="244.5"/>
				<line class="st3" x1="130" y1="219.4" x2="130" y2="244.5"/>
				<line class="st3" x1="137.5" y1="244.5" x2="137.5" y2="219.4"/>
				<line class="st3" x1="133.8" y1="219.4" x2="133.8" y2="244.5"/>
				<line class="st3" x1="141.2" y1="244.5" x2="141.2" y2="219.4"/>
			</g>
			<g>
				<line class="st3" x1="126.3" y1="194.2" x2="126.3" y2="219.4"/>
				<line class="st3" x1="130" y1="194.2" x2="130" y2="219.4"/>
				<line class="st3" x1="137.5" y1="219.4" x2="137.5" y2="194.2"/>
				<line class="st3" x1="133.8" y1="194.2" x2="133.8" y2="219.4"/>
				<line class="st3" x1="141.2" y1="219.4" x2="141.2" y2="194.2"/>
			</g>
			<g>
				<line class="st3" x1="126.3" y1="169.1" x2="126.3" y2="194.2"/>
				<line class="st3" x1="130" y1="169.1" x2="130" y2="194.2"/>
				<line class="st3" x1="137.5" y1="194.2" x2="137.5" y2="169.1"/>
				<line class="st3" x1="133.8" y1="169.1" x2="133.8" y2="194.2"/>
				<line class="st3" x1="141.2" y1="194.2" x2="141.2" y2="169.1"/>
			</g>
			<g>
				<path class="st3" d="M127,142.1l-0.3,2.1c-0.1,0.7-0.1,1.4-0.2,2.1l-0.1,2.1l0,1.1l0,0.8v6.3v12.6"/>
				<path class="st3" d="M130.6,142.7l-0.3,1.9c-0.1,0.6-0.1,1.3-0.1,2l-0.1,2l0,1l0,0.8v6.3v12.6"/>
				<path class="st3" d="M137.5,169.1v-12.6v-6.3c0-1,0.1-2.2,0.1-3.2c0-0.5,0-1.1,0.1-1.6l0.2-1.6"/>
				<path class="st3" d="M134.3,143.2L134,145c-0.1,0.6-0.1,1.2-0.1,1.8l-0.1,1.8l0,0.9l0,0.8v6.3v12.6"/>
				<path class="st3" d="M141.2,169.1v-12.6v-6.3c0-0.5,0-1,0-1.5l0.1-1.5c0-0.5,0-1,0.1-1.5l0.2-1.5"/>
			</g>
			<g>
				<path class="st3" d="M143.2,112.9c-8.7,7.3-14.5,17.9-16.2,29.1"/>
				<path class="st3" d="M145.6,115.7c-8,6.8-13.4,16.5-15,26.9"/>
				<path class="st3" d="M137.9,143.8c1.3-8.6,5.8-16.8,12.5-22.4"/>
				<path class="st3" d="M148,118.6c-7.4,6.2-12.3,15.2-13.7,24.7"/>
				<path class="st3" d="M141.6,144.4c1.2-7.8,5.2-15.1,11.2-20.2"/>
			</g>
			<g>
				<path class="st3" d="M174.5,101.3c-5.7,0-11.3,1-16.7,3c-5.3,2-10.3,4.9-14.6,8.6"/>
				<path class="st3" d="M174.5,105c-5.2,0-10.5,1-15.4,2.8c-4.9,1.8-9.5,4.5-13.5,7.9"/>
				<path class="st3" d="M150.4,121.4c6.6-5.7,15.3-8.9,24.1-8.9"/>
				<path class="st3" d="M174.5,108.8c-4.8,0-9.6,0.9-14.1,2.6c-4.5,1.7-8.7,4.1-12.4,7.3"/>
				<path class="st3" d="M152.8,124.2c6-5.1,13.8-8,21.7-8"/>
			</g>
			<g>
				<path class="st3" d="M205.8,112.9c-4.3-3.7-9.3-6.6-14.6-8.6c-5.3-2-11-3-16.7-3"/>
				<path class="st3" d="M203.4,115.7c-4-3.4-8.6-6.1-13.5-7.9c-4.9-1.8-10.2-2.8-15.4-2.8"/>
				<path class="st3" d="M174.5,112.5c8.7,0,17.4,3.2,24.1,8.9"/>
				<path class="st3" d="M201,118.6c-3.7-3.1-7.9-5.6-12.4-7.3c-4.5-1.7-9.3-2.5-14.1-2.6"/>
				<path class="st3" d="M174.5,116.2c7.9,0,15.7,2.9,21.7,8"/>
			</g>
			<g>
				<path class="st3" d="M222,142.1c-1.7-11.2-7.6-21.8-16.2-29.1"/>
				<path class="st3" d="M218.4,142.7c-1.6-10.4-7-20.2-15-26.9"/>
				<path class="st3" d="M198.6,121.4c6.7,5.6,11.2,13.8,12.5,22.4"/>
				<path class="st3" d="M214.7,143.2c-1.4-9.5-6.4-18.5-13.7-24.7"/>
				<path class="st3" d="M196.2,124.2c6,5.1,10.1,12.4,11.2,20.2"/>
			</g>
			<g>
				<path class="st3" d="M222.7,169.1v-12.6v-6.3l0-0.8l0-1.1l-0.1-2.1c-0.1-0.7-0.1-1.4-0.2-2.1l-0.3-2.1"/>
				<path class="st3" d="M219,169.1v-12.6v-6.3l0-0.8l0-1l-0.1-2c0-0.7,0-1.3-0.1-2l-0.3-1.9"/>
				<path class="st3" d="M211.1,143.8l0.2,1.6c0.1,0.5,0.1,1.1,0.1,1.6c0,1.1,0.1,2.2,0.1,3.2v6.3v12.6"/>
				<path class="st3" d="M215.2,169.1v-12.6v-6.3l0-0.8l0-0.9l-0.1-1.8c0-0.6,0-1.2-0.1-1.8l-0.3-1.8"/>
				<path class="st3" d="M207.4,144.4l0.2,1.5c0.1,0.5,0.1,1,0.1,1.5l0.1,1.5l0,0.7l0,0.8v6.3v12.6"/>
			</g>
			<g>
				<line class="st3" x1="222.7" y1="194.2" x2="222.7" y2="169.1"/>
				<line class="st3" x1="219" y1="194.2" x2="219" y2="169.1"/>
				<line class="st3" x1="211.5" y1="169.1" x2="211.5" y2="194.2"/>
				<line class="st3" x1="215.2" y1="194.2" x2="215.2" y2="169.1"/>
				<line class="st3" x1="207.8" y1="169.1" x2="207.8" y2="194.2"/>
			</g>
			<g>
				<line class="st3" x1="222.7" y1="219.4" x2="222.7" y2="194.2"/>
				<line class="st3" x1="219" y1="219.4" x2="219" y2="194.2"/>
				<line class="st3" x1="211.5" y1="194.2" x2="211.5" y2="219.4"/>
				<line class="st3" x1="215.2" y1="219.4" x2="215.2" y2="194.2"/>
				<line class="st3" x1="207.8" y1="194.2" x2="207.8" y2="219.4"/>
			</g>
			<g>
				<line class="st3" x1="222.7" y1="244.5" x2="222.7" y2="219.4"/>
				<line class="st3" x1="219" y1="244.5" x2="219" y2="219.4"/>
				<line class="st3" x1="211.5" y1="219.4" x2="211.5" y2="244.5"/>
				<line class="st3" x1="215.2" y1="244.5" x2="215.2" y2="219.4"/>
				<line class="st3" x1="207.8" y1="219.4" x2="207.8" y2="244.5"/>
			</g>
			<g>
				<line class="st3" x1="222.7" y1="269.6" x2="222.7" y2="244.5"/>
				<line class="st3" x1="219" y1="269.6" x2="219" y2="244.5"/>
				<line class="st3" x1="211.5" y1="244.5" x2="211.5" y2="269.6"/>
				<line class="st3" x1="215.2" y1="269.6" x2="215.2" y2="244.5"/>
				<line class="st3" x1="207.8" y1="244.5" x2="207.8" y2="269.6"/>
			</g>
			<g>
				<line class="st3" x1="222.7" y1="294.7" x2="222.7" y2="269.6"/>
				<line class="st3" x1="219" y1="294.7" x2="219" y2="269.6"/>
				<line class="st3" x1="211.5" y1="269.6" x2="211.5" y2="294.7"/>
				<line class="st3" x1="215.2" y1="294.7" x2="215.2" y2="269.6"/>
				<line class="st3" x1="207.8" y1="269.6" x2="207.8" y2="294.7"/>
			</g>
			<g>
				<line class="st3" x1="222.7" y1="319.9" x2="222.7" y2="294.7"/>
				<line class="st3" x1="219" y1="319.9" x2="219" y2="294.7"/>
				<line class="st3" x1="211.5" y1="294.7" x2="211.5" y2="319.9"/>
				<line class="st3" x1="215.2" y1="319.9" x2="215.2" y2="294.7"/>
				<line class="st3" x1="207.8" y1="294.7" x2="207.8" y2="319.9"/>
			</g>
			<g>
				<line class="st3" x1="222.7" y1="345" x2="222.7" y2="319.9"/>
				<line class="st3" x1="219" y1="345" x2="219" y2="319.9"/>
				<line class="st3" x1="211.5" y1="319.9" x2="211.5" y2="345"/>
				<line class="st3" x1="215.2" y1="345" x2="215.2" y2="319.9"/>
				<line class="st3" x1="207.8" y1="319.9" x2="207.8" y2="345"/>
			</g>
			<g>
				<path class="st3" d="M222,372l0.3-2.1c0.1-0.7,0.1-1.4,0.2-2.1l0.1-2.1l0-1.1l0-0.8v-6.3V345"/>
				<path class="st3" d="M218.4,371.5l0.3-1.9c0.1-0.6,0.1-1.3,0.1-2l0.1-2l0-1l0-0.8v-6.3V345"/>
				<path class="st3" d="M211.5,345v12.6v6.3c0,1-0.1,2.2-0.1,3.2c0,0.5,0,1.1-0.1,1.6l-0.2,1.6"/>
				<path class="st3" d="M214.7,370.9l0.3-1.8c0.1-0.6,0.1-1.2,0.1-1.8l0.1-1.8l0-0.9l0-0.8v-6.3V345"/>
				<path class="st3" d="M207.8,345v12.6v6.3c0,0.5,0,1,0,1.5l-0.1,1.5c0,0.5,0,1-0.1,1.5l-0.2,1.5"/>
			</g>
			<g>
				<path class="st3" d="M205.8,401.2c8.7-7.3,14.5-17.9,16.2-29.1"/>
				<path class="st3" d="M203.4,398.4c8-6.8,13.4-16.5,15-26.9"/>
				<path class="st3" d="M211.1,370.3c-1.3,8.6-5.8,16.8-12.5,22.4"/>
				<path class="st3" d="M201,395.5c7.4-6.2,12.3-15.2,13.7-24.7"/>
				<path class="st3" d="M207.4,369.7c-1.2,7.8-5.2,15.1-11.2,20.2"/>
			</g>
			<g>
				<path class="st3" d="M174.5,412.8c5.7,0,11.3-1,16.7-3c5.3-2,10.3-4.9,14.6-8.6"/>
				<path class="st3" d="M174.5,409.1c5.2,0,10.5-1,15.4-2.8c4.9-1.8,9.5-4.5,13.5-7.9"/>
				<path class="st3" d="M198.6,392.7c-6.6,5.7-15.3,8.9-24.1,8.9"/>
				<path class="st3" d="M174.5,405.4c4.8,0,9.6-0.9,14.1-2.6c4.5-1.7,8.7-4.1,12.4-7.3"/>
				<path class="st3" d="M196.2,389.9c-6,5.1-13.8,8-21.7,8"/>
			</g>
		</g>
	</g>
</g>
<g>
	<path class="st2" d="M339,400.5L339,400.5c-19.6,0-35.5-15.9-35.5-35.5V149.9c0-19.6,15.9-35.5,35.5-35.5h0
		c19.6,0,35.5,15.9,35.5,35.5V365C374.5,384.6,358.6,400.5,339,400.5z"/>
	<g>
		<g>
			<g>
				<path class="st3" d="M307.7,401.6c4.3,3.7,9.3,6.6,14.6,8.6c5.3,2,11,3,16.7,3"/>
				<path class="st3" d="M310.1,398.8c4,3.4,8.6,6.1,13.5,7.9c4.9,1.8,10.2,2.8,15.4,2.8"/>
				<path class="st3" d="M339,402c-8.7,0-17.4-3.2-24.1-8.9"/>
				<path class="st3" d="M312.5,395.9c3.7,3.1,7.9,5.6,12.4,7.3c4.5,1.7,9.3,2.5,14.1,2.6"/>
				<path class="st3" d="M339,398.3c-7.9,0-15.7-2.9-21.7-8"/>
			</g>
			<g>
				<path class="st3" d="M291.5,372.4c1.7,11.2,7.6,21.8,16.2,29.1"/>
				<path class="st3" d="M295.1,371.8c1.6,10.4,7,20.2,15,26.9"/>
				<path class="st3" d="M314.9,393.1c-6.7-5.6-11.2-13.8-12.5-22.4"/>
				<path class="st3" d="M298.8,371.3c1.4,9.5,6.4,18.5,13.7,24.7"/>
				<path class="st3" d="M317.3,390.3c-6-5.1-10.1-12.4-11.2-20.2"/>
			</g>
			<g>
				<path class="st3" d="M290.8,345.4v12.6v6.3l0,0.8l0,1.1l0.1,2.1c0.1,0.7,0.1,1.4,0.2,2.1l0.3,2.1"/>
				<path class="st3" d="M294.5,345.4v12.6v6.3l0,0.8l0,1l0.1,2c0,0.7,0,1.3,0.1,2l0.3,1.9"/>
				<path class="st3" d="M302.4,370.7l-0.2-1.6c-0.1-0.5-0.1-1.1-0.1-1.6c0-1.1-0.1-2.2-0.1-3.2v-6.3v-12.6"/>
				<path class="st3" d="M298.3,345.4v12.6v6.3l0,0.8l0,0.9l0.1,1.8c0,0.6,0,1.2,0.1,1.8l0.3,1.8"/>
				<path class="st3" d="M306.1,370.1l-0.2-1.5c-0.1-0.5-0.1-1-0.1-1.5l-0.1-1.5l0-0.7l0-0.8v-6.3v-12.6"/>
			</g>
			<g>
				<line class="st3" x1="290.8" y1="320.3" x2="290.8" y2="345.4"/>
				<line class="st3" x1="294.5" y1="320.3" x2="294.5" y2="345.4"/>
				<line class="st3" x1="302" y1="345.4" x2="302" y2="320.3"/>
				<line class="st3" x1="298.3" y1="320.3" x2="298.3" y2="345.4"/>
				<line class="st3" x1="305.7" y1="345.4" x2="305.7" y2="320.3"/>
			</g>
			<g>
				<line class="st3" x1="290.8" y1="295.1" x2="290.8" y2="320.3"/>
				<line class="st3" x1="294.5" y1="295.1" x2="294.5" y2="320.3"/>
				<line class="st3" x1="302" y1="320.3" x2="302" y2="295.1"/>
				<line class="st3" x1="298.3" y1="295.1" x2="298.3" y2="320.3"/>
				<line class="st3" x1="305.7" y1="320.3" x2="305.7" y2="295.1"/>
			</g>
			<g>
				<line class="st3" x1="290.8" y1="270" x2="290.8" y2="295.1"/>
				<line class="st3" x1="294.5" y1="270" x2="294.5" y2="295.1"/>
				<line class="st3" x1="302" y1="295.1" x2="302" y2="270"/>
				<line class="st3" x1="298.3" y1="270" x2="298.3" y2="295.1"/>
				<line class="st3" x1="305.7" y1="295.1" x2="305.7" y2="270"/>
			</g>
			<g>
				<line class="st3" x1="290.8" y1="244.9" x2="290.8" y2="270"/>
				<line class="st3" x1="294.5" y1="244.9" x2="294.5" y2="270"/>
				<line class="st3" x1="302" y1="270" x2="302" y2="244.9"/>
				<line class="st3" x1="298.3" y1="244.9" x2="298.3" y2="270"/>
				<line class="st3" x1="305.7" y1="270" x2="305.7" y2="244.9"/>
			</g>
			<g>
				<line class="st3" x1="290.8" y1="219.8" x2="290.8" y2="244.9"/>
				<line class="st3" x1="294.5" y1="219.8" x2="294.5" y2="244.9"/>
				<line class="st3" x1="302" y1="244.9" x2="302" y2="219.8"/>
				<line class="st3" x1="298.3" y1="219.8" x2="298.3" y2="244.9"/>
				<line class="st3" x1="305.7" y1="244.9" x2="305.7" y2="219.8"/>
			</g>
			<g>
				<line class="st3" x1="290.8" y1="194.6" x2="290.8" y2="219.8"/>
				<line class="st3" x1="294.5" y1="194.6" x2="294.5" y2="219.8"/>
				<line class="st3" x1="302" y1="219.8" x2="302" y2="194.6"/>
				<line class="st3" x1="298.3" y1="194.6" x2="298.3" y2="219.8"/>
				<line class="st3" x1="305.7" y1="219.8" x2="305.7" y2="194.6"/>
			</g>
			<g>
				<line class="st3" x1="290.8" y1="169.5" x2="290.8" y2="194.6"/>
				<line class="st3" x1="294.5" y1="169.5" x2="294.5" y2="194.6"/>
				<line class="st3" x1="302" y1="194.6" x2="302" y2="169.5"/>
				<line class="st3" x1="298.3" y1="169.5" x2="298.3" y2="194.6"/>
				<line class="st3" x1="305.7" y1="194.6" x2="305.7" y2="169.5"/>
			</g>
			<g>
				<path class="st3" d="M291.5,142.5l-0.3,2.1c-0.1,0.7-0.1,1.4-0.2,2.1l-0.1,2.1l0,1.1l0,0.8v6.3v12.6"/>
				<path class="st3" d="M295.1,143l-0.3,1.9c-0.1,0.6-0.1,1.3-0.1,2l-0.1,2l0,1l0,0.8v6.3v12.6"/>
				<path class="st3" d="M302,169.5V157v-6.3c0-1,0.1-2.2,0.1-3.2c0-0.5,0-1.1,0.1-1.6l0.2-1.6"/>
				<path class="st3" d="M298.8,143.6l-0.3,1.8c-0.1,0.6-0.1,1.2-0.1,1.8l-0.1,1.8l0,0.9l0,0.8v6.3v12.6"/>
				<path class="st3" d="M305.7,169.5V157v-6.3c0-0.5,0-1,0-1.5l0.1-1.5c0-0.5,0-1,0.1-1.5l0.2-1.5"/>
			</g>
			<g>
				<path class="st3" d="M307.7,113.3c-8.7,7.3-14.5,17.9-16.2,29.1"/>
				<path class="st3" d="M310.1,116.1c-8,6.8-13.4,16.5-15,26.9"/>
				<path class="st3" d="M302.4,144.2c1.3-8.6,5.8-16.8,12.5-22.4"/>
				<path class="st3" d="M312.5,119c-7.4,6.2-12.3,15.2-13.7,24.7"/>
				<path class="st3" d="M306.1,144.8c1.2-7.8,5.2-15.1,11.2-20.2"/>
			</g>
			<g>
				<path class="st3" d="M339,101.7c-5.7,0-11.3,1-16.7,3c-5.3,2-10.3,4.9-14.6,8.6"/>
				<path class="st3" d="M339,105.4c-5.2,0-10.5,1-15.4,2.8c-4.9,1.8-9.5,4.5-13.5,7.9"/>
				<path class="st3" d="M314.9,121.8c6.6-5.7,15.3-8.9,24.1-8.9"/>
				<path class="st3" d="M339,109.1c-4.8,0-9.6,0.9-14.1,2.6c-4.5,1.7-8.7,4.1-12.4,7.3"/>
				<path class="st3" d="M317.3,124.6c6-5.1,13.8-8,21.7-8"/>
			</g>
			<g>
				<path class="st3" d="M370.3,113.3c-4.3-3.7-9.3-6.6-14.6-8.6c-5.3-2-11-3-16.7-3"/>
				<path class="st3" d="M367.9,116.1c-4-3.4-8.6-6.1-13.5-7.9c-4.9-1.8-10.2-2.8-15.4-2.8"/>
				<path class="st3" d="M339,112.9c8.7,0,17.4,3.2,24.1,8.9"/>
				<path class="st3" d="M365.5,119c-3.7-3.1-7.9-5.6-12.4-7.3c-4.5-1.7-9.3-2.5-14.1-2.6"/>
				<path class="st3" d="M339,116.6c7.9,0,15.7,2.9,21.7,8"/>
			</g>
			<g>
				<path class="st3" d="M386.5,142.5c-1.7-11.2-7.6-21.8-16.2-29.1"/>
				<path class="st3" d="M382.9,143c-1.6-10.4-7-20.2-15-26.9"/>
				<path class="st3" d="M363.1,121.8c6.7,5.6,11.2,13.8,12.5,22.4"/>
				<path class="st3" d="M379.2,143.6c-1.4-9.5-6.4-18.5-13.7-24.7"/>
				<path class="st3" d="M360.7,124.6c6,5.1,10.1,12.4,11.2,20.2"/>
			</g>
			<g>
				<path class="st3" d="M387.2,169.5V157v-6.3l0-0.8l0-1.1l-0.1-2.1c-0.1-0.7-0.1-1.4-0.2-2.1l-0.3-2.1"/>
				<path class="st3" d="M383.5,169.5V157v-6.3l0-0.8l0-1l-0.1-2c0-0.7,0-1.3-0.1-2l-0.3-1.9"/>
				<path class="st3" d="M375.6,144.2l0.2,1.6c0.1,0.5,0.1,1.1,0.1,1.6c0,1.1,0.1,2.2,0.1,3.2v6.3v12.6"/>
				<path class="st3" d="M379.7,169.5V157v-6.3l0-0.8l0-0.9l-0.1-1.8c0-0.6,0-1.2-0.1-1.8l-0.3-1.8"/>
				<path class="st3" d="M371.9,144.8l0.2,1.5c0.1,0.5,0.1,1,0.1,1.5l0.1,1.5l0,0.7l0,0.8v6.3v12.6"/>
			</g>
			<g>
				<line class="st3" x1="387.2" y1="194.6" x2="387.2" y2="169.5"/>
				<line class="st3" x1="383.5" y1="194.6" x2="383.5" y2="169.5"/>
				<line class="st3" x1="376" y1="169.5" x2="376" y2="194.6"/>
				<line class="st3" x1="379.7" y1="194.6" x2="379.7" y2="169.5"/>
				<line class="st3" x1="372.3" y1="169.5" x2="372.3" y2="194.6"/>
			</g>
			<g>
				<line class="st3" x1="387.2" y1="219.8" x2="387.2" y2="194.6"/>
				<line class="st3" x1="383.5" y1="219.8" x2="383.5" y2="194.6"/>
				<line class="st3" x1="376" y1="194.6" x2="376" y2="219.8"/>
				<line class="st3" x1="379.7" y1="219.8" x2="379.7" y2="194.6"/>
				<line class="st3" x1="372.3" y1="194.6" x2="372.3" y2="219.8"/>
			</g>
			<g>
				<line class="st3" x1="387.2" y1="244.9" x2="387.2" y2="219.8"/>
				<line class="st3" x1="383.5" y1="244.9" x2="383.5" y2="219.8"/>
				<line class="st3" x1="376" y1="219.8" x2="376" y2="244.9"/>
				<line class="st3" x1="379.7" y1="244.9" x2="379.7" y2="219.8"/>
				<line class="st3" x1="372.3" y1="219.8" x2="372.3" y2="244.9"/>
			</g>
			<g>
				<line class="st3" x1="387.2" y1="270" x2="387.2" y2="244.9"/>
				<line class="st3" x1="383.5" y1="270" x2="383.5" y2="244.9"/>
				<line class="st3" x1="376" y1="244.9" x2="376" y2="270"/>
				<line class="st3" x1="379.7" y1="270" x2="379.7" y2="244.9"/>
				<line class="st3" x1="372.3" y1="244.9" x2="372.3" y2="270"/>
			</g>
			<g>
				<line class="st3" x1="387.2" y1="295.1" x2="387.2" y2="270"/>
				<line class="st3" x1="383.5" y1="295.1" x2="383.5" y2="270"/>
				<line class="st3" x1="376" y1="270" x2="376" y2="295.1"/>
				<line class="st3" x1="379.7" y1="295.1" x2="379.7" y2="270"/>
				<line class="st3" x1="372.3" y1="270" x2="372.3" y2="295.1"/>
			</g>
			<g>
				<line class="st3" x1="387.2" y1="320.3" x2="387.2" y2="295.1"/>
				<line class="st3" x1="383.5" y1="320.3" x2="383.5" y2="295.1"/>
				<line class="st3" x1="376" y1="295.1" x2="376" y2="320.3"/>
				<line class="st3" x1="379.7" y1="320.3" x2="379.7" y2="295.1"/>
				<line class="st3" x1="372.3" y1="295.1" x2="372.3" y2="320.3"/>
			</g>
			<g>
				<line class="st3" x1="387.2" y1="345.4" x2="387.2" y2="320.3"/>
				<line class="st3" x1="383.5" y1="345.4" x2="383.5" y2="320.3"/>
				<line class="st3" x1="376" y1="320.3" x2="376" y2="345.4"/>
				<line class="st3" x1="379.7" y1="345.4" x2="379.7" y2="320.3"/>
				<line class="st3" x1="372.3" y1="320.3" x2="372.3" y2="345.4"/>
			</g>
			<g>
				<path class="st3" d="M386.5,372.4l0.3-2.1c0.1-0.7,0.1-1.4,0.2-2.1l0.1-2.1l0-1.1l0-0.8v-6.3v-12.6"/>
				<path class="st3" d="M382.9,371.8l0.3-1.9c0.1-0.6,0.1-1.3,0.1-2l0.1-2l0-1l0-0.8v-6.3v-12.6"/>
				<path class="st3" d="M376,345.4v12.6v6.3c0,1-0.1,2.2-0.1,3.2c0,0.5,0,1.1-0.1,1.6l-0.2,1.6"/>
				<path class="st3" d="M379.2,371.3l0.3-1.8c0.1-0.6,0.1-1.2,0.1-1.8l0.1-1.8l0-0.9l0-0.8v-6.3v-12.6"/>
				<path class="st3" d="M372.3,345.4v12.6v6.3c0,0.5,0,1,0,1.5l-0.1,1.5c0,0.5,0,1-0.1,1.5l-0.2,1.5"/>
			</g>
			<g>
				<path class="st3" d="M370.3,401.6c8.7-7.3,14.5-17.9,16.2-29.1"/>
				<path class="st3" d="M367.9,398.8c8-6.8,13.4-16.5,15-26.9"/>
				<path class="st3" d="M375.6,370.7c-1.3,8.6-5.8,16.8-12.5,22.4"/>
				<path class="st3" d="M365.5,395.9c7.4-6.2,12.3-15.2,13.7-24.7"/>
				<path class="st3" d="M371.9,370.1c-1.2,7.8-5.2,15.1-11.2,20.2"/>
			</g>
			<g>
				<path class="st3" d="M339,413.2c5.7,0,11.3-1,16.7-3c5.3-2,10.3-4.9,14.6-8.6"/>
				<path class="st3" d="M339,409.5c5.2,0,10.5-1,15.4-2.8c4.9-1.8,9.5-4.5,13.5-7.9"/>
				<path class="st3" d="M363.1,393.1c-6.6,5.7-15.3,8.9-24.1,8.9"/>
				<path class="st3" d="M339,405.7c4.8,0,9.6-0.9,14.1-2.6c4.5-1.7,8.7-4.1,12.4-7.3"/>
				<path class="st3" d="M360.7,390.3c-6,5.1-13.8,8-21.7,8"/>
			</g>
		</g>
	</g>
</g>
</svg>
