<?xml version="1.0" encoding="utf-8"?>
<!-- Generator: Adobe Illustrator 22.0.0, SVG Export Plug-In . SVG Version: 6.00 Build 0)  -->
<svg version="1.1" id="Layer_1" xmlns="http://www.w3.org/2000/svg" xmlns:xlink="http://www.w3.org/1999/xlink" x="0px" y="0px"
	 viewBox="0 0 512 512" style="enable-background:new 0 0 512 512;" xml:space="preserve">
<style type="text/css">
	.st0{fill:#600094;}
	.st1{fill:none;stroke:#61587D;}
	.st2{fill:#FF0AAF;}
</style>
<g>
	<circle class="st0" cx="256.5" cy="256.5" r="240.5"/>
	<g>
		<g>
			<g>
				<path class="st1" d="M508.3,283c0.4-4.4,0.7-8.8,1-13.2l0.3-13.2"/>
				<path class="st1" d="M504.6,282.6c0.4-4.3,0.7-8.7,1-13l0.3-13"/>
				<path class="st1" d="M498.5,256.5l-0.3,12.7c-0.3,4.2-0.6,8.4-1,12.6"/>
				<path class="st1" d="M500.9,282.2c0.4-4.3,0.7-8.6,1-12.8l0.3-12.9"/>
				<path class="st1" d="M494.8,256.5l-0.3,12.5c-0.3,4.1-0.6,8.3-1,12.4"/>
			</g>
			<g>
				<path class="st1" d="M504.1,309.1l0.4-1.6l0.3-1.6l0.6-3.3l1.2-6.5c0.7-4.4,1.1-8.8,1.7-13.1"/>
				<path class="st1" d="M500.5,308.4l0.4-1.6l0.3-1.6l0.6-3.2l1.1-6.4c0.7-4.3,1.1-8.6,1.7-12.9"/>
				<path class="st1" d="M497.2,281.8c-0.6,4.2-1,8.4-1.6,12.6l-1.1,6.2l-0.6,3.1l-0.3,1.6l-0.4,1.5"/>
				<path class="st1" d="M496.9,307.6l0.4-1.6l0.3-1.6l0.6-3.2l1.1-6.3c0.6-4.2,1.1-8.5,1.7-12.8"/>
				<path class="st1" d="M493.5,281.4c-0.5,4.1-1,8.3-1.6,12.4l-1.1,6.1l-0.5,3.1l-0.3,1.5l-0.4,1.5"/>
			</g>
			<g>
				<path class="st1" d="M497.3,334.7l1.1-3.1l0.9-3.2l1.8-6.4c0.6-2.1,1.1-4.3,1.6-6.4l1.5-6.5"/>
				<path class="st1" d="M493.8,333.6l1-3.1l0.9-3.1l1.8-6.3c0.6-2.1,1.1-4.2,1.6-6.3l1.5-6.4"/>
				<path class="st1" d="M493.3,306.8l-1.4,6.2c-0.5,2.1-0.9,4.1-1.5,6.1l-1.7,6.1l-0.9,3l-1,3"/>
				<path class="st1" d="M490.2,332.4l1-3.1l0.9-3.1l1.8-6.2c0.6-2.1,1.1-4.2,1.6-6.2l1.4-6.3"/>
				<path class="st1" d="M489.6,306.1l-1.4,6.1c-0.5,2-0.9,4.1-1.5,6.1l-1.7,6l-0.9,3l-1,3"/>
			</g>
			<g>
				<path class="st1" d="M487.8,359.5c1.9-4,3.5-8.1,5.1-12.2l1.2-3.1c0.4-1,0.7-2.1,1.1-3.1l2.1-6.3"/>
				<path class="st1" d="M484.4,358c1.9-3.9,3.4-8,5-12.1l1.2-3c0.4-1,0.7-2.1,1.1-3.1l2.1-6.2"/>
				<path class="st1" d="M486.7,331.3l-2,6c-0.4,1-0.6,2-1,3l-1.2,2.9c-1.6,3.9-3,7.9-4.9,11.7"/>
				<path class="st1" d="M481,356.5c1.8-3.9,3.4-7.9,4.9-11.9l1.2-3c0.4-1,0.7-2,1.1-3l2.1-6.1"/>
				<path class="st1" d="M483.2,330.2l-2,5.9c-0.3,1-0.6,2-1,2.9l-1.1,2.9c-1.5,3.9-3,7.8-4.8,11.5"/>
			</g>
			<g>
				<path class="st1" d="M475.7,383.1l3.3-5.7l3-5.9c1-2,2-3.9,3-5.9l2.7-6"/>
				<path class="st1" d="M472.5,381.2l3.3-5.7l3-5.8c1-1.9,2-3.9,2.9-5.8l2.7-6"/>
				<path class="st1" d="M477.6,354.9l-2.6,5.8c-0.9,1.9-1.9,3.8-2.9,5.7l-2.9,5.6l-3.2,5.5"/>
				<path class="st1" d="M469.3,379.4l3.2-5.6l2.9-5.7c1-1.9,2-3.8,2.9-5.7l2.7-5.9"/>
				<path class="st1" d="M474.2,353.4l-2.6,5.7c-0.9,1.9-1.9,3.7-2.8,5.6l-2.9,5.6l-3.1,5.4"/>
			</g>
			<g>
				<path class="st1" d="M461.3,405.3c2.5-3.6,5.2-7.1,7.5-10.9l3.6-5.6c1.2-1.9,2.2-3.8,3.4-5.7"/>
				<path class="st1" d="M458.3,403.1c2.5-3.6,5.1-7,7.4-10.8l3.5-5.5c1.2-1.8,2.2-3.8,3.3-5.6"/>
				<path class="st1" d="M466.1,377.5c-1.1,1.8-2.1,3.7-3.2,5.5l-3.4,5.3c-2.2,3.6-4.7,7-7.2,10.4"/>
				<path class="st1" d="M455.3,400.9c2.5-3.5,5-6.9,7.3-10.6l3.5-5.4c1.2-1.8,2.2-3.7,3.3-5.5"/>
				<path class="st1" d="M462.9,375.6c-1.1,1.8-2,3.6-3.2,5.4l-3.4,5.3c-2.2,3.6-4.7,6.9-7.1,10.3"/>
			</g>
			<g>
				<path class="st1" d="M444.6,425.9l4.3-5c1.4-1.7,2.9-3.3,4.3-5.1l4.1-5.2l2-2.6l1.9-2.7"/>
				<path class="st1" d="M441.9,423.4l4.3-4.9c1.4-1.7,2.9-3.3,4.2-5l4-5.1l2-2.6l1.9-2.7"/>
				<path class="st1" d="M452.3,398.7l-1.8,2.6l-2,2.5l-3.9,5c-1.3,1.7-2.7,3.3-4.1,4.9l-4.1,4.8"/>
				<path class="st1" d="M439.1,420.9l4.2-4.9c1.4-1.6,2.8-3.2,4.1-4.9l4-5.1l2-2.5l1.9-2.6"/>
				<path class="st1" d="M449.3,396.6l-1.8,2.5l-1.9,2.5l-3.9,4.9c-1.3,1.7-2.7,3.2-4,4.8l-4.1,4.7"/>
			</g>
			<g>
				<path class="st1" d="M425.9,444.6c3.3-3,6.4-6.1,9.6-9.1c3-3.2,6.1-6.4,9.1-9.6"/>
				<path class="st1" d="M423.4,441.9c3.2-2.9,6.3-6,9.5-9c3-3.2,6-6.3,9-9.5"/>
				<path class="st1" d="M436.4,418.4c-2.8,3.1-5.8,6.1-8.7,9.2c-3.1,2.9-6.1,5.9-9.2,8.7"/>
				<path class="st1" d="M420.9,439.1c3.2-2.9,6.2-5.9,9.3-8.8c2.9-3.1,6-6.2,8.8-9.3"/>
				<path class="st1" d="M433.6,416c-2.8,3.1-5.7,6-8.6,9.1c-3,2.9-6,5.8-9.1,8.6"/>
			</g>
			<g>
				<path class="st1" d="M405.3,461.3l2.7-1.9l2.6-2l5.2-4.1c1.8-1.3,3.4-2.8,5.1-4.3l5-4.3"/>
				<path class="st1" d="M403.1,458.3l2.7-1.9l2.6-2l5.1-4c1.7-1.3,3.3-2.8,5-4.2l4.9-4.3"/>
				<path class="st1" d="M418.4,436.4l-4.8,4.1c-1.6,1.4-3.2,2.8-4.9,4.1l-5,3.9l-2.5,2l-2.6,1.8"/>
				<path class="st1" d="M400.9,455.3l2.6-1.9l2.5-2l5.1-4c1.7-1.3,3.3-2.7,4.9-4.1l4.9-4.2"/>
				<path class="st1" d="M416,433.6l-4.7,4.1c-1.6,1.4-3.1,2.8-4.8,4l-4.9,3.9l-2.5,1.9l-2.5,1.8"/>
			</g>
			<g>
				<path class="st1" d="M383.1,475.7c1.9-1.1,3.9-2.2,5.7-3.4l5.6-3.6c3.8-2.3,7.3-5,10.9-7.5"/>
				<path class="st1" d="M381.2,472.5c1.9-1.1,3.8-2.1,5.6-3.3l5.5-3.5c3.7-2.3,7.2-4.9,10.8-7.4"/>
				<path class="st1" d="M398.7,452.3c-3.5,2.4-6.8,5-10.4,7.2l-5.3,3.4c-1.8,1.1-3.6,2.1-5.5,3.2"/>
				<path class="st1" d="M379.4,469.3c1.8-1.1,3.7-2.1,5.5-3.3l5.4-3.5c3.7-2.2,7.1-4.8,10.6-7.3"/>
				<path class="st1" d="M396.6,449.3c-3.4,2.4-6.7,4.9-10.3,7.1l-5.3,3.4c-1.7,1.1-3.6,2.1-5.4,3.2"/>
			</g>
			<g>
				<path class="st1" d="M359.5,487.8l6-2.7c2-0.9,3.9-2,5.9-3l5.9-3l5.7-3.3"/>
				<path class="st1" d="M358,484.4l6-2.7c2-0.9,3.9-2,5.8-2.9l5.8-3l5.7-3.3"/>
				<path class="st1" d="M377.5,466.1l-5.5,3.2l-5.6,2.9c-1.9,0.9-3.7,2-5.7,2.9l-5.8,2.6"/>
				<path class="st1" d="M356.5,481l5.9-2.7c1.9-0.9,3.8-1.9,5.7-2.9l5.7-2.9l5.6-3.2"/>
				<path class="st1" d="M375.6,462.9l-5.4,3.1l-5.6,2.9c-1.9,0.9-3.7,1.9-5.6,2.8l-5.7,2.6"/>
			</g>
			<g>
				<path class="st1" d="M334.7,497.3l6.3-2.1c1-0.4,2.1-0.7,3.1-1.1l3.1-1.2c4.1-1.6,8.2-3.2,12.2-5.1"/>
				<path class="st1" d="M333.6,493.8l6.2-2.1c1-0.4,2.1-0.7,3.1-1.1l3-1.2c4-1.6,8.1-3.1,12.1-5"/>
				<path class="st1" d="M354.9,477.6c-3.8,1.8-7.8,3.3-11.7,4.9l-2.9,1.2c-1,0.4-2,0.7-3,1l-6,2"/>
				<path class="st1" d="M332.4,490.2l6.1-2.1c1-0.4,2-0.7,3-1.1l3-1.2c4-1.6,8-3.1,11.9-4.9"/>
				<path class="st1" d="M353.4,474.2c-3.8,1.8-7.7,3.3-11.5,4.8l-2.9,1.1c-1,0.4-2,0.7-2.9,1l-5.9,2"/>
			</g>
			<g>
				<path class="st1" d="M309.1,504.1l6.5-1.5c2.2-0.5,4.3-1,6.4-1.6l6.4-1.8l3.2-0.9l3.1-1.1"/>
				<path class="st1" d="M308.4,500.5l6.4-1.5c2.1-0.5,4.3-0.9,6.3-1.6l6.3-1.8l3.1-0.9l3.1-1"/>
				<path class="st1" d="M331.3,486.7l-3,1l-3,0.9l-6.1,1.7c-2,0.6-4.1,1.1-6.1,1.5l-6.2,1.4"/>
				<path class="st1" d="M307.6,496.9l6.3-1.4c2.1-0.5,4.2-0.9,6.2-1.6l6.2-1.8l3.1-0.9l3.1-1"/>
				<path class="st1" d="M330.2,483.2l-3,1l-3,0.9l-6,1.7c-2,0.6-4,1-6.1,1.5l-6.1,1.4"/>
			</g>
			<g>
				<path class="st1" d="M283,508.3c4.4-0.6,8.8-1.1,13.1-1.7l6.5-1.2l3.3-0.6l1.6-0.3l1.6-0.4"/>
				<path class="st1" d="M282.6,504.6c4.3-0.6,8.6-1,12.9-1.7l6.4-1.1l3.2-0.6l1.6-0.3l1.6-0.4"/>
				<path class="st1" d="M306.8,493.3l-1.5,0.4l-1.6,0.3l-3.1,0.6l-6.2,1.1c-4.2,0.6-8.4,1.1-12.6,1.6"/>
				<path class="st1" d="M282.2,500.9c4.3-0.6,8.5-1,12.8-1.7l6.3-1.1l3.2-0.6l1.6-0.3l1.6-0.4"/>
				<path class="st1" d="M306.1,489.6l-1.5,0.4l-1.5,0.3l-3.1,0.5l-6.1,1.1c-4.1,0.6-8.2,1.1-12.4,1.6"/>
			</g>
			<g>
				<path class="st1" d="M256.5,509.7l13.2-0.3c4.4-0.3,8.8-0.6,13.2-1"/>
				<path class="st1" d="M256.5,506l13-0.3c4.3-0.3,8.7-0.6,13-1"/>
				<path class="st1" d="M281.8,497.2c-4.2,0.4-8.4,0.7-12.6,1l-12.7,0.3"/>
				<path class="st1" d="M256.5,502.2l12.9-0.3c4.3-0.3,8.6-0.6,12.8-1"/>
				<path class="st1" d="M281.4,493.5c-4.1,0.4-8.3,0.6-12.4,1l-12.5,0.3"/>
			</g>
			<g>
				<path class="st1" d="M230,508.3c4.4,0.4,8.8,0.7,13.2,1l13.2,0.3"/>
				<path class="st1" d="M230.4,504.6c4.3,0.4,8.7,0.7,13,1l13,0.3"/>
				<path class="st1" d="M256.5,498.5l-12.7-0.3c-4.2-0.3-8.4-0.6-12.6-1"/>
				<path class="st1" d="M230.8,500.9c4.3,0.4,8.6,0.7,12.8,1l12.9,0.3"/>
				<path class="st1" d="M256.5,494.8l-12.5-0.3c-4.1-0.3-8.3-0.6-12.4-1"/>
			</g>
			<g>
				<path class="st1" d="M203.9,504.1l1.6,0.4l1.6,0.3l3.3,0.6l6.5,1.2c4.4,0.7,8.8,1.1,13.1,1.7"/>
				<path class="st1" d="M204.6,500.5l1.6,0.4l1.6,0.3l3.2,0.6l6.4,1.1c4.3,0.7,8.6,1.1,12.9,1.7"/>
				<path class="st1" d="M231.2,497.2c-4.2-0.6-8.4-1-12.6-1.6l-6.2-1.1l-3.1-0.6l-1.6-0.3l-1.5-0.4"/>
				<path class="st1" d="M205.4,496.9l1.6,0.4l1.6,0.3l3.2,0.6l6.3,1.1c4.2,0.6,8.5,1.1,12.8,1.7"/>
				<path class="st1" d="M231.6,493.5c-4.1-0.5-8.3-1-12.4-1.6l-6.1-1.1l-3.1-0.5l-1.5-0.3l-1.5-0.4"/>
			</g>
			<g>
				<path class="st1" d="M178.3,497.3l3.1,1.1l3.2,0.9l6.4,1.8c2.1,0.6,4.3,1.1,6.4,1.6l6.5,1.5"/>
				<path class="st1" d="M179.4,493.8l3.1,1l3.1,0.9l6.3,1.8c2.1,0.6,4.2,1.1,6.3,1.6l6.4,1.5"/>
				<path class="st1" d="M206.2,493.3l-6.2-1.4c-2.1-0.5-4.1-0.9-6.1-1.5l-6.1-1.7l-3-0.9l-3-1"/>
				<path class="st1" d="M180.6,490.2l3.1,1l3.1,0.9l6.2,1.8c2.1,0.6,4.2,1.1,6.2,1.6l6.3,1.4"/>
				<path class="st1" d="M206.9,489.6l-6.1-1.4c-2-0.5-4.1-0.9-6.1-1.5l-6-1.7l-3-0.9l-3-1"/>
			</g>
			<g>
				<path class="st1" d="M153.5,487.8c4,1.9,8.1,3.5,12.2,5.1l3.1,1.2c1,0.4,2.1,0.7,3.1,1.1l6.3,2.1"/>
				<path class="st1" d="M155,484.4c3.9,1.9,8,3.4,12.1,5l3,1.2c1,0.4,2.1,0.7,3.1,1.1l6.2,2.1"/>
				<path class="st1" d="M181.7,486.7l-6-2c-1-0.4-2-0.6-3-1l-2.9-1.2c-3.9-1.6-7.9-3-11.7-4.9"/>
				<path class="st1" d="M156.5,481c3.9,1.8,7.9,3.4,11.9,4.9l3,1.2c1,0.4,2,0.7,3,1.1l6.1,2.1"/>
				<path class="st1" d="M182.8,483.2l-5.9-2c-1-0.3-2-0.6-2.9-1l-2.9-1.1c-3.9-1.5-7.8-3-11.5-4.8"/>
			</g>
			<g>
				<path class="st1" d="M129.9,475.7l5.7,3.3l5.9,3c2,1,3.9,2,5.9,3l6,2.7"/>
				<path class="st1" d="M131.8,472.5l5.7,3.3l5.8,3c1.9,1,3.9,2,5.8,2.9l6,2.7"/>
				<path class="st1" d="M158.1,477.6l-5.8-2.6c-1.9-0.9-3.8-1.9-5.7-2.9l-5.6-2.9l-5.5-3.2"/>
				<path class="st1" d="M133.6,469.3l5.6,3.2l5.7,2.9c1.9,1,3.8,2,5.7,2.9l5.9,2.7"/>
				<path class="st1" d="M159.6,474.2l-5.7-2.6c-1.9-0.9-3.7-1.9-5.6-2.8l-5.6-2.9l-5.4-3.1"/>
			</g>
			<g>
				<path class="st1" d="M107.7,461.3c3.6,2.5,7.1,5.2,10.9,7.5l5.6,3.6c1.9,1.2,3.8,2.2,5.7,3.4"/>
				<path class="st1" d="M109.9,458.3c3.6,2.5,7,5.1,10.8,7.4l5.5,3.5c1.8,1.2,3.8,2.2,5.6,3.3"/>
				<path class="st1" d="M135.5,466.1c-1.8-1.1-3.7-2.1-5.5-3.2l-5.3-3.4c-3.6-2.2-7-4.7-10.4-7.2"/>
				<path class="st1" d="M112.1,455.3c3.5,2.5,6.9,5,10.6,7.3l5.4,3.5c1.8,1.2,3.7,2.2,5.5,3.3"/>
				<path class="st1" d="M137.4,462.9c-1.8-1.1-3.6-2-5.4-3.2l-5.3-3.4c-3.6-2.2-6.9-4.7-10.3-7.1"/>
			</g>
			<g>
				<path class="st1" d="M87.1,444.6l5,4.3c1.7,1.4,3.3,2.9,5.1,4.3l5.2,4.1l2.6,2l2.7,1.9"/>
				<path class="st1" d="M89.6,441.9l4.9,4.3c1.7,1.4,3.3,2.9,5,4.2l5.1,4l2.6,2l2.7,1.9"/>
				<path class="st1" d="M114.3,452.3l-2.6-1.8l-2.5-2l-5-3.9c-1.7-1.3-3.3-2.7-4.9-4.1l-4.8-4.1"/>
				<path class="st1" d="M92.1,439.1l4.9,4.2c1.6,1.4,3.2,2.8,4.9,4.1l5.1,4l2.5,2l2.6,1.9"/>
				<path class="st1" d="M116.4,449.3l-2.5-1.8l-2.5-1.9l-4.9-3.9c-1.7-1.3-3.2-2.7-4.8-4l-4.7-4.1"/>
			</g>
			<g>
				<path class="st1" d="M68.4,425.9c3,3.3,6.1,6.4,9.1,9.6c3.2,3,6.4,6.1,9.6,9.1"/>
				<path class="st1" d="M71.1,423.4c2.9,3.2,6,6.3,9,9.5c3.2,3,6.3,6,9.5,9"/>
				<path class="st1" d="M94.6,436.4c-3.1-2.8-6.1-5.8-9.2-8.7c-2.9-3.1-5.9-6.1-8.7-9.2"/>
				<path class="st1" d="M73.9,420.9c2.9,3.2,5.9,6.2,8.8,9.3c3.1,2.9,6.2,6,9.3,8.8"/>
				<path class="st1" d="M97,433.6c-3.1-2.8-6-5.7-9.1-8.6c-2.9-3-5.8-6-8.6-9.1"/>
			</g>
			<g>
				<path class="st1" d="M51.7,405.3l1.9,2.7l2,2.6l4.1,5.2c1.3,1.8,2.8,3.4,4.3,5.1l4.3,5"/>
				<path class="st1" d="M54.7,403.1l1.9,2.7l2,2.6l4,5.1c1.3,1.7,2.8,3.3,4.2,5l4.3,4.9"/>
				<path class="st1" d="M76.6,418.4l-4.1-4.8c-1.4-1.6-2.8-3.2-4.1-4.9l-3.9-5l-2-2.5l-1.8-2.6"/>
				<path class="st1" d="M57.7,400.9l1.9,2.6l2,2.5l4,5.1c1.3,1.7,2.7,3.3,4.1,4.9l4.2,4.9"/>
				<path class="st1" d="M79.4,416l-4.1-4.7c-1.4-1.6-2.8-3.1-4-4.8l-3.9-4.9l-1.9-2.5l-1.8-2.5"/>
			</g>
			<g>
				<path class="st1" d="M37.3,383.1c1.1,1.9,2.2,3.9,3.4,5.7l3.6,5.6c2.3,3.8,5,7.3,7.5,10.9"/>
				<path class="st1" d="M40.5,381.2c1.1,1.9,2.1,3.8,3.3,5.6l3.5,5.5c2.3,3.7,4.9,7.2,7.4,10.8"/>
				<path class="st1" d="M60.7,398.7c-2.4-3.5-5-6.8-7.2-10.4l-3.4-5.3c-1.1-1.8-2.1-3.6-3.2-5.5"/>
				<path class="st1" d="M43.7,379.4c1.1,1.8,2.1,3.7,3.3,5.5l3.5,5.4c2.2,3.7,4.8,7.1,7.3,10.6"/>
				<path class="st1" d="M63.7,396.6c-2.4-3.4-4.9-6.7-7.1-10.3l-3.4-5.3c-1.1-1.7-2.1-3.6-3.2-5.4"/>
			</g>
			<g>
				<path class="st1" d="M25.2,359.5l2.7,6c0.9,2,2,3.9,3,5.9l3,5.9l3.3,5.7"/>
				<path class="st1" d="M28.6,358l2.7,6c0.9,2,2,3.9,2.9,5.8l3,5.8l3.3,5.7"/>
				<path class="st1" d="M46.9,377.5l-3.2-5.5l-2.9-5.6c-0.9-1.9-2-3.7-2.9-5.7l-2.6-5.8"/>
				<path class="st1" d="M32,356.5l2.7,5.9c0.9,1.9,1.9,3.8,2.9,5.7l2.9,5.7l3.2,5.6"/>
				<path class="st1" d="M50.1,375.6l-3.1-5.4l-2.9-5.6c-0.9-1.9-1.9-3.7-2.8-5.6l-2.6-5.7"/>
			</g>
			<g>
				<path class="st1" d="M15.7,334.7l2.1,6.3c0.4,1,0.7,2.1,1.1,3.1l1.2,3.1c1.6,4.1,3.2,8.2,5.1,12.2"/>
				<path class="st1" d="M19.2,333.6l2.1,6.2c0.4,1,0.7,2.1,1.1,3.1l1.2,3c1.6,4,3.1,8.1,5,12.1"/>
				<path class="st1" d="M35.4,354.9c-1.8-3.8-3.3-7.8-4.9-11.7l-1.2-2.9c-0.4-1-0.7-2-1-3l-2-6"/>
				<path class="st1" d="M22.8,332.4l2.1,6.1c0.4,1,0.7,2,1.1,3l1.2,3c1.6,4,3.1,8,4.9,11.9"/>
				<path class="st1" d="M38.8,353.4c-1.8-3.8-3.3-7.7-4.8-11.5l-1.1-2.9c-0.4-1-0.7-2-1-2.9l-2-5.9"/>
			</g>
			<g>
				<path class="st1" d="M8.9,309.1l1.5,6.5c0.5,2.2,1,4.3,1.6,6.4l1.8,6.4l0.9,3.2l1.1,3.1"/>
				<path class="st1" d="M12.5,308.4l1.5,6.4c0.5,2.1,0.9,4.3,1.6,6.3l1.8,6.3l0.9,3.1l1,3.1"/>
				<path class="st1" d="M26.3,331.3l-1-3l-0.9-3l-1.7-6.1c-0.6-2-1.1-4.1-1.5-6.1l-1.4-6.2"/>
				<path class="st1" d="M16.1,307.6l1.4,6.3c0.5,2.1,0.9,4.2,1.6,6.2l1.8,6.2l0.9,3.1l1,3.1"/>
				<path class="st1" d="M29.8,330.2l-1-3l-0.9-3l-1.7-6c-0.6-2-1-4-1.5-6.1l-1.4-6.1"/>
			</g>
			<g>
				<path class="st1" d="M4.7,283c0.6,4.4,1.1,8.8,1.7,13.1l1.2,6.5l0.6,3.3l0.3,1.6l0.4,1.6"/>
				<path class="st1" d="M8.4,282.6c0.6,4.3,1,8.6,1.7,12.9l1.1,6.4l0.6,3.2l0.3,1.6l0.4,1.6"/>
				<path class="st1" d="M19.7,306.8l-0.4-1.5l-0.3-1.6l-0.6-3.1l-1.1-6.2c-0.6-4.2-1.1-8.4-1.6-12.6"/>
				<path class="st1" d="M12.1,282.2c0.6,4.3,1,8.5,1.7,12.8l1.1,6.3l0.6,3.2l0.3,1.6l0.4,1.6"/>
				<path class="st1" d="M23.4,306.1l-0.4-1.5l-0.3-1.5l-0.5-3.1l-1.1-6.1c-0.6-4.1-1.1-8.2-1.6-12.4"/>
			</g>
			<g>
				<path class="st1" d="M3.3,256.5l0.3,13.2c0.3,4.4,0.6,8.8,1,13.2"/>
				<path class="st1" d="M7,256.5l0.3,13c0.3,4.3,0.6,8.7,1,13"/>
				<path class="st1" d="M15.8,281.8c-0.4-4.2-0.7-8.4-1-12.6l-0.3-12.7"/>
				<path class="st1" d="M10.8,256.5l0.3,12.9c0.3,4.3,0.6,8.6,1,12.8"/>
				<path class="st1" d="M19.5,281.4c-0.4-4.1-0.6-8.3-1-12.4l-0.3-12.5"/>
			</g>
			<g>
				<path class="st1" d="M4.7,230c-0.4,4.4-0.7,8.8-1,13.2l-0.3,13.2"/>
				<path class="st1" d="M8.4,230.4c-0.4,4.3-0.7,8.7-1,13l-0.3,13"/>
				<path class="st1" d="M14.5,256.5l0.3-12.7c0.3-4.2,0.6-8.4,1-12.6"/>
				<path class="st1" d="M12.1,230.8c-0.4,4.3-0.7,8.6-1,12.8l-0.3,12.9"/>
				<path class="st1" d="M18.2,256.5l0.3-12.5c0.3-4.1,0.6-8.3,1-12.4"/>
			</g>
			<g>
				<path class="st1" d="M8.9,203.9l-0.4,1.6l-0.3,1.6l-0.6,3.3l-1.2,6.5c-0.7,4.4-1.1,8.8-1.7,13.1"/>
				<path class="st1" d="M12.5,204.6l-0.4,1.6l-0.3,1.6l-0.6,3.2l-1.1,6.4c-0.7,4.3-1.1,8.6-1.7,12.9"/>
				<path class="st1" d="M15.8,231.2c0.6-4.2,1-8.4,1.6-12.6l1.1-6.2l0.6-3.1l0.3-1.6l0.4-1.5"/>
				<path class="st1" d="M16.1,205.4l-0.4,1.6l-0.3,1.6l-0.6,3.2l-1.1,6.3c-0.6,4.2-1.1,8.5-1.7,12.8"/>
				<path class="st1" d="M19.5,231.6c0.5-4.1,1-8.3,1.6-12.4l1.1-6.1l0.5-3.1l0.3-1.5l0.4-1.5"/>
			</g>
			<g>
				<path class="st1" d="M15.7,178.3l-1.1,3.1l-0.9,3.2L12,191c-0.6,2.1-1.1,4.3-1.6,6.4l-1.5,6.5"/>
				<path class="st1" d="M19.2,179.4l-1,3.1l-0.9,3.1l-1.8,6.3c-0.6,2.1-1.1,4.2-1.6,6.3l-1.5,6.4"/>
				<path class="st1" d="M19.7,206.2l1.4-6.2c0.5-2.1,0.9-4.1,1.5-6.1l1.7-6.1l0.9-3l1-3"/>
				<path class="st1" d="M22.8,180.6l-1,3.1l-0.9,3.1l-1.8,6.2c-0.6,2.1-1.1,4.2-1.6,6.2l-1.4,6.3"/>
				<path class="st1" d="M23.4,206.9l1.4-6.1c0.5-2,0.9-4.1,1.5-6.1l1.7-6l0.9-3l1-3"/>
			</g>
			<g>
				<path class="st1" d="M25.2,153.5c-1.9,4-3.5,8.1-5.1,12.2l-1.2,3.1c-0.4,1-0.7,2.1-1.1,3.1l-2.1,6.3"/>
				<path class="st1" d="M28.6,155c-1.9,3.9-3.4,8-5,12.1l-1.2,3c-0.4,1-0.7,2.1-1.1,3.1l-2.1,6.2"/>
				<path class="st1" d="M26.3,181.7l2-6c0.4-1,0.6-2,1-3l1.2-2.9c1.6-3.9,3-7.9,4.9-11.7"/>
				<path class="st1" d="M32,156.5c-1.8,3.9-3.4,7.9-4.9,11.9l-1.2,3c-0.4,1-0.7,2-1.1,3l-2.1,6.1"/>
				<path class="st1" d="M29.8,182.8l2-5.9c0.3-1,0.6-2,1-2.9l1.1-2.9c1.5-3.9,3-7.8,4.8-11.5"/>
			</g>
			<g>
				<path class="st1" d="M37.3,129.9l-3.3,5.7l-3,5.9c-1,2-2,3.9-3,5.9l-2.7,6"/>
				<path class="st1" d="M40.5,131.8l-3.3,5.7l-3,5.8c-1,1.9-2,3.9-2.9,5.8l-2.7,6"/>
				<path class="st1" d="M35.4,158.1l2.6-5.8c0.9-1.9,1.9-3.8,2.9-5.7l2.9-5.6l3.2-5.5"/>
				<path class="st1" d="M43.7,133.6l-3.2,5.6l-2.9,5.7c-1,1.9-2,3.8-2.9,5.7l-2.7,5.9"/>
				<path class="st1" d="M38.8,159.6l2.6-5.7c0.9-1.9,1.9-3.7,2.8-5.6l2.9-5.6l3.1-5.4"/>
			</g>
			<g>
				<path class="st1" d="M51.7,107.7c-2.5,3.6-5.2,7.1-7.5,10.9l-3.6,5.6c-1.2,1.9-2.2,3.8-3.4,5.7"/>
				<path class="st1" d="M54.7,109.9c-2.5,3.6-5.1,7-7.4,10.8l-3.5,5.5c-1.2,1.8-2.2,3.8-3.3,5.6"/>
				<path class="st1" d="M46.9,135.5c1.1-1.8,2.1-3.7,3.2-5.5l3.4-5.3c2.2-3.6,4.7-7,7.2-10.4"/>
				<path class="st1" d="M57.7,112.1c-2.5,3.5-5,6.9-7.3,10.6l-3.5,5.4c-1.2,1.8-2.2,3.7-3.3,5.5"/>
				<path class="st1" d="M50.1,137.4c1.1-1.8,2-3.6,3.2-5.4l3.4-5.3c2.2-3.6,4.7-6.9,7.1-10.3"/>
			</g>
			<g>
				<path class="st1" d="M68.4,87.1l-4.3,5c-1.4,1.7-2.9,3.3-4.3,5.1l-4.1,5.2l-2,2.6l-1.9,2.7"/>
				<path class="st1" d="M71.1,89.6l-4.3,4.9c-1.4,1.7-2.9,3.3-4.2,5l-4,5.1l-2,2.6l-1.9,2.7"/>
				<path class="st1" d="M60.7,114.3l1.8-2.6l2-2.5l3.9-5c1.3-1.7,2.7-3.3,4.1-4.9l4.1-4.8"/>
				<path class="st1" d="M73.9,92.1l-4.2,4.9c-1.4,1.6-2.8,3.2-4.1,4.9l-4,5.1l-2,2.5l-1.9,2.6"/>
				<path class="st1" d="M63.7,116.4l1.8-2.5l1.9-2.5l3.9-4.9c1.3-1.7,2.7-3.2,4-4.8l4.1-4.7"/>
			</g>
			<g>
				<path class="st1" d="M87.1,68.4c-3.3,3-6.4,6.1-9.6,9.1c-3,3.2-6.1,6.4-9.1,9.6"/>
				<path class="st1" d="M89.6,71.1c-3.2,2.9-6.3,6-9.5,9c-3,3.2-6,6.3-9,9.5"/>
				<path class="st1" d="M76.6,94.6c2.8-3.1,5.8-6.1,8.7-9.2c3.1-2.9,6.1-5.9,9.2-8.7"/>
				<path class="st1" d="M92.1,73.9c-3.2,2.9-6.2,5.9-9.3,8.8c-2.9,3.1-6,6.2-8.8,9.3"/>
				<path class="st1" d="M79.4,97c2.8-3.1,5.7-6,8.6-9.1c3-2.9,6-5.8,9.1-8.6"/>
			</g>
			<g>
				<path class="st1" d="M107.7,51.7l-2.7,1.9l-2.6,2l-5.2,4.1c-1.8,1.3-3.4,2.8-5.1,4.3l-5,4.3"/>
				<path class="st1" d="M109.9,54.7l-2.7,1.9l-2.6,2l-5.1,4c-1.7,1.3-3.3,2.8-5,4.2l-4.9,4.3"/>
				<path class="st1" d="M94.6,76.6l4.8-4.1c1.6-1.4,3.2-2.8,4.9-4.1l5-3.9l2.5-2l2.6-1.8"/>
				<path class="st1" d="M112.1,57.7l-2.6,1.9l-2.5,2l-5.1,4c-1.7,1.3-3.3,2.7-4.9,4.1l-4.9,4.2"/>
				<path class="st1" d="M97,79.4l4.7-4.1c1.6-1.4,3.1-2.8,4.8-4l4.9-3.9l2.5-1.9l2.5-1.8"/>
			</g>
			<g>
				<path class="st1" d="M129.9,37.3c-1.9,1.1-3.9,2.2-5.7,3.4l-5.6,3.6c-3.8,2.3-7.3,5-10.9,7.5"/>
				<path class="st1" d="M131.8,40.5c-1.9,1.1-3.8,2.1-5.6,3.3l-5.5,3.5c-3.7,2.3-7.2,4.9-10.8,7.4"/>
				<path class="st1" d="M114.3,60.7c3.5-2.4,6.8-5,10.4-7.2l5.3-3.4c1.8-1.1,3.6-2.1,5.5-3.2"/>
				<path class="st1" d="M133.6,43.7c-1.8,1.1-3.7,2.1-5.5,3.3l-5.4,3.5c-3.7,2.2-7.1,4.8-10.6,7.3"/>
				<path class="st1" d="M116.4,63.7c3.4-2.4,6.7-4.9,10.3-7.1l5.3-3.4c1.7-1.1,3.6-2.1,5.4-3.2"/>
			</g>
			<g>
				<path class="st1" d="M153.5,25.2l-6,2.7c-2,0.9-3.9,2-5.9,3l-5.9,3l-5.7,3.3"/>
				<path class="st1" d="M155,28.6l-6,2.7c-2,0.9-3.9,2-5.8,2.9l-5.8,3l-5.7,3.3"/>
				<path class="st1" d="M135.5,46.9l5.5-3.2l5.6-2.9c1.9-0.9,3.7-2,5.7-2.9l5.8-2.6"/>
				<path class="st1" d="M156.5,32l-5.9,2.7c-1.9,0.9-3.8,1.9-5.7,2.9l-5.7,2.9l-5.6,3.2"/>
				<path class="st1" d="M137.4,50.1l5.4-3.1l5.6-2.9c1.9-0.9,3.7-1.9,5.6-2.8l5.7-2.6"/>
			</g>
			<g>
				<path class="st1" d="M178.3,15.7l-6.3,2.1c-1,0.4-2.1,0.7-3.1,1.1l-3.1,1.2c-4.1,1.6-8.2,3.2-12.2,5.1"/>
				<path class="st1" d="M179.4,19.2l-6.2,2.1c-1,0.4-2.1,0.7-3.1,1.1l-3,1.2c-4,1.6-8.1,3.1-12.1,5"/>
				<path class="st1" d="M158.1,35.4c3.8-1.8,7.8-3.3,11.7-4.9l2.9-1.2c1-0.4,2-0.7,3-1l6-2"/>
				<path class="st1" d="M180.6,22.8l-6.1,2.1c-1,0.4-2,0.7-3,1.1l-3,1.2c-4,1.6-8,3.1-11.9,4.9"/>
				<path class="st1" d="M159.6,38.8c3.8-1.8,7.7-3.3,11.5-4.8l2.9-1.1c1-0.4,2-0.7,2.9-1l5.9-2"/>
			</g>
			<g>
				<path class="st1" d="M203.9,8.9l-6.5,1.5c-2.2,0.5-4.3,1-6.4,1.6l-6.4,1.8l-3.2,0.9l-3.1,1.1"/>
				<path class="st1" d="M204.6,12.5l-6.4,1.5c-2.1,0.5-4.3,0.9-6.3,1.6l-6.3,1.8l-3.1,0.9l-3.1,1"/>
				<path class="st1" d="M181.7,26.3l3-1l3-0.9l6.1-1.7c2-0.6,4.1-1.1,6.1-1.5l6.2-1.4"/>
				<path class="st1" d="M205.4,16.1l-6.3,1.4c-2.1,0.5-4.2,0.9-6.2,1.6l-6.2,1.8l-3.1,0.9l-3.1,1"/>
				<path class="st1" d="M182.8,29.8l3-1l3-0.9l6-1.7c2-0.6,4-1,6.1-1.5l6.1-1.4"/>
			</g>
			<g>
				<path class="st1" d="M230,4.7c-4.4,0.6-8.8,1.1-13.1,1.7l-6.5,1.2l-3.3,0.6l-1.6,0.3l-1.6,0.4"/>
				<path class="st1" d="M230.4,8.4c-4.3,0.6-8.6,1-12.9,1.7l-6.4,1.1l-3.2,0.6l-1.6,0.3l-1.6,0.4"/>
				<path class="st1" d="M206.2,19.7l1.5-0.4l1.6-0.3l3.1-0.6l6.2-1.1c4.2-0.6,8.4-1.1,12.6-1.6"/>
				<path class="st1" d="M230.8,12.1c-4.3,0.6-8.5,1-12.8,1.7l-6.3,1.1l-3.2,0.6l-1.6,0.3l-1.6,0.4"/>
				<path class="st1" d="M206.9,23.4l1.5-0.4l1.5-0.3l3.1-0.5l6.1-1.1c4.1-0.6,8.2-1.1,12.4-1.6"/>
			</g>
			<g>
				<path class="st1" d="M256.5,3.3l-13.2,0.3c-4.4,0.3-8.8,0.6-13.2,1"/>
				<path class="st1" d="M256.5,7l-13,0.3c-4.3,0.3-8.7,0.6-13,1"/>
				<path class="st1" d="M231.2,15.8c4.2-0.4,8.4-0.7,12.6-1l12.7-0.3"/>
				<path class="st1" d="M256.5,10.8l-12.9,0.3c-4.3,0.3-8.6,0.6-12.8,1"/>
				<path class="st1" d="M231.6,19.5c4.1-0.4,8.3-0.6,12.4-1l12.5-0.3"/>
			</g>
			<g>
				<path class="st1" d="M283,4.7c-4.4-0.4-8.8-0.7-13.2-1l-13.2-0.3"/>
				<path class="st1" d="M282.6,8.4c-4.3-0.4-8.7-0.7-13-1l-13-0.3"/>
				<path class="st1" d="M256.5,14.5l12.7,0.3c4.2,0.3,8.4,0.6,12.6,1"/>
				<path class="st1" d="M282.2,12.1c-4.3-0.4-8.6-0.7-12.8-1l-12.9-0.3"/>
				<path class="st1" d="M256.5,18.2l12.5,0.3c4.1,0.3,8.3,0.6,12.4,1"/>
			</g>
			<g>
				<path class="st1" d="M309.1,8.9l-1.6-0.4l-1.6-0.3l-3.3-0.6l-6.5-1.2c-4.4-0.7-8.8-1.1-13.1-1.7"/>
				<path class="st1" d="M308.4,12.5l-1.6-0.4l-1.6-0.3l-3.2-0.6l-6.4-1.1c-4.3-0.7-8.6-1.1-12.9-1.7"/>
				<path class="st1" d="M281.8,15.8c4.2,0.6,8.4,1,12.6,1.6l6.2,1.1l3.1,0.6l1.6,0.3l1.5,0.4"/>
				<path class="st1" d="M307.6,16.1l-1.6-0.4l-1.6-0.3l-3.2-0.6l-6.3-1.1c-4.2-0.6-8.5-1.1-12.8-1.7"/>
				<path class="st1" d="M281.4,19.5c4.1,0.5,8.3,1,12.4,1.6l6.1,1.1l3.1,0.5l1.5,0.3l1.5,0.4"/>
			</g>
			<g>
				<path class="st1" d="M334.7,15.7l-3.1-1.1l-3.2-0.9L322,12c-2.1-0.6-4.3-1.1-6.4-1.6l-6.5-1.5"/>
				<path class="st1" d="M333.6,19.2l-3.1-1l-3.1-0.9l-6.3-1.8c-2.1-0.6-4.2-1.1-6.3-1.6l-6.4-1.5"/>
				<path class="st1" d="M306.8,19.7l6.2,1.4c2.1,0.5,4.1,0.9,6.1,1.5l6.1,1.7l3,0.9l3,1"/>
				<path class="st1" d="M332.4,22.8l-3.1-1l-3.1-0.9l-6.2-1.8c-2.1-0.6-4.2-1.1-6.2-1.6l-6.3-1.4"/>
				<path class="st1" d="M306.1,23.4l6.1,1.4c2,0.5,4.1,0.9,6.1,1.5l6,1.7l3,0.9l3,1"/>
			</g>
			<g>
				<path class="st1" d="M359.5,25.2c-4-1.9-8.1-3.5-12.2-5.1l-3.1-1.2c-1-0.4-2.1-0.7-3.1-1.1l-6.3-2.1"/>
				<path class="st1" d="M358,28.6c-3.9-1.9-8-3.4-12.1-5l-3-1.2c-1-0.4-2.1-0.7-3.1-1.1l-6.2-2.1"/>
				<path class="st1" d="M331.3,26.3l6,2c1,0.4,2,0.6,3,1l2.9,1.2c3.9,1.6,7.9,3,11.7,4.9"/>
				<path class="st1" d="M356.5,32c-3.9-1.8-7.9-3.4-11.9-4.9l-3-1.2c-1-0.4-2-0.7-3-1.1l-6.1-2.1"/>
				<path class="st1" d="M330.2,29.8l5.9,2c1,0.3,2,0.6,2.9,1l2.9,1.1c3.9,1.5,7.8,3,11.5,4.8"/>
			</g>
			<g>
				<path class="st1" d="M383.1,37.3l-5.7-3.3l-5.9-3c-2-1-3.9-2-5.9-3l-6-2.7"/>
				<path class="st1" d="M381.2,40.5l-5.7-3.3l-5.8-3c-1.9-1-3.9-2-5.8-2.9l-6-2.7"/>
				<path class="st1" d="M354.9,35.4l5.8,2.6c1.9,0.9,3.8,1.9,5.7,2.9l5.6,2.9l5.5,3.2"/>
				<path class="st1" d="M379.4,43.7l-5.6-3.2l-5.7-2.9c-1.9-1-3.8-2-5.7-2.9l-5.9-2.7"/>
				<path class="st1" d="M353.4,38.8l5.7,2.6c1.9,0.9,3.7,1.9,5.6,2.8l5.6,2.9l5.4,3.1"/>
			</g>
			<g>
				<path class="st1" d="M405.3,51.7c-3.6-2.5-7.1-5.2-10.9-7.5l-5.6-3.6c-1.9-1.2-3.8-2.2-5.7-3.4"/>
				<path class="st1" d="M403.1,54.7c-3.6-2.5-7-5.1-10.8-7.4l-5.5-3.5c-1.8-1.2-3.8-2.2-5.6-3.3"/>
				<path class="st1" d="M377.5,46.9c1.8,1.1,3.7,2.1,5.5,3.2l5.3,3.4c3.6,2.2,7,4.7,10.4,7.2"/>
				<path class="st1" d="M400.9,57.7c-3.5-2.5-6.9-5-10.6-7.3l-5.4-3.5c-1.8-1.2-3.7-2.2-5.5-3.3"/>
				<path class="st1" d="M375.6,50.1c1.8,1.1,3.6,2,5.4,3.2l5.3,3.4c3.6,2.2,6.9,4.7,10.3,7.1"/>
			</g>
			<g>
				<path class="st1" d="M425.9,68.4l-5-4.3c-1.7-1.4-3.3-2.9-5.1-4.3l-5.2-4.1l-2.6-2l-2.7-1.9"/>
				<path class="st1" d="M423.4,71.1l-4.9-4.3c-1.7-1.4-3.3-2.9-5-4.2l-5.1-4l-2.6-2l-2.7-1.9"/>
				<path class="st1" d="M398.7,60.7l2.6,1.8l2.5,2l5,3.9c1.7,1.3,3.3,2.7,4.9,4.1l4.8,4.1"/>
				<path class="st1" d="M420.9,73.9l-4.9-4.2c-1.6-1.4-3.2-2.8-4.9-4.1l-5.1-4l-2.5-2l-2.6-1.9"/>
				<path class="st1" d="M396.6,63.7l2.5,1.8l2.5,1.9l4.9,3.9c1.7,1.3,3.2,2.7,4.8,4l4.7,4.1"/>
			</g>
			<g>
				<path class="st1" d="M444.6,87.1c-3-3.3-6.1-6.4-9.1-9.6c-3.2-3-6.4-6.1-9.6-9.1"/>
				<path class="st1" d="M441.9,89.6c-2.9-3.2-6-6.3-9-9.5c-3.2-3-6.3-6-9.5-9"/>
				<path class="st1" d="M418.4,76.6c3.1,2.8,6.1,5.8,9.2,8.7c2.9,3.1,5.9,6.1,8.7,9.2"/>
				<path class="st1" d="M439.1,92.1c-2.9-3.2-5.9-6.2-8.8-9.3c-3.1-2.9-6.2-6-9.3-8.8"/>
				<path class="st1" d="M416,79.4c3.1,2.8,6,5.7,9.1,8.6c2.9,3,5.8,6,8.6,9.1"/>
			</g>
			<g>
				<path class="st1" d="M461.3,107.7l-1.9-2.7l-2-2.6l-4.1-5.2c-1.3-1.8-2.8-3.4-4.3-5.1l-4.3-5"/>
				<path class="st1" d="M458.3,109.9l-1.9-2.7l-2-2.6l-4-5.1c-1.3-1.7-2.8-3.3-4.2-5l-4.3-4.9"/>
				<path class="st1" d="M436.4,94.6l4.1,4.8c1.4,1.6,2.8,3.2,4.1,4.9l3.9,5l2,2.5l1.8,2.6"/>
				<path class="st1" d="M455.3,112.1l-1.9-2.6l-2-2.5l-4-5.1c-1.3-1.7-2.7-3.3-4.1-4.9l-4.2-4.9"/>
				<path class="st1" d="M433.6,97l4.1,4.7c1.4,1.6,2.8,3.1,4,4.8l3.9,4.9l1.9,2.5l1.8,2.5"/>
			</g>
			<g>
				<path class="st1" d="M475.7,129.9c-1.1-1.9-2.2-3.9-3.4-5.7l-3.6-5.6c-2.3-3.8-5-7.3-7.5-10.9"/>
				<path class="st1" d="M472.5,131.8c-1.1-1.9-2.1-3.8-3.3-5.6l-3.5-5.5c-2.3-3.7-4.9-7.2-7.4-10.8"/>
				<path class="st1" d="M452.3,114.3c2.4,3.5,5,6.8,7.2,10.4l3.4,5.3c1.1,1.8,2.1,3.6,3.2,5.5"/>
				<path class="st1" d="M469.3,133.6c-1.1-1.8-2.1-3.7-3.3-5.5l-3.5-5.4c-2.2-3.7-4.8-7.1-7.3-10.6"/>
				<path class="st1" d="M449.3,116.4c2.4,3.4,4.9,6.7,7.1,10.3l3.4,5.3c1.1,1.7,2.1,3.6,3.2,5.4"/>
			</g>
			<g>
				<path class="st1" d="M487.8,153.5l-2.7-6c-0.9-2-2-3.9-3-5.9l-3-5.9l-3.3-5.7"/>
				<path class="st1" d="M484.4,155l-2.7-6c-0.9-2-2-3.9-2.9-5.8l-3-5.8l-3.3-5.7"/>
				<path class="st1" d="M466.1,135.5l3.2,5.5l2.9,5.6c0.9,1.9,2,3.7,2.9,5.7l2.6,5.8"/>
				<path class="st1" d="M481,156.5l-2.7-5.9c-0.9-1.9-1.9-3.8-2.9-5.7l-2.9-5.7l-3.2-5.6"/>
				<path class="st1" d="M462.9,137.4l3.1,5.4l2.9,5.6c0.9,1.9,1.9,3.7,2.8,5.6l2.6,5.7"/>
			</g>
			<g>
				<path class="st1" d="M497.3,178.3l-2.1-6.3c-0.4-1-0.7-2.1-1.1-3.1l-1.2-3.1c-1.6-4.1-3.2-8.2-5.1-12.2"/>
				<path class="st1" d="M493.8,179.4l-2.1-6.2c-0.4-1-0.7-2.1-1.1-3.1l-1.2-3c-1.6-4-3.1-8.1-5-12.1"/>
				<path class="st1" d="M477.6,158.1c1.8,3.8,3.3,7.8,4.9,11.7l1.2,2.9c0.4,1,0.7,2,1,3l2,6"/>
				<path class="st1" d="M490.2,180.6l-2.1-6.1c-0.4-1-0.7-2-1.1-3l-1.2-3c-1.6-4-3.1-8-4.9-11.9"/>
				<path class="st1" d="M474.2,159.6c1.8,3.8,3.3,7.7,4.8,11.5l1.1,2.9c0.4,1,0.7,2,1,2.9l2,5.9"/>
			</g>
			<g>
				<path class="st1" d="M504.1,203.9l-1.5-6.5c-0.5-2.2-1-4.3-1.6-6.4l-1.8-6.4l-0.9-3.2l-1.1-3.1"/>
				<path class="st1" d="M500.5,204.6l-1.5-6.4c-0.5-2.1-0.9-4.3-1.6-6.3l-1.8-6.3l-0.9-3.1l-1-3.1"/>
				<path class="st1" d="M486.7,181.7l1,3l0.9,3l1.7,6.1c0.6,2,1.1,4.1,1.5,6.1l1.4,6.2"/>
				<path class="st1" d="M496.9,205.4l-1.4-6.3c-0.5-2.1-0.9-4.2-1.6-6.2l-1.8-6.2l-0.9-3.1l-1-3.1"/>
				<path class="st1" d="M483.2,182.8l1,3l0.9,3l1.7,6c0.6,2,1,4,1.5,6.1l1.4,6.1"/>
			</g>
			<g>
				<path class="st1" d="M508.3,230c-0.6-4.4-1.1-8.8-1.7-13.1l-1.2-6.5l-0.6-3.3l-0.3-1.6l-0.4-1.6"/>
				<path class="st1" d="M504.6,230.4c-0.6-4.3-1-8.6-1.7-12.9l-1.1-6.4l-0.6-3.2l-0.3-1.6l-0.4-1.6"/>
				<path class="st1" d="M493.3,206.2l0.4,1.5l0.3,1.6l0.6,3.1l1.1,6.2c0.6,4.2,1.1,8.4,1.6,12.6"/>
				<path class="st1" d="M500.9,230.8c-0.6-4.3-1-8.5-1.7-12.8l-1.1-6.3l-0.6-3.2l-0.3-1.6l-0.4-1.6"/>
				<path class="st1" d="M489.6,206.9l0.4,1.5l0.3,1.5l0.5,3.1l1.1,6.1c0.6,4.1,1.1,8.2,1.6,12.4"/>
			</g>
			<g>
				<path class="st1" d="M509.7,256.5l-0.3-13.2c-0.3-4.4-0.6-8.8-1-13.2"/>
				<path class="st1" d="M506,256.5l-0.3-13c-0.3-4.3-0.6-8.7-1-13"/>
				<path class="st1" d="M497.2,231.2c0.4,4.2,0.7,8.4,1,12.6l0.3,12.7"/>
				<path class="st1" d="M502.2,256.5l-0.3-12.9c-0.3-4.3-0.6-8.6-1-12.8"/>
				<path class="st1" d="M493.5,231.6c0.4,4.1,0.6,8.3,1,12.4l0.3,12.5"/>
			</g>
		</g>
	</g>
</g>
<g>
	<path class="st2" d="M420.9,214.9L208.3,92.2c-31.9-18.4-71.8,4.6-71.8,41.5l0,245.5c0,36.9,39.9,59.9,71.8,41.5l212.6-122.7
		C452.9,279.5,452.9,233.4,420.9,214.9z"/>
	<g>
		<g>
			<g>
				<line class="st1" x1="392.7" y1="213.2" x2="414.6" y2="225.9"/>
				<line class="st1" x1="394.5" y1="210" x2="416.5" y2="222.7"/>
				<line class="st1" x1="420.2" y1="216.3" x2="398.2" y2="203.6"/>
				<line class="st1" x1="396.4" y1="206.8" x2="418.3" y2="219.5"/>
				<line class="st1" x1="422" y1="213.1" x2="400.1" y2="200.4"/>
			</g>
			<g>
				<line class="st1" x1="370.8" y1="200.6" x2="392.7" y2="213.2"/>
				<line class="st1" x1="372.6" y1="197.4" x2="394.5" y2="210"/>
				<line class="st1" x1="398.2" y1="203.6" x2="376.3" y2="191"/>
				<line class="st1" x1="374.5" y1="194.2" x2="396.4" y2="206.8"/>
				<line class="st1" x1="400.1" y1="200.4" x2="378.2" y2="187.8"/>
			</g>
			<g>
				<line class="st1" x1="348.9" y1="187.9" x2="370.8" y2="200.6"/>
				<line class="st1" x1="350.7" y1="184.7" x2="372.6" y2="197.4"/>
				<line class="st1" x1="376.3" y1="191" x2="354.4" y2="178.3"/>
				<line class="st1" x1="352.6" y1="181.5" x2="374.5" y2="194.2"/>
				<line class="st1" x1="378.2" y1="187.8" x2="356.3" y2="175.1"/>
			</g>
			<g>
				<line class="st1" x1="326.9" y1="175.3" x2="348.9" y2="187.9"/>
				<line class="st1" x1="328.8" y1="172.1" x2="350.7" y2="184.7"/>
				<line class="st1" x1="354.4" y1="178.3" x2="332.5" y2="165.7"/>
				<line class="st1" x1="330.6" y1="168.9" x2="352.6" y2="181.5"/>
				<line class="st1" x1="356.3" y1="175.1" x2="334.3" y2="162.4"/>
			</g>
			<g>
				<line class="st1" x1="305" y1="162.6" x2="326.9" y2="175.3"/>
				<line class="st1" x1="306.9" y1="159.4" x2="328.8" y2="172.1"/>
				<line class="st1" x1="332.5" y1="165.7" x2="310.6" y2="153"/>
				<line class="st1" x1="308.7" y1="156.2" x2="330.6" y2="168.9"/>
				<line class="st1" x1="334.3" y1="162.4" x2="312.4" y2="149.8"/>
			</g>
			<g>
				<line class="st1" x1="283.1" y1="150" x2="305" y2="162.6"/>
				<line class="st1" x1="285" y1="146.8" x2="306.9" y2="159.4"/>
				<line class="st1" x1="310.6" y1="153" x2="288.7" y2="140.4"/>
				<line class="st1" x1="286.8" y1="143.6" x2="308.7" y2="156.2"/>
				<line class="st1" x1="312.4" y1="149.8" x2="290.5" y2="137.1"/>
			</g>
			<g>
				<line class="st1" x1="261.2" y1="137.3" x2="283.1" y2="150"/>
				<line class="st1" x1="263" y1="134.1" x2="285" y2="146.8"/>
				<line class="st1" x1="288.7" y1="140.3" x2="266.7" y2="127.7"/>
				<line class="st1" x1="264.9" y1="130.9" x2="286.8" y2="143.6"/>
				<line class="st1" x1="290.5" y1="137.1" x2="268.6" y2="124.5"/>
			</g>
			<g>
				<line class="st1" x1="239.3" y1="124.7" x2="261.2" y2="137.3"/>
				<line class="st1" x1="241.1" y1="121.5" x2="263" y2="134.1"/>
				<line class="st1" x1="266.7" y1="127.7" x2="244.8" y2="115"/>
				<line class="st1" x1="243" y1="118.3" x2="264.9" y2="130.9"/>
				<line class="st1" x1="268.6" y1="124.5" x2="246.7" y2="111.8"/>
			</g>
			<g>
				<line class="st1" x1="217.4" y1="112" x2="239.3" y2="124.7"/>
				<line class="st1" x1="219.2" y1="108.8" x2="241.1" y2="121.5"/>
				<line class="st1" x1="244.8" y1="115" x2="222.9" y2="102.4"/>
				<line class="st1" x1="221.1" y1="105.6" x2="243" y2="118.3"/>
				<line class="st1" x1="246.7" y1="111.8" x2="224.8" y2="99.2"/>
			</g>
			<g>
				<path class="st1" d="M196.9,100.7c1.4,0.6,2.9,1.2,4.3,2l0.5,0.3c0.2,0.1,0.3,0.2,0.6,0.3l1.4,0.8l2.7,1.6l11,6.3"/>
				<path class="st1" d="M198.3,97.3c1.6,0.6,3.2,1.3,4.7,2.2c0.4,0.2,0.7,0.4,1.2,0.6l1.4,0.8l2.7,1.6l11,6.3"/>
				<path class="st1" d="M222.9,102.4l-11-6.3c-1.8-1-3.7-2.2-5.5-3.1c-1.8-1-3.7-1.8-5.5-2.6"/>
				<path class="st1" d="M199.6,93.8c1.7,0.7,3.5,1.5,5.1,2.4c0.4,0.2,0.8,0.4,1.3,0.7l1.4,0.8l2.7,1.6l11,6.3"/>
				<path class="st1" d="M224.8,99.2l-11-6.3l-2.7-1.6c-0.9-0.5-1.8-1.1-2.8-1.6c-1.9-1.1-3.9-2-6-2.8"/>
			</g>
			<g>
				<path class="st1" d="M178.7,98.9c6.1-1,12.4-0.4,18.2,1.9"/>
				<path class="st1" d="M178.1,95.2c6.8-1.1,13.7-0.4,20.1,2.1"/>
				<path class="st1" d="M200.9,90.4c-7.6-3-16-3.8-24-2.5"/>
				<path class="st1" d="M177.5,91.6c7.4-1.3,15.1-0.5,22.1,2.3"/>
				<path class="st1" d="M202.3,86.9c-8.2-3.2-17.3-4.2-26-2.7"/>
			</g>
			<g>
				<path class="st1" d="M161.9,106.5c4.8-4,10.7-6.7,16.8-7.7"/>
				<path class="st1" d="M159.6,103.7c5.3-4.4,11.8-7.3,18.6-8.5"/>
				<path class="st1" d="M176.9,87.9c-8.1,1.4-15.7,4.9-22,10.1"/>
				<path class="st1" d="M157.2,100.8c5.8-4.8,12.9-8,20.3-9.3"/>
				<path class="st1" d="M176.3,84.2c-8.7,1.5-17,5.3-23.8,10.8"/>
			</g>
			<g>
				<path class="st1" d="M151.3,121.5c2.1-5.8,5.8-11,10.6-14.9"/>
				<path class="st1" d="M147.8,120.2c2.3-6.4,6.4-12.2,11.8-16.5"/>
				<path class="st1" d="M154.9,98c-6.3,5.2-11.2,12-14,19.7"/>
				<path class="st1" d="M144.3,118.9c2.6-7,7.1-13.3,12.9-18.1"/>
				<path class="st1" d="M152.5,95.1c-6.8,5.6-12.1,13-15.2,21.3"/>
			</g>
			<g>
				<path class="st1" d="M149.1,142.1c0-4.1-0.1-8.9,0.2-11.6c0.3-3.1,0.9-6.2,2-9.1"/>
				<path class="st1" d="M145.4,142.1c0-4.1-0.1-8.8,0.2-11.9c0.3-3.4,1-6.8,2.2-10"/>
				<path class="st1" d="M140.8,117.7c-1.4,3.8-2.3,7.9-2.6,11.9c-0.3,4-0.2,8.3-0.2,12.5"/>
				<path class="st1" d="M141.7,142.1c0-4.2-0.1-8.6,0.2-12.2c0.3-3.8,1.1-7.5,2.4-11"/>
				<path class="st1" d="M137.3,116.4c-1.5,4.1-2.4,8.5-2.8,12.9c-0.3,4.5-0.2,8.6-0.2,12.8"/>
			</g>
			<g>
				<line class="st1" x1="149.1" y1="167.4" x2="149.1" y2="142.1"/>
				<line class="st1" x1="145.4" y1="167.4" x2="145.4" y2="142.1"/>
				<line class="st1" x1="138" y1="142.1" x2="138" y2="167.4"/>
				<line class="st1" x1="141.7" y1="167.4" x2="141.7" y2="142.1"/>
				<line class="st1" x1="134.3" y1="142.1" x2="134.3" y2="167.4"/>
			</g>
			<g>
				<line class="st1" x1="149.1" y1="192.7" x2="149.1" y2="167.4"/>
				<line class="st1" x1="145.4" y1="192.7" x2="145.4" y2="167.4"/>
				<line class="st1" x1="138" y1="167.4" x2="138" y2="192.7"/>
				<line class="st1" x1="141.7" y1="192.7" x2="141.7" y2="167.4"/>
				<line class="st1" x1="134.3" y1="167.4" x2="134.3" y2="192.7"/>
			</g>
			<g>
				<line class="st1" x1="149.1" y1="218" x2="149.1" y2="192.7"/>
				<line class="st1" x1="145.4" y1="218" x2="145.4" y2="192.7"/>
				<line class="st1" x1="138" y1="192.7" x2="138" y2="218"/>
				<line class="st1" x1="141.7" y1="218" x2="141.7" y2="192.7"/>
				<line class="st1" x1="134.3" y1="192.7" x2="134.3" y2="218"/>
			</g>
			<g>
				<line class="st1" x1="149.1" y1="243.3" x2="149.1" y2="218"/>
				<line class="st1" x1="145.4" y1="243.3" x2="145.4" y2="218"/>
				<line class="st1" x1="138" y1="218" x2="138" y2="243.3"/>
				<line class="st1" x1="141.7" y1="243.3" x2="141.7" y2="218"/>
				<line class="st1" x1="134.3" y1="218" x2="134.3" y2="243.3"/>
			</g>
			<g>
				<line class="st1" x1="149.1" y1="268.6" x2="149.1" y2="243.3"/>
				<line class="st1" x1="145.4" y1="268.6" x2="145.4" y2="243.3"/>
				<line class="st1" x1="138" y1="243.3" x2="138" y2="268.6"/>
				<line class="st1" x1="141.7" y1="268.6" x2="141.7" y2="243.3"/>
				<line class="st1" x1="134.3" y1="243.3" x2="134.3" y2="268.6"/>
			</g>
			<g>
				<line class="st1" x1="149.1" y1="294" x2="149.1" y2="268.6"/>
				<line class="st1" x1="145.4" y1="294" x2="145.4" y2="268.6"/>
				<line class="st1" x1="138" y1="268.6" x2="138" y2="294"/>
				<line class="st1" x1="141.7" y1="294" x2="141.7" y2="268.6"/>
				<line class="st1" x1="134.3" y1="268.6" x2="134.3" y2="294"/>
			</g>
			<g>
				<line class="st1" x1="149.1" y1="319.3" x2="149.1" y2="294"/>
				<line class="st1" x1="145.4" y1="319.3" x2="145.4" y2="294"/>
				<line class="st1" x1="138" y1="294" x2="138" y2="319.3"/>
				<line class="st1" x1="141.7" y1="319.3" x2="141.7" y2="294"/>
				<line class="st1" x1="134.3" y1="294" x2="134.3" y2="319.3"/>
			</g>
			<g>
				<line class="st1" x1="149.1" y1="344.6" x2="149.1" y2="319.3"/>
				<line class="st1" x1="145.4" y1="344.6" x2="145.4" y2="319.3"/>
				<line class="st1" x1="138" y1="319.3" x2="138" y2="344.6"/>
				<line class="st1" x1="141.7" y1="344.6" x2="141.7" y2="319.3"/>
				<line class="st1" x1="134.3" y1="319.3" x2="134.3" y2="344.6"/>
			</g>
			<g>
				<line class="st1" x1="149.1" y1="369.9" x2="149.1" y2="344.6"/>
				<line class="st1" x1="145.4" y1="369.9" x2="145.4" y2="344.6"/>
				<line class="st1" x1="138" y1="344.6" x2="138" y2="369.9"/>
				<line class="st1" x1="141.7" y1="369.9" x2="141.7" y2="344.6"/>
				<line class="st1" x1="134.3" y1="344.6" x2="134.3" y2="369.9"/>
			</g>
			<g>
				<path class="st1" d="M151.1,390.8c-1-2.9-1.6-6-1.8-9.1l-0.1-2.4l0-3.1v-6.3"/>
				<path class="st1" d="M147.6,392c-1.1-3.2-1.8-6.6-2-10.1l-0.1-2.6l0-3.1v-6.3"/>
				<path class="st1" d="M138,369.9v6.3l0,3.2l0.1,3.1c0.3,4.1,1.1,8.1,2.4,12"/>
				<path class="st1" d="M144.1,393.2c-1.2-3.5-2-7.3-2.2-11l-0.1-2.8l0-3.1v-6.3"/>
				<path class="st1" d="M134.3,369.9v6.3l0,3.2l0.1,3.3c0.3,4.4,1.2,8.8,2.6,12.9"/>
			</g>
			<g>
				<path class="st1" d="M161.4,405.9c-4.8-4-8.4-9.3-10.4-15.1"/>
				<path class="st1" d="M159,408.7c-5.3-4.4-9.2-10.3-11.5-16.7"/>
				<path class="st1" d="M140.6,394.4c2.6,7.7,7.4,14.7,13.7,20"/>
				<path class="st1" d="M156.6,411.5c-5.7-4.9-10.1-11.3-12.6-18.3"/>
				<path class="st1" d="M137,395.6c2.9,8.4,8,15.9,14.8,21.6"/>
			</g>
			<g>
				<path class="st1" d="M178.1,413.9c-6.1-1.1-11.9-3.9-16.7-8"/>
				<path class="st1" d="M177.4,417.5c-6.7-1.2-13.2-4.3-18.4-8.8"/>
				<path class="st1" d="M154.2,414.4c6.2,5.3,13.8,8.9,21.9,10.4"/>
				<path class="st1" d="M176.8,421.1c-7.4-1.4-14.4-4.7-20.1-9.6"/>
				<path class="st1" d="M151.8,417.2c6.7,5.7,14.9,9.6,23.6,11.2"/>
			</g>
			<g>
				<path class="st1" d="M196.3,412.3c-5.8,2.2-12.1,2.7-18.2,1.5"/>
				<path class="st1" d="M197.6,415.8c-6.4,2.4-13.4,3-20.2,1.7"/>
				<path class="st1" d="M176.1,424.8c8,1.5,16.4,0.8,24.1-2"/>
				<path class="st1" d="M198.9,419.3c-7,2.6-14.7,3.3-22.1,1.9"/>
				<path class="st1" d="M175.4,428.4c8.7,1.6,17.8,0.9,26-2.2"/>
			</g>
			<g>
				<path class="st1" d="M216.6,401.2l-11,6.3c-4,2.4-6.3,3.6-9.3,4.7"/>
				<path class="st1" d="M218.5,404.5l-11,6.3c-3.9,2.3-6.6,3.8-9.9,5"/>
				<path class="st1" d="M200.2,422.7c3.9-1.4,7.4-3.4,11.1-5.6l11-6.3"/>
				<path class="st1" d="M220.3,407.7l-11,6.3c-3.8,2.2-6.9,4-10.5,5.3"/>
				<path class="st1" d="M201.4,426.2c4.1-1.5,8.1-3.7,11.6-5.8l11-6.3"/>
			</g>
			<g>
				<line class="st1" x1="238.5" y1="388.6" x2="216.6" y2="401.2"/>
				<line class="st1" x1="240.4" y1="391.8" x2="218.5" y2="404.4"/>
				<line class="st1" x1="222.2" y1="410.9" x2="244.1" y2="398.2"/>
				<line class="st1" x1="242.2" y1="395" x2="220.3" y2="407.7"/>
				<line class="st1" x1="224" y1="414.1" x2="245.9" y2="401.4"/>
			</g>
			<g>
				<line class="st1" x1="260.5" y1="375.9" x2="238.5" y2="388.6"/>
				<line class="st1" x1="262.3" y1="379.1" x2="240.4" y2="391.8"/>
				<line class="st1" x1="244.1" y1="398.2" x2="266" y2="385.6"/>
				<line class="st1" x1="264.2" y1="382.4" x2="242.2" y2="395"/>
				<line class="st1" x1="245.9" y1="401.4" x2="267.9" y2="388.8"/>
			</g>
			<g>
				<line class="st1" x1="282.4" y1="363.3" x2="260.5" y2="375.9"/>
				<line class="st1" x1="284.2" y1="366.5" x2="262.3" y2="379.1"/>
				<line class="st1" x1="266" y1="385.6" x2="287.9" y2="372.9"/>
				<line class="st1" x1="286.1" y1="369.7" x2="264.2" y2="382.4"/>
				<line class="st1" x1="267.9" y1="388.8" x2="289.8" y2="376.1"/>
			</g>
			<g>
				<line class="st1" x1="304.3" y1="350.6" x2="282.4" y2="363.3"/>
				<line class="st1" x1="306.1" y1="353.8" x2="284.2" y2="366.5"/>
				<line class="st1" x1="287.9" y1="372.9" x2="309.8" y2="360.3"/>
				<line class="st1" x1="308" y1="357" x2="286.1" y2="369.7"/>
				<line class="st1" x1="289.8" y1="376.1" x2="311.7" y2="363.5"/>
			</g>
			<g>
				<line class="st1" x1="326.2" y1="338" x2="304.3" y2="350.6"/>
				<line class="st1" x1="328.1" y1="341.2" x2="306.1" y2="353.8"/>
				<line class="st1" x1="309.8" y1="360.3" x2="331.8" y2="347.6"/>
				<line class="st1" x1="329.9" y1="344.4" x2="308" y2="357"/>
				<line class="st1" x1="311.7" y1="363.5" x2="333.6" y2="350.8"/>
			</g>
			<g>
				<line class="st1" x1="348.1" y1="325.3" x2="326.2" y2="338"/>
				<line class="st1" x1="350" y1="328.5" x2="328.1" y2="341.2"/>
				<line class="st1" x1="331.8" y1="347.6" x2="353.7" y2="334.9"/>
				<line class="st1" x1="351.8" y1="331.7" x2="329.9" y2="344.4"/>
				<line class="st1" x1="333.6" y1="350.8" x2="355.5" y2="338.2"/>
			</g>
			<g>
				<line class="st1" x1="370" y1="312.7" x2="348.1" y2="325.3"/>
				<line class="st1" x1="371.9" y1="315.9" x2="350" y2="328.5"/>
				<line class="st1" x1="353.7" y1="334.9" x2="375.6" y2="322.3"/>
				<line class="st1" x1="373.7" y1="319.1" x2="351.8" y2="331.7"/>
				<line class="st1" x1="355.5" y1="338.2" x2="377.4" y2="325.5"/>
			</g>
			<g>
				<line class="st1" x1="392" y1="300" x2="370" y2="312.7"/>
				<line class="st1" x1="393.8" y1="303.2" x2="371.9" y2="315.9"/>
				<line class="st1" x1="375.6" y1="322.3" x2="397.5" y2="309.6"/>
				<line class="st1" x1="395.7" y1="306.4" x2="373.7" y2="319.1"/>
				<line class="st1" x1="377.4" y1="325.5" x2="399.4" y2="312.8"/>
			</g>
			<g>
				<line class="st1" x1="413.9" y1="287.4" x2="392" y2="300"/>
				<line class="st1" x1="415.7" y1="290.6" x2="393.8" y2="303.2"/>
				<line class="st1" x1="397.5" y1="309.6" x2="419.4" y2="297"/>
				<line class="st1" x1="417.6" y1="293.8" x2="395.7" y2="306.4"/>
				<line class="st1" x1="399.4" y1="312.8" x2="421.3" y2="300.2"/>
			</g>
			<g>
				<path class="st1" d="M427.3,274.5c-1.6,2.6-3.5,5.1-5.7,7.2l-0.8,0.8c-0.3,0.3-0.6,0.5-0.9,0.7c-0.6,0.5-1.2,1-1.8,1.4
					c-0.6,0.5-1.2,0.9-1.9,1.3l-1,0.6l-0.5,0.3l-0.7,0.4"/>
				<path class="st1" d="M430.5,276.4c-1.7,2.9-3.9,5.6-6.3,8l-0.9,0.9c-0.3,0.3-0.7,0.5-1,0.8c-0.7,0.6-1.3,1.1-2,1.6
					c-0.7,0.5-1.4,1-2.1,1.5l-1.1,0.7l-0.6,0.4l-0.7,0.4"/>
				<path class="st1" d="M419.4,297c3.6-2.1,6.9-4.4,9.8-7.3c2.9-2.8,5.5-6,7.6-9.6"/>
				<path class="st1" d="M433.7,278.3c-1.9,3.2-4.3,6.2-7,8.8l-1,1c-0.3,0.3-0.7,0.6-1.1,0.9c-0.7,0.6-1.4,1.2-2.2,1.7
					c-0.8,0.5-1.5,1.1-2.3,1.6l-1.2,0.7l-0.6,0.4l-0.7,0.4"/>
				<path class="st1" d="M421.3,300.2c3.7-2.2,7.4-4.8,10.6-7.8c3.2-3.1,6-6.5,8.2-10.3"/>
			</g>
			<g>
				<path class="st1" d="M432.2,256.7c-0.1,6.3-1.8,12.5-4.9,17.7"/>
				<path class="st1" d="M435.9,256.8c-0.1,6.9-1.9,13.7-5.4,19.6"/>
				<path class="st1" d="M436.9,280.2c4.2-7,6.4-15.2,6.5-23.3"/>
				<path class="st1" d="M439.6,256.8c-0.1,7.5-2.1,15-6,21.5"/>
				<path class="st1" d="M440,282c4.5-7.6,6.9-16.4,7-25.2"/>
			</g>
			<g>
				<path class="st1" d="M427.6,238.9c3.1,5.3,4.7,11.6,4.6,17.8"/>
				<path class="st1" d="M430.8,237.1c3.4,5.9,5.2,12.8,5.1,19.7"/>
				<path class="st1" d="M443.3,256.8c0.1-8.2-2-16.4-6-23.4"/>
				<path class="st1" d="M434.1,235.2c3.7,6.5,5.7,14,5.6,21.6"/>
				<path class="st1" d="M447,256.9c0.1-8.8-2.2-17.6-6.5-25.3"/>
			</g>
			<g>
				<path class="st1" d="M414.6,225.9c5.5,3.2,10,7.6,13,13"/>
				<path class="st1" d="M416.5,222.7c6,3.5,11,8.4,14.4,14.4"/>
				<path class="st1" d="M437.3,233.4c-4-7.1-10-13-17.1-17.1"/>
				<path class="st1" d="M418.3,219.5c6.5,3.8,12,9.2,15.7,15.7"/>
				<path class="st1" d="M440.5,231.5c-4.4-7.7-10.9-14.1-18.5-18.5"/>
			</g>
		</g>
	</g>
</g>
</svg>
