<?xml version="1.0" encoding="utf-8"?>
<!-- Generator: Adobe Illustrator 22.0.0, SVG Export Plug-In . SVG Version: 6.00 Build 0)  -->
<svg version="1.1" id="Layer_1" xmlns="http://www.w3.org/2000/svg" xmlns:xlink="http://www.w3.org/1999/xlink" x="0px" y="0px"
	 viewBox="0 0 512 512" style="enable-background:new 0 0 512 512;" xml:space="preserve">
<style type="text/css">
	.st0{fill:#600094;}
	.st1{fill:none;stroke:#6F6F6F;}
	.st2{fill:#FF0AAF;}
	.st3{fill:none;stroke:#FF65CD;}
</style>
<g>
	<circle class="st0" cx="256.5" cy="256.5" r="240.5"/>
	<g>
		<g>
			<g>
				<path class="st1" d="M4.7,230c-0.4,4.4-0.7,8.8-1,13.2l-0.3,13.2"/>
				<path class="st1" d="M8.4,230.4c-0.4,4.3-0.7,8.7-1,13l-0.3,13"/>
				<path class="st1" d="M14.5,256.5l0.3-12.7c0.3-4.2,0.6-8.4,1-12.6"/>
				<path class="st1" d="M12.1,230.8c-0.4,4.3-0.7,8.6-1,12.8l-0.3,12.9"/>
				<path class="st1" d="M18.2,256.5l0.3-12.5c0.3-4.1,0.6-8.3,1-12.4"/>
			</g>
			<g>
				<path class="st1" d="M8.9,203.9l-0.4,1.6l-0.3,1.6l-0.6,3.3l-1.2,6.5c-0.7,4.4-1.1,8.8-1.7,13.1"/>
				<path class="st1" d="M12.5,204.6l-0.4,1.6l-0.3,1.6l-0.6,3.2l-1.1,6.4c-0.7,4.3-1.1,8.6-1.7,12.9"/>
				<path class="st1" d="M15.8,231.2c0.6-4.2,1-8.4,1.6-12.6l1.1-6.2l0.6-3.1l0.3-1.6l0.4-1.5"/>
				<path class="st1" d="M16.1,205.4l-0.4,1.6l-0.3,1.6l-0.6,3.2l-1.1,6.3c-0.6,4.2-1.1,8.5-1.7,12.8"/>
				<path class="st1" d="M19.5,231.6c0.5-4.1,1-8.3,1.6-12.4l1.1-6.1l0.5-3.1l0.3-1.5l0.4-1.5"/>
			</g>
			<g>
				<path class="st1" d="M15.7,178.3l-1.1,3.1l-0.9,3.2l-1.8,6.4c-0.6,2.1-1.1,4.3-1.6,6.4l-1.5,6.5"/>
				<path class="st1" d="M19.2,179.4l-1,3.1l-0.9,3.1l-1.8,6.3c-0.6,2.1-1.1,4.2-1.6,6.3l-1.5,6.4"/>
				<path class="st1" d="M19.7,206.2l1.4-6.2c0.5-2.1,0.9-4.1,1.5-6.1l1.7-6.1l0.9-3l1-3"/>
				<path class="st1" d="M22.8,180.6l-1,3.1l-0.9,3.1l-1.8,6.2c-0.6,2.1-1.1,4.2-1.6,6.2l-1.4,6.3"/>
				<path class="st1" d="M23.4,206.9l1.4-6.1c0.5-2,0.9-4.1,1.5-6.1l1.7-6l0.9-3l1-3"/>
			</g>
			<g>
				<path class="st1" d="M25.2,153.5c-1.9,4-3.5,8.1-5.1,12.2l-1.2,3.1c-0.4,1-0.7,2.1-1.1,3.1l-2.1,6.3"/>
				<path class="st1" d="M28.6,155c-1.9,3.9-3.4,8-5,12.1l-1.2,3c-0.4,1-0.7,2.1-1.1,3.1l-2.1,6.2"/>
				<path class="st1" d="M26.3,181.7l2-6c0.4-1,0.6-2,1-3l1.2-2.9c1.6-3.9,3-7.9,4.9-11.7"/>
				<path class="st1" d="M32,156.5c-1.8,3.9-3.4,7.9-4.9,11.9l-1.2,3c-0.4,1-0.7,2-1.1,3l-2.1,6.1"/>
				<path class="st1" d="M29.8,182.8l2-5.9c0.3-1,0.6-2,1-2.9l1.1-2.9c1.5-3.9,3-7.8,4.8-11.5"/>
			</g>
			<g>
				<path class="st1" d="M37.3,129.9l-3.3,5.7l-3,5.9c-1,2-2,3.9-3,5.9l-2.7,6"/>
				<path class="st1" d="M40.5,131.8l-3.3,5.7l-3,5.8c-1,1.9-2,3.9-2.9,5.8l-2.7,6"/>
				<path class="st1" d="M35.4,158.1l2.6-5.8c0.9-1.9,1.9-3.8,2.9-5.7l2.9-5.6l3.2-5.5"/>
				<path class="st1" d="M43.7,133.6l-3.2,5.6l-2.9,5.7c-1,1.9-2,3.8-2.9,5.7l-2.7,5.9"/>
				<path class="st1" d="M38.8,159.6l2.6-5.7c0.9-1.9,1.9-3.7,2.8-5.6l2.9-5.6l3.1-5.4"/>
			</g>
			<g>
				<path class="st1" d="M51.7,107.7c-2.5,3.6-5.2,7.1-7.5,10.9l-3.6,5.6c-1.2,1.9-2.2,3.8-3.4,5.7"/>
				<path class="st1" d="M54.7,109.9c-2.5,3.6-5.1,7-7.4,10.8l-3.5,5.5c-1.2,1.8-2.2,3.8-3.3,5.6"/>
				<path class="st1" d="M46.9,135.5c1.1-1.8,2.1-3.7,3.2-5.5l3.4-5.3c2.2-3.6,4.7-7,7.2-10.4"/>
				<path class="st1" d="M57.7,112.1c-2.5,3.5-5,6.9-7.3,10.6l-3.5,5.4c-1.2,1.8-2.2,3.7-3.3,5.5"/>
				<path class="st1" d="M50.1,137.4c1.1-1.8,2-3.6,3.2-5.4l3.4-5.3c2.2-3.6,4.7-6.9,7.1-10.3"/>
			</g>
			<g>
				<path class="st1" d="M68.4,87.1l-4.3,5c-1.4,1.7-2.9,3.3-4.3,5.1l-4.1,5.2l-2,2.6l-1.9,2.7"/>
				<path class="st1" d="M71.1,89.6l-4.3,4.9c-1.4,1.7-2.9,3.3-4.2,5l-4,5.1l-2,2.6l-1.9,2.7"/>
				<path class="st1" d="M60.7,114.3l1.8-2.6l2-2.5l3.9-5c1.3-1.7,2.7-3.3,4.1-4.9l4.1-4.8"/>
				<path class="st1" d="M73.9,92.1L69.7,97c-1.4,1.6-2.8,3.2-4.1,4.9l-4,5.1l-2,2.5l-1.9,2.6"/>
				<path class="st1" d="M63.7,116.4l1.8-2.5l1.9-2.5l3.9-4.9c1.3-1.7,2.7-3.2,4-4.8l4.1-4.7"/>
			</g>
			<g>
				<path class="st1" d="M87.1,68.4c-3.3,3-6.4,6.1-9.6,9.1c-3,3.2-6.1,6.4-9.1,9.6"/>
				<path class="st1" d="M89.6,71.1c-3.2,2.9-6.3,6-9.5,9c-3,3.2-6,6.3-9,9.5"/>
				<path class="st1" d="M76.6,94.6c2.8-3.1,5.8-6.1,8.7-9.2c3.1-2.9,6.1-5.9,9.2-8.7"/>
				<path class="st1" d="M92.1,73.9c-3.2,2.9-6.2,5.9-9.3,8.8c-2.9,3.1-6,6.2-8.8,9.3"/>
				<path class="st1" d="M79.4,97c2.8-3.1,5.7-6,8.6-9.1c3-2.9,6-5.8,9.1-8.6"/>
			</g>
			<g>
				<path class="st1" d="M107.7,51.7l-2.7,1.9l-2.6,2l-5.2,4.1c-1.8,1.3-3.4,2.8-5.1,4.3l-5,4.3"/>
				<path class="st1" d="M109.9,54.7l-2.7,1.9l-2.6,2l-5.1,4c-1.7,1.3-3.3,2.8-5,4.2l-4.9,4.3"/>
				<path class="st1" d="M94.6,76.6l4.8-4.1c1.6-1.4,3.2-2.8,4.9-4.1l5-3.9l2.5-2l2.6-1.8"/>
				<path class="st1" d="M112.1,57.7l-2.6,1.9l-2.5,2l-5.1,4c-1.7,1.3-3.3,2.7-4.9,4.1l-4.9,4.2"/>
				<path class="st1" d="M97,79.4l4.7-4.1c1.6-1.4,3.1-2.8,4.8-4l4.9-3.9l2.5-1.9l2.5-1.8"/>
			</g>
			<g>
				<path class="st1" d="M129.9,37.3c-1.9,1.1-3.9,2.2-5.7,3.4l-5.6,3.6c-3.8,2.3-7.3,5-10.9,7.5"/>
				<path class="st1" d="M131.8,40.5c-1.9,1.1-3.8,2.1-5.6,3.3l-5.5,3.5c-3.7,2.3-7.2,4.9-10.8,7.4"/>
				<path class="st1" d="M114.3,60.7c3.5-2.4,6.8-5,10.4-7.2l5.3-3.4c1.8-1.1,3.6-2.1,5.5-3.2"/>
				<path class="st1" d="M133.6,43.7c-1.8,1.1-3.7,2.1-5.5,3.3l-5.4,3.5c-3.7,2.2-7.1,4.8-10.6,7.3"/>
				<path class="st1" d="M116.4,63.7c3.4-2.4,6.7-4.9,10.3-7.1l5.3-3.4c1.7-1.1,3.6-2.1,5.4-3.2"/>
			</g>
			<g>
				<path class="st1" d="M153.5,25.2l-6,2.7c-2,0.9-3.9,2-5.9,3l-5.9,3l-5.7,3.3"/>
				<path class="st1" d="M155,28.6l-6,2.7c-2,0.9-3.9,2-5.8,2.9l-5.8,3l-5.7,3.3"/>
				<path class="st1" d="M135.5,46.9l5.5-3.2l5.6-2.9c1.9-0.9,3.7-2,5.7-2.9l5.8-2.6"/>
				<path class="st1" d="M156.5,32l-5.9,2.7c-1.9,0.9-3.8,1.9-5.7,2.9l-5.7,2.9l-5.6,3.2"/>
				<path class="st1" d="M137.4,50.1l5.4-3.1l5.6-2.9c1.9-0.9,3.7-1.9,5.6-2.8l5.7-2.6"/>
			</g>
			<g>
				<path class="st1" d="M178.3,15.7l-6.3,2.1c-1,0.4-2.1,0.7-3.1,1.1l-3.1,1.2c-4.1,1.6-8.2,3.2-12.2,5.1"/>
				<path class="st1" d="M179.4,19.2l-6.2,2.1c-1,0.4-2.1,0.7-3.1,1.1l-3,1.2c-4,1.6-8.1,3.1-12.1,5"/>
				<path class="st1" d="M158.1,35.4c3.8-1.8,7.8-3.3,11.7-4.9l2.9-1.2c1-0.4,2-0.7,3-1l6-2"/>
				<path class="st1" d="M180.6,22.8l-6.1,2.1c-1,0.4-2,0.7-3,1.1l-3,1.2c-4,1.6-8,3.1-11.9,4.9"/>
				<path class="st1" d="M159.6,38.8c3.8-1.8,7.7-3.3,11.5-4.8l2.9-1.1c1-0.4,2-0.7,2.9-1l5.9-2"/>
			</g>
			<g>
				<path class="st1" d="M203.9,8.9l-6.5,1.5c-2.2,0.5-4.3,1-6.4,1.6l-6.4,1.8l-3.2,0.9l-3.1,1.1"/>
				<path class="st1" d="M204.6,12.5l-6.4,1.5c-2.1,0.5-4.3,0.9-6.3,1.6l-6.3,1.8l-3.1,0.9l-3.1,1"/>
				<path class="st1" d="M181.7,26.3l3-1l3-0.9l6.1-1.7c2-0.6,4.1-1.1,6.1-1.5l6.2-1.4"/>
				<path class="st1" d="M205.4,16.1l-6.3,1.4c-2.1,0.5-4.2,0.9-6.2,1.6l-6.2,1.8l-3.1,0.9l-3.1,1"/>
				<path class="st1" d="M182.8,29.8l3-1l3-0.9l6-1.7c2-0.6,4-1,6.1-1.5l6.1-1.4"/>
			</g>
			<g>
				<path class="st1" d="M230,4.7c-4.4,0.6-8.8,1.1-13.1,1.7l-6.5,1.2l-3.3,0.6l-1.6,0.3l-1.6,0.4"/>
				<path class="st1" d="M230.4,8.4c-4.3,0.6-8.6,1-12.9,1.7l-6.4,1.1l-3.2,0.6l-1.6,0.3l-1.6,0.4"/>
				<path class="st1" d="M206.2,19.7l1.5-0.4l1.6-0.3l3.1-0.6l6.2-1.1c4.2-0.6,8.4-1.1,12.6-1.6"/>
				<path class="st1" d="M230.8,12.1c-4.3,0.6-8.5,1-12.8,1.7l-6.3,1.1l-3.2,0.6l-1.6,0.3l-1.6,0.4"/>
				<path class="st1" d="M206.9,23.4l1.5-0.4l1.5-0.3l3.1-0.5l6.1-1.1c4.1-0.6,8.2-1.1,12.4-1.6"/>
			</g>
			<g>
				<path class="st1" d="M256.5,3.3l-13.2,0.3c-4.4,0.3-8.8,0.6-13.2,1"/>
				<path class="st1" d="M256.5,7l-13,0.3c-4.3,0.3-8.7,0.6-13,1"/>
				<path class="st1" d="M231.2,15.8c4.2-0.4,8.4-0.7,12.6-1l12.7-0.3"/>
				<path class="st1" d="M256.5,10.8l-12.9,0.3c-4.3,0.3-8.6,0.6-12.8,1"/>
				<path class="st1" d="M231.6,19.5c4.1-0.4,8.3-0.6,12.4-1l12.5-0.3"/>
			</g>
			<g>
				<path class="st1" d="M283,4.7c-4.4-0.4-8.8-0.7-13.2-1l-13.2-0.3"/>
				<path class="st1" d="M282.6,8.4c-4.3-0.4-8.7-0.7-13-1l-13-0.3"/>
				<path class="st1" d="M256.5,14.5l12.7,0.3c4.2,0.3,8.4,0.6,12.6,1"/>
				<path class="st1" d="M282.2,12.1c-4.3-0.4-8.6-0.7-12.8-1l-12.9-0.3"/>
				<path class="st1" d="M256.5,18.2l12.5,0.3c4.1,0.3,8.3,0.6,12.4,1"/>
			</g>
			<g>
				<path class="st1" d="M309.1,8.9l-1.6-0.4l-1.6-0.3l-3.3-0.6l-6.5-1.2c-4.4-0.7-8.8-1.1-13.1-1.7"/>
				<path class="st1" d="M308.4,12.5l-1.6-0.4l-1.6-0.3l-3.2-0.6l-6.4-1.1c-4.3-0.7-8.6-1.1-12.9-1.7"/>
				<path class="st1" d="M281.8,15.8c4.2,0.6,8.4,1,12.6,1.6l6.2,1.1l3.1,0.6l1.6,0.3l1.5,0.4"/>
				<path class="st1" d="M307.6,16.1l-1.6-0.4l-1.6-0.3l-3.2-0.6l-6.3-1.1c-4.2-0.6-8.5-1.1-12.8-1.7"/>
				<path class="st1" d="M281.4,19.5c4.1,0.5,8.3,1,12.4,1.6l6.1,1.1l3.1,0.5l1.5,0.3l1.5,0.4"/>
			</g>
			<g>
				<path class="st1" d="M334.7,15.7l-3.1-1.1l-3.2-0.9l-6.4-1.8c-2.1-0.6-4.3-1.1-6.4-1.6l-6.5-1.5"/>
				<path class="st1" d="M333.6,19.2l-3.1-1l-3.1-0.9l-6.3-1.8c-2.1-0.6-4.2-1.1-6.3-1.6l-6.4-1.5"/>
				<path class="st1" d="M306.8,19.7l6.2,1.4c2.1,0.5,4.1,0.9,6.1,1.5l6.1,1.7l3,0.9l3,1"/>
				<path class="st1" d="M332.4,22.8l-3.1-1l-3.1-0.9l-6.2-1.8c-2.1-0.6-4.2-1.1-6.2-1.6l-6.3-1.4"/>
				<path class="st1" d="M306.1,23.4l6.1,1.4c2,0.5,4.1,0.9,6.1,1.5l6,1.7l3,0.9l3,1"/>
			</g>
			<g>
				<path class="st1" d="M359.5,25.2c-4-1.9-8.1-3.5-12.2-5.1l-3.1-1.2c-1-0.4-2.1-0.7-3.1-1.1l-6.3-2.1"/>
				<path class="st1" d="M358,28.6c-3.9-1.9-8-3.4-12.1-5l-3-1.2c-1-0.4-2.1-0.7-3.1-1.1l-6.2-2.1"/>
				<path class="st1" d="M331.3,26.3l6,2c1,0.4,2,0.6,3,1l2.9,1.2c3.9,1.6,7.9,3,11.7,4.9"/>
				<path class="st1" d="M356.5,32c-3.9-1.8-7.9-3.4-11.9-4.9l-3-1.2c-1-0.4-2-0.7-3-1.1l-6.1-2.1"/>
				<path class="st1" d="M330.2,29.8l5.9,2c1,0.3,2,0.6,2.9,1l2.9,1.1c3.9,1.5,7.8,3,11.5,4.8"/>
			</g>
			<g>
				<path class="st1" d="M383.1,37.3l-5.7-3.3l-5.9-3c-2-1-3.9-2-5.9-3l-6-2.7"/>
				<path class="st1" d="M381.2,40.5l-5.7-3.3l-5.8-3c-1.9-1-3.9-2-5.8-2.9l-6-2.7"/>
				<path class="st1" d="M354.9,35.4l5.8,2.6c1.9,0.9,3.8,1.9,5.7,2.9l5.6,2.9l5.5,3.2"/>
				<path class="st1" d="M379.4,43.7l-5.6-3.2l-5.7-2.9c-1.9-1-3.8-2-5.7-2.9l-5.9-2.7"/>
				<path class="st1" d="M353.4,38.8l5.7,2.6c1.9,0.9,3.7,1.9,5.6,2.8l5.6,2.9l5.4,3.1"/>
			</g>
			<g>
				<path class="st1" d="M405.3,51.7c-3.6-2.5-7.1-5.2-10.9-7.5l-5.6-3.6c-1.9-1.2-3.8-2.2-5.7-3.4"/>
				<path class="st1" d="M403.1,54.7c-3.6-2.5-7-5.1-10.8-7.4l-5.5-3.5c-1.8-1.2-3.8-2.2-5.6-3.3"/>
				<path class="st1" d="M377.5,46.9c1.8,1.1,3.7,2.1,5.5,3.2l5.3,3.4c3.6,2.2,7,4.7,10.4,7.2"/>
				<path class="st1" d="M400.9,57.7c-3.5-2.5-6.9-5-10.6-7.3l-5.4-3.5c-1.8-1.2-3.7-2.2-5.5-3.3"/>
				<path class="st1" d="M375.6,50.1c1.8,1.1,3.6,2,5.4,3.2l5.3,3.4c3.6,2.2,6.9,4.7,10.3,7.1"/>
			</g>
			<g>
				<path class="st1" d="M425.9,68.4l-5-4.3c-1.7-1.4-3.3-2.9-5.1-4.3l-5.2-4.1l-2.6-2l-2.7-1.9"/>
				<path class="st1" d="M423.4,71.1l-4.9-4.3c-1.7-1.4-3.3-2.9-5-4.2l-5.1-4l-2.6-2l-2.7-1.9"/>
				<path class="st1" d="M398.7,60.7l2.6,1.8l2.5,2l5,3.9c1.7,1.3,3.3,2.7,4.9,4.1l4.8,4.1"/>
				<path class="st1" d="M420.9,73.9l-4.9-4.2c-1.6-1.4-3.2-2.8-4.9-4.1l-5.1-4l-2.5-2l-2.6-1.9"/>
				<path class="st1" d="M396.6,63.7l2.5,1.8l2.5,1.9l4.9,3.9c1.7,1.3,3.2,2.7,4.8,4l4.7,4.1"/>
			</g>
			<g>
				<path class="st1" d="M444.6,87.1c-3-3.3-6.1-6.4-9.1-9.6c-3.2-3-6.4-6.1-9.6-9.1"/>
				<path class="st1" d="M441.9,89.6c-2.9-3.2-6-6.3-9-9.5c-3.2-3-6.3-6-9.5-9"/>
				<path class="st1" d="M418.4,76.6c3.1,2.8,6.1,5.8,9.2,8.7c2.9,3.1,5.9,6.1,8.7,9.2"/>
				<path class="st1" d="M439.1,92.1c-2.9-3.2-5.9-6.2-8.8-9.3c-3.1-2.9-6.2-6-9.3-8.8"/>
				<path class="st1" d="M416,79.4c3.1,2.8,6,5.7,9.1,8.6c2.9,3,5.8,6,8.6,9.1"/>
			</g>
			<g>
				<path class="st1" d="M461.3,107.7l-1.9-2.7l-2-2.6l-4.1-5.2c-1.3-1.8-2.8-3.4-4.3-5.1l-4.3-5"/>
				<path class="st1" d="M458.3,109.9l-1.9-2.7l-2-2.6l-4-5.1c-1.3-1.7-2.8-3.3-4.2-5l-4.3-4.9"/>
				<path class="st1" d="M436.4,94.6l4.1,4.8c1.4,1.6,2.8,3.2,4.1,4.9l3.9,5l2,2.5l1.8,2.6"/>
				<path class="st1" d="M455.3,112.1l-1.9-2.6l-2-2.5l-4-5.1c-1.3-1.7-2.7-3.3-4.1-4.9l-4.2-4.9"/>
				<path class="st1" d="M433.6,97l4.1,4.7c1.4,1.6,2.8,3.1,4,4.8l3.9,4.9l1.9,2.5l1.8,2.5"/>
			</g>
			<g>
				<path class="st1" d="M475.7,129.9c-1.1-1.9-2.2-3.9-3.4-5.7l-3.6-5.6c-2.3-3.8-5-7.3-7.5-10.9"/>
				<path class="st1" d="M472.5,131.8c-1.1-1.9-2.1-3.8-3.3-5.6l-3.5-5.5c-2.3-3.7-4.9-7.2-7.4-10.8"/>
				<path class="st1" d="M452.3,114.3c2.4,3.5,5,6.8,7.2,10.4l3.4,5.3c1.1,1.8,2.1,3.6,3.2,5.5"/>
				<path class="st1" d="M469.3,133.6c-1.1-1.8-2.1-3.7-3.3-5.5l-3.5-5.4c-2.2-3.7-4.8-7.1-7.3-10.6"/>
				<path class="st1" d="M449.3,116.4c2.4,3.4,4.9,6.7,7.1,10.3l3.4,5.3c1.1,1.7,2.1,3.6,3.2,5.4"/>
			</g>
			<g>
				<path class="st1" d="M487.8,153.5l-2.7-6c-0.9-2-2-3.9-3-5.9l-3-5.9l-3.3-5.7"/>
				<path class="st1" d="M484.4,155l-2.7-6c-0.9-2-2-3.9-2.9-5.8l-3-5.8l-3.3-5.7"/>
				<path class="st1" d="M466.1,135.5l3.2,5.5l2.9,5.6c0.9,1.9,2,3.7,2.9,5.7l2.6,5.8"/>
				<path class="st1" d="M481,156.5l-2.7-5.9c-0.9-1.9-1.9-3.8-2.9-5.7l-2.9-5.7l-3.2-5.6"/>
				<path class="st1" d="M462.9,137.4l3.1,5.4l2.9,5.6c0.9,1.9,1.9,3.7,2.8,5.6l2.6,5.7"/>
			</g>
			<g>
				<path class="st1" d="M497.3,178.3l-2.1-6.3c-0.4-1-0.7-2.1-1.1-3.1l-1.2-3.1c-1.6-4.1-3.2-8.2-5.1-12.2"/>
				<path class="st1" d="M493.8,179.4l-2.1-6.2c-0.4-1-0.7-2.1-1.1-3.1l-1.2-3c-1.6-4-3.1-8.1-5-12.1"/>
				<path class="st1" d="M477.6,158.1c1.8,3.8,3.3,7.8,4.9,11.7l1.2,2.9c0.4,1,0.7,2,1,3l2,6"/>
				<path class="st1" d="M490.2,180.6l-2.1-6.1c-0.4-1-0.7-2-1.1-3l-1.2-3c-1.6-4-3.1-8-4.9-11.9"/>
				<path class="st1" d="M474.2,159.6c1.8,3.8,3.3,7.7,4.8,11.5l1.1,2.9c0.4,1,0.7,2,1,2.9l2,5.9"/>
			</g>
			<g>
				<path class="st1" d="M504.1,203.9l-1.5-6.5c-0.5-2.2-1-4.3-1.6-6.4l-1.8-6.4l-0.9-3.2l-1.1-3.1"/>
				<path class="st1" d="M500.5,204.6l-1.5-6.4c-0.5-2.1-0.9-4.3-1.6-6.3l-1.8-6.3l-0.9-3.1l-1-3.1"/>
				<path class="st1" d="M486.7,181.7l1,3l0.9,3l1.7,6.1c0.6,2,1.1,4.1,1.5,6.1l1.4,6.2"/>
				<path class="st1" d="M496.9,205.4l-1.4-6.3c-0.5-2.1-0.9-4.2-1.6-6.2l-1.8-6.2l-0.9-3.1l-1-3.1"/>
				<path class="st1" d="M483.2,182.8l1,3l0.9,3l1.7,6c0.6,2,1,4,1.5,6.1l1.4,6.1"/>
			</g>
			<g>
				<path class="st1" d="M508.3,230c-0.6-4.4-1.1-8.8-1.7-13.1l-1.2-6.5l-0.6-3.3l-0.3-1.6l-0.4-1.6"/>
				<path class="st1" d="M504.6,230.4c-0.6-4.3-1-8.6-1.7-12.9l-1.1-6.4l-0.6-3.2l-0.3-1.6l-0.4-1.6"/>
				<path class="st1" d="M493.3,206.2l0.4,1.5l0.3,1.6l0.6,3.1l1.1,6.2c0.6,4.2,1.1,8.4,1.6,12.6"/>
				<path class="st1" d="M500.9,230.8c-0.6-4.3-1-8.5-1.7-12.8l-1.1-6.3l-0.6-3.2l-0.3-1.6l-0.4-1.6"/>
				<path class="st1" d="M489.6,206.9l0.4,1.5l0.3,1.5l0.5,3.1l1.1,6.1c0.6,4.1,1.1,8.2,1.6,12.4"/>
			</g>
			<g>
				<path class="st1" d="M509.7,256.5l-0.3-13.2c-0.3-4.4-0.6-8.8-1-13.2"/>
				<path class="st1" d="M506,256.5l-0.3-13c-0.3-4.3-0.6-8.7-1-13"/>
				<path class="st1" d="M497.2,231.2c0.4,4.2,0.7,8.4,1,12.6l0.3,12.7"/>
				<path class="st1" d="M502.2,256.5l-0.3-12.9c-0.3-4.3-0.6-8.6-1-12.8"/>
				<path class="st1" d="M493.5,231.6c0.4,4.1,0.6,8.3,1,12.4l0.3,12.5"/>
			</g>
			<g>
				<path class="st1" d="M508.3,283c0.4-4.4,0.7-8.8,1-13.2l0.3-13.2"/>
				<path class="st1" d="M504.6,282.6c0.4-4.3,0.7-8.7,1-13l0.3-13"/>
				<path class="st1" d="M498.5,256.5l-0.3,12.7c-0.3,4.2-0.6,8.4-1,12.6"/>
				<path class="st1" d="M500.9,282.2c0.4-4.3,0.7-8.6,1-12.8l0.3-12.9"/>
				<path class="st1" d="M494.8,256.5l-0.3,12.5c-0.3,4.1-0.6,8.3-1,12.4"/>
			</g>
			<g>
				<path class="st1" d="M504.1,309.1l0.4-1.6l0.3-1.6l0.6-3.3l1.2-6.5c0.7-4.4,1.1-8.8,1.7-13.1"/>
				<path class="st1" d="M500.5,308.4l0.4-1.6l0.3-1.6l0.6-3.2l1.1-6.4c0.7-4.3,1.1-8.6,1.7-12.9"/>
				<path class="st1" d="M497.2,281.8c-0.6,4.2-1,8.4-1.6,12.6l-1.1,6.2l-0.6,3.1l-0.3,1.6l-0.4,1.5"/>
				<path class="st1" d="M496.9,307.6l0.4-1.6l0.3-1.6l0.6-3.2l1.1-6.3c0.6-4.2,1.1-8.5,1.7-12.8"/>
				<path class="st1" d="M493.5,281.4c-0.5,4.1-1,8.3-1.6,12.4l-1.1,6.1l-0.5,3.1l-0.3,1.5l-0.4,1.5"/>
			</g>
			<g>
				<path class="st1" d="M497.3,334.7l1.1-3.1l0.9-3.2l1.7-6.4c0.6-2.1,1.1-4.3,1.6-6.4l1.5-6.5"/>
				<path class="st1" d="M493.8,333.6l1-3.1l0.9-3.1l1.8-6.3c0.6-2.1,1.1-4.2,1.6-6.3l1.5-6.4"/>
				<path class="st1" d="M493.3,306.8l-1.4,6.2c-0.5,2.1-0.9,4.1-1.5,6.1l-1.7,6.1l-0.9,3l-1,3"/>
				<path class="st1" d="M490.2,332.4l1-3.1l0.9-3.1l1.8-6.2c0.6-2.1,1.1-4.2,1.6-6.2l1.4-6.3"/>
				<path class="st1" d="M489.6,306.1l-1.4,6.1c-0.5,2-0.9,4.1-1.5,6.1l-1.7,6l-0.9,3l-1,3"/>
			</g>
			<g>
				<path class="st1" d="M487.8,359.5c1.9-4,3.5-8.1,5.1-12.2l1.2-3.1c0.4-1,0.7-2.1,1.1-3.1l2.1-6.3"/>
				<path class="st1" d="M484.4,358c1.9-3.9,3.4-8,5-12.1l1.2-3c0.4-1,0.7-2.1,1.1-3.1l2.1-6.2"/>
				<path class="st1" d="M486.7,331.3l-2,6c-0.4,1-0.6,2-1,3l-1.2,2.9c-1.6,3.9-3,7.9-4.9,11.7"/>
				<path class="st1" d="M481,356.5c1.8-3.9,3.4-7.9,4.9-11.9l1.2-3c0.4-1,0.7-2,1.1-3l2.1-6.1"/>
				<path class="st1" d="M483.2,330.2l-2,5.9c-0.3,1-0.6,2-1,2.9l-1.1,2.9c-1.5,3.9-3,7.8-4.8,11.5"/>
			</g>
			<g>
				<path class="st1" d="M475.7,383.1l3.3-5.7l3-5.9c1-2,2-3.9,3-5.9l2.7-6"/>
				<path class="st1" d="M472.5,381.2l3.3-5.7l3-5.8c1-1.9,2-3.9,2.9-5.8l2.7-6"/>
				<path class="st1" d="M477.6,354.9l-2.6,5.8c-0.9,1.9-1.9,3.8-2.9,5.7l-2.9,5.6l-3.2,5.5"/>
				<path class="st1" d="M469.3,379.4l3.2-5.6l2.9-5.7c1-1.9,2-3.8,2.9-5.7l2.7-5.9"/>
				<path class="st1" d="M474.2,353.4l-2.6,5.7c-0.9,1.9-1.9,3.7-2.8,5.6l-2.9,5.6l-3.1,5.4"/>
			</g>
			<g>
				<path class="st1" d="M461.3,405.3c2.5-3.6,5.2-7.1,7.5-10.9l3.6-5.6c1.2-1.9,2.2-3.8,3.4-5.7"/>
				<path class="st1" d="M458.3,403.1c2.5-3.6,5.1-7,7.4-10.8l3.5-5.5c1.2-1.8,2.2-3.8,3.3-5.6"/>
				<path class="st1" d="M466.1,377.5c-1.1,1.8-2.1,3.7-3.2,5.5l-3.4,5.3c-2.2,3.6-4.7,7-7.2,10.4"/>
				<path class="st1" d="M455.3,400.9c2.5-3.5,5-6.9,7.3-10.6l3.5-5.4c1.2-1.8,2.2-3.7,3.3-5.5"/>
				<path class="st1" d="M462.9,375.6c-1.1,1.8-2,3.6-3.2,5.4l-3.4,5.3c-2.2,3.6-4.7,6.9-7.1,10.3"/>
			</g>
			<g>
				<path class="st1" d="M444.6,425.9l4.3-5c1.4-1.7,2.9-3.3,4.3-5.1l4.1-5.2l2-2.6l1.9-2.7"/>
				<path class="st1" d="M441.9,423.4l4.3-4.9c1.4-1.7,2.9-3.3,4.2-5l4-5.1l2-2.6l1.9-2.7"/>
				<path class="st1" d="M452.3,398.7l-1.8,2.6l-2,2.5l-3.9,5c-1.3,1.7-2.7,3.3-4.1,4.9l-4.1,4.8"/>
				<path class="st1" d="M439.1,420.9l4.2-4.9c1.4-1.6,2.8-3.2,4.1-4.9l4-5.1l2-2.5l1.9-2.6"/>
				<path class="st1" d="M449.3,396.6l-1.8,2.5l-1.9,2.5l-3.9,4.9c-1.3,1.7-2.7,3.2-4,4.8l-4.1,4.7"/>
			</g>
			<g>
				<path class="st1" d="M425.9,444.6c3.3-3,6.4-6.1,9.6-9.1c3-3.2,6.1-6.4,9.1-9.6"/>
				<path class="st1" d="M423.4,441.9c3.2-2.9,6.3-6,9.5-9c3-3.2,6-6.3,9-9.5"/>
				<path class="st1" d="M436.4,418.4c-2.8,3.1-5.8,6.1-8.7,9.2c-3.1,2.9-6.1,5.9-9.2,8.7"/>
				<path class="st1" d="M420.9,439.1c3.2-2.9,6.2-5.9,9.3-8.8c2.9-3.1,6-6.2,8.8-9.3"/>
				<path class="st1" d="M433.6,416c-2.8,3.1-5.7,6-8.6,9.1c-3,2.9-6,5.8-9.1,8.6"/>
			</g>
			<g>
				<path class="st1" d="M405.3,461.3l2.7-1.9l2.6-2l5.2-4.1c1.8-1.3,3.4-2.8,5.1-4.3l5-4.3"/>
				<path class="st1" d="M403.1,458.3l2.7-1.9l2.6-2l5.1-4c1.7-1.3,3.3-2.8,5-4.2l4.9-4.3"/>
				<path class="st1" d="M418.4,436.4l-4.8,4.1c-1.6,1.4-3.2,2.8-4.9,4.1l-5,3.9l-2.5,2l-2.6,1.8"/>
				<path class="st1" d="M400.9,455.3l2.6-1.9l2.5-2l5.1-4c1.7-1.3,3.3-2.7,4.9-4.1l4.9-4.2"/>
				<path class="st1" d="M416,433.6l-4.7,4.1c-1.6,1.4-3.1,2.8-4.8,4l-4.9,3.9l-2.5,1.9l-2.5,1.8"/>
			</g>
			<g>
				<path class="st1" d="M383.1,475.7c1.9-1.1,3.9-2.2,5.7-3.4l5.6-3.6c3.8-2.3,7.3-5,10.9-7.5"/>
				<path class="st1" d="M381.2,472.5c1.9-1.1,3.8-2.1,5.6-3.3l5.5-3.5c3.7-2.3,7.2-4.9,10.8-7.4"/>
				<path class="st1" d="M398.7,452.3c-3.5,2.4-6.8,5-10.4,7.2l-5.3,3.4c-1.8,1.1-3.6,2.1-5.5,3.2"/>
				<path class="st1" d="M379.4,469.3c1.8-1.1,3.7-2.1,5.5-3.3l5.4-3.5c3.7-2.2,7.1-4.8,10.6-7.3"/>
				<path class="st1" d="M396.6,449.3c-3.4,2.4-6.7,4.9-10.3,7.1l-5.3,3.4c-1.7,1.1-3.6,2.1-5.4,3.2"/>
			</g>
			<g>
				<path class="st1" d="M359.5,487.8l6-2.7c2-0.9,3.9-2,5.9-3l5.9-3l5.7-3.3"/>
				<path class="st1" d="M358,484.4l6-2.7c2-0.9,3.9-2,5.8-2.9l5.8-3l5.7-3.3"/>
				<path class="st1" d="M377.5,466.1l-5.5,3.2l-5.6,2.9c-1.9,0.9-3.7,2-5.7,2.9l-5.8,2.6"/>
				<path class="st1" d="M356.5,481l5.9-2.7c1.9-0.9,3.8-1.9,5.7-2.9l5.7-2.9l5.6-3.2"/>
				<path class="st1" d="M375.6,462.9l-5.4,3.1l-5.6,2.9c-1.9,0.9-3.7,1.9-5.6,2.8l-5.7,2.6"/>
			</g>
			<g>
				<path class="st1" d="M334.7,497.3l6.3-2.1c1-0.4,2.1-0.7,3.1-1.1l3.1-1.2c4.1-1.6,8.2-3.2,12.2-5.1"/>
				<path class="st1" d="M333.6,493.8l6.2-2.1c1-0.4,2.1-0.7,3.1-1.1l3-1.2c4-1.6,8.1-3.1,12.1-5"/>
				<path class="st1" d="M354.9,477.6c-3.8,1.8-7.8,3.3-11.7,4.9l-2.9,1.2c-1,0.4-2,0.7-3,1l-6,2"/>
				<path class="st1" d="M332.4,490.2l6.1-2.1c1-0.4,2-0.7,3-1.1l3-1.2c4-1.6,8-3.1,11.9-4.9"/>
				<path class="st1" d="M353.4,474.2c-3.8,1.8-7.7,3.3-11.5,4.8l-2.9,1.1c-1,0.4-2,0.7-2.9,1l-5.9,2"/>
			</g>
			<g>
				<path class="st1" d="M309.1,504.1l6.5-1.5c2.2-0.5,4.3-1,6.4-1.6l6.4-1.8l3.2-0.9l3.1-1.1"/>
				<path class="st1" d="M308.4,500.5l6.4-1.5c2.1-0.5,4.3-0.9,6.3-1.6l6.3-1.8l3.1-0.9l3.1-1"/>
				<path class="st1" d="M331.3,486.7l-3,1l-3,0.9l-6.1,1.7c-2,0.6-4.1,1.1-6.1,1.5l-6.2,1.4"/>
				<path class="st1" d="M307.6,496.9l6.3-1.4c2.1-0.5,4.2-0.9,6.2-1.6l6.2-1.8l3.1-0.9l3.1-1"/>
				<path class="st1" d="M330.2,483.2l-3,1l-3,0.9l-6,1.7c-2,0.6-4,1-6.1,1.5l-6.1,1.4"/>
			</g>
			<g>
				<path class="st1" d="M283,508.3c4.4-0.6,8.8-1.1,13.1-1.7l6.5-1.2l3.3-0.6l1.6-0.3l1.6-0.4"/>
				<path class="st1" d="M282.6,504.6c4.3-0.6,8.6-1,12.9-1.7l6.4-1.1l3.2-0.6l1.6-0.3l1.6-0.4"/>
				<path class="st1" d="M306.8,493.3l-1.5,0.4l-1.6,0.3l-3.1,0.6l-6.2,1.1c-4.2,0.6-8.4,1.1-12.6,1.6"/>
				<path class="st1" d="M282.2,500.9c4.3-0.6,8.5-1,12.8-1.7l6.3-1.1l3.2-0.6l1.6-0.3l1.6-0.4"/>
				<path class="st1" d="M306.1,489.6l-1.5,0.4l-1.5,0.3l-3.1,0.5l-6.1,1.1c-4.1,0.6-8.2,1.1-12.4,1.6"/>
			</g>
			<g>
				<path class="st1" d="M256.5,509.7l13.2-0.3c4.4-0.3,8.8-0.6,13.2-1"/>
				<path class="st1" d="M256.5,506l13-0.3c4.3-0.3,8.7-0.6,13-1"/>
				<path class="st1" d="M281.8,497.2c-4.2,0.4-8.4,0.7-12.6,1l-12.7,0.3"/>
				<path class="st1" d="M256.5,502.2l12.9-0.3c4.3-0.3,8.6-0.6,12.8-1"/>
				<path class="st1" d="M281.4,493.5c-4.1,0.4-8.3,0.6-12.4,1l-12.5,0.3"/>
			</g>
			<g>
				<path class="st1" d="M230,508.3c4.4,0.4,8.8,0.7,13.2,1l13.2,0.3"/>
				<path class="st1" d="M230.4,504.6c4.3,0.4,8.7,0.7,13,1l13,0.3"/>
				<path class="st1" d="M256.5,498.5l-12.7-0.3c-4.2-0.3-8.4-0.6-12.6-1"/>
				<path class="st1" d="M230.8,500.9c4.3,0.4,8.6,0.7,12.8,1l12.9,0.3"/>
				<path class="st1" d="M256.5,494.8l-12.5-0.3c-4.1-0.3-8.3-0.6-12.4-1"/>
			</g>
			<g>
				<path class="st1" d="M203.9,504.1l1.6,0.4l1.6,0.3l3.3,0.6l6.5,1.2c4.4,0.7,8.8,1.1,13.1,1.7"/>
				<path class="st1" d="M204.6,500.5l1.6,0.4l1.6,0.3l3.2,0.6l6.4,1.1c4.3,0.7,8.6,1.1,12.9,1.7"/>
				<path class="st1" d="M231.2,497.2c-4.2-0.6-8.4-1-12.6-1.6l-6.2-1.1l-3.1-0.6l-1.6-0.3l-1.5-0.4"/>
				<path class="st1" d="M205.4,496.9l1.6,0.4l1.6,0.3l3.2,0.6l6.3,1.1c4.2,0.6,8.5,1.1,12.8,1.7"/>
				<path class="st1" d="M231.6,493.5c-4.1-0.5-8.3-1-12.4-1.6l-6.1-1.1l-3.1-0.5l-1.5-0.3l-1.5-0.4"/>
			</g>
			<g>
				<path class="st1" d="M178.3,497.3l3.1,1.1l3.2,0.9l6.4,1.7c2.1,0.6,4.3,1.1,6.4,1.6l6.5,1.5"/>
				<path class="st1" d="M179.4,493.8l3.1,1l3.1,0.9l6.3,1.8c2.1,0.6,4.2,1.1,6.3,1.6l6.4,1.5"/>
				<path class="st1" d="M206.2,493.3l-6.2-1.4c-2.1-0.5-4.1-0.9-6.1-1.5l-6.1-1.7l-3-0.9l-3-1"/>
				<path class="st1" d="M180.6,490.2l3.1,1l3.1,0.9l6.2,1.8c2.1,0.6,4.2,1.1,6.2,1.6l6.3,1.4"/>
				<path class="st1" d="M206.9,489.6l-6.1-1.4c-2-0.5-4.1-0.9-6.1-1.5l-6-1.7l-3-0.9l-3-1"/>
			</g>
			<g>
				<path class="st1" d="M153.5,487.8c4,1.9,8.1,3.5,12.2,5.1l3.1,1.2c1,0.4,2.1,0.7,3.1,1.1l6.3,2.1"/>
				<path class="st1" d="M155,484.4c3.9,1.9,8,3.4,12.1,5l3,1.2c1,0.4,2.1,0.7,3.1,1.1l6.2,2.1"/>
				<path class="st1" d="M181.7,486.7l-6-2c-1-0.4-2-0.6-3-1l-2.9-1.2c-3.9-1.6-7.9-3-11.7-4.9"/>
				<path class="st1" d="M156.5,481c3.9,1.8,7.9,3.4,11.9,4.9l3,1.2c1,0.4,2,0.7,3,1.1l6.1,2.1"/>
				<path class="st1" d="M182.8,483.2l-5.9-2c-1-0.3-2-0.6-2.9-1l-2.9-1.1c-3.9-1.5-7.8-3-11.5-4.8"/>
			</g>
			<g>
				<path class="st1" d="M129.9,475.7l5.7,3.3l5.9,3c2,1,3.9,2,5.9,3l6,2.7"/>
				<path class="st1" d="M131.8,472.5l5.7,3.3l5.8,3c1.9,1,3.9,2,5.8,2.9l6,2.7"/>
				<path class="st1" d="M158.1,477.6l-5.8-2.6c-1.9-0.9-3.8-1.9-5.7-2.9l-5.6-2.9l-5.5-3.2"/>
				<path class="st1" d="M133.6,469.3l5.6,3.2l5.7,2.9c1.9,1,3.8,2,5.7,2.9l5.9,2.7"/>
				<path class="st1" d="M159.6,474.2l-5.7-2.6c-1.9-0.9-3.7-1.9-5.6-2.8l-5.6-2.9l-5.4-3.1"/>
			</g>
			<g>
				<path class="st1" d="M107.7,461.3c3.6,2.5,7.1,5.2,10.9,7.5l5.6,3.6c1.9,1.2,3.8,2.2,5.7,3.4"/>
				<path class="st1" d="M109.9,458.3c3.6,2.5,7,5.1,10.8,7.4l5.5,3.5c1.8,1.2,3.8,2.2,5.6,3.3"/>
				<path class="st1" d="M135.5,466.1c-1.8-1.1-3.7-2.1-5.5-3.2l-5.3-3.4c-3.6-2.2-7-4.7-10.4-7.2"/>
				<path class="st1" d="M112.1,455.3c3.5,2.5,6.9,5,10.6,7.3l5.4,3.5c1.8,1.2,3.7,2.2,5.5,3.3"/>
				<path class="st1" d="M137.4,462.9c-1.8-1.1-3.6-2-5.4-3.2l-5.3-3.4c-3.6-2.2-6.9-4.7-10.3-7.1"/>
			</g>
			<g>
				<path class="st1" d="M87.1,444.6l5,4.3c1.7,1.4,3.3,2.9,5.1,4.3l5.2,4.1l2.6,2l2.7,1.9"/>
				<path class="st1" d="M89.6,441.9l4.9,4.3c1.7,1.4,3.3,2.9,5,4.2l5.1,4l2.6,2l2.7,1.9"/>
				<path class="st1" d="M114.3,452.3l-2.6-1.8l-2.5-2l-5-3.9c-1.7-1.3-3.3-2.7-4.9-4.1l-4.8-4.1"/>
				<path class="st1" d="M92.1,439.1l4.9,4.2c1.6,1.4,3.2,2.8,4.9,4.1l5.1,4l2.5,2l2.6,1.9"/>
				<path class="st1" d="M116.4,449.3l-2.5-1.8l-2.5-1.9l-4.9-3.9c-1.7-1.3-3.2-2.7-4.8-4l-4.7-4.1"/>
			</g>
			<g>
				<path class="st1" d="M68.4,425.9c3,3.3,6.1,6.4,9.1,9.6c3.2,3,6.4,6.1,9.6,9.1"/>
				<path class="st1" d="M71.1,423.4c2.9,3.2,6,6.3,9,9.5c3.2,3,6.3,6,9.5,9"/>
				<path class="st1" d="M94.6,436.4c-3.1-2.8-6.1-5.8-9.2-8.7c-2.9-3.1-5.9-6.1-8.7-9.2"/>
				<path class="st1" d="M73.9,420.9c2.9,3.2,5.9,6.2,8.8,9.3c3.1,2.9,6.2,6,9.3,8.8"/>
				<path class="st1" d="M97,433.6c-3.1-2.8-6-5.7-9.1-8.6c-2.9-3-5.8-6-8.6-9.1"/>
			</g>
			<g>
				<path class="st1" d="M51.7,405.3l1.9,2.7l2,2.6l4.1,5.2c1.3,1.8,2.8,3.4,4.3,5.1l4.3,5"/>
				<path class="st1" d="M54.7,403.1l1.9,2.7l2,2.6l4,5.1c1.3,1.7,2.8,3.3,4.2,5l4.3,4.9"/>
				<path class="st1" d="M76.6,418.4l-4.1-4.8c-1.4-1.6-2.8-3.2-4.1-4.9l-3.9-5l-2-2.5l-1.8-2.6"/>
				<path class="st1" d="M57.7,400.9l1.9,2.6l2,2.5l4,5.1c1.3,1.7,2.7,3.3,4.1,4.9l4.2,4.9"/>
				<path class="st1" d="M79.4,416l-4.1-4.7c-1.4-1.6-2.8-3.1-4-4.8l-3.9-4.9l-1.9-2.5l-1.8-2.5"/>
			</g>
			<g>
				<path class="st1" d="M37.3,383.1c1.1,1.9,2.2,3.9,3.4,5.7l3.6,5.6c2.3,3.8,5,7.3,7.5,10.9"/>
				<path class="st1" d="M40.5,381.2c1.1,1.9,2.1,3.8,3.3,5.6l3.5,5.5c2.3,3.7,4.9,7.2,7.4,10.8"/>
				<path class="st1" d="M60.7,398.7c-2.4-3.5-5-6.8-7.2-10.4l-3.4-5.3c-1.1-1.8-2.1-3.6-3.2-5.5"/>
				<path class="st1" d="M43.7,379.4c1.1,1.8,2.1,3.7,3.3,5.5l3.5,5.4c2.2,3.7,4.8,7.1,7.3,10.6"/>
				<path class="st1" d="M63.7,396.6c-2.4-3.4-4.9-6.7-7.1-10.3l-3.4-5.3c-1.1-1.7-2.1-3.6-3.2-5.4"/>
			</g>
			<g>
				<path class="st1" d="M25.2,359.5l2.7,6c0.9,2,2,3.9,3,5.9l3,5.9l3.3,5.7"/>
				<path class="st1" d="M28.6,358l2.7,6c0.9,2,2,3.9,2.9,5.8l3,5.8l3.3,5.7"/>
				<path class="st1" d="M46.9,377.5l-3.2-5.5l-2.9-5.6c-0.9-1.9-2-3.7-2.9-5.7l-2.6-5.8"/>
				<path class="st1" d="M32,356.5l2.7,5.9c0.9,1.9,1.9,3.8,2.9,5.7l2.9,5.7l3.2,5.6"/>
				<path class="st1" d="M50.1,375.6l-3.1-5.4l-2.9-5.6c-0.9-1.9-1.9-3.7-2.8-5.6l-2.6-5.7"/>
			</g>
			<g>
				<path class="st1" d="M15.7,334.7l2.1,6.3c0.4,1,0.7,2.1,1.1,3.1l1.2,3.1c1.6,4.1,3.2,8.2,5.1,12.2"/>
				<path class="st1" d="M19.2,333.6l2.1,6.2c0.4,1,0.7,2.1,1.1,3.1l1.2,3c1.6,4,3.1,8.1,5,12.1"/>
				<path class="st1" d="M35.4,354.9c-1.8-3.8-3.3-7.8-4.9-11.7l-1.2-2.9c-0.4-1-0.7-2-1-3l-2-6"/>
				<path class="st1" d="M22.8,332.4l2.1,6.1c0.4,1,0.7,2,1.1,3l1.2,3c1.6,4,3.1,8,4.9,11.9"/>
				<path class="st1" d="M38.8,353.4c-1.8-3.8-3.3-7.7-4.8-11.5l-1.1-2.9c-0.4-1-0.7-2-1-2.9l-2-5.9"/>
			</g>
			<g>
				<path class="st1" d="M8.9,309.1l1.5,6.5c0.5,2.2,1,4.3,1.6,6.4l1.8,6.4l0.9,3.2l1.1,3.1"/>
				<path class="st1" d="M12.5,308.4l1.5,6.4c0.5,2.1,0.9,4.3,1.6,6.3l1.8,6.3l0.9,3.1l1,3.1"/>
				<path class="st1" d="M26.3,331.3l-1-3l-0.9-3l-1.7-6.1c-0.6-2-1.1-4.1-1.5-6.1l-1.4-6.2"/>
				<path class="st1" d="M16.1,307.6l1.4,6.3c0.5,2.1,0.9,4.2,1.6,6.2l1.8,6.2l0.9,3.1l1,3.1"/>
				<path class="st1" d="M29.8,330.2l-1-3l-0.9-3l-1.7-6c-0.6-2-1-4-1.5-6.1l-1.4-6.1"/>
			</g>
			<g>
				<path class="st1" d="M4.7,283c0.6,4.4,1.1,8.8,1.7,13.1l1.2,6.5l0.6,3.3l0.3,1.6l0.4,1.6"/>
				<path class="st1" d="M8.4,282.6c0.6,4.3,1,8.6,1.7,12.9l1.1,6.4l0.6,3.2l0.3,1.6l0.4,1.6"/>
				<path class="st1" d="M19.7,306.8l-0.4-1.5l-0.3-1.6l-0.6-3.1l-1.1-6.2c-0.6-4.2-1.1-8.4-1.6-12.6"/>
				<path class="st1" d="M12.1,282.2c0.6,4.3,1,8.5,1.7,12.8l1.1,6.3l0.6,3.2l0.3,1.6l0.4,1.6"/>
				<path class="st1" d="M23.4,306.1l-0.4-1.5l-0.3-1.5l-0.5-3.1l-1.1-6.1c-0.6-4.1-1.1-8.2-1.6-12.4"/>
			</g>
			<g>
				<path class="st1" d="M3.3,256.5l0.3,13.2c0.3,4.4,0.6,8.8,1,13.2"/>
				<path class="st1" d="M7,256.5l0.3,13c0.3,4.3,0.6,8.7,1,13"/>
				<path class="st1" d="M15.8,281.8c-0.4-4.2-0.7-8.4-1-12.6l-0.3-12.7"/>
				<path class="st1" d="M10.8,256.5l0.3,12.9c0.3,4.3,0.6,8.6,1,12.8"/>
				<path class="st1" d="M19.5,281.4c-0.4-4.1-0.6-8.3-1-12.4l-0.3-12.5"/>
			</g>
		</g>
	</g>
</g>
<g>
	<path class="st2" d="M86.5,247.6L86.5,247.6c-11.2-16.1-7.2-38.2,8.9-49.4L271.9,75.4c16.1-11.2,38.2-7.2,49.4,8.9l0,0
		c11.2,16.1,7.2,38.2-8.9,49.4L135.9,256.5C119.8,267.7,97.6,263.7,86.5,247.6z"/>
	<g>
		<g>
			<g>
				<path class="st3" d="M67.7,222.6c-0.6,5.6-0.1,11.4,1.3,16.9c1.4,5.5,3.8,10.7,7.1,15.4"/>
				<path class="st3" d="M71.4,222.9c-0.5,5.2-0.1,10.5,1.2,15.6s3.5,10,6.5,14.2"/>
				<path class="st3" d="M85.2,248.5c-5-7.1-7.3-16.1-6.5-24.9"/>
				<path class="st3" d="M75.1,223.2c-0.4,4.8-0.1,9.7,1.1,14.3c1.2,4.7,3.3,9.1,5.9,13.1"/>
				<path class="st3" d="M88.3,246.4c-4.5-6.5-6.6-14.5-5.8-22.4"/>
			</g>
			<g>
				<path class="st3" d="M82.4,192.6c-8.2,7.8-13.6,18.7-14.6,29.9"/>
				<path class="st3" d="M84.9,195.3c-7.6,7.3-12.6,17.3-13.5,27.7"/>
				<path class="st3" d="M78.8,223.6c0.8-8.7,4.9-17.1,11.3-23.1"/>
				<path class="st3" d="M87.5,197.9c-7,6.6-11.5,15.8-12.5,25.3"/>
				<path class="st3" d="M82.4,224c0.8-7.8,4.4-15.4,10.2-20.7"/>
			</g>
			<g>
				<path class="st3" d="M104.2,176.6l-10.3,7.2l-5.2,3.6l-0.7,0.5l-0.9,0.6l-1.7,1.3c-0.5,0.5-1.1,0.9-1.6,1.4l-1.6,1.4"/>
				<path class="st3" d="M106.3,179.6l-10.3,7.2l-5.2,3.6l-0.7,0.5l-0.8,0.6l-1.6,1.2c-0.6,0.4-1.1,0.7-1.6,1.2l-1.4,1.3"/>
				<path class="st3" d="M90,200.6l1.2-1.1c0.4-0.4,0.8-0.7,1.3-1c0.9-0.6,1.7-1.3,2.6-1.9l5.2-3.6l10.3-7.2"/>
				<path class="st3" d="M108.5,182.7l-10.3,7.2l-5.2,3.6l-0.7,0.5l-0.7,0.5l-1.4,1.1c-0.5,0.3-1,0.7-1.4,1.1l-1.3,1.3"/>
				<path class="st3" d="M92.6,203.3l1.1-1c0.4-0.4,0.8-0.7,1.2-0.9l1.2-0.9l0.6-0.4l0.7-0.5l5.2-3.6l10.2-7.1"/>
			</g>
			<g>
				<line class="st3" x1="124.8" y1="162.3" x2="104.2" y2="176.6"/>
				<line class="st3" x1="126.9" y1="165.3" x2="106.3" y2="179.6"/>
				<line class="st3" x1="110.6" y1="185.8" x2="131.2" y2="171.5"/>
				<line class="st3" x1="129.1" y1="168.4" x2="108.5" y2="182.7"/>
				<line class="st3" x1="112.7" y1="188.8" x2="133.3" y2="174.5"/>
			</g>
			<g>
				<line class="st3" x1="145.5" y1="147.9" x2="124.8" y2="162.3"/>
				<line class="st3" x1="147.6" y1="150.9" x2="126.9" y2="165.3"/>
				<line class="st3" x1="131.2" y1="171.5" x2="151.9" y2="157.1"/>
				<line class="st3" x1="149.8" y1="154" x2="129.1" y2="168.4"/>
				<line class="st3" x1="133.3" y1="174.5" x2="154" y2="160.1"/>
			</g>
			<g>
				<line class="st3" x1="166.1" y1="133.5" x2="145.5" y2="147.9"/>
				<line class="st3" x1="168.2" y1="136.6" x2="147.6" y2="150.9"/>
				<line class="st3" x1="151.9" y1="157.1" x2="172.5" y2="142.7"/>
				<line class="st3" x1="170.4" y1="139.7" x2="149.8" y2="154"/>
				<line class="st3" x1="154" y1="160.1" x2="174.6" y2="145.8"/>
			</g>
			<g>
				<line class="st3" x1="186.7" y1="119.2" x2="166.1" y2="133.5"/>
				<line class="st3" x1="188.8" y1="122.3" x2="168.2" y2="136.6"/>
				<line class="st3" x1="172.5" y1="142.7" x2="193.1" y2="128.4"/>
				<line class="st3" x1="191" y1="125.4" x2="170.4" y2="139.7"/>
				<line class="st3" x1="174.6" y1="145.8" x2="195.2" y2="131.4"/>
			</g>
			<g>
				<line class="st3" x1="207.3" y1="104.9" x2="186.7" y2="119.2"/>
				<line class="st3" x1="209.4" y1="107.9" x2="188.8" y2="122.3"/>
				<line class="st3" x1="193.1" y1="128.4" x2="213.7" y2="114.1"/>
				<line class="st3" x1="211.6" y1="111" x2="191" y2="125.4"/>
				<line class="st3" x1="195.2" y1="131.4" x2="215.8" y2="117.1"/>
			</g>
			<g>
				<line class="st3" x1="228" y1="90.5" x2="207.3" y2="104.9"/>
				<line class="st3" x1="230.1" y1="93.5" x2="209.4" y2="107.9"/>
				<line class="st3" x1="213.7" y1="114.1" x2="234.4" y2="99.7"/>
				<line class="st3" x1="232.3" y1="96.7" x2="211.6" y2="111"/>
				<line class="st3" x1="215.8" y1="117.1" x2="236.5" y2="102.7"/>
			</g>
			<g>
				<line class="st3" x1="248.6" y1="76.2" x2="228" y2="90.5"/>
				<line class="st3" x1="250.7" y1="79.2" x2="230.1" y2="93.5"/>
				<line class="st3" x1="234.4" y1="99.7" x2="255" y2="85.4"/>
				<line class="st3" x1="252.9" y1="82.3" x2="232.3" y2="96.7"/>
				<line class="st3" x1="236.5" y1="102.7" x2="257.1" y2="88.4"/>
			</g>
			<g>
				<path class="st3" d="M271.2,61.3l-1.9,1c-0.6,0.3-1.2,0.7-1.8,1l-1.8,1.1l-0.9,0.6l-0.7,0.5l-5.2,3.6l-10.3,7.2"/>
				<path class="st3" d="M272.7,64.6l-1.7,0.8c-0.5,0.3-1.1,0.7-1.7,1.1l-1.7,1.1l-0.8,0.6l-0.7,0.5l-5.2,3.6l-10.3,7.2"/>
				<path class="st3" d="M255,85.4l10.3-7.2l5.2-3.6c0.8-0.6,1.9-1.2,2.7-1.7c0.4-0.3,0.9-0.6,1.4-0.8l1.4-0.7"/>
				<path class="st3" d="M274.4,67.9l-1.6,0.8c-0.5,0.3-1,0.6-1.5,0.9l-1.5,0.9l-0.7,0.5l-0.7,0.5l-5.2,3.6l-10.3,7.2"/>
				<path class="st3" d="M257.1,88.4l10.3-7.2l5.2-3.6c0.4-0.3,0.8-0.6,1.2-0.9l1.3-0.8c0.4-0.3,0.8-0.6,1.3-0.8l1.3-0.7"/>
			</g>
			<g>
				<path class="st3" d="M304.4,58c-11-3-23-1.7-33.1,3.3"/>
				<path class="st3" d="M303.4,61.5c-10.2-2.7-21.2-1.6-30.6,3"/>
				<path class="st3" d="M276,71.2c7.8-3.8,17.1-4.8,25.5-2.5"/>
				<path class="st3" d="M302.4,65.1c-9.3-2.5-19.5-1.4-28.1,2.9"/>
				<path class="st3" d="M277.6,74.6c7.1-3.5,15.4-4.4,23-2.3"/>
			</g>
			<g>
				<path class="st3" d="M331.8,77c-3.3-4.7-7.3-8.7-12-12c-4.7-3.2-9.9-5.7-15.4-7.1"/>
				<path class="st3" d="M328.7,79.1c-3-4.3-6.8-8-11.1-11s-9.1-5.2-14.2-6.6"/>
				<path class="st3" d="M301.5,68.7c8.4,2.2,16,7.5,21.1,14.7"/>
				<path class="st3" d="M325.6,81.3c-2.7-3.9-6.2-7.4-10.2-10.1c-4-2.7-8.3-4.8-13.1-6"/>
				<path class="st3" d="M300.6,72.3c7.6,2,14.4,6.8,19,13.2"/>
			</g>
			<g>
				<path class="st3" d="M340.1,109.3c0.6-5.6,0.1-11.4-1.3-16.9c-1.4-5.5-3.8-10.7-7.1-15.4"/>
				<path class="st3" d="M336.4,109c0.5-5.2,0.1-10.5-1.2-15.6c-1.3-5.1-3.5-10-6.5-14.2"/>
				<path class="st3" d="M322.6,83.4c5,7.1,7.3,16.1,6.5,24.9"/>
				<path class="st3" d="M332.7,108.7c0.4-4.8,0.1-9.7-1.1-14.3c-1.2-4.7-3.3-9.1-5.9-13.1"/>
				<path class="st3" d="M319.5,85.5c4.5,6.5,6.6,14.5,5.8,22.4"/>
			</g>
			<g>
				<path class="st3" d="M325.4,139.3c8.2-7.8,13.6-18.7,14.6-29.9"/>
				<path class="st3" d="M322.8,136.7c7.6-7.3,12.6-17.3,13.5-27.7"/>
				<path class="st3" d="M329,108.3c-0.8,8.7-4.9,17.1-11.3,23.1"/>
				<path class="st3" d="M320.3,134c7-6.6,11.5-15.8,12.5-25.3"/>
				<path class="st3" d="M325.4,107.9c-0.8,7.8-4.4,15.4-10.2,20.7"/>
			</g>
			<g>
				<path class="st3" d="M303.6,155.3l10.3-7.2l5.2-3.6l0.7-0.5l0.9-0.6l1.7-1.3c0.5-0.5,1.1-0.9,1.6-1.4l1.6-1.4"/>
				<path class="st3" d="M301.5,152.3l10.3-7.2l5.2-3.6l0.7-0.5l0.8-0.6l1.6-1.2c0.6-0.4,1.1-0.7,1.6-1.2l1.4-1.3"/>
				<path class="st3" d="M317.8,131.3l-1.2,1.1c-0.4,0.4-0.8,0.7-1.3,1c-0.9,0.6-1.7,1.3-2.6,1.9l-5.2,3.6l-10.3,7.2"/>
				<path class="st3" d="M299.3,149.2l10.3-7.2l5.2-3.6l0.7-0.5l0.7-0.5l1.4-1.1c0.5-0.3,1-0.7,1.4-1.1l1.3-1.3"/>
				<path class="st3" d="M315.2,128.6l-1.1,1c-0.4,0.4-0.8,0.7-1.2,0.9l-1.2,0.9l-0.6,0.4l-0.7,0.5l-5.2,3.6l-10.3,7.2"/>
			</g>
			<g>
				<line class="st3" x1="283" y1="169.6" x2="303.6" y2="155.3"/>
				<line class="st3" x1="280.9" y1="166.6" x2="301.5" y2="152.3"/>
				<line class="st3" x1="297.2" y1="146.1" x2="276.6" y2="160.4"/>
				<line class="st3" x1="278.7" y1="163.5" x2="299.3" y2="149.2"/>
				<line class="st3" x1="295.1" y1="143.1" x2="274.5" y2="157.4"/>
			</g>
			<g>
				<line class="st3" x1="262.3" y1="184" x2="283" y2="169.6"/>
				<line class="st3" x1="260.2" y1="181" x2="280.9" y2="166.6"/>
				<line class="st3" x1="276.6" y1="160.4" x2="255.9" y2="174.8"/>
				<line class="st3" x1="258" y1="177.9" x2="278.7" y2="163.5"/>
				<line class="st3" x1="274.5" y1="157.4" x2="253.8" y2="171.8"/>
			</g>
			<g>
				<line class="st3" x1="241.7" y1="198.4" x2="262.3" y2="184"/>
				<line class="st3" x1="239.6" y1="195.3" x2="260.2" y2="181"/>
				<line class="st3" x1="255.9" y1="174.8" x2="235.3" y2="189.2"/>
				<line class="st3" x1="237.4" y1="192.2" x2="258" y2="177.9"/>
				<line class="st3" x1="253.8" y1="171.8" x2="233.2" y2="186.1"/>
			</g>
			<g>
				<line class="st3" x1="221.1" y1="212.7" x2="241.7" y2="198.4"/>
				<line class="st3" x1="219" y1="209.6" x2="239.6" y2="195.3"/>
				<line class="st3" x1="235.3" y1="189.2" x2="214.7" y2="203.5"/>
				<line class="st3" x1="216.8" y1="206.5" x2="237.4" y2="192.2"/>
				<line class="st3" x1="233.2" y1="186.1" x2="212.6" y2="200.5"/>
			</g>
			<g>
				<line class="st3" x1="200.5" y1="227" x2="221.1" y2="212.7"/>
				<line class="st3" x1="198.4" y1="224" x2="219" y2="209.6"/>
				<line class="st3" x1="214.7" y1="203.5" x2="194.1" y2="217.8"/>
				<line class="st3" x1="196.2" y1="220.9" x2="216.8" y2="206.5"/>
				<line class="st3" x1="212.6" y1="200.5" x2="192" y2="214.8"/>
			</g>
			<g>
				<line class="st3" x1="179.8" y1="241.4" x2="200.5" y2="227"/>
				<line class="st3" x1="177.7" y1="238.4" x2="198.4" y2="224"/>
				<line class="st3" x1="194.1" y1="217.8" x2="173.4" y2="232.2"/>
				<line class="st3" x1="175.5" y1="235.2" x2="196.2" y2="220.9"/>
				<line class="st3" x1="192" y1="214.8" x2="171.3" y2="229.2"/>
			</g>
			<g>
				<line class="st3" x1="159.2" y1="255.7" x2="179.8" y2="241.4"/>
				<line class="st3" x1="157.1" y1="252.7" x2="177.7" y2="238.4"/>
				<line class="st3" x1="173.4" y1="232.2" x2="152.8" y2="246.5"/>
				<line class="st3" x1="154.9" y1="249.6" x2="175.5" y2="235.2"/>
				<line class="st3" x1="171.3" y1="229.2" x2="150.7" y2="243.5"/>
			</g>
			<g>
				<path class="st3" d="M136.6,270.6l1.9-1c0.6-0.3,1.2-0.7,1.8-1l1.8-1.1l0.9-0.6l0.7-0.5l5.2-3.6l10.3-7.1"/>
				<path class="st3" d="M135,267.3l1.7-0.8c0.5-0.3,1.1-0.7,1.7-1.1l1.7-1.1l0.8-0.6l0.7-0.5l5.2-3.6l10.3-7.1"/>
				<path class="st3" d="M152.8,246.5l-10.3,7.2l-5.2,3.6c-0.8,0.6-1.9,1.2-2.7,1.7c-0.4,0.3-0.9,0.6-1.4,0.8l-1.4,0.7"/>
				<path class="st3" d="M133.4,264l1.6-0.8c0.5-0.3,1-0.6,1.5-0.9l1.5-0.9l0.7-0.5l0.7-0.5l5.2-3.6l10.3-7.1"/>
				<path class="st3" d="M150.7,243.5l-10.3,7.2l-5.2,3.6c-0.4,0.3-0.8,0.6-1.2,0.9l-1.3,0.8c-0.4,0.3-0.8,0.6-1.3,0.8l-1.3,0.7"/>
			</g>
			<g>
				<path class="st3" d="M103.4,273.9c11,3,23,1.7,33.1-3.3"/>
				<path class="st3" d="M104.4,270.4c10.2,2.7,21.2,1.6,30.6-3"/>
				<path class="st3" d="M131.8,260.7c-7.8,3.8-17.1,4.8-25.5,2.5"/>
				<path class="st3" d="M105.4,266.8c9.3,2.5,19.5,1.4,28.1-2.9"/>
				<path class="st3" d="M130.2,257.3c-7.1,3.5-15.4,4.4-23,2.3"/>
			</g>
			<g>
				<path class="st3" d="M76,254.9c3.3,4.7,7.3,8.7,12,12c4.7,3.2,9.9,5.7,15.4,7.1"/>
				<path class="st3" d="M79.1,252.8c3,4.3,6.8,8,11.1,11c4.3,3,9.1,5.2,14.2,6.6"/>
				<path class="st3" d="M106.3,263.2c-8.4-2.2-16-7.5-21.1-14.7"/>
				<path class="st3" d="M82.1,250.6c2.7,3.9,6.2,7.4,10.2,10.1c4,2.7,8.3,4.8,13.1,6"/>
				<path class="st3" d="M107.2,259.6c-7.6-2-14.4-6.8-19-13.2"/>
			</g>
		</g>
	</g>
</g>
<g>
	<path class="st2" d="M321.4,423.9L321.4,423.9c-11.5,15.9-33.7,19.5-49.6,8L97.4,306c-15.9-11.5-19.5-33.7-8-49.6l0,0
		c11.5-15.9,33.7-19.5,49.6-8l174.4,125.9C329.3,385.8,332.9,408,321.4,423.9z"/>
	<g>
		<g>
			<g>
				<path class="st3" d="M304,449.9c5.5-1.3,10.8-3.7,15.5-6.8c4.7-3.1,8.9-7.2,12.2-11.8"/>
				<path class="st3" d="M303.1,446.3c5.1-1.3,10-3.4,14.3-6.3s8.2-6.6,11.3-10.8"/>
				<path class="st3" d="M322.6,424.7c-5.1,7.1-12.8,12.2-21.3,14.3"/>
				<path class="st3" d="M302.2,442.7c4.7-1.2,9.2-3.1,13.2-5.8c4-2.7,7.5-6.1,10.4-9.9"/>
				<path class="st3" d="M319.6,422.6c-4.6,6.4-11.5,11-19.2,12.9"/>
			</g>
			<g>
				<path class="st3" d="M270.8,445.9c10.1,5.2,22.1,6.6,33.1,3.9"/>
				<path class="st3" d="M272.4,442.7c9.4,4.8,20.5,6.1,30.6,3.6"/>
				<path class="st3" d="M301.3,439.1c-8.5,2.2-17.7,1-25.5-3"/>
				<path class="st3" d="M274.2,439.4c8.5,4.4,18.7,5.6,28,3.3"/>
				<path class="st3" d="M300.4,435.5c-7.6,1.9-16,0.9-22.9-2.7"/>
			</g>
			<g>
				<path class="st3" d="M248.5,430.7l10.2,7.4l5.1,3.7l0.6,0.5l0.9,0.6l1.8,1.1c0.6,0.3,1.2,0.7,1.8,1.1l1.9,1"/>
				<path class="st3" d="M250.7,427.7l10.2,7.4l5.1,3.7l0.6,0.5l0.8,0.6l1.7,1.1c0.6,0.4,1.1,0.8,1.7,1.1l1.7,0.9"/>
				<path class="st3" d="M275.8,436.1l-1.4-0.8c-0.5-0.2-1-0.6-1.4-0.9c-0.9-0.6-1.8-1.2-2.7-1.8l-5.1-3.7l-10.2-7.4"/>
				<path class="st3" d="M252.9,424.6l10.2,7.4l5.1,3.7l0.6,0.5l0.7,0.5l1.5,1c0.5,0.4,1,0.7,1.5,1l1.6,0.8"/>
				<path class="st3" d="M277.5,432.8l-1.3-0.7c-0.5-0.2-0.9-0.5-1.3-0.8l-1.3-0.8L273,430l-0.6-0.5l-5.1-3.7l-10.2-7.4"/>
			</g>
			<g>
				<line class="st3" x1="228.2" y1="416" x2="248.5" y2="430.7"/>
				<line class="st3" x1="230.3" y1="413" x2="250.7" y2="427.7"/>
				<line class="st3" x1="255.1" y1="421.6" x2="234.7" y2="406.9"/>
				<line class="st3" x1="232.5" y1="409.9" x2="252.9" y2="424.6"/>
				<line class="st3" x1="257.2" y1="418.6" x2="236.9" y2="403.9"/>
			</g>
			<g>
				<line class="st3" x1="207.7" y1="401.3" x2="228.2" y2="416"/>
				<line class="st3" x1="209.9" y1="398.3" x2="230.3" y2="413"/>
				<line class="st3" x1="234.7" y1="406.9" x2="214.3" y2="392.2"/>
				<line class="st3" x1="212.1" y1="395.2" x2="232.5" y2="409.9"/>
				<line class="st3" x1="236.9" y1="403.9" x2="216.4" y2="389.2"/>
			</g>
			<g>
				<line class="st3" x1="187.4" y1="386.6" x2="207.7" y2="401.3"/>
				<line class="st3" x1="189.5" y1="383.6" x2="209.9" y2="398.3"/>
				<line class="st3" x1="214.3" y1="392.2" x2="193.9" y2="377.5"/>
				<line class="st3" x1="191.8" y1="380.5" x2="212.1" y2="395.2"/>
				<line class="st3" x1="216.4" y1="389.2" x2="196.1" y2="374.5"/>
			</g>
			<g>
				<line class="st3" x1="167" y1="371.9" x2="187.4" y2="386.6"/>
				<line class="st3" x1="169.2" y1="368.9" x2="189.5" y2="383.6"/>
				<line class="st3" x1="193.9" y1="377.5" x2="173.6" y2="362.8"/>
				<line class="st3" x1="171.4" y1="365.8" x2="191.8" y2="380.5"/>
				<line class="st3" x1="196.1" y1="374.5" x2="175.7" y2="359.8"/>
			</g>
			<g>
				<line class="st3" x1="146.7" y1="357.2" x2="167" y2="371.9"/>
				<line class="st3" x1="148.8" y1="354.2" x2="169.2" y2="368.9"/>
				<line class="st3" x1="173.6" y1="362.8" x2="153.2" y2="348.1"/>
				<line class="st3" x1="151.1" y1="351.1" x2="171.4" y2="365.8"/>
				<line class="st3" x1="175.7" y1="359.8" x2="155.4" y2="345.1"/>
			</g>
			<g>
				<line class="st3" x1="126.2" y1="342.4" x2="146.7" y2="357.2"/>
				<line class="st3" x1="128.4" y1="339.4" x2="148.8" y2="354.2"/>
				<line class="st3" x1="153.2" y1="348.1" x2="132.8" y2="333.4"/>
				<line class="st3" x1="130.6" y1="336.4" x2="151.1" y2="351.1"/>
				<line class="st3" x1="155.4" y1="345.1" x2="134.9" y2="330.4"/>
			</g>
			<g>
				<line class="st3" x1="105.9" y1="327.8" x2="126.2" y2="342.4"/>
				<line class="st3" x1="108" y1="324.8" x2="128.4" y2="339.4"/>
				<line class="st3" x1="132.8" y1="333.4" x2="112.4" y2="318.7"/>
				<line class="st3" x1="110.3" y1="321.7" x2="130.6" y2="336.4"/>
				<line class="st3" x1="134.9" y1="330.4" x2="114.6" y2="315.7"/>
			</g>
			<g>
				<path class="st3" d="M84.4,311.4l1.5,1.5c0.5,0.5,1.1,0.9,1.6,1.4l1.6,1.3l0.9,0.6l0.6,0.5l5.1,3.7l10.2,7.4"/>
				<path class="st3" d="M86.9,308.8l1.4,1.4c0.4,0.4,1,0.8,1.6,1.3l1.6,1.3l0.8,0.6l0.6,0.5l5.1,3.7l10.2,7.4"/>
				<path class="st3" d="M112.4,318.7l-10.1-7.3l-5.1-3.7c-0.8-0.6-1.7-1.4-2.5-2c-0.4-0.3-0.9-0.6-1.2-1l-1.2-1.1"/>
				<path class="st3" d="M89.6,306.1l1.3,1.3c0.4,0.4,0.9,0.8,1.4,1.1l1.4,1.1l0.7,0.5l0.6,0.5l5.1,3.7l10.2,7.4"/>
				<path class="st3" d="M114.6,315.7l-10.1-7.3l-5.1-3.7c-0.4-0.3-0.8-0.6-1.2-0.9l-1.2-1c-0.4-0.3-0.8-0.6-1.2-1l-1.1-1"/>
			</g>
			<g>
				<path class="st3" d="M70.2,281.2c0.8,11.3,6,22.2,14.1,30.2"/>
				<path class="st3" d="M73.9,280.9c0.8,10.5,5.5,20.5,13,27.9"/>
				<path class="st3" d="M92.2,303.5c-6.2-6.1-10.2-14.5-10.8-23.2"/>
				<path class="st3" d="M77.6,280.6c0.7,9.6,5.1,18.9,12,25.6"/>
				<path class="st3" d="M94.8,300.9c-5.6-5.5-9.2-13.1-9.8-20.9"/>
			</g>
			<g>
				<path class="st3" d="M79.1,249c-3.3,4.6-5.8,9.7-7.3,15.3c-1.5,5.5-2.1,11.2-1.6,16.9"/>
				<path class="st3" d="M82.1,251.2c-3,4.2-5.3,9.1-6.7,14.1c-1.4,5-1.9,10.3-1.5,15.6"/>
				<path class="st3" d="M81.3,280.3c-0.8-8.7,1.7-17.6,6.9-24.8"/>
				<path class="st3" d="M85.1,253.3c-2.8,3.9-4.9,8.3-6.1,13c-1.3,4.6-1.8,9.5-1.3,14.3"/>
				<path class="st3" d="M85,280c-0.6-7.8,1.6-15.9,6.2-22.3"/>
			</g>
			<g>
				<path class="st3" d="M106.8,230.4c-5.5,1.3-10.8,3.7-15.5,6.8c-4.7,3.1-8.9,7.2-12.2,11.8"/>
				<path class="st3" d="M107.7,234c-5.1,1.3-10,3.4-14.3,6.3c-4.3,2.9-8.2,6.6-11.3,10.8"/>
				<path class="st3" d="M88.2,255.6c5.1-7.1,12.8-12.2,21.3-14.3"/>
				<path class="st3" d="M108.6,237.6c-4.7,1.2-9.2,3.1-13.2,5.8c-4,2.7-7.5,6.1-10.4,9.9"/>
				<path class="st3" d="M91.2,257.7c4.6-6.4,11.5-11,19.2-12.9"/>
			</g>
			<g>
				<path class="st3" d="M140,234.4c-10.1-5.2-22.1-6.6-33.1-3.9"/>
				<path class="st3" d="M138.3,237.6c-9.4-4.8-20.5-6.1-30.6-3.6"/>
				<path class="st3" d="M109.5,241.2c8.5-2.2,17.7-1,25.5,3"/>
				<path class="st3" d="M136.6,240.9c-8.5-4.4-18.7-5.6-28-3.3"/>
				<path class="st3" d="M110.4,244.8c7.6-1.9,16-0.9,22.9,2.7"/>
			</g>
			<g>
				<path class="st3" d="M162.3,249.6l-10.1-7.3l-5.1-3.7l-0.6-0.5l-0.9-0.6l-1.8-1.1c-0.6-0.3-1.2-0.7-1.8-1.1l-1.9-1"/>
				<path class="st3" d="M160.1,252.6l-10.1-7.3l-5.1-3.7l-0.6-0.5l-0.8-0.6l-1.7-1.1c-0.6-0.4-1.1-0.8-1.7-1.1l-1.7-0.9"/>
				<path class="st3" d="M135,244.2l1.4,0.8c0.5,0.2,1,0.6,1.4,0.9c0.9,0.6,1.8,1.2,2.7,1.8l5.1,3.7l10.2,7.4"/>
				<path class="st3" d="M157.9,255.7l-10.1-7.3l-5.1-3.7l-0.6-0.5l-0.7-0.5l-1.5-1c-0.5-0.4-1-0.7-1.5-1l-1.6-0.8"/>
				<path class="st3" d="M133.3,247.5l1.3,0.7c0.5,0.2,0.9,0.5,1.3,0.8l1.3,0.8l0.6,0.4l0.6,0.5l5.1,3.7l10.2,7.4"/>
			</g>
			<g>
				<line class="st3" x1="182.6" y1="264.3" x2="162.3" y2="249.6"/>
				<line class="st3" x1="180.5" y1="267.3" x2="160.1" y2="252.6"/>
				<line class="st3" x1="155.7" y1="258.7" x2="176.1" y2="273.4"/>
				<line class="st3" x1="178.3" y1="270.4" x2="157.9" y2="255.7"/>
				<line class="st3" x1="153.6" y1="261.7" x2="173.9" y2="276.4"/>
			</g>
			<g>
				<line class="st3" x1="203.1" y1="279" x2="182.6" y2="264.3"/>
				<line class="st3" x1="200.9" y1="282" x2="180.5" y2="267.3"/>
				<line class="st3" x1="176.1" y1="273.4" x2="196.5" y2="288.1"/>
				<line class="st3" x1="198.7" y1="285.1" x2="178.3" y2="270.4"/>
				<line class="st3" x1="173.9" y1="276.4" x2="194.4" y2="291.1"/>
			</g>
			<g>
				<line class="st3" x1="223.4" y1="293.7" x2="203.1" y2="279"/>
				<line class="st3" x1="221.3" y1="296.7" x2="200.9" y2="282"/>
				<line class="st3" x1="196.5" y1="288.1" x2="216.9" y2="302.8"/>
				<line class="st3" x1="219" y1="299.8" x2="198.7" y2="285.1"/>
				<line class="st3" x1="194.4" y1="291.1" x2="214.7" y2="305.8"/>
			</g>
			<g>
				<line class="st3" x1="243.8" y1="308.4" x2="223.4" y2="293.7"/>
				<line class="st3" x1="241.6" y1="311.4" x2="221.3" y2="296.7"/>
				<line class="st3" x1="216.9" y1="302.8" x2="237.2" y2="317.5"/>
				<line class="st3" x1="239.4" y1="314.5" x2="219" y2="299.8"/>
				<line class="st3" x1="214.7" y1="305.8" x2="235.1" y2="320.5"/>
			</g>
			<g>
				<line class="st3" x1="264.1" y1="323.1" x2="243.8" y2="308.4"/>
				<line class="st3" x1="262" y1="326.1" x2="241.6" y2="311.4"/>
				<line class="st3" x1="237.2" y1="317.5" x2="257.6" y2="332.2"/>
				<line class="st3" x1="259.7" y1="329.2" x2="239.4" y2="314.5"/>
				<line class="st3" x1="235.1" y1="320.5" x2="255.4" y2="335.2"/>
			</g>
			<g>
				<line class="st3" x1="284.6" y1="337.8" x2="264.1" y2="323.1"/>
				<line class="st3" x1="282.4" y1="340.8" x2="262" y2="326.1"/>
				<line class="st3" x1="257.6" y1="332.2" x2="278" y2="346.9"/>
				<line class="st3" x1="280.2" y1="343.9" x2="259.7" y2="329.2"/>
				<line class="st3" x1="255.4" y1="335.2" x2="275.9" y2="349.9"/>
			</g>
			<g>
				<line class="st3" x1="304.9" y1="352.5" x2="284.6" y2="337.8"/>
				<line class="st3" x1="302.8" y1="355.5" x2="282.4" y2="340.8"/>
				<line class="st3" x1="278" y1="346.9" x2="298.4" y2="361.6"/>
				<line class="st3" x1="300.5" y1="358.6" x2="280.2" y2="343.9"/>
				<line class="st3" x1="275.9" y1="349.9" x2="296.2" y2="364.6"/>
			</g>
			<g>
				<path class="st3" d="M326.4,368.9l-1.5-1.5c-0.5-0.5-1.1-0.9-1.6-1.4l-1.6-1.3l-0.9-0.6l-0.6-0.5l-5.1-3.7l-10.2-7.4"/>
				<path class="st3" d="M323.8,371.5l-1.4-1.4c-0.4-0.4-1-0.8-1.6-1.3l-1.6-1.3l-0.8-0.6l-0.6-0.5l-5.1-3.7l-10.2-7.4"/>
				<path class="st3" d="M298.4,361.6l10.2,7.4l5.1,3.7c0.8,0.6,1.7,1.4,2.5,2c0.4,0.3,0.9,0.6,1.2,1l1.2,1.1"/>
				<path class="st3" d="M321.2,374.2l-1.3-1.3c-0.4-0.4-0.9-0.8-1.4-1.1l-1.4-1.1l-0.7-0.5l-0.6-0.5l-5.1-3.7l-10.2-7.4"/>
				<path class="st3" d="M296.2,364.6l10.2,7.4l5.1,3.7c0.4,0.3,0.8,0.6,1.2,0.9l1.2,1c0.4,0.3,0.8,0.6,1.2,1l1.1,1"/>
			</g>
			<g>
				<path class="st3" d="M340.6,399.1c-0.8-11.3-6-22.2-14.1-30.2"/>
				<path class="st3" d="M336.9,399.4c-0.8-10.5-5.5-20.5-13-27.9"/>
				<path class="st3" d="M318.6,376.7c6.2,6.1,10.2,14.5,10.8,23.2"/>
				<path class="st3" d="M333.2,399.7c-0.7-9.6-5.1-18.9-12-25.6"/>
				<path class="st3" d="M316,379.4c5.6,5.5,9.2,13.1,9.8,20.9"/>
			</g>
			<g>
				<path class="st3" d="M331.7,431.3c3.3-4.6,5.8-9.7,7.3-15.3c1.5-5.5,2.1-11.2,1.6-16.9"/>
				<path class="st3" d="M328.7,429.1c3-4.2,5.3-9.1,6.7-14.1c1.4-5,1.9-10.3,1.5-15.6"/>
				<path class="st3" d="M329.5,400c0.8,8.7-1.7,17.6-6.9,24.8"/>
				<path class="st3" d="M325.6,426.9c2.8-3.9,4.9-8.3,6.1-13c1.3-4.6,1.8-9.5,1.3-14.3"/>
				<path class="st3" d="M325.8,400.3c0.6,7.8-1.6,15.9-6.2,22.3"/>
			</g>
		</g>
	</g>
</g>
</svg>
