<?xml version="1.0" encoding="utf-8"?>
<!-- Generator: Adobe Illustrator 22.0.0, SVG Export Plug-In . SVG Version: 6.00 Build 0)  -->
<svg version="1.1" id="Layer_1" xmlns="http://www.w3.org/2000/svg" xmlns:xlink="http://www.w3.org/1999/xlink" x="0px" y="0px"
	 viewBox="0 0 512 512" style="enable-background:new 0 0 512 512;" xml:space="preserve">
<style type="text/css">
	.st0{fill:#600094;}
	.st1{fill:none;stroke:#6F6F6F;}
	.st2{fill:#FF0AAF;}
	.st3{fill:none;stroke:#FF60CB;}
</style>
<g>
	<circle class="st0" cx="257" cy="256.3" r="240.5"/>
	<g>
		<g>
			<g>
				<path class="st1" d="M5.2,229.8c-0.4,4.4-0.7,8.8-1,13.2l-0.3,13.2"/>
				<path class="st1" d="M8.9,230.1c-0.4,4.3-0.7,8.7-1,13l-0.3,13"/>
				<path class="st1" d="M15,256.3l0.3-12.7c0.3-4.2,0.6-8.4,1-12.6"/>
				<path class="st1" d="M12.6,230.5c-0.4,4.3-0.7,8.6-1,12.8l-0.3,12.9"/>
				<path class="st1" d="M18.7,256.3l0.3-12.5c0.3-4.1,0.6-8.3,1-12.4"/>
			</g>
			<g>
				<path class="st1" d="M9.4,203.6L9,205.3l-0.3,1.6l-0.6,3.3l-1.2,6.5c-0.7,4.4-1.1,8.8-1.7,13.1"/>
				<path class="st1" d="M13,204.4l-0.4,1.6l-0.3,1.6l-0.6,3.2l-1.1,6.4c-0.7,4.3-1.1,8.6-1.7,12.9"/>
				<path class="st1" d="M16.3,231c0.6-4.2,1-8.4,1.6-12.6l1.1-6.2l0.6-3.1l0.3-1.6l0.4-1.5"/>
				<path class="st1" d="M16.6,205.1l-0.4,1.6l-0.3,1.6l-0.6,3.2l-1.1,6.3c-0.6,4.2-1.1,8.5-1.7,12.8"/>
				<path class="st1" d="M20,231.4c0.5-4.1,1-8.3,1.6-12.4l1.1-6.1l0.5-3.1l0.3-1.5l0.4-1.5"/>
			</g>
			<g>
				<path class="st1" d="M16.2,178l-1.1,3.1l-0.9,3.2l-1.8,6.4c-0.6,2.1-1.1,4.3-1.6,6.4l-1.5,6.5"/>
				<path class="st1" d="M19.7,179.1l-1,3.1l-0.9,3.1l-1.8,6.3c-0.6,2.1-1.1,4.2-1.6,6.3l-1.5,6.4"/>
				<path class="st1" d="M20.2,206l1.4-6.2c0.5-2.1,0.9-4.1,1.5-6.1l1.7-6.1l0.9-3l1-3"/>
				<path class="st1" d="M23.3,180.4l-1,3.1l-0.9,3.1l-1.8,6.2c-0.6,2.1-1.1,4.2-1.6,6.2l-1.4,6.3"/>
				<path class="st1" d="M23.9,206.6l1.4-6.1c0.5-2,0.9-4.1,1.5-6.1l1.7-6l0.9-3l1-3"/>
			</g>
			<g>
				<path class="st1" d="M25.7,153.3c-1.9,4-3.5,8.1-5.1,12.2l-1.2,3.1c-0.4,1-0.7,2.1-1.1,3.1l-2.1,6.3"/>
				<path class="st1" d="M29.1,154.8c-1.9,3.9-3.4,8-5,12.1l-1.2,3c-0.4,1-0.7,2.1-1.1,3.1l-2.1,6.2"/>
				<path class="st1" d="M26.8,181.5l2-6c0.4-1,0.6-2,1-3l1.2-2.9c1.6-3.9,3-7.9,4.9-11.7"/>
				<path class="st1" d="M32.5,156.3c-1.8,3.9-3.4,7.9-4.9,11.9l-1.2,3c-0.4,1-0.7,2-1.1,3l-2.1,6.1"/>
				<path class="st1" d="M30.3,182.5l2-5.9c0.3-1,0.6-2,1-2.9l1.1-2.9c1.5-3.9,3-7.8,4.8-11.5"/>
			</g>
			<g>
				<path class="st1" d="M37.8,129.6l-3.3,5.7l-3,5.9c-1,2-2,3.9-3,5.9l-2.7,6"/>
				<path class="st1" d="M41,131.5l-3.3,5.7l-3,5.8c-1,1.9-2,3.9-2.9,5.8l-2.7,6"/>
				<path class="st1" d="M35.9,157.9l2.6-5.8c0.9-1.9,1.9-3.8,2.9-5.7l2.9-5.6l3.2-5.5"/>
				<path class="st1" d="M44.2,133.4L41,139l-2.9,5.7c-1,1.9-2,3.8-2.9,5.7l-2.7,5.9"/>
				<path class="st1" d="M39.3,159.4l2.6-5.7c0.9-1.9,1.9-3.7,2.8-5.6l2.9-5.6l3.1-5.4"/>
			</g>
			<g>
				<path class="st1" d="M52.2,107.5c-2.5,3.6-5.2,7.1-7.5,10.9l-3.6,5.6c-1.2,1.9-2.2,3.8-3.4,5.7"/>
				<path class="st1" d="M55.2,109.7c-2.5,3.6-5.1,7-7.4,10.8l-3.5,5.5c-1.2,1.8-2.2,3.8-3.3,5.6"/>
				<path class="st1" d="M47.4,135.3c1.1-1.8,2.1-3.7,3.2-5.5l3.4-5.3c2.2-3.6,4.7-7,7.2-10.4"/>
				<path class="st1" d="M58.2,111.9c-2.5,3.5-5,6.9-7.3,10.6l-3.5,5.4c-1.2,1.8-2.2,3.7-3.3,5.5"/>
				<path class="st1" d="M50.6,137.1c1.1-1.8,2-3.6,3.2-5.4l3.4-5.3c2.2-3.6,4.7-6.9,7.1-10.3"/>
			</g>
			<g>
				<path class="st1" d="M68.9,86.9l-4.3,5c-1.4,1.7-2.9,3.3-4.3,5.1l-4.1,5.2l-2,2.6l-1.9,2.7"/>
				<path class="st1" d="M71.6,89.4l-4.3,4.9c-1.4,1.7-2.9,3.3-4.2,5l-4,5.1l-2,2.6l-1.9,2.7"/>
				<path class="st1" d="M61.2,114l1.8-2.6l2-2.5l3.9-5c1.3-1.7,2.7-3.3,4.1-4.9l4.1-4.8"/>
				<path class="st1" d="M74.4,91.9l-4.2,4.9c-1.4,1.6-2.8,3.2-4.1,4.9l-4,5.1l-2,2.5l-1.9,2.6"/>
				<path class="st1" d="M64.2,116.2l1.8-2.5l1.9-2.5l3.9-4.9c1.3-1.7,2.7-3.2,4-4.8l4.1-4.7"/>
			</g>
			<g>
				<path class="st1" d="M87.6,68.2c-3.3,3-6.4,6.1-9.6,9.1c-3,3.2-6.1,6.4-9.1,9.6"/>
				<path class="st1" d="M90.1,70.9c-3.2,2.9-6.3,6-9.5,9c-3,3.2-6,6.3-9,9.5"/>
				<path class="st1" d="M77.1,94.4c2.8-3.1,5.8-6.1,8.7-9.2c3.1-2.9,6.1-5.9,9.2-8.7"/>
				<path class="st1" d="M92.6,73.7c-3.2,2.9-6.2,5.9-9.3,8.8c-2.9,3.1-6,6.2-8.8,9.3"/>
				<path class="st1" d="M79.9,96.8c2.8-3.1,5.7-6,8.6-9.1c3-2.9,6-5.8,9.1-8.6"/>
			</g>
			<g>
				<path class="st1" d="M108.2,51.5l-2.7,1.9l-2.6,2l-5.2,4.1c-1.8,1.3-3.4,2.8-5.1,4.3l-5,4.3"/>
				<path class="st1" d="M110.4,54.5l-2.7,1.9l-2.6,2l-5.1,4c-1.7,1.3-3.3,2.8-5,4.2l-4.9,4.3"/>
				<path class="st1" d="M95.1,76.4l4.8-4.1c1.6-1.4,3.2-2.8,4.9-4.1l5-3.9l2.5-2l2.6-1.8"/>
				<path class="st1" d="M112.6,57.5l-2.6,1.9l-2.5,2l-5.1,4c-1.7,1.3-3.3,2.7-4.9,4.1l-4.9,4.2"/>
				<path class="st1" d="M97.5,79.2l4.7-4.1c1.6-1.4,3.1-2.8,4.8-4l4.9-3.9l2.5-1.9l2.5-1.8"/>
			</g>
			<g>
				<path class="st1" d="M130.4,37c-1.9,1.1-3.9,2.2-5.7,3.4l-5.6,3.6c-3.8,2.3-7.3,5-10.9,7.5"/>
				<path class="st1" d="M132.3,40.3c-1.9,1.1-3.8,2.1-5.6,3.3l-5.5,3.5c-3.7,2.3-7.2,4.9-10.8,7.4"/>
				<path class="st1" d="M114.8,60.5c3.5-2.4,6.8-5,10.4-7.2l5.3-3.4c1.8-1.1,3.6-2.1,5.5-3.2"/>
				<path class="st1" d="M134.1,43.5c-1.8,1.1-3.7,2.1-5.5,3.3l-5.4,3.5c-3.7,2.2-7.1,4.8-10.6,7.3"/>
				<path class="st1" d="M116.9,63.5c3.4-2.4,6.7-4.9,10.3-7.1l5.3-3.4c1.7-1.1,3.6-2.1,5.4-3.2"/>
			</g>
			<g>
				<path class="st1" d="M154,25l-6,2.7c-2,0.9-3.9,2-5.9,3l-5.9,3l-5.7,3.3"/>
				<path class="st1" d="M155.5,28.4l-6,2.7c-2,0.9-3.9,2-5.8,2.9l-5.8,3l-5.7,3.3"/>
				<path class="st1" d="M136,46.7l5.5-3.2l5.6-2.9c1.9-0.9,3.7-2,5.7-2.9l5.8-2.6"/>
				<path class="st1" d="M157,31.8l-5.9,2.7c-1.9,0.9-3.8,1.9-5.7,2.9l-5.7,2.9l-5.6,3.2"/>
				<path class="st1" d="M137.9,49.9l5.4-3.1l5.6-2.9c1.9-0.9,3.7-1.9,5.6-2.8l5.7-2.6"/>
			</g>
			<g>
				<path class="st1" d="M178.8,15.5l-6.3,2.1c-1,0.4-2.1,0.7-3.1,1.1l-3.1,1.2c-4.1,1.6-8.2,3.2-12.2,5.1"/>
				<path class="st1" d="M179.9,19l-6.2,2.1c-1,0.4-2.1,0.7-3.1,1.1l-3,1.2c-4,1.6-8.1,3.1-12.1,5"/>
				<path class="st1" d="M158.6,35.2c3.8-1.8,7.8-3.3,11.7-4.9l2.9-1.2c1-0.4,2-0.7,3-1l6-2"/>
				<path class="st1" d="M181.1,22.5l-6.1,2.1c-1,0.4-2,0.7-3,1.1l-3,1.2c-4,1.6-8,3.1-11.9,4.9"/>
				<path class="st1" d="M160.1,38.5c3.8-1.8,7.7-3.3,11.5-4.8l2.9-1.1c1-0.4,2-0.7,2.9-1l5.9-2"/>
			</g>
			<g>
				<path class="st1" d="M204.4,8.7l-6.5,1.5c-2.2,0.5-4.3,1-6.4,1.6l-6.4,1.8l-3.2,0.9l-3.1,1.1"/>
				<path class="st1" d="M205.1,12.3l-6.4,1.5c-2.1,0.5-4.3,0.9-6.3,1.6l-6.3,1.8L183,18l-3.1,1"/>
				<path class="st1" d="M182.2,26l3-1l3-0.9l6.1-1.7c2-0.6,4.1-1.1,6.1-1.5l6.2-1.4"/>
				<path class="st1" d="M205.9,15.9l-6.3,1.4c-2.1,0.5-4.2,0.9-6.2,1.6l-6.2,1.8l-3.1,0.9l-3.1,1"/>
				<path class="st1" d="M183.3,29.5l3-1l3-0.9l6-1.7c2-0.6,4-1,6.1-1.5l6.1-1.4"/>
			</g>
			<g>
				<path class="st1" d="M230.5,4.5c-4.4,0.6-8.8,1.1-13.1,1.7l-6.5,1.2L207.6,8L206,8.3l-1.6,0.4"/>
				<path class="st1" d="M230.9,8.2c-4.3,0.6-8.6,1-12.9,1.7l-6.4,1.1l-3.2,0.6l-1.6,0.3l-1.6,0.4"/>
				<path class="st1" d="M206.7,19.5l1.5-0.4l1.6-0.3l3.1-0.6l6.2-1.1c4.2-0.6,8.4-1.1,12.6-1.6"/>
				<path class="st1" d="M231.3,11.9c-4.3,0.6-8.5,1-12.8,1.7l-6.3,1.1l-3.2,0.6l-1.6,0.3l-1.6,0.4"/>
				<path class="st1" d="M207.4,23.2l1.5-0.4l1.5-0.3l3.1-0.5l6.1-1.1c4.1-0.6,8.2-1.1,12.4-1.6"/>
			</g>
			<g>
				<path class="st1" d="M257,3l-13.2,0.3c-4.4,0.3-8.8,0.6-13.2,1"/>
				<path class="st1" d="M257,6.8L244,7c-4.3,0.3-8.7,0.6-13,1"/>
				<path class="st1" d="M231.7,15.5c4.2-0.4,8.4-0.7,12.6-1l12.7-0.3"/>
				<path class="st1" d="M257,10.5l-12.9,0.3c-4.3,0.3-8.6,0.6-12.8,1"/>
				<path class="st1" d="M232.1,19.3c4.1-0.4,8.3-0.6,12.4-1L257,18"/>
			</g>
			<g>
				<path class="st1" d="M283.5,4.5c-4.4-0.4-8.8-0.7-13.2-1l-13.2-0.3"/>
				<path class="st1" d="M283.1,8.2c-4.3-0.4-8.7-0.7-13-1l-13-0.3"/>
				<path class="st1" d="M257,14.3l12.7,0.3c4.2,0.3,8.4,0.6,12.6,1"/>
				<path class="st1" d="M282.7,11.9c-4.3-0.4-8.6-0.7-12.8-1L257,10.6"/>
				<path class="st1" d="M257,18l12.5,0.3c4.1,0.3,8.3,0.6,12.4,1"/>
			</g>
			<g>
				<path class="st1" d="M309.6,8.7L308,8.3L306.4,8l-3.3-0.6l-6.5-1.2c-4.4-0.7-8.8-1.1-13.1-1.7"/>
				<path class="st1" d="M308.9,12.3l-1.6-0.4l-1.6-0.3l-3.2-0.6l-6.4-1.1c-4.3-0.7-8.6-1.1-12.9-1.7"/>
				<path class="st1" d="M282.3,15.5c4.2,0.6,8.4,1,12.6,1.6l6.2,1.1l3.1,0.6l1.6,0.3l1.5,0.4"/>
				<path class="st1" d="M308.1,15.9l-1.6-0.4l-1.6-0.3l-3.2-0.6l-6.3-1.1c-4.2-0.6-8.5-1.1-12.8-1.7"/>
				<path class="st1" d="M281.9,19.3c4.1,0.5,8.3,1,12.4,1.6l6.1,1.1l3.1,0.5l1.5,0.3l1.5,0.4"/>
			</g>
			<g>
				<path class="st1" d="M335.2,15.5l-3.1-1.1l-3.2-0.9l-6.4-1.8c-2.1-0.6-4.3-1.1-6.4-1.6l-6.5-1.5"/>
				<path class="st1" d="M334.1,19l-3.1-1l-3.1-0.9l-6.3-1.8c-2.1-0.6-4.2-1.1-6.3-1.6l-6.4-1.5"/>
				<path class="st1" d="M307.3,19.5l6.2,1.4c2.1,0.5,4.1,0.9,6.1,1.5l6.1,1.7l3,0.9l3,1"/>
				<path class="st1" d="M332.9,22.5l-3.1-1l-3.1-0.9l-6.2-1.8c-2.1-0.6-4.2-1.1-6.2-1.6l-6.3-1.4"/>
				<path class="st1" d="M306.6,23.2l6.1,1.4c2,0.5,4.1,0.9,6.1,1.5l6,1.7l3,0.9l3,1"/>
			</g>
			<g>
				<path class="st1" d="M360,25c-4-1.9-8.1-3.5-12.2-5.1l-3.1-1.2c-1-0.4-2.1-0.7-3.1-1.1l-6.3-2.1"/>
				<path class="st1" d="M358.5,28.4c-3.9-1.9-8-3.4-12.1-5l-3-1.2c-1-0.4-2.1-0.7-3.1-1.1l-6.2-2.1"/>
				<path class="st1" d="M331.8,26l6,2c1,0.4,2,0.6,3,1l2.9,1.2c3.9,1.6,7.9,3,11.7,4.9"/>
				<path class="st1" d="M357,31.8c-3.9-1.8-7.9-3.4-11.9-4.9l-3-1.2c-1-0.4-2-0.7-3-1.1l-6.1-2.1"/>
				<path class="st1" d="M330.7,29.5l5.9,2c1,0.3,2,0.6,2.9,1l2.9,1.1c3.9,1.5,7.8,3,11.5,4.8"/>
			</g>
			<g>
				<path class="st1" d="M383.6,37l-5.7-3.3l-5.9-3c-2-1-3.9-2-5.9-3l-6-2.7"/>
				<path class="st1" d="M381.7,40.3L376,37l-5.8-3c-1.9-1-3.9-2-5.8-2.9l-6-2.7"/>
				<path class="st1" d="M355.4,35.2l5.8,2.6c1.9,0.9,3.8,1.9,5.7,2.9l5.6,2.9l5.5,3.2"/>
				<path class="st1" d="M379.9,43.5l-5.6-3.2l-5.7-2.9c-1.9-1-3.8-2-5.7-2.9l-5.9-2.7"/>
				<path class="st1" d="M353.9,38.5l5.7,2.6c1.9,0.9,3.7,1.9,5.6,2.8l5.6,2.9l5.4,3.1"/>
			</g>
			<g>
				<path class="st1" d="M405.8,51.5c-3.6-2.5-7.1-5.2-10.9-7.5l-5.6-3.6c-1.9-1.2-3.8-2.2-5.7-3.4"/>
				<path class="st1" d="M403.6,54.5c-3.6-2.5-7-5.1-10.8-7.4l-5.5-3.5c-1.8-1.2-3.8-2.2-5.6-3.3"/>
				<path class="st1" d="M378,46.7c1.8,1.1,3.7,2.1,5.5,3.2l5.3,3.4c3.6,2.2,7,4.7,10.4,7.2"/>
				<path class="st1" d="M401.4,57.5c-3.5-2.5-6.9-5-10.6-7.3l-5.4-3.5c-1.8-1.2-3.7-2.2-5.5-3.3"/>
				<path class="st1" d="M376.1,49.9c1.8,1.1,3.6,2,5.4,3.2l5.3,3.4c3.6,2.2,6.9,4.7,10.3,7.1"/>
			</g>
			<g>
				<path class="st1" d="M426.4,68.2l-5-4.3c-1.7-1.4-3.3-2.9-5.1-4.3l-5.2-4.1l-2.6-2l-2.7-1.9"/>
				<path class="st1" d="M423.9,70.9l-4.9-4.3c-1.7-1.4-3.3-2.9-5-4.2l-5.1-4l-2.6-2l-2.7-1.9"/>
				<path class="st1" d="M399.2,60.5l2.6,1.8l2.5,2l5,3.9c1.7,1.3,3.3,2.7,4.9,4.1l4.8,4.1"/>
				<path class="st1" d="M421.4,73.7l-4.9-4.2c-1.6-1.4-3.2-2.8-4.9-4.1l-5.1-4l-2.5-2l-2.6-1.9"/>
				<path class="st1" d="M397.1,63.5l2.5,1.8l2.5,1.9L407,71c1.7,1.3,3.2,2.7,4.8,4l4.7,4.1"/>
			</g>
			<g>
				<path class="st1" d="M445.1,86.9c-3-3.3-6.1-6.4-9.1-9.6c-3.2-3-6.4-6.1-9.6-9.1"/>
				<path class="st1" d="M442.4,89.4c-2.9-3.2-6-6.3-9-9.5c-3.2-3-6.3-6-9.5-9"/>
				<path class="st1" d="M418.9,76.4c3.1,2.8,6.1,5.8,9.2,8.7c2.9,3.1,5.9,6.1,8.7,9.2"/>
				<path class="st1" d="M439.6,91.9c-2.9-3.2-5.9-6.2-8.8-9.3c-3.1-2.9-6.2-6-9.3-8.8"/>
				<path class="st1" d="M416.5,79.2c3.1,2.8,6,5.7,9.1,8.6c2.9,3,5.8,6,8.6,9.1"/>
			</g>
			<g>
				<path class="st1" d="M461.8,107.5l-1.9-2.7l-2-2.6l-4.1-5.2c-1.3-1.8-2.8-3.4-4.3-5.1l-4.3-5"/>
				<path class="st1" d="M458.8,109.7l-1.9-2.7l-2-2.6l-4-5.1c-1.3-1.7-2.8-3.3-4.2-5l-4.3-4.9"/>
				<path class="st1" d="M436.9,94.4l4.1,4.8c1.4,1.6,2.8,3.2,4.1,4.9l3.9,5l2,2.5l1.8,2.6"/>
				<path class="st1" d="M455.8,111.9l-1.9-2.6l-2-2.5l-4-5.1c-1.3-1.7-2.7-3.3-4.1-4.9l-4.2-4.9"/>
				<path class="st1" d="M434.1,96.8l4.1,4.7c1.4,1.6,2.8,3.1,4,4.8l3.9,4.9l1.9,2.5l1.8,2.5"/>
			</g>
			<g>
				<path class="st1" d="M476.2,129.6c-1.1-1.9-2.2-3.9-3.4-5.7l-3.6-5.6c-2.3-3.8-5-7.3-7.5-10.9"/>
				<path class="st1" d="M473,131.5c-1.1-1.9-2.1-3.8-3.3-5.6l-3.5-5.5c-2.3-3.7-4.9-7.2-7.4-10.8"/>
				<path class="st1" d="M452.8,114c2.4,3.5,5,6.8,7.2,10.4l3.4,5.3c1.1,1.8,2.1,3.6,3.2,5.5"/>
				<path class="st1" d="M469.8,133.4c-1.1-1.8-2.1-3.7-3.3-5.5l-3.5-5.4c-2.2-3.7-4.8-7.1-7.3-10.6"/>
				<path class="st1" d="M449.8,116.2c2.4,3.4,4.9,6.7,7.1,10.3l3.4,5.3c1.1,1.7,2.1,3.6,3.2,5.4"/>
			</g>
			<g>
				<path class="st1" d="M488.3,153.3l-2.7-6c-0.9-2-2-3.9-3-5.9l-3-5.9l-3.3-5.7"/>
				<path class="st1" d="M484.9,154.8l-2.7-6c-0.9-2-2-3.9-2.9-5.8l-3-5.8l-3.3-5.7"/>
				<path class="st1" d="M466.6,135.3l3.2,5.5l2.9,5.6c0.9,1.9,2,3.7,2.9,5.7l2.6,5.8"/>
				<path class="st1" d="M481.5,156.3l-2.7-5.9c-0.9-1.9-1.9-3.8-2.9-5.7l-2.9-5.7l-3.2-5.6"/>
				<path class="st1" d="M463.4,137.1l3.1,5.4l2.9,5.6c0.9,1.9,1.9,3.7,2.8,5.6l2.6,5.7"/>
			</g>
			<g>
				<path class="st1" d="M497.8,178l-2.1-6.3c-0.4-1-0.7-2.1-1.1-3.1l-1.2-3.1c-1.6-4.1-3.2-8.2-5.1-12.2"/>
				<path class="st1" d="M494.3,179.1l-2.1-6.2c-0.4-1-0.7-2.1-1.1-3.1l-1.2-3c-1.6-4-3.1-8.1-5-12.1"/>
				<path class="st1" d="M478.1,157.9c1.8,3.8,3.3,7.8,4.9,11.7l1.2,2.9c0.4,1,0.7,2,1,3l2,6"/>
				<path class="st1" d="M490.7,180.4l-2.1-6.1c-0.4-1-0.7-2-1.1-3l-1.2-3c-1.6-4-3.1-8-4.9-11.9"/>
				<path class="st1" d="M474.7,159.4c1.8,3.8,3.3,7.7,4.8,11.5l1.1,2.9c0.4,1,0.7,2,1,2.9l2,5.9"/>
			</g>
			<g>
				<path class="st1" d="M504.6,203.6l-1.5-6.5c-0.5-2.2-1-4.3-1.6-6.4l-1.8-6.4l-0.9-3.2l-1.1-3.1"/>
				<path class="st1" d="M501,204.4l-1.5-6.4c-0.5-2.1-0.9-4.3-1.6-6.3l-1.8-6.3l-0.9-3.1l-1-3.1"/>
				<path class="st1" d="M487.2,181.5l1,3l0.9,3l1.7,6.1c0.6,2,1.1,4.1,1.5,6.1l1.4,6.2"/>
				<path class="st1" d="M497.4,205.1l-1.4-6.3c-0.5-2.1-0.9-4.2-1.6-6.2l-1.8-6.2l-0.9-3.1l-1-3.1"/>
				<path class="st1" d="M483.7,182.5l1,3l0.9,3l1.7,6c0.6,2,1,4,1.5,6.1l1.4,6.1"/>
			</g>
			<g>
				<path class="st1" d="M508.8,229.8c-0.6-4.4-1.1-8.8-1.7-13.1l-1.2-6.5l-0.6-3.3l-0.3-1.6l-0.4-1.6"/>
				<path class="st1" d="M505.1,230.1c-0.6-4.3-1-8.6-1.7-12.9l-1.1-6.4l-0.6-3.2l-0.3-1.6l-0.4-1.6"/>
				<path class="st1" d="M493.8,206l0.4,1.5l0.3,1.6l0.6,3.1l1.1,6.2c0.6,4.2,1.1,8.4,1.6,12.6"/>
				<path class="st1" d="M501.4,230.5c-0.6-4.3-1-8.5-1.7-12.8l-1.1-6.3l-0.6-3.2l-0.3-1.6l-0.4-1.6"/>
				<path class="st1" d="M490.1,206.6l0.4,1.5l0.3,1.5l0.5,3.1l1.1,6.1c0.6,4.1,1.1,8.2,1.6,12.4"/>
			</g>
			<g>
				<path class="st1" d="M510.2,256.3l-0.3-13.2c-0.3-4.4-0.6-8.8-1-13.2"/>
				<path class="st1" d="M506.5,256.3l-0.3-13c-0.3-4.3-0.6-8.7-1-13"/>
				<path class="st1" d="M497.7,231c0.4,4.2,0.7,8.4,1,12.6l0.3,12.7"/>
				<path class="st1" d="M502.7,256.3l-0.3-12.9c-0.3-4.3-0.6-8.6-1-12.8"/>
				<path class="st1" d="M494,231.4c0.4,4.1,0.6,8.3,1,12.4l0.3,12.5"/>
			</g>
			<g>
				<path class="st1" d="M508.8,282.8c0.4-4.4,0.7-8.8,1-13.2l0.3-13.2"/>
				<path class="st1" d="M505.1,282.4c0.4-4.3,0.7-8.7,1-13l0.3-13"/>
				<path class="st1" d="M499,256.3l-0.3,12.7c-0.3,4.2-0.6,8.4-1,12.6"/>
				<path class="st1" d="M501.4,282c0.4-4.3,0.7-8.6,1-12.8l0.3-12.9"/>
				<path class="st1" d="M495.3,256.3l-0.3,12.5c-0.3,4.1-0.6,8.3-1,12.4"/>
			</g>
			<g>
				<path class="st1" d="M504.6,308.9l0.4-1.6l0.3-1.6l0.6-3.3l1.2-6.5c0.7-4.4,1.1-8.8,1.7-13.1"/>
				<path class="st1" d="M501,308.1l0.4-1.6l0.3-1.6l0.6-3.2l1.1-6.4c0.7-4.3,1.1-8.6,1.7-12.9"/>
				<path class="st1" d="M497.7,281.6c-0.6,4.2-1,8.4-1.6,12.6l-1.1,6.2l-0.6,3.1l-0.3,1.6l-0.4,1.5"/>
				<path class="st1" d="M497.4,307.4l0.4-1.6l0.3-1.6l0.6-3.2l1.1-6.3c0.6-4.2,1.1-8.5,1.7-12.8"/>
				<path class="st1" d="M494,281.1c-0.5,4.1-1,8.3-1.6,12.4l-1.1,6.1l-0.5,3.1l-0.3,1.5l-0.4,1.5"/>
			</g>
			<g>
				<path class="st1" d="M497.8,334.5l1.1-3.1l0.9-3.2l1.7-6.4c0.6-2.1,1.1-4.3,1.6-6.4l1.5-6.5"/>
				<path class="st1" d="M494.3,333.4l1-3.1l0.9-3.1l1.8-6.3c0.6-2.1,1.1-4.2,1.6-6.3l1.5-6.4"/>
				<path class="st1" d="M493.8,306.6l-1.4,6.2c-0.5,2.1-0.9,4.1-1.5,6.1l-1.7,6.1l-0.9,3l-1,3"/>
				<path class="st1" d="M490.7,332.1l1-3.1l0.9-3.1l1.8-6.2c0.6-2.1,1.1-4.2,1.6-6.2l1.4-6.3"/>
				<path class="st1" d="M490.1,305.9l-1.4,6.1c-0.5,2-0.9,4.1-1.5,6.1l-1.7,6l-0.9,3l-1,3"/>
			</g>
			<g>
				<path class="st1" d="M488.3,359.3c1.9-4,3.5-8.1,5.1-12.2l1.2-3.1c0.4-1,0.7-2.1,1.1-3.1l2.1-6.3"/>
				<path class="st1" d="M484.9,357.8c1.9-3.9,3.4-8,5-12.1l1.2-3c0.4-1,0.7-2.1,1.1-3.1l2.1-6.2"/>
				<path class="st1" d="M487.2,331.1l-2,6c-0.4,1-0.6,2-1,3L483,343c-1.6,3.9-3,7.9-4.9,11.7"/>
				<path class="st1" d="M481.5,356.3c1.8-3.9,3.4-7.9,4.9-11.9l1.2-3c0.4-1,0.7-2,1.1-3l2.1-6.1"/>
				<path class="st1" d="M483.7,330l-2,5.9c-0.3,1-0.6,2-1,2.9l-1.1,2.9c-1.5,3.9-3,7.8-4.8,11.5"/>
			</g>
			<g>
				<path class="st1" d="M476.2,382.9l3.3-5.7l3-5.9c1-2,2-3.9,3-5.9l2.7-6"/>
				<path class="st1" d="M473,381l3.3-5.7l3-5.8c1-1.9,2-3.9,2.9-5.8l2.7-6"/>
				<path class="st1" d="M478.1,354.6l-2.6,5.8c-0.9,1.9-1.9,3.8-2.9,5.7l-2.9,5.6l-3.2,5.5"/>
				<path class="st1" d="M469.8,379.1l3.2-5.6l2.9-5.7c1-1.9,2-3.8,2.9-5.7l2.7-5.9"/>
				<path class="st1" d="M474.7,353.1l-2.6,5.7c-0.9,1.9-1.9,3.7-2.8,5.6l-2.9,5.6l-3.1,5.4"/>
			</g>
			<g>
				<path class="st1" d="M461.8,405.1c2.5-3.6,5.2-7.1,7.5-10.9l3.6-5.6c1.2-1.9,2.2-3.8,3.4-5.7"/>
				<path class="st1" d="M458.8,402.9c2.5-3.6,5.1-7,7.4-10.8l3.5-5.5c1.2-1.8,2.2-3.8,3.3-5.6"/>
				<path class="st1" d="M466.6,377.3c-1.1,1.8-2.1,3.7-3.2,5.5l-3.4,5.3c-2.2,3.6-4.7,7-7.2,10.4"/>
				<path class="st1" d="M455.8,400.6c2.5-3.5,5-6.9,7.3-10.6l3.5-5.4c1.2-1.8,2.2-3.7,3.3-5.5"/>
				<path class="st1" d="M463.4,375.4c-1.1,1.8-2,3.6-3.2,5.4l-3.4,5.3c-2.2,3.6-4.7,6.9-7.1,10.3"/>
			</g>
			<g>
				<path class="st1" d="M445.1,425.6l4.3-5c1.4-1.7,2.9-3.3,4.3-5.1l4.1-5.2l2-2.6l1.9-2.7"/>
				<path class="st1" d="M442.4,423.1l4.3-4.9c1.4-1.7,2.9-3.3,4.2-5l4-5.1l2-2.6l1.9-2.7"/>
				<path class="st1" d="M452.8,398.5L451,401l-2,2.5l-3.9,5c-1.3,1.7-2.7,3.3-4.1,4.9l-4.1,4.8"/>
				<path class="st1" d="M439.6,420.6l4.2-4.9c1.4-1.6,2.8-3.2,4.1-4.9l4-5.1l2-2.5l1.9-2.6"/>
				<path class="st1" d="M449.8,396.4l-1.8,2.5l-1.9,2.5l-3.9,4.9c-1.3,1.7-2.7,3.2-4,4.8l-4.1,4.7"/>
			</g>
			<g>
				<path class="st1" d="M426.4,444.4c3.3-3,6.4-6.1,9.6-9.1c3-3.2,6.1-6.4,9.1-9.6"/>
				<path class="st1" d="M423.9,441.6c3.2-2.9,6.3-6,9.5-9c3-3.2,6-6.3,9-9.5"/>
				<path class="st1" d="M436.9,418.1c-2.8,3.1-5.8,6.1-8.7,9.2c-3.1,2.9-6.1,5.9-9.2,8.7"/>
				<path class="st1" d="M421.4,438.9c3.2-2.9,6.2-5.9,9.3-8.8c2.9-3.1,6-6.2,8.8-9.3"/>
				<path class="st1" d="M434.1,415.8c-2.8,3.1-5.7,6-8.6,9.1c-3,2.9-6,5.8-9.1,8.6"/>
			</g>
			<g>
				<path class="st1" d="M405.8,461.1l2.7-1.9l2.6-2l5.2-4.1c1.8-1.3,3.4-2.8,5.1-4.3l5-4.3"/>
				<path class="st1" d="M403.6,458.1l2.7-1.9l2.6-2l5.1-4c1.7-1.3,3.3-2.8,5-4.2l4.9-4.3"/>
				<path class="st1" d="M418.9,436.1l-4.8,4.1c-1.6,1.4-3.2,2.8-4.9,4.1l-5,3.9l-2.5,2l-2.6,1.8"/>
				<path class="st1" d="M401.4,455.1l2.6-1.9l2.5-2l5.1-4c1.7-1.3,3.3-2.7,4.9-4.1l4.9-4.2"/>
				<path class="st1" d="M416.5,433.4l-4.7,4.1c-1.6,1.4-3.1,2.8-4.8,4l-4.9,3.9l-2.5,1.9l-2.5,1.8"/>
			</g>
			<g>
				<path class="st1" d="M383.6,475.5c1.9-1.1,3.9-2.2,5.7-3.4l5.6-3.6c3.8-2.3,7.3-5,10.9-7.5"/>
				<path class="st1" d="M381.7,472.3c1.9-1.1,3.8-2.1,5.6-3.3l5.5-3.5c3.7-2.3,7.2-4.9,10.8-7.4"/>
				<path class="st1" d="M399.2,452.1c-3.5,2.4-6.8,5-10.4,7.2l-5.3,3.4c-1.8,1.1-3.6,2.1-5.5,3.2"/>
				<path class="st1" d="M379.9,469.1c1.8-1.1,3.7-2.1,5.5-3.3l5.4-3.5c3.7-2.2,7.1-4.8,10.6-7.3"/>
				<path class="st1" d="M397.1,449.1c-3.4,2.4-6.7,4.9-10.3,7.1l-5.3,3.4c-1.7,1.1-3.6,2.1-5.4,3.2"/>
			</g>
			<g>
				<path class="st1" d="M360,487.6l6-2.7c2-0.9,3.9-2,5.9-3l5.9-3l5.7-3.3"/>
				<path class="st1" d="M358.5,484.1l6-2.7c2-0.9,3.9-2,5.8-2.9l5.8-3l5.7-3.3"/>
				<path class="st1" d="M378,465.9l-5.5,3.2l-5.6,2.9c-1.9,0.9-3.7,2-5.7,2.9l-5.8,2.6"/>
				<path class="st1" d="M357,480.8l5.9-2.7c1.9-0.9,3.8-1.9,5.7-2.9l5.7-2.9l5.6-3.2"/>
				<path class="st1" d="M376.1,462.6l-5.4,3.1l-5.6,2.9c-1.9,0.9-3.7,1.9-5.6,2.8l-5.7,2.6"/>
			</g>
			<g>
				<path class="st1" d="M335.2,497.1l6.3-2.1c1-0.4,2.1-0.7,3.1-1.1l3.1-1.2c4.1-1.6,8.2-3.2,12.2-5.1"/>
				<path class="st1" d="M334.1,493.6l6.2-2.1c1-0.4,2.1-0.7,3.1-1.1l3-1.2c4-1.6,8.1-3.1,12.1-5"/>
				<path class="st1" d="M355.4,477.4c-3.8,1.8-7.8,3.3-11.7,4.9l-2.9,1.2c-1,0.4-2,0.7-3,1l-6,2"/>
				<path class="st1" d="M332.9,490l6.1-2.1c1-0.4,2-0.7,3-1.1l3-1.2c4-1.6,8-3.1,11.9-4.9"/>
				<path class="st1" d="M353.9,474c-3.8,1.8-7.7,3.3-11.5,4.8l-2.9,1.1c-1,0.4-2,0.7-2.9,1l-5.9,2"/>
			</g>
			<g>
				<path class="st1" d="M309.6,503.9l6.5-1.5c2.2-0.5,4.3-1,6.4-1.6l6.4-1.8l3.2-0.9l3.1-1.1"/>
				<path class="st1" d="M308.9,500.3l6.4-1.5c2.1-0.5,4.3-0.9,6.3-1.6l6.3-1.8l3.1-0.9l3.1-1"/>
				<path class="st1" d="M331.8,486.5l-3,1l-3,0.9l-6.1,1.7c-2,0.6-4.1,1.1-6.1,1.5l-6.2,1.4"/>
				<path class="st1" d="M308.1,496.6l6.3-1.4c2.1-0.5,4.2-0.9,6.2-1.6l6.2-1.8l3.1-0.9l3.1-1"/>
				<path class="st1" d="M330.7,483l-3,1l-3,0.9l-6,1.7c-2,0.6-4,1-6.1,1.5l-6.1,1.4"/>
			</g>
			<g>
				<path class="st1" d="M283.5,508.1c4.4-0.6,8.8-1.1,13.1-1.7l6.5-1.2l3.3-0.6l1.6-0.3l1.6-0.4"/>
				<path class="st1" d="M283.1,504.4c4.3-0.6,8.6-1,12.9-1.7l6.4-1.1l3.2-0.6l1.6-0.3l1.6-0.4"/>
				<path class="st1" d="M307.3,493.1l-1.5,0.4l-1.6,0.3l-3.1,0.6l-6.2,1.1c-4.2,0.6-8.4,1.1-12.6,1.6"/>
				<path class="st1" d="M282.7,500.6c4.3-0.6,8.5-1,12.8-1.7l6.3-1.1l3.2-0.6l1.6-0.3l1.6-0.4"/>
				<path class="st1" d="M306.6,489.4l-1.5,0.4l-1.5,0.3l-3.1,0.5l-6.1,1.1c-4.1,0.6-8.2,1.1-12.4,1.6"/>
			</g>
			<g>
				<path class="st1" d="M257,509.5l13.2-0.3c4.4-0.3,8.8-0.6,13.2-1"/>
				<path class="st1" d="M257,505.8l13-0.3c4.3-0.3,8.7-0.6,13-1"/>
				<path class="st1" d="M282.3,497c-4.2,0.4-8.4,0.7-12.6,1l-12.7,0.3"/>
				<path class="st1" d="M257,502l12.9-0.3c4.3-0.3,8.6-0.6,12.8-1"/>
				<path class="st1" d="M281.9,493.3c-4.1,0.4-8.3,0.6-12.4,1l-12.5,0.3"/>
			</g>
			<g>
				<path class="st1" d="M230.5,508.1c4.4,0.4,8.8,0.7,13.2,1l13.2,0.3"/>
				<path class="st1" d="M230.9,504.4c4.3,0.4,8.7,0.7,13,1l13,0.3"/>
				<path class="st1" d="M257,498.3l-12.7-0.3c-4.2-0.3-8.4-0.6-12.6-1"/>
				<path class="st1" d="M231.3,500.6c4.3,0.4,8.6,0.7,12.8,1L257,502"/>
				<path class="st1" d="M257,494.6l-12.5-0.3c-4.1-0.3-8.3-0.6-12.4-1"/>
			</g>
			<g>
				<path class="st1" d="M204.4,503.9l1.6,0.4l1.6,0.3l3.3,0.6l6.5,1.2c4.4,0.7,8.8,1.1,13.1,1.7"/>
				<path class="st1" d="M205.1,500.3l1.6,0.4l1.6,0.3l3.2,0.6l6.4,1.1c4.3,0.7,8.6,1.1,12.9,1.7"/>
				<path class="st1" d="M231.7,497c-4.2-0.6-8.4-1-12.6-1.6l-6.2-1.1l-3.1-0.6l-1.6-0.3l-1.5-0.4"/>
				<path class="st1" d="M205.9,496.6l1.6,0.4l1.6,0.3l3.2,0.6l6.3,1.1c4.2,0.6,8.5,1.1,12.8,1.7"/>
				<path class="st1" d="M232.1,493.3c-4.1-0.5-8.3-1-12.4-1.6l-6.1-1.1l-3.1-0.5l-1.5-0.3l-1.5-0.4"/>
			</g>
			<g>
				<path class="st1" d="M178.8,497.1l3.1,1.1l3.2,0.9l6.4,1.7c2.1,0.6,4.3,1.1,6.4,1.6l6.5,1.5"/>
				<path class="st1" d="M179.9,493.6l3.1,1l3.1,0.9l6.3,1.8c2.1,0.6,4.2,1.1,6.3,1.6l6.4,1.5"/>
				<path class="st1" d="M206.7,493.1l-6.2-1.4c-2.1-0.5-4.1-0.9-6.1-1.5l-6.1-1.7l-3-0.9l-3-1"/>
				<path class="st1" d="M181.1,490l3.1,1l3.1,0.9l6.2,1.8c2.1,0.6,4.2,1.1,6.2,1.6l6.3,1.4"/>
				<path class="st1" d="M207.4,489.4l-6.1-1.4c-2-0.5-4.1-0.9-6.1-1.5l-6-1.7l-3-0.9l-3-1"/>
			</g>
			<g>
				<path class="st1" d="M154,487.6c4,1.9,8.1,3.5,12.2,5.1l3.1,1.2c1,0.4,2.1,0.7,3.1,1.1l6.3,2.1"/>
				<path class="st1" d="M155.5,484.1c3.9,1.9,8,3.4,12.1,5l3,1.2c1,0.4,2.1,0.7,3.1,1.1l6.2,2.1"/>
				<path class="st1" d="M182.2,486.5l-6-2c-1-0.4-2-0.6-3-1l-2.9-1.2c-3.9-1.6-7.9-3-11.7-4.9"/>
				<path class="st1" d="M157,480.8c3.9,1.8,7.9,3.4,11.9,4.9l3,1.2c1,0.4,2,0.7,3,1.1l6.1,2.1"/>
				<path class="st1" d="M183.3,483l-5.9-2c-1-0.3-2-0.6-2.9-1l-2.9-1.1c-3.9-1.5-7.8-3-11.5-4.8"/>
			</g>
			<g>
				<path class="st1" d="M130.4,475.5l5.7,3.3l5.9,3c2,1,3.9,2,5.9,3l6,2.7"/>
				<path class="st1" d="M132.3,472.3l5.7,3.3l5.8,3c1.9,1,3.9,2,5.8,2.9l6,2.7"/>
				<path class="st1" d="M158.6,477.4l-5.8-2.6c-1.9-0.9-3.8-1.9-5.7-2.9l-5.6-2.9l-5.5-3.2"/>
				<path class="st1" d="M134.1,469.1l5.6,3.2l5.7,2.9c1.9,1,3.8,2,5.7,2.9l5.9,2.7"/>
				<path class="st1" d="M160.1,474l-5.7-2.6c-1.9-0.9-3.7-1.9-5.6-2.8l-5.6-2.9l-5.4-3.1"/>
			</g>
			<g>
				<path class="st1" d="M108.2,461.1c3.6,2.5,7.1,5.2,10.9,7.5l5.6,3.6c1.9,1.2,3.8,2.2,5.7,3.4"/>
				<path class="st1" d="M110.4,458.1c3.6,2.5,7,5.1,10.8,7.4l5.5,3.5c1.8,1.2,3.8,2.2,5.6,3.3"/>
				<path class="st1" d="M136,465.9c-1.8-1.1-3.7-2.1-5.5-3.2l-5.3-3.4c-3.6-2.2-7-4.7-10.4-7.2"/>
				<path class="st1" d="M112.6,455.1c3.5,2.5,6.9,5,10.6,7.3l5.4,3.5c1.8,1.2,3.7,2.2,5.5,3.3"/>
				<path class="st1" d="M137.9,462.6c-1.8-1.1-3.6-2-5.4-3.2l-5.3-3.4c-3.6-2.2-6.9-4.7-10.3-7.1"/>
			</g>
			<g>
				<path class="st1" d="M87.6,444.4l5,4.3c1.7,1.4,3.3,2.9,5.1,4.3l5.2,4.1l2.6,2l2.7,1.9"/>
				<path class="st1" d="M90.1,441.6L95,446c1.7,1.4,3.3,2.9,5,4.2l5.1,4l2.6,2l2.7,1.9"/>
				<path class="st1" d="M114.8,452.1l-2.6-1.8l-2.5-2l-5-3.9c-1.7-1.3-3.3-2.7-4.9-4.1l-4.8-4.1"/>
				<path class="st1" d="M92.6,438.9l4.9,4.2c1.6,1.4,3.2,2.8,4.9,4.1l5.1,4l2.5,2l2.6,1.9"/>
				<path class="st1" d="M116.9,449.1l-2.5-1.8l-2.5-1.9l-4.9-3.9c-1.7-1.3-3.2-2.7-4.8-4l-4.7-4.1"/>
			</g>
			<g>
				<path class="st1" d="M68.9,425.6c3,3.3,6.1,6.4,9.1,9.6c3.2,3,6.4,6.1,9.6,9.1"/>
				<path class="st1" d="M71.6,423.1c2.9,3.2,6,6.3,9,9.5c3.2,3,6.3,6,9.5,9"/>
				<path class="st1" d="M95.1,436.1c-3.1-2.8-6.1-5.8-9.2-8.7c-2.9-3.1-5.9-6.1-8.7-9.2"/>
				<path class="st1" d="M74.4,420.6c2.9,3.2,5.9,6.2,8.8,9.3c3.1,2.9,6.2,6,9.3,8.8"/>
				<path class="st1" d="M97.5,433.4c-3.1-2.8-6-5.7-9.1-8.6c-2.9-3-5.8-6-8.6-9.1"/>
			</g>
			<g>
				<path class="st1" d="M52.2,405.1l1.9,2.7l2,2.6l4.1,5.2c1.3,1.8,2.8,3.4,4.3,5.1l4.3,5"/>
				<path class="st1" d="M55.2,402.9l1.9,2.7l2,2.6l4,5.1c1.3,1.7,2.8,3.3,4.2,5l4.3,4.9"/>
				<path class="st1" d="M77.1,418.1l-4.1-4.8c-1.4-1.6-2.8-3.2-4.1-4.9l-3.9-5l-2-2.5l-1.8-2.6"/>
				<path class="st1" d="M58.2,400.6l1.9,2.6l2,2.5l4,5.1c1.3,1.7,2.7,3.3,4.1,4.9l4.2,4.9"/>
				<path class="st1" d="M79.9,415.8l-4.1-4.7c-1.4-1.6-2.8-3.1-4-4.8l-3.9-4.9l-1.9-2.5l-1.8-2.5"/>
			</g>
			<g>
				<path class="st1" d="M37.8,382.9c1.1,1.9,2.2,3.9,3.4,5.7l3.6,5.6c2.3,3.8,5,7.3,7.5,10.9"/>
				<path class="st1" d="M41,381c1.1,1.9,2.1,3.8,3.3,5.6l3.5,5.5c2.3,3.7,4.9,7.2,7.4,10.8"/>
				<path class="st1" d="M61.2,398.5c-2.4-3.5-5-6.8-7.2-10.4l-3.4-5.3c-1.1-1.8-2.1-3.6-3.2-5.5"/>
				<path class="st1" d="M44.2,379.1c1.1,1.8,2.1,3.7,3.3,5.5L51,390c2.2,3.7,4.8,7.1,7.3,10.6"/>
				<path class="st1" d="M64.2,396.4c-2.4-3.4-4.9-6.7-7.1-10.3l-3.4-5.3c-1.1-1.7-2.1-3.6-3.2-5.4"/>
			</g>
			<g>
				<path class="st1" d="M25.7,359.3l2.7,6c0.9,2,2,3.9,3,5.9l3,5.9l3.3,5.7"/>
				<path class="st1" d="M29.1,357.8l2.7,6c0.9,2,2,3.9,2.9,5.8l3,5.8l3.3,5.7"/>
				<path class="st1" d="M47.4,377.3l-3.2-5.5l-2.9-5.6c-0.9-1.9-2-3.7-2.9-5.7l-2.6-5.8"/>
				<path class="st1" d="M32.5,356.3l2.7,5.9c0.9,1.9,1.9,3.8,2.9,5.7l2.9,5.7l3.2,5.6"/>
				<path class="st1" d="M50.6,375.4l-3.1-5.4l-2.9-5.6c-0.9-1.9-1.9-3.7-2.8-5.6l-2.6-5.7"/>
			</g>
			<g>
				<path class="st1" d="M16.2,334.5l2.1,6.3c0.4,1,0.7,2.1,1.1,3.1l1.2,3.1c1.6,4.1,3.2,8.2,5.1,12.2"/>
				<path class="st1" d="M19.7,333.4l2.1,6.2c0.4,1,0.7,2.1,1.1,3.1l1.2,3c1.6,4,3.1,8.1,5,12.1"/>
				<path class="st1" d="M35.9,354.6c-1.8-3.8-3.3-7.8-4.9-11.7l-1.2-2.9c-0.4-1-0.7-2-1-3l-2-6"/>
				<path class="st1" d="M23.3,332.1l2.1,6.1c0.4,1,0.7,2,1.1,3l1.2,3c1.6,4,3.1,8,4.9,11.9"/>
				<path class="st1" d="M39.3,353.1c-1.8-3.8-3.3-7.7-4.8-11.5l-1.1-2.9c-0.4-1-0.7-2-1-2.9l-2-5.9"/>
			</g>
			<g>
				<path class="st1" d="M9.4,308.9l1.5,6.5c0.5,2.2,1,4.3,1.6,6.4l1.8,6.4l0.9,3.2l1.1,3.1"/>
				<path class="st1" d="M13,308.1l1.5,6.4c0.5,2.1,0.9,4.3,1.6,6.3l1.8,6.3l0.9,3.1l1,3.1"/>
				<path class="st1" d="M26.8,331.1l-1-3l-0.9-3l-1.7-6.1c-0.6-2-1.1-4.1-1.5-6.1l-1.4-6.2"/>
				<path class="st1" d="M16.6,307.4l1.4,6.3c0.5,2.1,0.9,4.2,1.6,6.2l1.8,6.2l0.9,3.1l1,3.1"/>
				<path class="st1" d="M30.3,330l-1-3l-0.9-3l-1.7-6c-0.6-2-1-4-1.5-6.1l-1.4-6.1"/>
			</g>
			<g>
				<path class="st1" d="M5.2,282.8c0.6,4.4,1.1,8.8,1.7,13.1l1.2,6.5l0.6,3.3l0.3,1.6l0.4,1.6"/>
				<path class="st1" d="M8.9,282.4c0.6,4.3,1,8.6,1.7,12.9l1.1,6.4l0.6,3.2l0.3,1.6l0.4,1.6"/>
				<path class="st1" d="M20.2,306.6l-0.4-1.5l-0.3-1.6l-0.6-3.1l-1.1-6.2c-0.6-4.2-1.1-8.4-1.6-12.6"/>
				<path class="st1" d="M12.6,282c0.6,4.3,1,8.5,1.7,12.8l1.1,6.3l0.6,3.2l0.3,1.6l0.4,1.6"/>
				<path class="st1" d="M23.9,305.9l-0.4-1.5l-0.3-1.5l-0.5-3.1l-1.1-6.1c-0.6-4.1-1.1-8.2-1.6-12.4"/>
			</g>
			<g>
				<path class="st1" d="M3.8,256.3l0.3,13.2c0.3,4.4,0.6,8.8,1,13.2"/>
				<path class="st1" d="M7.5,256.3l0.3,13c0.3,4.3,0.6,8.7,1,13"/>
				<path class="st1" d="M16.3,281.6c-0.4-4.2-0.7-8.4-1-12.6L15,256.3"/>
				<path class="st1" d="M11.3,256.3l0.3,12.9c0.3,4.3,0.6,8.6,1,12.8"/>
				<path class="st1" d="M20,281.1c-0.4-4.1-0.6-8.3-1-12.4l-0.3-12.5"/>
			</g>
		</g>
	</g>
</g>
<g>
	<path class="st2" d="M114.6,282.7c6.2,0,11.5,4.7,12,10.9c5.6,66.8,61.8,119,130.2,119c72,0,130.7-58.2,130.7-129.8
		c0-70.5-56.8-128.1-127.3-129.8c-1.9-0.1-3.3,1.4-3.3,3.2v40.5c0,10.1-11.2,16.2-19.8,10.9l-77.4-54.1c-8-5.1-8-16.7,0-21.8
		L237,78.2c8.6-5.4,19.8,0.7,19.8,10.9v36.8c0,1.8,1.4,3.2,3.1,3.2c84,1.7,151.6,69.9,151.6,153.8c0,84.9-69.3,153.7-154.8,153.7
		c-81.1,0-147.6-61.7-154.2-140.8C102,288.7,107.6,282.7,114.6,282.7z"/>
	<g>
		<g>
			<g>
				<path class="st3" d="M140,299.5c-0.2-0.9-0.3-1.9-0.4-2.8l-0.3-2.9l-0.2-1.7c-0.1-0.5-0.1-1.1-0.2-1.6c-0.1-0.5-0.2-1.1-0.4-1.6
					c-0.5-2.2-1.4-4.2-2.5-6.1c-1.1-1.9-2.4-3.7-4-5.2c-1.5-1.6-3.3-2.9-5.1-4c-3.7-2.2-8.1-3.3-12.4-3.4"/>
				<path class="st3" d="M136.4,300c-0.2-1-0.3-2-0.4-2.9l-0.3-2.9l-0.2-1.7l-0.2-1.4c-0.1-0.5-0.2-0.9-0.3-1.4
					c-0.5-1.8-1.1-3.6-2.1-5.2c-0.9-1.6-2.1-3.1-3.4-4.4c-1.3-1.3-2.8-2.4-4.4-3.4c-3.2-1.9-6.9-2.8-10.6-2.9"/>
				<path class="st3" d="M114.6,281.2c4.8,0,9.5,2.7,11.8,6.9c0.6,1,1,2.2,1.3,3.3l0.2,0.9l0.1,0.9l0.2,1.6l0.3,3.1
					c0.1,1,0.2,2.1,0.4,3.1"/>
				<path class="st3" d="M132.7,300.5c-0.2-1-0.3-2-0.4-3l-0.3-3l-0.2-1.7l-0.2-1.1l-0.2-1.1c-0.4-1.5-0.9-2.9-1.7-4.3
					c-3-5.4-8.9-8.8-15.1-8.8"/>
				<path class="st3" d="M114.6,284.9c3.5,0,6.9,2,8.6,5c0.4,0.7,0.7,1.6,1,2.4l0.1,0.6l0.1,0.6c0.1,0.4,0.1,1,0.2,1.6l0.3,3.2
					c0.1,1.1,0.2,2.1,0.4,3.2"/>
			</g>
			<g>
				<path class="st3" d="M145.5,321.7c-2.5-7.2-4.4-14.7-5.5-22.2"/>
				<path class="st3" d="M142,322.9c-2.6-7.4-4.5-15.1-5.6-22.9"/>
				<path class="st3" d="M129,301c1.2,8.3,3.2,16.5,6,24.4"/>
				<path class="st3" d="M138.5,324.2c-2.7-7.7-4.7-15.6-5.8-23.7"/>
				<path class="st3" d="M125.4,301.5c1.2,8.5,3.3,17,6.2,25.1"/>
			</g>
			<g>
				<path class="st3" d="M155.2,342.4c-3.9-6.6-7.2-13.5-9.7-20.7"/>
				<path class="st3" d="M152,344.3c-4-6.8-7.4-14-10-21.4"/>
				<path class="st3" d="M135,325.4c2.8,7.9,6.4,15.5,10.7,22.7"/>
				<path class="st3" d="M148.8,346.2c-4.2-7-7.6-14.4-10.3-22.1"/>
				<path class="st3" d="M131.5,326.6c2.9,8.1,6.6,16,11,23.4"/>
			</g>
			<g>
				<path class="st3" d="M168.8,360.9c-5.1-5.7-9.7-11.9-13.6-18.5"/>
				<path class="st3" d="M166.1,363.4c-5.3-5.9-10-12.3-14-19"/>
				<path class="st3" d="M145.7,348.1c4.3,7.2,9.3,14,14.9,20.2"/>
				<path class="st3" d="M163.3,365.9c-5.4-6.1-10.3-12.6-14.5-19.6"/>
				<path class="st3" d="M142.5,350c4.4,7.4,9.5,14.4,15.3,20.8"/>
			</g>
			<g>
				<path class="st3" d="M185.8,376.4c-6.1-4.6-11.8-9.8-16.9-15.5"/>
				<path class="st3" d="M183.5,379.3c-6.3-4.7-12.2-10.1-17.5-16"/>
				<path class="st3" d="M160.5,368.3c5.6,6.2,11.8,11.9,18.5,16.9"/>
				<path class="st3" d="M181.3,382.3c-6.5-4.9-12.6-10.4-18-16.4"/>
				<path class="st3" d="M157.8,370.8c5.8,6.4,12.2,12.2,19.1,17.4"/>
			</g>
			<g>
				<path class="st3" d="M205.4,388.3c-6.9-3.3-13.5-7.3-19.6-11.9"/>
				<path class="st3" d="M203.8,391.6c-7.1-3.4-13.9-7.5-20.2-12.3"/>
				<path class="st3" d="M179.1,385.3c6.7,5,13.9,9.4,21.5,13"/>
				<path class="st3" d="M202.2,394.9c-7.3-3.5-14.3-7.8-20.8-12.6"/>
				<path class="st3" d="M176.9,388.2c6.9,5.2,14.3,9.7,22.1,13.4"/>
			</g>
			<g>
				<path class="st3" d="M226.9,396.2c-7.4-1.9-14.6-4.6-21.5-7.9"/>
				<path class="st3" d="M226,399.7c-7.6-2-15.1-4.7-22.2-8.1"/>
				<path class="st3" d="M200.6,398.3c7.6,3.6,15.5,6.5,23.6,8.6"/>
				<path class="st3" d="M225.1,403.3c-7.9-2-15.6-4.9-22.9-8.4"/>
				<path class="st3" d="M198.9,401.6c7.8,3.7,15.9,6.7,24.2,8.9"/>
			</g>
			<g>
				<path class="st3" d="M249.6,399.7c-7.7-0.5-15.3-1.7-22.7-3.6"/>
				<path class="st3" d="M249.4,403.4c-7.9-0.5-15.7-1.7-23.4-3.7"/>
				<path class="st3" d="M224.1,406.9c8.1,2.1,16.4,3.4,24.8,3.9"/>
				<path class="st3" d="M249.1,407.1c-8.1-0.5-16.2-1.8-24.1-3.8"/>
				<path class="st3" d="M223.2,410.5c8.3,2.2,16.9,3.5,25.5,4"/>
			</g>
			<g>
				<path class="st3" d="M272.6,398.9c-7.6,1-15.3,1.3-23,0.8"/>
				<path class="st3" d="M273,402.6c-7.8,1-15.8,1.3-23.7,0.9"/>
				<path class="st3" d="M248.9,410.8c8.4,0.5,16.8,0.2,25.1-0.9"/>
				<path class="st3" d="M273.5,406.2c-8.1,1.1-16.2,1.4-24.4,0.9"/>
				<path class="st3" d="M248.7,414.5c8.6,0.5,17.3,0.2,25.8-0.9"/>
			</g>
			<g>
				<path class="st3" d="M294.9,393.7c-7.2,2.5-14.7,4.2-22.3,5.2"/>
				<path class="st3" d="M296.1,397.2c-7.5,2.5-15.2,4.3-23,5.4"/>
				<path class="st3" d="M274,409.9c8.3-1.1,16.5-3,24.4-5.7"/>
				<path class="st3" d="M297.3,400.7c-7.7,2.6-15.7,4.5-23.7,5.5"/>
				<path class="st3" d="M274.5,413.6c8.5-1.1,17-3.1,25.1-5.9"/>
			</g>
			<g>
				<path class="st3" d="M315.8,384.2c-6.6,3.8-13.6,7-20.9,9.5"/>
				<path class="st3" d="M317.6,387.4c-6.8,3.9-14.1,7.2-21.6,9.7"/>
				<path class="st3" d="M298.5,404.2c7.9-2.7,15.6-6.2,22.9-10.3"/>
				<path class="st3" d="M319.5,390.7c-7.1,4.1-14.5,7.4-22.2,10"/>
				<path class="st3" d="M299.7,407.7c8.2-2.8,16.1-6.3,23.5-10.6"/>
			</g>
			<g>
				<path class="st3" d="M334.5,370.9c-5.8,5-12.1,9.5-18.7,13.3"/>
				<path class="st3" d="M336.9,373.7c-6,5.2-12.4,9.8-19.3,13.7"/>
				<path class="st3" d="M321.3,393.9c7.3-4.2,14.1-9.1,20.4-14.6"/>
				<path class="st3" d="M339.3,376.5c-6.1,5.3-12.8,10.1-19.9,14.1"/>
				<path class="st3" d="M323.2,397.1c7.5-4.3,14.5-9.3,21-15"/>
			</g>
			<g>
				<path class="st3" d="M350.3,354.2c-4.7,6-10,11.6-15.8,16.7"/>
				<path class="st3" d="M353.2,356.5c-4.9,6.2-10.3,12-16.3,17.2"/>
				<path class="st3" d="M341.8,379.3c6.3-5.5,12.1-11.6,17.3-18.2"/>
				<path class="st3" d="M356.1,358.8c-5,6.4-10.6,12.4-16.8,17.7"/>
				<path class="st3" d="M344.2,382.1c6.5-5.7,12.5-11.9,17.8-18.7"/>
			</g>
			<g>
				<path class="st3" d="M362.5,334.9c-3.4,6.8-7.5,13.3-12.3,19.4"/>
				<path class="st3" d="M365.8,336.5c-3.5,7.1-7.8,13.8-12.6,20"/>
				<path class="st3" d="M359,361.1c5.1-6.6,9.6-13.7,13.4-21.2"/>
				<path class="st3" d="M369.1,338.2c-3.7,7.3-8,14.2-13,20.6"/>
				<path class="st3" d="M362,363.3c5.3-6.8,9.9-14.1,13.8-21.8"/>
			</g>
			<g>
				<path class="st3" d="M370.7,313.5c-2,7.4-4.8,14.5-8.2,21.4"/>
				<path class="st3" d="M374.3,314.5c-2.1,7.6-4.9,15-8.5,22.1"/>
				<path class="st3" d="M372.5,339.8c3.8-7.5,6.8-15.3,9-23.4"/>
				<path class="st3" d="M377.9,315.4c-2.1,7.8-5.1,15.5-8.7,22.7"/>
				<path class="st3" d="M375.8,341.5c3.9-7.7,7-15.8,9.3-24.1"/>
			</g>
			<g>
				<path class="st3" d="M374.5,290.9c-0.5,7.6-1.8,15.2-3.8,22.6"/>
				<path class="st3" d="M378.2,291.2c-0.5,7.9-1.9,15.7-3.9,23.3"/>
				<path class="st3" d="M381.4,316.4c2.2-8.1,3.6-16.4,4.2-24.7"/>
				<path class="st3" d="M381.9,291.4c-0.6,8.1-1.9,16.2-4.1,24"/>
				<path class="st3" d="M385,317.4c2.3-8.3,3.7-16.9,4.3-25.5"/>
			</g>
			<g>
				<path class="st3" d="M373.9,268c1,7.6,1.2,15.3,0.7,22.9"/>
				<path class="st3" d="M377.6,267.5c1,7.8,1.2,15.8,0.7,23.6"/>
				<path class="st3" d="M385.6,291.7c0.6-8.4,0.3-16.8-0.7-25.1"/>
				<path class="st3" d="M381.2,267.1c1,8.1,1.3,16.2,0.7,24.4"/>
				<path class="st3" d="M389.3,291.9c0.6-8.6,0.3-17.3-0.7-25.8"/>
			</g>
			<g>
				<path class="st3" d="M368.7,245.7c2.4,7.2,4.2,14.7,5.1,22.3"/>
				<path class="st3" d="M372.3,244.5c2.5,7.5,4.3,15.2,5.3,23"/>
				<path class="st3" d="M384.9,266.6c-1.1-8.3-2.9-16.5-5.6-24.5"/>
				<path class="st3" d="M375.8,243.3c2.6,7.7,4.4,15.7,5.5,23.7"/>
				<path class="st3" d="M388.6,266.1c-1.1-8.6-3-17-5.8-25.2"/>
			</g>
			<g>
				<path class="st3" d="M359.3,224.8c3.8,6.6,7,13.6,9.4,20.9"/>
				<path class="st3" d="M362.5,223c3.9,6.8,7.2,14.1,9.7,21.5"/>
				<path class="st3" d="M379.3,242.1c-2.7-7.9-6.1-15.6-10.3-22.9"/>
				<path class="st3" d="M365.7,221.1c4.1,7.1,7.4,14.5,10,22.2"/>
				<path class="st3" d="M382.8,240.9c-2.8-8.2-6.3-16.1-10.6-23.5"/>
			</g>
			<g>
				<path class="st3" d="M346,206.1c5,5.8,9.5,12,13.3,18.7"/>
				<path class="st3" d="M348.8,203.7c5.2,6,9.8,12.4,13.8,19.3"/>
				<path class="st3" d="M368.9,219.3c-4.2-7.3-9.1-14.1-14.6-20.4"/>
				<path class="st3" d="M351.6,201.3c5.4,6.1,10.1,12.8,14.2,19.8"/>
				<path class="st3" d="M372.2,217.4c-4.3-7.5-9.3-14.5-15-21"/>
			</g>
			<g>
				<path class="st3" d="M329.3,190.4c6.1,4.7,11.7,10,16.7,15.8"/>
				<path class="st3" d="M331.6,187.5c6.2,4.8,12,10.3,17.2,16.3"/>
				<path class="st3" d="M354.4,198.8c-5.5-6.3-11.6-12.1-18.3-17.2"/>
				<path class="st3" d="M333.8,184.5c6.4,5,12.4,10.6,17.7,16.7"/>
				<path class="st3" d="M357.1,196.4c-5.7-6.5-12-12.4-18.8-17.7"/>
			</g>
			<g>
				<path class="st3" d="M309.9,178.1c6.8,3.4,13.4,7.6,19.4,12.3"/>
				<path class="st3" d="M311.5,174.8c7.1,3.5,13.8,7.8,20,12.6"/>
				<path class="st3" d="M336.1,181.6c-6.6-5.1-13.7-9.6-21.2-13.4"/>
				<path class="st3" d="M313.2,171.5c7.3,3.7,14.2,8,20.6,13"/>
				<path class="st3" d="M338.4,178.7c-6.8-5.3-14.1-9.9-21.8-13.8"/>
			</g>
			<g>
				<path class="st3" d="M288.5,169.9c7.4,2,14.6,4.8,21.4,8.2"/>
				<path class="st3" d="M289.5,166.3c7.6,2.1,15,5,22.1,8.5"/>
				<path class="st3" d="M314.9,168.2c-7.5-3.8-15.4-6.8-23.4-9"/>
				<path class="st3" d="M290.4,162.7c7.8,2.2,15.5,5.1,22.8,8.8"/>
				<path class="st3" d="M316.5,164.9c-7.7-3.9-15.8-7-24.1-9.3"/>
			</g>
			<g>
				<polyline class="st3" points="269.6,166.3 269.5,166.3 269.5,166.3 270.2,166.4 271.6,166.5 277.3,167.4 282.9,168.5 
					288.5,169.9 				"/>
				<polyline class="st3" points="268.8,162.5 272,162.8 277.9,163.7 283.7,164.9 289.5,166.3 				"/>
				<polyline class="st3" points="291.4,159.2 285.3,157.6 279.2,156.4 273,155.5 267.2,154.9 				"/>
				<polyline class="st3" points="268,158.7 272.5,159.2 278.5,160.1 284.5,161.3 290.4,162.7 				"/>
				<path class="st3" d="M292.4,155.6l-6.3-1.6l-6.3-1.3l-6.4-1l-3.4-0.3c-1.2-0.1-2.5-0.2-3.7-0.3"/>
			</g>
			<g>
				<line class="st3" x1="269.6" y1="169.9" x2="269.6" y2="166.3"/>
				<path class="st3" d="M265.9,169.9v-6c0-0.3,0-0.6,0.1-0.9c0.1-0.3,0.3-0.5,0.6-0.6c0.6-0.1,1.1,0,1.7,0l0.5,0"/>
				<path class="st3" d="M267.1,154.9l-1.6-0.1l-2.6-0.1l-1.3-0.1c-0.4,0-0.9,0-1.3,0.1c-0.8,0.2-1.5,0.9-1.8,1.7
					c-0.1,0.4-0.2,0.8-0.2,1.3v1.3v10.8"/>
				<path class="st3" d="M262.2,169.9v-8.4c0-0.6-0.1-1.2,0.1-1.7c0.2-0.5,0.6-1,1.2-1.2c0.3-0.1,0.6-0.1,0.9-0.1l0.9,0l1.7,0.1
					l1.1,0.1"/>
				<path class="st3" d="M266.4,151.1l-2.1-0.1l-3.3,0.1l-1.6,0c-0.6,0-1.1,0.1-1.6,0.3c-1,0.4-1.9,1.2-2.3,2.2
					c-0.2,0.5-0.3,1-0.4,1.5l-0.2,1.6c-0.2,2.1-0.2,4.5-0.2,6.8v6.3"/>
			</g>
			<g>
				<line class="st3" x1="269.6" y1="195.3" x2="269.6" y2="169.9"/>
				<line class="st3" x1="265.9" y1="195.3" x2="265.9" y2="169.9"/>
				<line class="st3" x1="258.4" y1="169.9" x2="258.4" y2="195.3"/>
				<line class="st3" x1="262.2" y1="195.3" x2="262.2" y2="169.9"/>
				<line class="st3" x1="254.7" y1="169.9" x2="254.7" y2="195.3"/>
			</g>
			<g>
				<path class="st3" d="M236.4,221c4,1.3,8.4,1.5,12.5,0.7c4.1-0.8,8-2.6,11.2-5.2c3.3-2.6,5.9-6.1,7.5-10.1c0.4-1,0.8-2,1-3
					c0.2-1,0.5-2.1,0.6-3.1c0.1-1,0.2-2.1,0.2-3.1c0-0.6,0-0.7,0-1v-0.8"/>
				<path class="st3" d="M237.5,217.5c3.4,1.1,7.2,1.3,10.7,0.6c3.5-0.7,6.8-2.2,9.6-4.5c2.8-2.2,5-5.2,6.4-8.6
					c0.3-0.8,0.7-1.7,0.9-2.6c0.2-0.9,0.4-1.8,0.6-2.7c0.1-0.9,0.2-1.8,0.2-2.7c0-0.5,0-0.7,0-1v-0.8"/>
				<path class="st3" d="M258.4,195.3c0,0.5,0,1,0,1.6l-0.1,1.8l-0.4,1.7c-0.1,0.6-0.4,1.1-0.6,1.7c-0.9,2.2-2.4,4.2-4.2,5.6
					c-3.7,3-8.9,4.1-13.4,2.6"/>
				<path class="st3" d="M238.6,213.9c2.9,0.9,5.9,1,8.9,0.5c2.9-0.6,5.7-1.9,8-3.7c2.3-1.9,4.2-4.3,5.3-7.1
					c0.3-0.7,0.5-1.4,0.7-2.1c0.2-0.7,0.3-1.5,0.5-2.2c0.1-0.7,0.1-1.5,0.2-2.2c0-0.4,0-0.6,0-0.9v-0.8"/>
				<path class="st3" d="M254.7,195.3c0,0.5,0,1.1,0,1.6l-0.1,1.3l-0.3,1.3c-0.1,0.4-0.3,0.8-0.4,1.2c-0.7,1.6-1.8,3.1-3.1,4.2
					c-2.7,2.2-6.6,3-10,2"/>
			</g>
			<g>
				<path class="st3" d="M211.8,205.3l10.4,7.3l5.2,3.6l1.3,0.9l0.6,0.5l0.6,0.4c0.2,0.2,0.4,0.3,0.7,0.4c0.9,0.5,1.9,1,2.8,1.5
					c1,0.4,2,0.8,3,1.1"/>
				<path class="st3" d="M213.9,202.3l10.4,7.3l5.2,3.6l1.3,0.9l0.7,0.5c0.3,0.2,0.7,0.5,1.1,0.7c0.8,0.4,1.6,0.9,2.4,1.3
					c0.8,0.4,1.7,0.7,2.5,1"/>
				<path class="st3" d="M239.7,210.4c-0.6-0.2-1.1-0.4-1.7-0.6l-1.6-0.8c-0.3-0.1-0.5-0.3-0.7-0.5l-0.7-0.5l-1.3-0.9l-5.2-3.6
					l-10.4-7.3"/>
				<path class="st3" d="M216.1,199.2l10.4,7.3l5.2,3.6l1.3,0.9l0.7,0.5c0.3,0.2,0.6,0.4,0.9,0.6c0.7,0.4,1.3,0.7,2,1.1
					c0.7,0.3,1.4,0.5,2.1,0.8"/>
				<path class="st3" d="M240.8,206.9l-1.2-0.5l-1.2-0.6c-0.2-0.1-0.4-0.2-0.6-0.4l-0.7-0.5l-1.3-0.9l-5.2-3.6l-10.4-7.3"/>
			</g>
			<g>
				<line class="st3" x1="191.1" y1="190.8" x2="211.8" y2="205.3"/>
				<line class="st3" x1="193.1" y1="187.7" x2="213.9" y2="202.3"/>
				<line class="st3" x1="218.2" y1="196.2" x2="197.3" y2="181.6"/>
				<line class="st3" x1="195.2" y1="184.6" x2="216.1" y2="199.2"/>
				<line class="st3" x1="220.3" y1="193.1" x2="199.4" y2="178.5"/>
			</g>
			<g>
				<line class="st3" x1="170.3" y1="176.2" x2="191.1" y2="190.8"/>
				<line class="st3" x1="172.3" y1="173.2" x2="193.1" y2="187.7"/>
				<line class="st3" x1="197.3" y1="181.6" x2="176.5" y2="167"/>
				<line class="st3" x1="174.4" y1="170.1" x2="195.2" y2="184.6"/>
				<line class="st3" x1="199.4" y1="178.5" x2="178.5" y2="163.9"/>
			</g>
			<g>
				<path class="st3" d="M147.1,159.1c0.7,0.8,1.4,1.5,2.2,2.3c0.8,0.8,1.5,1.3,2.3,1.8l3.1,2.2l5.2,3.6l10.4,7.3"/>
				<path class="st3" d="M149.9,156.7c0.6,0.7,1.2,1.3,1.9,1.9c0.7,0.7,1.3,1.1,2,1.6l2.9,2.1l5.2,3.6l10.4,7.3"/>
				<path class="st3" d="M176.5,167l-10.4-7.3l-5.2-3.6l-1.3-0.9l-1.4-1c-0.5-0.3-0.9-0.7-1.4-1.1c-0.4-0.4-0.9-0.8-1.2-1.3"/>
				<path class="st3" d="M152.8,154.2c0.5,0.6,1,1.1,1.6,1.6c0.5,0.5,1.1,0.9,1.7,1.3l2.8,2l5.2,3.6l10.4,7.3"/>
				<path class="st3" d="M178.5,163.9l-10.4-7.3l-5.2-3.6l-1.3-0.9l-0.7-0.5l-0.6-0.4c-0.4-0.3-0.8-0.5-1.1-0.8
					c-0.3-0.3-0.7-0.6-0.9-0.9"/>
			</g>
			<g>
				<path class="st3" d="M155.5,119.1l-2.6,1.8l-1,0.7l-1.1,0.8c-0.4,0.3-0.8,0.6-1.2,1l-1.1,1.1c-3,3-5.2,6.8-6.4,10.8
					c-1.2,4-1.3,8.3-0.5,12.4c0.9,4.1,2.8,8,5.6,11.3"/>
				<path class="st3" d="M157.5,122.2l-2.6,1.8l-0.9,0.7l-1,0.7c-0.3,0.2-0.7,0.5-1,0.8l-1,0.9c-2.5,2.6-4.4,5.8-5.4,9.2
					c-1,3.5-1.1,7.1-0.4,10.6c0.7,3.5,2.4,6.9,4.7,9.6"/>
				<path class="st3" d="M155.6,151.8c-3.1-3.6-4.2-8.8-2.9-13.4c0.7-2.3,1.9-4.4,3.6-6.1c0.4-0.4,0.8-0.9,1.3-1.2l1.4-1l2.6-1.8"/>
				<path class="st3" d="M159.6,125.3l-2.6,1.8l-1.7,1.2c-0.6,0.4-1.1,1-1.6,1.5c-2.1,2.1-3.7,4.8-4.5,7.7c-0.8,2.9-0.9,5.9-0.3,8.8
					c0.6,2.9,2,5.7,3.9,8"/>
				<path class="st3" d="M158.4,149.4c-2.3-2.6-3.1-6.5-2.1-9.9c0.5-1.7,1.4-3.2,2.6-4.5c0.3-0.3,0.6-0.6,1-0.9l1.1-0.8l2.6-1.8"/>
			</g>
			<g>
				<line class="st3" x1="176.4" y1="104.7" x2="155.5" y2="119.1"/>
				<line class="st3" x1="178.4" y1="107.8" x2="157.5" y2="122.2"/>
				<line class="st3" x1="161.6" y1="128.4" x2="182.5" y2="113.9"/>
				<line class="st3" x1="180.5" y1="110.9" x2="159.6" y2="125.3"/>
				<line class="st3" x1="163.7" y1="131.5" x2="184.6" y2="117"/>
			</g>
			<g>
				<line class="st3" x1="197.2" y1="90.3" x2="176.4" y2="104.7"/>
				<line class="st3" x1="199.3" y1="93.3" x2="178.4" y2="107.8"/>
				<line class="st3" x1="182.5" y1="113.9" x2="203.5" y2="99.5"/>
				<line class="st3" x1="201.4" y1="96.4" x2="180.5" y2="110.9"/>
				<line class="st3" x1="184.6" y1="117" x2="205.6" y2="102.5"/>
			</g>
			<g>
				<line class="st3" x1="218.1" y1="75.9" x2="197.2" y2="90.3"/>
				<line class="st3" x1="220.2" y1="78.9" x2="199.3" y2="93.3"/>
				<line class="st3" x1="203.5" y1="99.5" x2="224.4" y2="85"/>
				<line class="st3" x1="222.3" y1="82" x2="201.4" y2="96.4"/>
				<line class="st3" x1="205.6" y1="102.5" x2="226.5" y2="88.1"/>
			</g>
			<g>
				<path class="st3" d="M251.5,64.7c-4-1.2-8.3-1.5-12.5-0.7c-2.1,0.4-4.1,1.1-6,1.9c-0.9,0.5-1.9,1-2.8,1.5l-1.7,1.2l-10.4,7.2"/>
				<path class="st3" d="M250.4,68.2c-3.4-1.1-7.1-1.3-10.7-0.6c-1.8,0.3-3.5,0.9-5.1,1.7c-0.8,0.4-1.6,0.8-2.4,1.3l-1.6,1.1
					l-10.4,7.2"/>
				<path class="st3" d="M224.4,85l10.5-7.2l1.4-0.9l1.6-0.8c1.1-0.5,2.2-0.9,3.4-1.1c2.3-0.5,4.8-0.3,7,0.4"/>
				<path class="st3" d="M249.3,71.8c-2.8-0.9-5.9-1.1-8.8-0.5c-1.5,0.3-2.9,0.8-4.2,1.4c-0.7,0.3-1.3,0.7-2,1.1l-1.5,1L222.3,82"/>
				<path class="st3" d="M226.5,88.1l10.5-7.2l1.2-0.9l1.2-0.6c0.8-0.3,1.6-0.7,2.5-0.8c1.7-0.3,3.5-0.2,5.2,0.3"/>
			</g>
			<g>
				<path class="st3" d="M269.5,98.2v-6.4v-1.6v-0.8l0-0.4l0-0.8c-0.1-1-0.1-2.1-0.3-3.1c-0.2-1-0.4-2.1-0.7-3.1
					c-1.2-4.1-3.4-7.8-6.4-10.9c-3-3-6.6-5.2-10.6-6.4"/>
				<path class="st3" d="M265.8,98.2v-6.4v-1.6v-0.8l0-0.4l0-0.7c-0.1-0.9-0.1-1.8-0.2-2.7c-0.2-0.9-0.4-1.8-0.6-2.7
					c-1-3.5-2.9-6.7-5.4-9.3c-2.5-2.6-5.7-4.4-9.1-5.5"/>
				<path class="st3" d="M248.2,75.3c4.5,1.4,8.3,5.1,9.6,9.7l0.4,1.7c0.1,0.6,0.1,1.2,0.1,1.8c0.1,1.2,0,2.1,0,3.2v6.4"/>
				<path class="st3" d="M262.1,98.2v-6.4v-1.6v-0.8l0-0.4l0-0.6c-0.1-0.7-0.1-1.5-0.2-2.2c-0.1-0.7-0.3-1.5-0.5-2.2
					c-0.8-2.9-2.4-5.5-4.5-7.7c-2.1-2.1-4.7-3.7-7.5-4.6"/>
				<path class="st3" d="M247.1,78.9c3.4,1,6.2,3.8,7.1,7.2l0.3,1.3c0.1,0.4,0.1,0.9,0.1,1.3c0.1,0.4,0,1,0,1.5v1.6v6.4"/>
			</g>
			<g>
				<line class="st3" x1="269.5" y1="116.8" x2="269.5" y2="98.2"/>
				<line class="st3" x1="265.8" y1="118.8" x2="265.8" y2="98.2"/>
				<line class="st3" x1="258.4" y1="98.2" x2="258.4" y2="122.8"/>
				<line class="st3" x1="262.1" y1="120.8" x2="262.1" y2="98.2"/>
				<path class="st3" d="M254.7,98.2v12.7v6.4v3.7c0,1.2,0,2.5,0.1,3.7"/>
			</g>
			<g>
				<path class="st3" d="M279.9,117.9c-1.1-0.2-2.3-0.4-3.4-0.5l-3.4-0.3l-3.6-0.3"/>
				<path class="st3" d="M279.4,121.6c-1.1-0.1-2.2-0.3-3.3-0.5l-3.3-0.3l-3.3-0.3l-0.4,0c0,0,0.2,0,0.1,0l0,0l-0.1,0l-0.2,0l-0.5,0
					c-0.6,0-1.2,0-1.9-0.1c-0.3-0.1-0.5-0.3-0.6-0.6c-0.1-0.3,0-0.6,0-0.9"/>
				<path class="st3" d="M258.4,122.8v1.4c0,0.5,0,0.9,0.1,1.4c0.3,0.9,1,1.6,1.9,1.9c0.5,0.1,0.9,0.1,1.4,0.1l1.4,0.1l2.8,0.1
					c0.9,0.1,1.8,0.1,2.8,0.2l3.2,0.3l3.2,0.3c1.1,0.1,2.1,0.3,3.2,0.4"/>
				<path class="st3" d="M278.9,125.3c-1.1-0.1-2.2-0.3-3.3-0.4l-3.3-0.3l-3.3-0.3c-0.7-0.1-1.3-0.1-1.9-0.1
					c-1.2-0.1-2.5-0.1-3.7-0.2c-0.6-0.2-1.1-0.7-1.3-1.2c-0.1-0.3-0.1-0.6-0.1-0.9v-0.9"/>
				<path class="st3" d="M254.8,124.7c0,0.6,0.1,1.2,0.2,1.7c0.1,0.6,0.1,1.1,0.3,1.7c0.4,1.1,1.4,2,2.5,2.4
					c0.3,0.1,0.6,0.2,0.8,0.2l0.9,0.1l1.8,0.1l3.6,0.3l3.6,0.3l3.1,0.3l3.1,0.3c1,0.1,2.1,0.3,3.1,0.4"/>
			</g>
			<g>
				<path class="st3" d="M306.7,123.9c-2.2-0.6-4.4-1.4-6.6-1.9l-6.7-1.7l-6.8-1.3c-1.1-0.2-2.3-0.4-3.4-0.6l-3.4-0.5"/>
				<path class="st3" d="M305.6,127.4c-2.2-0.6-4.3-1.3-6.5-1.9l-6.5-1.6l-6.6-1.3c-1.1-0.2-2.2-0.4-3.3-0.6l-3.3-0.5"/>
				<path class="st3" d="M278.4,129l3.2,0.5c1.1,0.1,2.1,0.3,3.2,0.5l6.3,1.2l6.2,1.5c2.1,0.5,4.1,1.2,6.2,1.8"/>
				<path class="st3" d="M304.5,131c-2.1-0.6-4.2-1.3-6.3-1.8l-6.4-1.6l-6.5-1.3c-1.1-0.2-2.2-0.4-3.2-0.5l-3.3-0.5"/>
				<path class="st3" d="M277.9,132.6l3.1,0.5c1,0.1,2.1,0.3,3.1,0.5l6.2,1.2l6.1,1.5c2,0.5,4,1.2,6,1.7"/>
			</g>
			<g>
				<path class="st3" d="M332.2,134.2c-8.2-4.1-16.8-7.5-25.5-10.3"/>
				<path class="st3" d="M330.6,137.5c-8-4-16.4-7.4-24.9-10"/>
				<path class="st3" d="M303.4,134.5c8.2,2.6,16.1,5.8,23.8,9.6"/>
				<path class="st3" d="M328.9,140.8c-7.8-3.9-16-7.2-24.4-9.8"/>
				<path class="st3" d="M302.3,138.1c8,2.5,15.8,5.6,23.2,9.4"/>
			</g>
			<g>
				<path class="st3" d="M355.7,148.5c-7.4-5.4-15.2-10.3-23.5-14.3"/>
				<path class="st3" d="M353.5,151.5c-7.3-5.3-14.9-10-22.9-14"/>
				<path class="st3" d="M327.2,144.1c7.7,3.8,15,8.4,21.9,13.4"/>
				<path class="st3" d="M351.3,154.5c-7.1-5.2-14.6-9.8-22.4-13.7"/>
				<path class="st3" d="M325.6,147.4c7.5,3.7,14.6,8.2,21.4,13.1"/>
			</g>
			<g>
				<path class="st3" d="M376.5,166.4c-6.5-6.5-13.4-12.5-20.8-17.9"/>
				<path class="st3" d="M373.9,169c-6.3-6.4-13.1-12.2-20.4-17.5"/>
				<path class="st3" d="M349.1,157.5c6.9,5,13.4,10.7,19.5,16.7"/>
				<path class="st3" d="M371.2,171.6c-6.2-6.2-12.8-12-19.9-17.1"/>
				<path class="st3" d="M347,160.5c6.8,4.9,13.1,10.4,19,16.3"/>
			</g>
			<g>
				<path class="st3" d="M394.1,187.6c-5.3-7.5-11.1-14.6-17.6-21.1"/>
				<path class="st3" d="M391.1,189.7c-5.2-7.3-10.9-14.3-17.2-20.7"/>
				<path class="st3" d="M368.6,174.2c6,6.1,11.5,12.7,16.4,19.7"/>
				<path class="st3" d="M388,191.8c-5-7.2-10.7-14-16.8-20.2"/>
				<path class="st3" d="M366,176.8c5.9,6,11.2,12.4,16,19.3"/>
			</g>
			<g>
				<path class="st3" d="M408,211.3c-4-8.3-8.7-16.2-13.9-23.7"/>
				<path class="st3" d="M404.7,212.9c-3.9-8.1-8.5-15.8-13.6-23.2"/>
				<path class="st3" d="M385,194c4.9,7,9.3,14.4,13,22.1"/>
				<path class="st3" d="M401.4,214.5c-3.8-7.9-8.3-15.5-13.3-22.7"/>
				<path class="st3" d="M382,196.1c4.8,6.8,9.1,14.1,12.7,21.6"/>
			</g>
			<g>
				<path class="st3" d="M417.8,237.1c-2.5-8.8-5.8-17.4-9.7-25.7"/>
				<path class="st3" d="M414.2,238.1c-2.5-8.6-5.7-17.1-9.5-25.2"/>
				<path class="st3" d="M398,216.1c3.7,7.7,6.7,15.8,9.1,24"/>
				<path class="st3" d="M410.7,239.1c-2.4-8.4-5.5-16.7-9.3-24.6"/>
				<path class="st3" d="M394.7,217.7c3.6,7.6,6.6,15.4,8.9,23.4"/>
			</g>
			<g>
				<path class="st3" d="M423.2,264.1c-1-9.1-2.8-18.2-5.4-27"/>
				<path class="st3" d="M419.5,264.5c-0.9-8.9-2.8-17.8-5.2-26.4"/>
				<path class="st3" d="M407.1,240.1c2.4,8.2,4.1,16.7,5,25.2"/>
				<path class="st3" d="M415.8,264.9c-0.9-8.7-2.7-17.4-5.1-25.8"/>
				<path class="st3" d="M403.5,241.1c2.3,8,4,16.3,4.9,24.6"/>
			</g>
			<g>
				<path class="st3" d="M424,291.5c0.4-9.2,0.1-18.4-0.9-27.5"/>
				<path class="st3" d="M420.3,291.3c0.4-9,0.1-18-0.8-26.9"/>
				<path class="st3" d="M412.1,265.3c0.9,8.5,1.2,17.1,0.8,25.7"/>
				<path class="st3" d="M416.6,291.2c0.4-8.8,0.1-17.5-0.8-26.3"/>
				<path class="st3" d="M408.4,265.7c0.9,8.3,1.2,16.7,0.8,25"/>
			</g>
			<g>
				<path class="st3" d="M420.3,318.8c2-9,3.2-18.1,3.7-27.3"/>
				<path class="st3" d="M416.7,318c1.9-8.8,3.2-17.7,3.7-26.7"/>
				<path class="st3" d="M412.9,291c-0.5,8.6-1.7,17.1-3.5,25.4"/>
				<path class="st3" d="M413,317.2c1.9-8.6,3.1-17.3,3.6-26"/>
				<path class="st3" d="M409.2,290.8c-0.5,8.4-1.6,16.7-3.4,24.8"/>
			</g>
			<g>
				<path class="st3" d="M412.1,345.1l1.3-3.2c0.4-1.1,0.8-2.1,1.2-3.2l2.2-6.5l1.9-6.6c0.6-2.2,1.1-4.5,1.6-6.7"/>
				<path class="st3" d="M408.6,343.7l1.2-3.1c0.4-1,0.8-2.1,1.2-3.2l2.2-6.4l1.9-6.5c0.6-2.2,1-4.4,1.6-6.5"/>
				<path class="st3" d="M409.4,316.4c-0.5,2.1-0.9,4.2-1.5,6.2l-1.8,6.2l-2.1,6.1c-0.3,1-0.7,2-1.1,3l-1.2,3"/>
				<path class="st3" d="M405.2,342.3l1.2-3.1c0.4-1,0.8-2,1.1-3.1l2.1-6.2l1.8-6.3c0.6-2.1,1-4.3,1.5-6.4"/>
				<path class="st3" d="M405.8,315.6c-0.5,2-0.9,4.1-1.5,6.1l-1.7,6l-2,5.9c-0.3,1-0.7,2-1.1,2.9l-1.2,2.9"/>
			</g>
			<g>
				<path class="st3" d="M399.7,369.6c4.8-7.8,9-16.1,12.4-24.6"/>
				<path class="st3" d="M396.5,367.7c4.7-7.7,8.8-15.7,12.1-24"/>
				<path class="st3" d="M401.8,340.9c-3.2,7.9-7.1,15.6-11.6,22.9"/>
				<path class="st3" d="M393.3,365.8c4.6-7.5,8.6-15.3,11.9-23.5"/>
				<path class="st3" d="M398.3,339.5c-3.2,7.7-6.9,15.2-11.3,22.4"/>
			</g>
			<g>
				<path class="st3" d="M383.3,391.8c6-6.9,11.5-14.3,16.3-22.1"/>
				<path class="st3" d="M380.5,389.3c5.9-6.8,11.3-14,16-21.6"/>
				<path class="st3" d="M390.2,363.8c-4.5,7.3-9.6,14.2-15.3,20.6"/>
				<path class="st3" d="M377.7,386.9c5.8-6.6,11-13.7,15.6-21.1"/>
				<path class="st3" d="M387,361.9c-4.4,7.1-9.4,13.8-14.9,20.2"/>
			</g>
			<g>
				<path class="st3" d="M363.6,410.9c7.1-5.8,13.7-12.3,19.7-19.2"/>
				<path class="st3" d="M361.3,408.1c6.9-5.7,13.4-12,19.3-18.8"/>
				<path class="st3" d="M374.9,384.5c-5.6,6.4-11.8,12.5-18.4,17.9"/>
				<path class="st3" d="M358.9,405.2c6.8-5.6,13-11.7,18.8-18.3"/>
				<path class="st3" d="M372.1,382c-5.5,6.3-11.5,12.2-17.9,17.5"/>
			</g>
			<g>
				<path class="st3" d="M341,426.6c7.9-4.6,15.5-9.8,22.6-15.7"/>
				<path class="st3" d="M339.2,423.4c7.8-4.5,15.2-9.6,22.1-15.3"/>
				<path class="st3" d="M356.5,402.4c-6.6,5.4-13.7,10.3-21.1,14.6"/>
				<path class="st3" d="M337.3,420.2c7.6-4.4,14.8-9.4,21.6-15"/>
				<path class="st3" d="M354.2,399.5c-6.5,5.3-13.4,10.1-20.6,14.3"/>
			</g>
			<g>
				<path class="st3" d="M316.2,438.4c8.6-3.2,16.9-7.2,24.8-11.8"/>
				<path class="st3" d="M314.9,434.9c8.4-3.1,16.5-7,24.3-11.5"/>
				<path class="st3" d="M335.4,417c-7.4,4.3-15.2,8-23.2,11"/>
				<path class="st3" d="M313.6,431.5c8.2-3,16.2-6.9,23.7-11.3"/>
				<path class="st3" d="M333.6,413.8c-7.2,4.2-14.8,7.8-22.6,10.7"/>
			</g>
			<g>
				<path class="st3" d="M289.7,446c9-1.8,17.8-4.3,26.4-7.6"/>
				<path class="st3" d="M289,442.3c8.8-1.8,17.4-4.2,25.9-7.4"/>
				<path class="st3" d="M312.3,428c-8,3-16.3,5.4-24.7,7.1"/>
				<path class="st3" d="M288.3,438.7c8.6-1.7,17.1-4.2,25.3-7.2"/>
				<path class="st3" d="M310.9,424.5c-7.8,2.9-15.9,5.2-24.1,6.9"/>
			</g>
			<g>
				<path class="st3" d="M262.4,449c9.2-0.3,18.3-1.3,27.3-3.1"/>
				<path class="st3" d="M262.3,445.3c9-0.3,17.9-1.3,26.7-3"/>
				<path class="st3" d="M287.6,435c-8.4,1.7-16.9,2.6-25.5,2.9"/>
				<path class="st3" d="M262.2,441.6c8.8-0.3,17.5-1.2,26.1-3"/>
				<path class="st3" d="M286.8,431.4c-8.2,1.6-16.5,2.5-24.9,2.8"/>
			</g>
			<g>
				<path class="st3" d="M235,447.7c2.3,0.2,4.5,0.6,6.8,0.8l6.9,0.5l6.9,0.2c2.3,0.1,4.6-0.1,6.9-0.1"/>
				<path class="st3" d="M235.5,444.1c2.2,0.2,4.4,0.6,6.7,0.7l6.7,0.5l6.7,0.2c2.2,0.1,4.5-0.1,6.7-0.1"/>
				<path class="st3" d="M262.1,437.9c-2.1,0-4.3,0.2-6.4,0.1l-6.4-0.2l-6.4-0.5c-2.1-0.1-4.3-0.5-6.4-0.7"/>
				<path class="st3" d="M236,440.4c2.2,0.2,4.3,0.6,6.5,0.7l6.6,0.5l6.6,0.2c2.2,0.1,4.4-0.1,6.6-0.1"/>
				<path class="st3" d="M261.9,434.2c-2.1,0-4.2,0.2-6.3,0.1l-6.3-0.1l-6.3-0.4c-2.1-0.1-4.2-0.5-6.2-0.7"/>
			</g>
			<g>
				<path class="st3" d="M208.1,442c8.8,2.6,17.8,4.5,26.9,5.7"/>
				<path class="st3" d="M209.2,438.5c8.6,2.6,17.4,4.4,26.3,5.6"/>
				<path class="st3" d="M236.4,436.7c-8.5-1.1-16.9-2.9-25.1-5.3"/>
				<path class="st3" d="M210.3,434.9c8.4,2.5,17,4.3,25.7,5.5"/>
				<path class="st3" d="M236.9,433c-8.3-1.1-16.5-2.8-24.5-5.2"/>
			</g>
			<g>
				<path class="st3" d="M182.5,432c8.2,4.1,16.8,7.5,25.6,10.1"/>
				<path class="st3" d="M184.2,428.6c8,4,16.4,7.3,25,9.8"/>
				<path class="st3" d="M211.3,431.4c-8.2-2.4-16.2-5.6-23.9-9.4"/>
				<path class="st3" d="M185.8,425.3c7.9,3.9,16,7.1,24.5,9.6"/>
				<path class="st3" d="M212.4,427.8c-8-2.4-15.8-5.5-23.3-9.2"/>
			</g>
			<g>
				<path class="st3" d="M158.9,417.8c7.5,5.3,15.4,10.1,23.6,14.1"/>
				<path class="st3" d="M161.1,414.8c7.3,5.2,15,9.8,23.1,13.8"/>
				<path class="st3" d="M187.4,422c-7.7-3.8-15.1-8.2-22-13.2"/>
				<path class="st3" d="M163.3,411.8c7.1,5.1,14.7,9.6,22.5,13.5"/>
				<path class="st3" d="M189.1,418.7c-7.5-3.7-14.7-8-21.5-12.9"/>
			</g>
			<g>
				<path class="st3" d="M138,400.1c6.5,6.5,13.5,12.4,21,17.8"/>
				<path class="st3" d="M140.6,397.4c6.3,6.4,13.2,12.2,20.5,17.4"/>
				<path class="st3" d="M165.4,408.8c-7-5-13.5-10.5-19.6-16.6"/>
				<path class="st3" d="M143.2,394.8c6.2,6.2,12.9,11.9,20.1,17"/>
				<path class="st3" d="M167.6,405.8c-6.8-4.9-13.2-10.3-19.1-16.2"/>
			</g>
			<g>
				<path class="st3" d="M120.2,379c5.3,7.5,11.3,14.5,17.7,21"/>
				<path class="st3" d="M123.2,376.9c5.2,7.3,11,14.2,17.3,20.6"/>
				<path class="st3" d="M145.8,392.2c-6-6.1-11.6-12.6-16.6-19.6"/>
				<path class="st3" d="M126.3,374.7c5.1,7.1,10.8,13.9,16.9,20.1"/>
				<path class="st3" d="M148.4,389.6c-5.9-5.9-11.3-12.3-16.2-19.2"/>
			</g>
			<g>
				<path class="st3" d="M106.1,355.4c4,8.3,8.7,16.2,14.1,23.6"/>
				<path class="st3" d="M109.5,353.8c3.9,8.1,8.6,15.8,13.8,23.1"/>
				<path class="st3" d="M129.3,372.6c-5-7-9.4-14.4-13.1-22.1"/>
				<path class="st3" d="M112.8,352.1c3.9,7.9,8.4,15.4,13.4,22.6"/>
				<path class="st3" d="M132.3,370.4c-4.9-6.8-9.1-14-12.8-21.5"/>
			</g>
			<g>
				<path class="st3" d="M96.2,329.7c2.6,8.8,5.9,17.4,9.9,25.7"/>
				<path class="st3" d="M99.8,328.7c2.5,8.6,5.8,17,9.7,25.1"/>
				<path class="st3" d="M116.1,350.5c-3.8-7.7-6.9-15.7-9.3-23.9"/>
				<path class="st3" d="M103.3,327.6c2.5,8.4,5.6,16.6,9.5,24.5"/>
				<path class="st3" d="M119.5,348.9c-3.7-7.5-6.7-15.3-9-23.4"/>
			</g>
			<g>
				<path class="st3" d="M90.7,302.8c1.1,9.1,3,18.1,5.5,27"/>
				<path class="st3" d="M94.3,302.3c1.1,8.9,2.9,17.7,5.4,26.4"/>
				<path class="st3" d="M106.9,326.6c-2.4-8.2-4.1-16.6-5.2-25.1"/>
				<path class="st3" d="M98,301.9c1.1,8.7,2.8,17.3,5.3,25.7"/>
				<path class="st3" d="M110.4,325.5c-2.3-8-4-16.2-5-24.5"/>
			</g>
			<g>
				<path class="st3" d="M114.6,270.1c-4.3,0-8.7,1.2-12.4,3.3c-3.7,2.2-6.9,5.3-9.1,9.2c-2.2,3.8-3.3,8.3-3.2,12.7l0.1,1.5l0.1,0.9
					l0.2,1.7l0.4,3.4"/>
				<path class="st3" d="M114.6,273.8c-3.7,0-7.4,1-10.6,2.8c-3.2,1.9-5.9,4.5-7.7,7.8c-1.8,3.2-2.8,7-2.7,10.8l0.1,1.3l0.1,0.8
					L94,299l0.4,3.3"/>
				<path class="st3" d="M101.7,301.4l-0.3-3.2l-0.2-1.6l-0.1-0.8l0-0.9c-0.1-2.4,0.5-4.8,1.7-6.9c1.2-2.1,2.9-3.8,5-5
					c2.1-1.2,4.5-1.8,6.8-1.8"/>
				<path class="st3" d="M114.6,277.5c-3,0-6.1,0.8-8.7,2.3c-2.6,1.6-4.9,3.7-6.4,6.4c-1.5,2.7-2.3,5.8-2.2,8.8l0,1.1l0.1,0.8
					l0.2,1.6l0.4,3.3"/>
				<path class="st3" d="M105.4,301l-0.3-3.1l-0.2-1.6l-0.1-0.8l0-0.7c-0.1-1.7,0.4-3.5,1.2-5c0.8-1.5,2.1-2.8,3.6-3.7
					c1.5-0.9,3.2-1.3,5-1.3"/>
			</g>
		</g>
	</g>
</g>
</svg>
