<?xml version="1.0" encoding="utf-8"?>
<!-- Generator: Adobe Illustrator 22.0.0, SVG Export Plug-In . SVG Version: 6.00 Build 0)  -->
<svg version="1.1" id="Layer_1" xmlns="http://www.w3.org/2000/svg" xmlns:xlink="http://www.w3.org/1999/xlink" x="0px" y="0px"
	 viewBox="0 0 512 512" style="enable-background:new 0 0 512 512;" xml:space="preserve">
<style type="text/css">
	.st0{fill:#600094;}
	.st1{fill:none;stroke:#6F6F6F;}
	.st2{fill:#FF0AAF;}
	.st3{fill:none;stroke:#FF60CB;}
</style>
<g>
	<circle class="st0" cx="257" cy="256.3" r="240.5"/>
	<g>
		<g>
			<g>
				<path class="st1" d="M5.2,229.8c-0.4,4.4-0.7,8.8-1,13.2l-0.3,13.2"/>
				<path class="st1" d="M8.9,230.1c-0.4,4.3-0.7,8.7-1,13l-0.3,13"/>
				<path class="st1" d="M15,256.3l0.3-12.7c0.3-4.2,0.6-8.4,1-12.6"/>
				<path class="st1" d="M12.6,230.5c-0.4,4.3-0.7,8.6-1,12.8l-0.3,12.9"/>
				<path class="st1" d="M18.7,256.3l0.3-12.5c0.3-4.1,0.6-8.3,1-12.4"/>
			</g>
			<g>
				<path class="st1" d="M9.4,203.6L9,205.3l-0.3,1.6l-0.6,3.3l-1.2,6.5c-0.7,4.4-1.1,8.8-1.7,13.1"/>
				<path class="st1" d="M13,204.4l-0.4,1.6l-0.3,1.6l-0.6,3.2l-1.1,6.4c-0.7,4.3-1.1,8.6-1.7,12.9"/>
				<path class="st1" d="M16.3,231c0.6-4.2,1-8.4,1.6-12.6l1.1-6.2l0.6-3.1l0.3-1.6l0.4-1.5"/>
				<path class="st1" d="M16.6,205.1l-0.4,1.6l-0.3,1.6l-0.6,3.2l-1.1,6.3c-0.6,4.2-1.1,8.5-1.7,12.8"/>
				<path class="st1" d="M20,231.4c0.5-4.1,1-8.3,1.6-12.4l1.1-6.1l0.5-3.1l0.3-1.5l0.4-1.5"/>
			</g>
			<g>
				<path class="st1" d="M16.2,178l-1.1,3.1l-0.9,3.2l-1.8,6.4c-0.6,2.1-1.1,4.3-1.6,6.4l-1.5,6.5"/>
				<path class="st1" d="M19.7,179.1l-1,3.1l-0.9,3.1l-1.8,6.3c-0.6,2.1-1.1,4.2-1.6,6.3l-1.5,6.4"/>
				<path class="st1" d="M20.2,206l1.4-6.2c0.5-2.1,0.9-4.1,1.5-6.1l1.7-6.1l0.9-3l1-3"/>
				<path class="st1" d="M23.3,180.4l-1,3.1l-0.9,3.1l-1.8,6.2c-0.6,2.1-1.1,4.2-1.6,6.2l-1.4,6.3"/>
				<path class="st1" d="M23.9,206.6l1.4-6.1c0.5-2,0.9-4.1,1.5-6.1l1.7-6l0.9-3l1-3"/>
			</g>
			<g>
				<path class="st1" d="M25.7,153.3c-1.9,4-3.5,8.1-5.1,12.2l-1.2,3.1c-0.4,1-0.7,2.1-1.1,3.1l-2.1,6.3"/>
				<path class="st1" d="M29.1,154.8c-1.9,3.9-3.4,8-5,12.1l-1.2,3c-0.4,1-0.7,2.1-1.1,3.1l-2.1,6.2"/>
				<path class="st1" d="M26.8,181.5l2-6c0.4-1,0.6-2,1-3l1.2-2.9c1.6-3.9,3-7.9,4.9-11.7"/>
				<path class="st1" d="M32.5,156.3c-1.8,3.9-3.4,7.9-4.9,11.9l-1.2,3c-0.4,1-0.7,2-1.1,3l-2.1,6.1"/>
				<path class="st1" d="M30.3,182.5l2-5.9c0.3-1,0.6-2,1-2.9l1.1-2.9c1.5-3.9,3-7.8,4.8-11.5"/>
			</g>
			<g>
				<path class="st1" d="M37.8,129.6l-3.3,5.7l-3,5.9c-1,2-2,3.9-3,5.9l-2.7,6"/>
				<path class="st1" d="M41,131.5l-3.3,5.7l-3,5.8c-1,1.9-2,3.9-2.9,5.8l-2.7,6"/>
				<path class="st1" d="M35.9,157.9l2.6-5.8c0.9-1.9,1.9-3.8,2.9-5.7l2.9-5.6l3.2-5.5"/>
				<path class="st1" d="M44.2,133.4L41,139l-2.9,5.7c-1,1.9-2,3.8-2.9,5.7l-2.7,5.9"/>
				<path class="st1" d="M39.3,159.4l2.6-5.7c0.9-1.9,1.9-3.7,2.8-5.6l2.9-5.6l3.1-5.4"/>
			</g>
			<g>
				<path class="st1" d="M52.2,107.5c-2.5,3.6-5.2,7.1-7.5,10.9l-3.6,5.6c-1.2,1.9-2.2,3.8-3.4,5.7"/>
				<path class="st1" d="M55.2,109.7c-2.5,3.6-5.1,7-7.4,10.8l-3.5,5.5c-1.2,1.8-2.2,3.8-3.3,5.6"/>
				<path class="st1" d="M47.4,135.3c1.1-1.8,2.1-3.7,3.2-5.5l3.4-5.3c2.2-3.6,4.7-7,7.2-10.4"/>
				<path class="st1" d="M58.2,111.9c-2.5,3.5-5,6.9-7.3,10.6l-3.5,5.4c-1.2,1.8-2.2,3.7-3.3,5.5"/>
				<path class="st1" d="M50.6,137.1c1.1-1.8,2-3.6,3.2-5.4l3.4-5.3c2.2-3.6,4.7-6.9,7.1-10.3"/>
			</g>
			<g>
				<path class="st1" d="M68.9,86.9l-4.3,5c-1.4,1.7-2.9,3.3-4.3,5.1l-4.1,5.2l-2,2.6l-1.9,2.7"/>
				<path class="st1" d="M71.6,89.4l-4.3,4.9c-1.4,1.7-2.9,3.3-4.2,5l-4,5.1l-2,2.6l-1.9,2.7"/>
				<path class="st1" d="M61.2,114l1.8-2.6l2-2.5l3.9-5c1.3-1.7,2.7-3.3,4.1-4.9l4.1-4.8"/>
				<path class="st1" d="M74.4,91.9l-4.2,4.9c-1.4,1.6-2.8,3.2-4.1,4.9l-4,5.1l-2,2.5l-1.9,2.6"/>
				<path class="st1" d="M64.2,116.2l1.8-2.5l1.9-2.5l3.9-4.9c1.3-1.7,2.7-3.2,4-4.8l4.1-4.7"/>
			</g>
			<g>
				<path class="st1" d="M87.6,68.2c-3.3,3-6.4,6.1-9.6,9.1c-3,3.2-6.1,6.4-9.1,9.6"/>
				<path class="st1" d="M90.1,70.9c-3.2,2.9-6.3,6-9.5,9c-3,3.2-6,6.3-9,9.5"/>
				<path class="st1" d="M77.1,94.4c2.8-3.1,5.8-6.1,8.7-9.2c3.1-2.9,6.1-5.9,9.2-8.7"/>
				<path class="st1" d="M92.6,73.7c-3.2,2.9-6.2,5.9-9.3,8.8c-2.9,3.1-6,6.2-8.8,9.3"/>
				<path class="st1" d="M79.9,96.8c2.8-3.1,5.7-6,8.6-9.1c3-2.9,6-5.8,9.1-8.6"/>
			</g>
			<g>
				<path class="st1" d="M108.2,51.5l-2.7,1.9l-2.6,2l-5.2,4.1c-1.8,1.3-3.4,2.8-5.1,4.3l-5,4.3"/>
				<path class="st1" d="M110.4,54.5l-2.7,1.9l-2.6,2l-5.1,4c-1.7,1.3-3.3,2.8-5,4.2l-4.9,4.3"/>
				<path class="st1" d="M95.1,76.4l4.8-4.1c1.6-1.4,3.2-2.8,4.9-4.1l5-3.9l2.5-2l2.6-1.8"/>
				<path class="st1" d="M112.6,57.5l-2.6,1.9l-2.5,2l-5.1,4c-1.7,1.3-3.3,2.7-4.9,4.1l-4.9,4.2"/>
				<path class="st1" d="M97.5,79.2l4.7-4.1c1.6-1.4,3.1-2.8,4.8-4l4.9-3.9l2.5-1.9l2.5-1.8"/>
			</g>
			<g>
				<path class="st1" d="M130.4,37c-1.9,1.1-3.9,2.2-5.7,3.4l-5.6,3.6c-3.8,2.3-7.3,5-10.9,7.5"/>
				<path class="st1" d="M132.3,40.3c-1.9,1.1-3.8,2.1-5.6,3.3l-5.5,3.5c-3.7,2.3-7.2,4.9-10.8,7.4"/>
				<path class="st1" d="M114.8,60.5c3.5-2.4,6.8-5,10.4-7.2l5.3-3.4c1.8-1.1,3.6-2.1,5.5-3.2"/>
				<path class="st1" d="M134.1,43.5c-1.8,1.1-3.7,2.1-5.5,3.3l-5.4,3.5c-3.7,2.2-7.1,4.8-10.6,7.3"/>
				<path class="st1" d="M116.9,63.5c3.4-2.4,6.7-4.9,10.3-7.1l5.3-3.4c1.7-1.1,3.6-2.1,5.4-3.2"/>
			</g>
			<g>
				<path class="st1" d="M154,25l-6,2.7c-2,0.9-3.9,2-5.9,3l-5.9,3l-5.7,3.3"/>
				<path class="st1" d="M155.5,28.4l-6,2.7c-2,0.9-3.9,2-5.8,2.9l-5.8,3l-5.7,3.3"/>
				<path class="st1" d="M136,46.7l5.5-3.2l5.6-2.9c1.9-0.9,3.7-2,5.7-2.9l5.8-2.6"/>
				<path class="st1" d="M157,31.8l-5.9,2.7c-1.9,0.9-3.8,1.9-5.7,2.9l-5.7,2.9l-5.6,3.2"/>
				<path class="st1" d="M137.9,49.9l5.4-3.1l5.6-2.9c1.9-0.9,3.7-1.9,5.6-2.8l5.7-2.6"/>
			</g>
			<g>
				<path class="st1" d="M178.8,15.5l-6.3,2.1c-1,0.4-2.1,0.7-3.1,1.1l-3.1,1.2c-4.1,1.6-8.2,3.2-12.2,5.1"/>
				<path class="st1" d="M179.9,19l-6.2,2.1c-1,0.4-2.1,0.7-3.1,1.1l-3,1.2c-4,1.6-8.1,3.1-12.1,5"/>
				<path class="st1" d="M158.6,35.2c3.8-1.8,7.8-3.3,11.7-4.9l2.9-1.2c1-0.4,2-0.7,3-1l6-2"/>
				<path class="st1" d="M181.1,22.5l-6.1,2.1c-1,0.4-2,0.7-3,1.1l-3,1.2c-4,1.6-8,3.1-11.9,4.9"/>
				<path class="st1" d="M160.1,38.5c3.8-1.8,7.7-3.3,11.5-4.8l2.9-1.1c1-0.4,2-0.7,2.9-1l5.9-2"/>
			</g>
			<g>
				<path class="st1" d="M204.4,8.7l-6.5,1.5c-2.2,0.5-4.3,1-6.4,1.6l-6.4,1.8l-3.2,0.9l-3.1,1.1"/>
				<path class="st1" d="M205.1,12.3l-6.4,1.5c-2.1,0.5-4.3,0.9-6.3,1.6l-6.3,1.8L183,18l-3.1,1"/>
				<path class="st1" d="M182.2,26l3-1l3-0.9l6.1-1.7c2-0.6,4.1-1.1,6.1-1.5l6.2-1.4"/>
				<path class="st1" d="M205.9,15.9l-6.3,1.4c-2.1,0.5-4.2,0.9-6.2,1.6l-6.2,1.8l-3.1,0.9l-3.1,1"/>
				<path class="st1" d="M183.3,29.5l3-1l3-0.9l6-1.7c2-0.6,4-1,6.1-1.5l6.1-1.4"/>
			</g>
			<g>
				<path class="st1" d="M230.5,4.5c-4.4,0.6-8.8,1.1-13.1,1.7l-6.5,1.2L207.6,8L206,8.3l-1.6,0.4"/>
				<path class="st1" d="M230.9,8.2c-4.3,0.6-8.6,1-12.9,1.7l-6.4,1.1l-3.2,0.6l-1.6,0.3l-1.6,0.4"/>
				<path class="st1" d="M206.7,19.5l1.5-0.4l1.6-0.3l3.1-0.6l6.2-1.1c4.2-0.6,8.4-1.1,12.6-1.6"/>
				<path class="st1" d="M231.3,11.9c-4.3,0.6-8.5,1-12.8,1.7l-6.3,1.1l-3.2,0.6l-1.6,0.3l-1.6,0.4"/>
				<path class="st1" d="M207.4,23.2l1.5-0.4l1.5-0.3l3.1-0.5l6.1-1.1c4.1-0.6,8.2-1.1,12.4-1.6"/>
			</g>
			<g>
				<path class="st1" d="M257,3l-13.2,0.3c-4.4,0.3-8.8,0.6-13.2,1"/>
				<path class="st1" d="M257,6.8L244,7c-4.3,0.3-8.7,0.6-13,1"/>
				<path class="st1" d="M231.7,15.5c4.2-0.4,8.4-0.7,12.6-1l12.7-0.3"/>
				<path class="st1" d="M257,10.5l-12.9,0.3c-4.3,0.3-8.6,0.6-12.8,1"/>
				<path class="st1" d="M232.1,19.3c4.1-0.4,8.3-0.6,12.4-1L257,18"/>
			</g>
			<g>
				<path class="st1" d="M283.5,4.5c-4.4-0.4-8.8-0.7-13.2-1l-13.2-0.3"/>
				<path class="st1" d="M283.1,8.2c-4.3-0.4-8.7-0.7-13-1l-13-0.3"/>
				<path class="st1" d="M257,14.3l12.7,0.3c4.2,0.3,8.4,0.6,12.6,1"/>
				<path class="st1" d="M282.7,11.9c-4.3-0.4-8.6-0.7-12.8-1L257,10.6"/>
				<path class="st1" d="M257,18l12.5,0.3c4.1,0.3,8.3,0.6,12.4,1"/>
			</g>
			<g>
				<path class="st1" d="M309.6,8.7L308,8.3L306.4,8l-3.3-0.6l-6.5-1.2c-4.4-0.7-8.8-1.1-13.1-1.7"/>
				<path class="st1" d="M308.9,12.3l-1.6-0.4l-1.6-0.3l-3.2-0.6l-6.4-1.1c-4.3-0.7-8.6-1.1-12.9-1.7"/>
				<path class="st1" d="M282.3,15.5c4.2,0.6,8.4,1,12.6,1.6l6.2,1.1l3.1,0.6l1.6,0.3l1.5,0.4"/>
				<path class="st1" d="M308.1,15.9l-1.6-0.4l-1.6-0.3l-3.2-0.6l-6.3-1.1c-4.2-0.6-8.5-1.1-12.8-1.7"/>
				<path class="st1" d="M281.9,19.3c4.1,0.5,8.3,1,12.4,1.6l6.1,1.1l3.1,0.5l1.5,0.3l1.5,0.4"/>
			</g>
			<g>
				<path class="st1" d="M335.2,15.5l-3.1-1.1l-3.2-0.9l-6.4-1.8c-2.1-0.6-4.3-1.1-6.4-1.6l-6.5-1.5"/>
				<path class="st1" d="M334.1,19l-3.1-1l-3.1-0.9l-6.3-1.8c-2.1-0.6-4.2-1.1-6.3-1.6l-6.4-1.5"/>
				<path class="st1" d="M307.3,19.5l6.2,1.4c2.1,0.5,4.1,0.9,6.1,1.5l6.1,1.7l3,0.9l3,1"/>
				<path class="st1" d="M332.9,22.5l-3.1-1l-3.1-0.9l-6.2-1.8c-2.1-0.6-4.2-1.1-6.2-1.6l-6.3-1.4"/>
				<path class="st1" d="M306.6,23.2l6.1,1.4c2,0.5,4.1,0.9,6.1,1.5l6,1.7l3,0.9l3,1"/>
			</g>
			<g>
				<path class="st1" d="M360,25c-4-1.9-8.1-3.5-12.2-5.1l-3.1-1.2c-1-0.4-2.1-0.7-3.1-1.1l-6.3-2.1"/>
				<path class="st1" d="M358.5,28.4c-3.9-1.9-8-3.4-12.1-5l-3-1.2c-1-0.4-2.1-0.7-3.1-1.1l-6.2-2.1"/>
				<path class="st1" d="M331.8,26l6,2c1,0.4,2,0.6,3,1l2.9,1.2c3.9,1.6,7.9,3,11.7,4.9"/>
				<path class="st1" d="M357,31.8c-3.9-1.8-7.9-3.4-11.9-4.9l-3-1.2c-1-0.4-2-0.7-3-1.1l-6.1-2.1"/>
				<path class="st1" d="M330.7,29.5l5.9,2c1,0.3,2,0.6,2.9,1l2.9,1.1c3.9,1.5,7.8,3,11.5,4.8"/>
			</g>
			<g>
				<path class="st1" d="M383.6,37l-5.7-3.3l-5.9-3c-2-1-3.9-2-5.9-3l-6-2.7"/>
				<path class="st1" d="M381.7,40.3L376,37l-5.8-3c-1.9-1-3.9-2-5.8-2.9l-6-2.7"/>
				<path class="st1" d="M355.4,35.2l5.8,2.6c1.9,0.9,3.8,1.9,5.7,2.9l5.6,2.9l5.5,3.2"/>
				<path class="st1" d="M379.9,43.5l-5.6-3.2l-5.7-2.9c-1.9-1-3.8-2-5.7-2.9l-5.9-2.7"/>
				<path class="st1" d="M353.9,38.5l5.7,2.6c1.9,0.9,3.7,1.9,5.6,2.8l5.6,2.9l5.4,3.1"/>
			</g>
			<g>
				<path class="st1" d="M405.8,51.5c-3.6-2.5-7.1-5.2-10.9-7.5l-5.6-3.6c-1.9-1.2-3.8-2.2-5.7-3.4"/>
				<path class="st1" d="M403.6,54.5c-3.6-2.5-7-5.1-10.8-7.4l-5.5-3.5c-1.8-1.2-3.8-2.2-5.6-3.3"/>
				<path class="st1" d="M378,46.7c1.8,1.1,3.7,2.1,5.5,3.2l5.3,3.4c3.6,2.2,7,4.7,10.4,7.2"/>
				<path class="st1" d="M401.4,57.5c-3.5-2.5-6.9-5-10.6-7.3l-5.4-3.5c-1.8-1.2-3.7-2.2-5.5-3.3"/>
				<path class="st1" d="M376.1,49.9c1.8,1.1,3.6,2,5.4,3.2l5.3,3.4c3.6,2.2,6.9,4.7,10.3,7.1"/>
			</g>
			<g>
				<path class="st1" d="M426.4,68.2l-5-4.3c-1.7-1.4-3.3-2.9-5.1-4.3l-5.2-4.1l-2.6-2l-2.7-1.9"/>
				<path class="st1" d="M423.9,70.9l-4.9-4.3c-1.7-1.4-3.3-2.9-5-4.2l-5.1-4l-2.6-2l-2.7-1.9"/>
				<path class="st1" d="M399.2,60.5l2.6,1.8l2.5,2l5,3.9c1.7,1.3,3.3,2.7,4.9,4.1l4.8,4.1"/>
				<path class="st1" d="M421.4,73.7l-4.9-4.2c-1.6-1.4-3.2-2.8-4.9-4.1l-5.1-4l-2.5-2l-2.6-1.9"/>
				<path class="st1" d="M397.1,63.5l2.5,1.8l2.5,1.9L407,71c1.7,1.3,3.2,2.7,4.8,4l4.7,4.1"/>
			</g>
			<g>
				<path class="st1" d="M445.1,86.9c-3-3.3-6.1-6.4-9.1-9.6c-3.2-3-6.4-6.1-9.6-9.1"/>
				<path class="st1" d="M442.4,89.4c-2.9-3.2-6-6.3-9-9.5c-3.2-3-6.3-6-9.5-9"/>
				<path class="st1" d="M418.9,76.4c3.1,2.8,6.1,5.8,9.2,8.7c2.9,3.1,5.9,6.1,8.7,9.2"/>
				<path class="st1" d="M439.6,91.9c-2.9-3.2-5.9-6.2-8.8-9.3c-3.1-2.9-6.2-6-9.3-8.8"/>
				<path class="st1" d="M416.5,79.2c3.1,2.8,6,5.7,9.1,8.6c2.9,3,5.8,6,8.6,9.1"/>
			</g>
			<g>
				<path class="st1" d="M461.8,107.5l-1.9-2.7l-2-2.6l-4.1-5.2c-1.3-1.8-2.8-3.4-4.3-5.1l-4.3-5"/>
				<path class="st1" d="M458.8,109.7l-1.9-2.7l-2-2.6l-4-5.1c-1.3-1.7-2.8-3.3-4.2-5l-4.3-4.9"/>
				<path class="st1" d="M436.9,94.4l4.1,4.8c1.4,1.6,2.8,3.2,4.1,4.9l3.9,5l2,2.5l1.8,2.6"/>
				<path class="st1" d="M455.8,111.9l-1.9-2.6l-2-2.5l-4-5.1c-1.3-1.7-2.7-3.3-4.1-4.9l-4.2-4.9"/>
				<path class="st1" d="M434.1,96.8l4.1,4.7c1.4,1.6,2.8,3.1,4,4.8l3.9,4.9l1.9,2.5l1.8,2.5"/>
			</g>
			<g>
				<path class="st1" d="M476.2,129.6c-1.1-1.9-2.2-3.9-3.4-5.7l-3.6-5.6c-2.3-3.8-5-7.3-7.5-10.9"/>
				<path class="st1" d="M473,131.5c-1.1-1.9-2.1-3.8-3.3-5.6l-3.5-5.5c-2.3-3.7-4.9-7.2-7.4-10.8"/>
				<path class="st1" d="M452.8,114c2.4,3.5,5,6.8,7.2,10.4l3.4,5.3c1.1,1.8,2.1,3.6,3.2,5.5"/>
				<path class="st1" d="M469.8,133.4c-1.1-1.8-2.1-3.7-3.3-5.5l-3.5-5.4c-2.2-3.7-4.8-7.1-7.3-10.6"/>
				<path class="st1" d="M449.8,116.2c2.4,3.4,4.9,6.7,7.1,10.3l3.4,5.3c1.1,1.7,2.1,3.6,3.2,5.4"/>
			</g>
			<g>
				<path class="st1" d="M488.3,153.3l-2.7-6c-0.9-2-2-3.9-3-5.9l-3-5.9l-3.3-5.7"/>
				<path class="st1" d="M484.9,154.8l-2.7-6c-0.9-2-2-3.9-2.9-5.8l-3-5.8l-3.3-5.7"/>
				<path class="st1" d="M466.6,135.3l3.2,5.5l2.9,5.6c0.9,1.9,2,3.7,2.9,5.7l2.6,5.8"/>
				<path class="st1" d="M481.5,156.3l-2.7-5.9c-0.9-1.9-1.9-3.8-2.9-5.7l-2.9-5.7l-3.2-5.6"/>
				<path class="st1" d="M463.4,137.1l3.1,5.4l2.9,5.6c0.9,1.9,1.9,3.7,2.8,5.6l2.6,5.7"/>
			</g>
			<g>
				<path class="st1" d="M497.8,178l-2.1-6.3c-0.4-1-0.7-2.1-1.1-3.1l-1.2-3.1c-1.6-4.1-3.2-8.2-5.1-12.2"/>
				<path class="st1" d="M494.3,179.1l-2.1-6.2c-0.4-1-0.7-2.1-1.1-3.1l-1.2-3c-1.6-4-3.1-8.1-5-12.1"/>
				<path class="st1" d="M478.1,157.9c1.8,3.8,3.3,7.8,4.9,11.7l1.2,2.9c0.4,1,0.7,2,1,3l2,6"/>
				<path class="st1" d="M490.7,180.4l-2.1-6.1c-0.4-1-0.7-2-1.1-3l-1.2-3c-1.6-4-3.1-8-4.9-11.9"/>
				<path class="st1" d="M474.7,159.4c1.8,3.8,3.3,7.7,4.8,11.5l1.1,2.9c0.4,1,0.7,2,1,2.9l2,5.9"/>
			</g>
			<g>
				<path class="st1" d="M504.6,203.6l-1.5-6.5c-0.5-2.2-1-4.3-1.6-6.4l-1.8-6.4l-0.9-3.2l-1.1-3.1"/>
				<path class="st1" d="M501,204.4l-1.5-6.4c-0.5-2.1-0.9-4.3-1.6-6.3l-1.8-6.3l-0.9-3.1l-1-3.1"/>
				<path class="st1" d="M487.2,181.5l1,3l0.9,3l1.7,6.1c0.6,2,1.1,4.1,1.5,6.1l1.4,6.2"/>
				<path class="st1" d="M497.4,205.1l-1.4-6.3c-0.5-2.1-0.9-4.2-1.6-6.2l-1.8-6.2l-0.9-3.1l-1-3.1"/>
				<path class="st1" d="M483.7,182.5l1,3l0.9,3l1.7,6c0.6,2,1,4,1.5,6.1l1.4,6.1"/>
			</g>
			<g>
				<path class="st1" d="M508.8,229.8c-0.6-4.4-1.1-8.8-1.7-13.1l-1.2-6.5l-0.6-3.3l-0.3-1.6l-0.4-1.6"/>
				<path class="st1" d="M505.1,230.1c-0.6-4.3-1-8.6-1.7-12.9l-1.1-6.4l-0.6-3.2l-0.3-1.6l-0.4-1.6"/>
				<path class="st1" d="M493.8,206l0.4,1.5l0.3,1.6l0.6,3.1l1.1,6.2c0.6,4.2,1.1,8.4,1.6,12.6"/>
				<path class="st1" d="M501.4,230.5c-0.6-4.3-1-8.5-1.7-12.8l-1.1-6.3l-0.6-3.2l-0.3-1.6l-0.4-1.6"/>
				<path class="st1" d="M490.1,206.6l0.4,1.5l0.3,1.5l0.5,3.1l1.1,6.1c0.6,4.1,1.1,8.2,1.6,12.4"/>
			</g>
			<g>
				<path class="st1" d="M510.2,256.3l-0.3-13.2c-0.3-4.4-0.6-8.8-1-13.2"/>
				<path class="st1" d="M506.5,256.3l-0.3-13c-0.3-4.3-0.6-8.7-1-13"/>
				<path class="st1" d="M497.7,231c0.4,4.2,0.7,8.4,1,12.6l0.3,12.7"/>
				<path class="st1" d="M502.7,256.3l-0.3-12.9c-0.3-4.3-0.6-8.6-1-12.8"/>
				<path class="st1" d="M494,231.4c0.4,4.1,0.6,8.3,1,12.4l0.3,12.5"/>
			</g>
			<g>
				<path class="st1" d="M508.8,282.8c0.4-4.4,0.7-8.8,1-13.2l0.3-13.2"/>
				<path class="st1" d="M505.1,282.4c0.4-4.3,0.7-8.7,1-13l0.3-13"/>
				<path class="st1" d="M499,256.3l-0.3,12.7c-0.3,4.2-0.6,8.4-1,12.6"/>
				<path class="st1" d="M501.4,282c0.4-4.3,0.7-8.6,1-12.8l0.3-12.9"/>
				<path class="st1" d="M495.3,256.3l-0.3,12.5c-0.3,4.1-0.6,8.3-1,12.4"/>
			</g>
			<g>
				<path class="st1" d="M504.6,308.9l0.4-1.6l0.3-1.6l0.6-3.3l1.2-6.5c0.7-4.4,1.1-8.8,1.7-13.1"/>
				<path class="st1" d="M501,308.1l0.4-1.6l0.3-1.6l0.6-3.2l1.1-6.4c0.7-4.3,1.1-8.6,1.7-12.9"/>
				<path class="st1" d="M497.7,281.6c-0.6,4.2-1,8.4-1.6,12.6l-1.1,6.2l-0.6,3.1l-0.3,1.6l-0.4,1.5"/>
				<path class="st1" d="M497.4,307.4l0.4-1.6l0.3-1.6l0.6-3.2l1.1-6.3c0.6-4.2,1.1-8.5,1.7-12.8"/>
				<path class="st1" d="M494,281.1c-0.5,4.1-1,8.3-1.6,12.4l-1.1,6.1l-0.5,3.1l-0.3,1.5l-0.4,1.5"/>
			</g>
			<g>
				<path class="st1" d="M497.8,334.5l1.1-3.1l0.9-3.2l1.7-6.4c0.6-2.1,1.1-4.3,1.6-6.4l1.5-6.5"/>
				<path class="st1" d="M494.3,333.4l1-3.1l0.9-3.1l1.8-6.3c0.6-2.1,1.1-4.2,1.6-6.3l1.5-6.4"/>
				<path class="st1" d="M493.8,306.6l-1.4,6.2c-0.5,2.1-0.9,4.1-1.5,6.1l-1.7,6.1l-0.9,3l-1,3"/>
				<path class="st1" d="M490.7,332.1l1-3.1l0.9-3.1l1.8-6.2c0.6-2.1,1.1-4.2,1.6-6.2l1.4-6.3"/>
				<path class="st1" d="M490.1,305.9l-1.4,6.1c-0.5,2-0.9,4.1-1.5,6.1l-1.7,6l-0.9,3l-1,3"/>
			</g>
			<g>
				<path class="st1" d="M488.3,359.3c1.9-4,3.5-8.1,5.1-12.2l1.2-3.1c0.4-1,0.7-2.1,1.1-3.1l2.1-6.3"/>
				<path class="st1" d="M484.9,357.8c1.9-3.9,3.4-8,5-12.1l1.2-3c0.4-1,0.7-2.1,1.1-3.1l2.1-6.2"/>
				<path class="st1" d="M487.2,331.1l-2,6c-0.4,1-0.6,2-1,3L483,343c-1.6,3.9-3,7.9-4.9,11.7"/>
				<path class="st1" d="M481.5,356.3c1.8-3.9,3.4-7.9,4.9-11.9l1.2-3c0.4-1,0.7-2,1.1-3l2.1-6.1"/>
				<path class="st1" d="M483.7,330l-2,5.9c-0.3,1-0.6,2-1,2.9l-1.1,2.9c-1.5,3.9-3,7.8-4.8,11.5"/>
			</g>
			<g>
				<path class="st1" d="M476.2,382.9l3.3-5.7l3-5.9c1-2,2-3.9,3-5.9l2.7-6"/>
				<path class="st1" d="M473,381l3.3-5.7l3-5.8c1-1.9,2-3.9,2.9-5.8l2.7-6"/>
				<path class="st1" d="M478.1,354.6l-2.6,5.8c-0.9,1.9-1.9,3.8-2.9,5.7l-2.9,5.6l-3.2,5.5"/>
				<path class="st1" d="M469.8,379.1l3.2-5.6l2.9-5.7c1-1.9,2-3.8,2.9-5.7l2.7-5.9"/>
				<path class="st1" d="M474.7,353.1l-2.6,5.7c-0.9,1.9-1.9,3.7-2.8,5.6l-2.9,5.6l-3.1,5.4"/>
			</g>
			<g>
				<path class="st1" d="M461.8,405.1c2.5-3.6,5.2-7.1,7.5-10.9l3.6-5.6c1.2-1.9,2.2-3.8,3.4-5.7"/>
				<path class="st1" d="M458.8,402.9c2.5-3.6,5.1-7,7.4-10.8l3.5-5.5c1.2-1.8,2.2-3.8,3.3-5.6"/>
				<path class="st1" d="M466.6,377.3c-1.1,1.8-2.1,3.7-3.2,5.5l-3.4,5.3c-2.2,3.6-4.7,7-7.2,10.4"/>
				<path class="st1" d="M455.8,400.6c2.5-3.5,5-6.9,7.3-10.6l3.5-5.4c1.2-1.8,2.2-3.7,3.3-5.5"/>
				<path class="st1" d="M463.4,375.4c-1.1,1.8-2,3.6-3.2,5.4l-3.4,5.3c-2.2,3.6-4.7,6.9-7.1,10.3"/>
			</g>
			<g>
				<path class="st1" d="M445.1,425.6l4.3-5c1.4-1.7,2.9-3.3,4.3-5.1l4.1-5.2l2-2.6l1.9-2.7"/>
				<path class="st1" d="M442.4,423.1l4.3-4.9c1.4-1.7,2.9-3.3,4.2-5l4-5.1l2-2.6l1.9-2.7"/>
				<path class="st1" d="M452.8,398.5L451,401l-2,2.5l-3.9,5c-1.3,1.7-2.7,3.3-4.1,4.9l-4.1,4.8"/>
				<path class="st1" d="M439.6,420.6l4.2-4.9c1.4-1.6,2.8-3.2,4.1-4.9l4-5.1l2-2.5l1.9-2.6"/>
				<path class="st1" d="M449.8,396.4l-1.8,2.5l-1.9,2.5l-3.9,4.9c-1.3,1.7-2.7,3.2-4,4.8l-4.1,4.7"/>
			</g>
			<g>
				<path class="st1" d="M426.4,444.4c3.3-3,6.4-6.1,9.6-9.1c3-3.2,6.1-6.4,9.1-9.6"/>
				<path class="st1" d="M423.9,441.6c3.2-2.9,6.3-6,9.5-9c3-3.2,6-6.3,9-9.5"/>
				<path class="st1" d="M436.9,418.1c-2.8,3.1-5.8,6.1-8.7,9.2c-3.1,2.9-6.1,5.9-9.2,8.7"/>
				<path class="st1" d="M421.4,438.9c3.2-2.9,6.2-5.9,9.3-8.8c2.9-3.1,6-6.2,8.8-9.3"/>
				<path class="st1" d="M434.1,415.8c-2.8,3.1-5.7,6-8.6,9.1c-3,2.9-6,5.8-9.1,8.6"/>
			</g>
			<g>
				<path class="st1" d="M405.8,461.1l2.7-1.9l2.6-2l5.2-4.1c1.8-1.3,3.4-2.8,5.1-4.3l5-4.3"/>
				<path class="st1" d="M403.6,458.1l2.7-1.9l2.6-2l5.1-4c1.7-1.3,3.3-2.8,5-4.2l4.9-4.3"/>
				<path class="st1" d="M418.9,436.1l-4.8,4.1c-1.6,1.4-3.2,2.8-4.9,4.1l-5,3.9l-2.5,2l-2.6,1.8"/>
				<path class="st1" d="M401.4,455.1l2.6-1.9l2.5-2l5.1-4c1.7-1.3,3.3-2.7,4.9-4.1l4.9-4.2"/>
				<path class="st1" d="M416.5,433.4l-4.7,4.1c-1.6,1.4-3.1,2.8-4.8,4l-4.9,3.9l-2.5,1.9l-2.5,1.8"/>
			</g>
			<g>
				<path class="st1" d="M383.6,475.5c1.9-1.1,3.9-2.2,5.7-3.4l5.6-3.6c3.8-2.3,7.3-5,10.9-7.5"/>
				<path class="st1" d="M381.7,472.3c1.9-1.1,3.8-2.1,5.6-3.3l5.5-3.5c3.7-2.3,7.2-4.9,10.8-7.4"/>
				<path class="st1" d="M399.2,452.1c-3.5,2.4-6.8,5-10.4,7.2l-5.3,3.4c-1.8,1.1-3.6,2.1-5.5,3.2"/>
				<path class="st1" d="M379.9,469.1c1.8-1.1,3.7-2.1,5.5-3.3l5.4-3.5c3.7-2.2,7.1-4.8,10.6-7.3"/>
				<path class="st1" d="M397.1,449.1c-3.4,2.4-6.7,4.9-10.3,7.1l-5.3,3.4c-1.7,1.1-3.6,2.1-5.4,3.2"/>
			</g>
			<g>
				<path class="st1" d="M360,487.6l6-2.7c2-0.9,3.9-2,5.9-3l5.9-3l5.7-3.3"/>
				<path class="st1" d="M358.5,484.1l6-2.7c2-0.9,3.9-2,5.8-2.9l5.8-3l5.7-3.3"/>
				<path class="st1" d="M378,465.9l-5.5,3.2l-5.6,2.9c-1.9,0.9-3.7,2-5.7,2.9l-5.8,2.6"/>
				<path class="st1" d="M357,480.8l5.9-2.7c1.9-0.9,3.8-1.9,5.7-2.9l5.7-2.9l5.6-3.2"/>
				<path class="st1" d="M376.1,462.6l-5.4,3.1l-5.6,2.9c-1.9,0.9-3.7,1.9-5.6,2.8l-5.7,2.6"/>
			</g>
			<g>
				<path class="st1" d="M335.2,497.1l6.3-2.1c1-0.4,2.1-0.7,3.1-1.1l3.1-1.2c4.1-1.6,8.2-3.2,12.2-5.1"/>
				<path class="st1" d="M334.1,493.6l6.2-2.1c1-0.4,2.1-0.7,3.1-1.1l3-1.2c4-1.6,8.1-3.1,12.1-5"/>
				<path class="st1" d="M355.4,477.4c-3.8,1.8-7.8,3.3-11.7,4.9l-2.9,1.2c-1,0.4-2,0.7-3,1l-6,2"/>
				<path class="st1" d="M332.9,490l6.1-2.1c1-0.4,2-0.7,3-1.1l3-1.2c4-1.6,8-3.1,11.9-4.9"/>
				<path class="st1" d="M353.9,474c-3.8,1.8-7.7,3.3-11.5,4.8l-2.9,1.1c-1,0.4-2,0.7-2.9,1l-5.9,2"/>
			</g>
			<g>
				<path class="st1" d="M309.6,503.9l6.5-1.5c2.2-0.5,4.3-1,6.4-1.6l6.4-1.8l3.2-0.9l3.1-1.1"/>
				<path class="st1" d="M308.9,500.3l6.4-1.5c2.1-0.5,4.3-0.9,6.3-1.6l6.3-1.8l3.1-0.9l3.1-1"/>
				<path class="st1" d="M331.8,486.5l-3,1l-3,0.9l-6.1,1.7c-2,0.6-4.1,1.1-6.1,1.5l-6.2,1.4"/>
				<path class="st1" d="M308.1,496.6l6.3-1.4c2.1-0.5,4.2-0.9,6.2-1.6l6.2-1.8l3.1-0.9l3.1-1"/>
				<path class="st1" d="M330.7,483l-3,1l-3,0.9l-6,1.7c-2,0.6-4,1-6.1,1.5l-6.1,1.4"/>
			</g>
			<g>
				<path class="st1" d="M283.5,508.1c4.4-0.6,8.8-1.1,13.1-1.7l6.5-1.2l3.3-0.6l1.6-0.3l1.6-0.4"/>
				<path class="st1" d="M283.1,504.4c4.3-0.6,8.6-1,12.9-1.7l6.4-1.1l3.2-0.6l1.6-0.3l1.6-0.4"/>
				<path class="st1" d="M307.3,493.1l-1.5,0.4l-1.6,0.3l-3.1,0.6l-6.2,1.1c-4.2,0.6-8.4,1.1-12.6,1.6"/>
				<path class="st1" d="M282.7,500.6c4.3-0.6,8.5-1,12.8-1.7l6.3-1.1l3.2-0.6l1.6-0.3l1.6-0.4"/>
				<path class="st1" d="M306.6,489.4l-1.5,0.4l-1.5,0.3l-3.1,0.5l-6.1,1.1c-4.1,0.6-8.2,1.1-12.4,1.6"/>
			</g>
			<g>
				<path class="st1" d="M257,509.5l13.2-0.3c4.4-0.3,8.8-0.6,13.2-1"/>
				<path class="st1" d="M257,505.8l13-0.3c4.3-0.3,8.7-0.6,13-1"/>
				<path class="st1" d="M282.3,497c-4.2,0.4-8.4,0.7-12.6,1l-12.7,0.3"/>
				<path class="st1" d="M257,502l12.9-0.3c4.3-0.3,8.6-0.6,12.8-1"/>
				<path class="st1" d="M281.9,493.3c-4.1,0.4-8.3,0.6-12.4,1l-12.5,0.3"/>
			</g>
			<g>
				<path class="st1" d="M230.5,508.1c4.4,0.4,8.8,0.7,13.2,1l13.2,0.3"/>
				<path class="st1" d="M230.9,504.4c4.3,0.4,8.7,0.7,13,1l13,0.3"/>
				<path class="st1" d="M257,498.3l-12.7-0.3c-4.2-0.3-8.4-0.6-12.6-1"/>
				<path class="st1" d="M231.3,500.6c4.3,0.4,8.6,0.7,12.8,1L257,502"/>
				<path class="st1" d="M257,494.6l-12.5-0.3c-4.1-0.3-8.3-0.6-12.4-1"/>
			</g>
			<g>
				<path class="st1" d="M204.4,503.9l1.6,0.4l1.6,0.3l3.3,0.6l6.5,1.2c4.4,0.7,8.8,1.1,13.1,1.7"/>
				<path class="st1" d="M205.1,500.3l1.6,0.4l1.6,0.3l3.2,0.6l6.4,1.1c4.3,0.7,8.6,1.1,12.9,1.7"/>
				<path class="st1" d="M231.7,497c-4.2-0.6-8.4-1-12.6-1.6l-6.2-1.1l-3.1-0.6l-1.6-0.3l-1.5-0.4"/>
				<path class="st1" d="M205.9,496.6l1.6,0.4l1.6,0.3l3.2,0.6l6.3,1.1c4.2,0.6,8.5,1.1,12.8,1.7"/>
				<path class="st1" d="M232.1,493.3c-4.1-0.5-8.3-1-12.4-1.6l-6.1-1.1l-3.1-0.5l-1.5-0.3l-1.5-0.4"/>
			</g>
			<g>
				<path class="st1" d="M178.8,497.1l3.1,1.1l3.2,0.9l6.4,1.7c2.1,0.6,4.3,1.1,6.4,1.6l6.5,1.5"/>
				<path class="st1" d="M179.9,493.6l3.1,1l3.1,0.9l6.3,1.8c2.1,0.6,4.2,1.1,6.3,1.6l6.4,1.5"/>
				<path class="st1" d="M206.7,493.1l-6.2-1.4c-2.1-0.5-4.1-0.9-6.1-1.5l-6.1-1.7l-3-0.9l-3-1"/>
				<path class="st1" d="M181.1,490l3.1,1l3.1,0.9l6.2,1.8c2.1,0.6,4.2,1.1,6.2,1.6l6.3,1.4"/>
				<path class="st1" d="M207.4,489.4l-6.1-1.4c-2-0.5-4.1-0.9-6.1-1.5l-6-1.7l-3-0.9l-3-1"/>
			</g>
			<g>
				<path class="st1" d="M154,487.6c4,1.9,8.1,3.5,12.2,5.1l3.1,1.2c1,0.4,2.1,0.7,3.1,1.1l6.3,2.1"/>
				<path class="st1" d="M155.5,484.1c3.9,1.9,8,3.4,12.1,5l3,1.2c1,0.4,2.1,0.7,3.1,1.1l6.2,2.1"/>
				<path class="st1" d="M182.2,486.5l-6-2c-1-0.4-2-0.6-3-1l-2.9-1.2c-3.9-1.6-7.9-3-11.7-4.9"/>
				<path class="st1" d="M157,480.8c3.9,1.8,7.9,3.4,11.9,4.9l3,1.2c1,0.4,2,0.7,3,1.1l6.1,2.1"/>
				<path class="st1" d="M183.3,483l-5.9-2c-1-0.3-2-0.6-2.9-1l-2.9-1.1c-3.9-1.5-7.8-3-11.5-4.8"/>
			</g>
			<g>
				<path class="st1" d="M130.4,475.5l5.7,3.3l5.9,3c2,1,3.9,2,5.9,3l6,2.7"/>
				<path class="st1" d="M132.3,472.3l5.7,3.3l5.8,3c1.9,1,3.9,2,5.8,2.9l6,2.7"/>
				<path class="st1" d="M158.6,477.4l-5.8-2.6c-1.9-0.9-3.8-1.9-5.7-2.9l-5.6-2.9l-5.5-3.2"/>
				<path class="st1" d="M134.1,469.1l5.6,3.2l5.7,2.9c1.9,1,3.8,2,5.7,2.9l5.9,2.7"/>
				<path class="st1" d="M160.1,474l-5.7-2.6c-1.9-0.9-3.7-1.9-5.6-2.8l-5.6-2.9l-5.4-3.1"/>
			</g>
			<g>
				<path class="st1" d="M108.2,461.1c3.6,2.5,7.1,5.2,10.9,7.5l5.6,3.6c1.9,1.2,3.8,2.2,5.7,3.4"/>
				<path class="st1" d="M110.4,458.1c3.6,2.5,7,5.1,10.8,7.4l5.5,3.5c1.8,1.2,3.8,2.2,5.6,3.3"/>
				<path class="st1" d="M136,465.9c-1.8-1.1-3.7-2.1-5.5-3.2l-5.3-3.4c-3.6-2.2-7-4.7-10.4-7.2"/>
				<path class="st1" d="M112.6,455.1c3.5,2.5,6.9,5,10.6,7.3l5.4,3.5c1.8,1.2,3.7,2.2,5.5,3.3"/>
				<path class="st1" d="M137.9,462.6c-1.8-1.1-3.6-2-5.4-3.2l-5.3-3.4c-3.6-2.2-6.9-4.7-10.3-7.1"/>
			</g>
			<g>
				<path class="st1" d="M87.6,444.4l5,4.3c1.7,1.4,3.3,2.9,5.1,4.3l5.2,4.1l2.6,2l2.7,1.9"/>
				<path class="st1" d="M90.1,441.6L95,446c1.7,1.4,3.3,2.9,5,4.2l5.1,4l2.6,2l2.7,1.9"/>
				<path class="st1" d="M114.8,452.1l-2.6-1.8l-2.5-2l-5-3.9c-1.7-1.3-3.3-2.7-4.9-4.1l-4.8-4.1"/>
				<path class="st1" d="M92.6,438.9l4.9,4.2c1.6,1.4,3.2,2.8,4.9,4.1l5.1,4l2.5,2l2.6,1.9"/>
				<path class="st1" d="M116.9,449.1l-2.5-1.8l-2.5-1.9l-4.9-3.9c-1.7-1.3-3.2-2.7-4.8-4l-4.7-4.1"/>
			</g>
			<g>
				<path class="st1" d="M68.9,425.6c3,3.3,6.1,6.4,9.1,9.6c3.2,3,6.4,6.1,9.6,9.1"/>
				<path class="st1" d="M71.6,423.1c2.9,3.2,6,6.3,9,9.5c3.2,3,6.3,6,9.5,9"/>
				<path class="st1" d="M95.1,436.1c-3.1-2.8-6.1-5.8-9.2-8.7c-2.9-3.1-5.9-6.1-8.7-9.2"/>
				<path class="st1" d="M74.4,420.6c2.9,3.2,5.9,6.2,8.8,9.3c3.1,2.9,6.2,6,9.3,8.8"/>
				<path class="st1" d="M97.5,433.4c-3.1-2.8-6-5.7-9.1-8.6c-2.9-3-5.8-6-8.6-9.1"/>
			</g>
			<g>
				<path class="st1" d="M52.2,405.1l1.9,2.7l2,2.6l4.1,5.2c1.3,1.8,2.8,3.4,4.3,5.1l4.3,5"/>
				<path class="st1" d="M55.2,402.9l1.9,2.7l2,2.6l4,5.1c1.3,1.7,2.8,3.3,4.2,5l4.3,4.9"/>
				<path class="st1" d="M77.1,418.1l-4.1-4.8c-1.4-1.6-2.8-3.2-4.1-4.9l-3.9-5l-2-2.5l-1.8-2.6"/>
				<path class="st1" d="M58.2,400.6l1.9,2.6l2,2.5l4,5.1c1.3,1.7,2.7,3.3,4.1,4.9l4.2,4.9"/>
				<path class="st1" d="M79.9,415.8l-4.1-4.7c-1.4-1.6-2.8-3.1-4-4.8l-3.9-4.9l-1.9-2.5l-1.8-2.5"/>
			</g>
			<g>
				<path class="st1" d="M37.8,382.9c1.1,1.9,2.2,3.9,3.4,5.7l3.6,5.6c2.3,3.8,5,7.3,7.5,10.9"/>
				<path class="st1" d="M41,381c1.1,1.9,2.1,3.8,3.3,5.6l3.5,5.5c2.3,3.7,4.9,7.2,7.4,10.8"/>
				<path class="st1" d="M61.2,398.5c-2.4-3.5-5-6.8-7.2-10.4l-3.4-5.3c-1.1-1.8-2.1-3.6-3.2-5.5"/>
				<path class="st1" d="M44.2,379.1c1.1,1.8,2.1,3.7,3.3,5.5L51,390c2.2,3.7,4.8,7.1,7.3,10.6"/>
				<path class="st1" d="M64.2,396.4c-2.4-3.4-4.9-6.7-7.1-10.3l-3.4-5.3c-1.1-1.7-2.1-3.6-3.2-5.4"/>
			</g>
			<g>
				<path class="st1" d="M25.7,359.3l2.7,6c0.9,2,2,3.9,3,5.9l3,5.9l3.3,5.7"/>
				<path class="st1" d="M29.1,357.8l2.7,6c0.9,2,2,3.9,2.9,5.8l3,5.8l3.3,5.7"/>
				<path class="st1" d="M47.4,377.3l-3.2-5.5l-2.9-5.6c-0.9-1.9-2-3.7-2.9-5.7l-2.6-5.8"/>
				<path class="st1" d="M32.5,356.3l2.7,5.9c0.9,1.9,1.9,3.8,2.9,5.7l2.9,5.7l3.2,5.6"/>
				<path class="st1" d="M50.6,375.4l-3.1-5.4l-2.9-5.6c-0.9-1.9-1.9-3.7-2.8-5.6l-2.6-5.7"/>
			</g>
			<g>
				<path class="st1" d="M16.2,334.5l2.1,6.3c0.4,1,0.7,2.1,1.1,3.1l1.2,3.1c1.6,4.1,3.2,8.2,5.1,12.2"/>
				<path class="st1" d="M19.7,333.4l2.1,6.2c0.4,1,0.7,2.1,1.1,3.1l1.2,3c1.6,4,3.1,8.1,5,12.1"/>
				<path class="st1" d="M35.9,354.6c-1.8-3.8-3.3-7.8-4.9-11.7l-1.2-2.9c-0.4-1-0.7-2-1-3l-2-6"/>
				<path class="st1" d="M23.3,332.1l2.1,6.1c0.4,1,0.7,2,1.1,3l1.2,3c1.6,4,3.1,8,4.9,11.9"/>
				<path class="st1" d="M39.3,353.1c-1.8-3.8-3.3-7.7-4.8-11.5l-1.1-2.9c-0.4-1-0.7-2-1-2.9l-2-5.9"/>
			</g>
			<g>
				<path class="st1" d="M9.4,308.9l1.5,6.5c0.5,2.2,1,4.3,1.6,6.4l1.8,6.4l0.9,3.2l1.1,3.1"/>
				<path class="st1" d="M13,308.1l1.5,6.4c0.5,2.1,0.9,4.3,1.6,6.3l1.8,6.3l0.9,3.1l1,3.1"/>
				<path class="st1" d="M26.8,331.1l-1-3l-0.9-3l-1.7-6.1c-0.6-2-1.1-4.1-1.5-6.1l-1.4-6.2"/>
				<path class="st1" d="M16.6,307.4l1.4,6.3c0.5,2.1,0.9,4.2,1.6,6.2l1.8,6.2l0.9,3.1l1,3.1"/>
				<path class="st1" d="M30.3,330l-1-3l-0.9-3l-1.7-6c-0.6-2-1-4-1.5-6.1l-1.4-6.1"/>
			</g>
			<g>
				<path class="st1" d="M5.2,282.8c0.6,4.4,1.1,8.8,1.7,13.1l1.2,6.5l0.6,3.3l0.3,1.6l0.4,1.6"/>
				<path class="st1" d="M8.9,282.4c0.6,4.3,1,8.6,1.7,12.9l1.1,6.4l0.6,3.2l0.3,1.6l0.4,1.6"/>
				<path class="st1" d="M20.2,306.6l-0.4-1.5l-0.3-1.6l-0.6-3.1l-1.1-6.2c-0.6-4.2-1.1-8.4-1.6-12.6"/>
				<path class="st1" d="M12.6,282c0.6,4.3,1,8.5,1.7,12.8l1.1,6.3l0.6,3.2l0.3,1.6l0.4,1.6"/>
				<path class="st1" d="M23.9,305.9l-0.4-1.5l-0.3-1.5l-0.5-3.1l-1.1-6.1c-0.6-4.1-1.1-8.2-1.6-12.4"/>
			</g>
			<g>
				<path class="st1" d="M3.8,256.3l0.3,13.2c0.3,4.4,0.6,8.8,1,13.2"/>
				<path class="st1" d="M7.5,256.3l0.3,13c0.3,4.3,0.6,8.7,1,13"/>
				<path class="st1" d="M16.3,281.6c-0.4-4.2-0.7-8.4-1-12.6L15,256.3"/>
				<path class="st1" d="M11.3,256.3l0.3,12.9c0.3,4.3,0.6,8.6,1,12.8"/>
				<path class="st1" d="M20,281.1c-0.4-4.1-0.6-8.3-1-12.4l-0.3-12.5"/>
			</g>
		</g>
	</g>
</g>
<g>
	<path class="st2" d="M399.5,282.7c-6.2,0-11.5,4.7-12,10.9c-5.6,66.8-61.8,119-130.1,119c-72,0-130.6-58.2-130.6-129.8
		c0-70.5,56.8-128.1,127.2-129.8c1.9-0.1,3.3,1.4,3.3,3.2v40.5c0,10.1,11.2,16.2,19.8,10.9l77.4-54.1c8-5.1,8-16.7,0-21.8
		l-77.3-53.4c-8.6-5.4-19.8,0.7-19.8,10.9v36.8c0,1.8-1.4,3.2-3.1,3.2c-84,1.7-151.5,69.9-151.5,153.8
		c0,84.9,69.3,153.7,154.7,153.7c81.1,0,147.5-61.7,154.1-140.8C412.1,288.7,406.5,282.7,399.5,282.7z"/>
	<g>
		<g>
			<g>
				<path class="st3" d="M399.1,303c0.2-1.1,0.3-2.3,0.4-3.5l0.4-3.5l0.1-0.9c0-0.3,0.1-0.7,0.1-0.5c0,0,0,0,0,0.1c0,0,0,0.1,0,0.1
					c0,0.1-0.1,0.2-0.1,0.3c-0.1,0.1-0.1,0.1-0.1,0.2c0,0-0.1,0.1-0.1,0.1c-0.1,0-0.2,0.1-0.3,0.1"/>
				<path class="st3" d="M395.5,302.5c0.2-1.1,0.3-2.2,0.4-3.4l0.4-3.4l0.1-0.8c0-0.3,0.1-0.7,0.1-0.6c0-0.1,0-0.1,0-0.2
					c0-0.1,0-0.1,0-0.2c0.1-0.2,0.1-0.5,0.3-0.7c0.5-0.9,1.6-1.6,2.7-1.6"/>
				<path class="st3" d="M399.5,284.3c-3.7,0-7.3,2.1-9.1,5.3c-0.5,0.8-0.8,1.7-1,2.6l-0.2,0.7l-0.1,0.7c-0.1,0.5-0.1,1-0.2,1.6
					l-0.3,3.2c-0.1,1.1-0.2,2.1-0.4,3.2"/>
				<path class="st3" d="M391.8,302c0.2-1.1,0.3-2.2,0.4-3.3l0.4-3.3l0.1-0.8c0-0.3,0.1-0.6,0.1-0.7l0.1-0.4l0.1-0.4
					c0.1-0.6,0.3-1.1,0.6-1.6c1.1-2.1,3.5-3.5,5.9-3.4"/>
				<path class="st3" d="M399.5,280.6c-5,0-9.9,2.8-12.4,7.2c-0.6,1.1-1.1,2.3-1.4,3.5l-0.2,0.9l-0.1,0.9l-0.2,1.6l-0.3,3.1
					c-0.1,1-0.2,2.1-0.4,3.1"/>
			</g>
			<g>
				<path class="st3" d="M392.5,330.1c3.1-8.8,5.3-17.9,6.6-27.1"/>
				<path class="st3" d="M389,328.9c3-8.6,5.2-17.4,6.5-26.4"/>
				<path class="st3" d="M388.1,301.5c-1.2,8.5-3.3,16.9-6.1,25"/>
				<path class="st3" d="M385.5,327.7c2.9-8.3,5.1-16.9,6.3-25.7"/>
				<path class="st3" d="M384.5,300.9c-1.2,8.3-3.2,16.4-5.9,24.2"/>
			</g>
			<g>
				<path class="st3" d="M380.7,355.4c4.8-8,8.7-16.5,11.8-25.3"/>
				<path class="st3" d="M377.5,353.5c4.6-7.8,8.5-16,11.5-24.6"/>
				<path class="st3" d="M382,326.4c-2.9,8.1-6.5,15.9-10.9,23.3"/>
				<path class="st3" d="M374.3,351.6c4.5-7.6,8.3-15.6,11.2-23.9"/>
				<path class="st3" d="M378.5,325.2c-2.8,7.9-6.3,15.4-10.6,22.6"/>
			</g>
			<g>
				<path class="st3" d="M364.1,377.8c6.2-6.9,11.8-14.4,16.5-22.4"/>
				<path class="st3" d="M361.4,375.3c6.1-6.7,11.5-14.1,16.1-21.9"/>
				<path class="st3" d="M371.1,349.7c-4.4,7.4-9.5,14.3-15.2,20.7"/>
				<path class="st3" d="M358.6,372.9c5.9-6.6,11.1-13.7,15.7-21.3"/>
				<path class="st3" d="M367.9,347.8c-4.3,7.2-9.2,13.9-14.8,20.1"/>
			</g>
			<g>
				<path class="st3" d="M343.6,396.6c7.4-5.6,14.4-11.9,20.6-18.8"/>
				<path class="st3" d="M341.3,393.7c7.3-5.4,14-11.6,20-18.3"/>
				<path class="st3" d="M355.9,370.4c-5.7,6.4-12.1,12.2-19,17.3"/>
				<path class="st3" d="M339.1,390.7c7.1-5.3,13.6-11.2,19.5-17.8"/>
				<path class="st3" d="M353.1,367.9c-5.6,6.2-11.8,11.9-18.4,16.8"/>
			</g>
			<g>
				<path class="st3" d="M319.8,411.1c8.4-4,16.4-8.9,23.8-14.5"/>
				<path class="st3" d="M318.1,407.7c8.2-3.9,15.9-8.7,23.2-14.1"/>
				<path class="st3" d="M336.9,387.7c-6.9,5.1-14.2,9.6-22,13.3"/>
				<path class="st3" d="M316.5,404.4c7.9-3.8,15.5-8.4,22.6-13.7"/>
				<path class="st3" d="M334.7,384.8c-6.7,5-13.8,9.3-21.3,13"/>
			</g>
			<g>
				<path class="st3" d="M293.6,420.7c9-2.3,17.8-5.5,26.2-9.6"/>
				<path class="st3" d="M292.7,417.1c8.8-2.3,17.3-5.4,25.5-9.3"/>
				<path class="st3" d="M314.9,401.1c-7.7,3.7-15.8,6.7-24.1,8.8"/>
				<path class="st3" d="M291.7,413.5c8.5-2.2,16.9-5.3,24.8-9.1"/>
				<path class="st3" d="M313.3,397.7c-7.5,3.6-15.4,6.5-23.4,8.6"/>
			</g>
			<g>
				<path class="st3" d="M266.1,425c9.3-0.6,18.5-2,27.5-4.3"/>
				<path class="st3" d="M265.9,421.3c9-0.5,18-2,26.8-4.2"/>
				<path class="st3" d="M290.8,409.9c-8.3,2.2-16.8,3.5-25.4,4"/>
				<path class="st3" d="M265.6,417.6c8.8-0.5,17.6-1.9,26.1-4.1"/>
				<path class="st3" d="M289.9,406.3c-8.1,2.1-16.3,3.4-24.7,3.9"/>
			</g>
			<g>
				<path class="st3" d="M238.3,424c9.2,1.2,18.5,1.6,27.8,1"/>
				<path class="st3" d="M238.8,420.3c9,1.2,18.1,1.5,27.1,1"/>
				<path class="st3" d="M265.4,413.9c-8.6,0.5-17.2,0.2-25.7-0.9"/>
				<path class="st3" d="M239.3,416.6c8.7,1.2,17.6,1.5,26.4,1"/>
				<path class="st3" d="M265.2,410.2c-8.3,0.5-16.7,0.2-25-0.9"/>
			</g>
			<g>
				<path class="st3" d="M211.1,417.7c8.8,3,17.9,5.1,27.1,6.3"/>
				<path class="st3" d="M212.3,414.1c8.6,2.9,17.4,5,26.4,6.2"/>
				<path class="st3" d="M239.7,413c-8.5-1.1-16.9-3.1-25-5.9"/>
				<path class="st3" d="M213.5,410.6c8.4,2.8,17,4.9,25.7,6"/>
				<path class="st3" d="M240.2,409.3c-8.3-1.1-16.4-3-24.3-5.7"/>
			</g>
			<g>
				<path class="st3" d="M185.8,406.2c8.1,4.6,16.6,8.5,25.4,11.5"/>
				<path class="st3" d="M187.6,403c7.8,4.5,16.1,8.3,24.7,11.2"/>
				<path class="st3" d="M214.7,407.1c-8.1-2.8-16-6.3-23.4-10.6"/>
				<path class="st3" d="M189.5,399.7c7.6,4.4,15.7,8.1,24.1,10.9"/>
				<path class="st3" d="M215.9,403.6c-7.9-2.7-15.5-6.1-22.8-10.3"/>
			</g>
			<g>
				<path class="st3" d="M163.1,390c7,6.1,14.6,11.5,22.7,16.2"/>
				<path class="st3" d="M165.5,387.2c6.8,5.9,14.2,11.2,22.1,15.7"/>
				<path class="st3" d="M191.3,396.5c-7.4-4.3-14.5-9.3-20.9-14.9"/>
				<path class="st3" d="M168,384.4c6.7,5.8,13.9,10.9,21.5,15.3"/>
				<path class="st3" d="M193.2,393.3c-7.2-4.2-14-9-20.3-14.5"/>
			</g>
			<g>
				<path class="st3" d="M143.9,369.8c5.7,7.3,12.1,14.1,19.1,20.2"/>
				<path class="st3" d="M146.9,367.5c5.6,7.2,11.8,13.8,18.6,19.7"/>
				<path class="st3" d="M170.4,381.6c-6.5-5.6-12.4-11.9-17.7-18.7"/>
				<path class="st3" d="M149.8,365.2c5.4,7,11.5,13.4,18.2,19.2"/>
				<path class="st3" d="M172.8,378.8c-6.3-5.5-12.1-11.6-17.2-18.1"/>
			</g>
			<g>
				<path class="st3" d="M129.1,346.2c4.2,8.3,9.2,16.2,14.9,23.6"/>
				<path class="st3" d="M132.4,344.5c4.1,8.1,8.9,15.8,14.5,23"/>
				<path class="st3" d="M152.7,362.9c-5.3-6.8-9.9-14.1-13.7-21.7"/>
				<path class="st3" d="M135.7,342.9c4,7.9,8.7,15.4,14.1,22.3"/>
				<path class="st3" d="M155.7,360.7c-5.1-6.6-9.6-13.7-13.3-21.1"/>
			</g>
			<g>
				<path class="st3" d="M119.1,320.2c2.5,9,5.8,17.7,10,26"/>
				<path class="st3" d="M122.7,319.2c2.4,8.8,5.7,17.3,9.7,25.4"/>
				<path class="st3" d="M139,341.2c-3.8-7.7-6.9-15.7-9.2-24"/>
				<path class="st3" d="M126.2,318.2c2.3,8.5,5.5,16.8,9.5,24.7"/>
				<path class="st3" d="M142.3,339.6c-3.7-7.5-6.7-15.3-8.9-23.3"/>
			</g>
			<g>
				<path class="st3" d="M114.4,292.6c0.6,9.3,2.2,18.5,4.7,27.5"/>
				<path class="st3" d="M118.1,292.4c0.6,9,2.1,18,4.5,26.8"/>
				<path class="st3" d="M129.8,317.2c-2.3-8.3-3.7-16.8-4.3-25.3"/>
				<path class="st3" d="M121.8,292.1c0.6,8.8,2.1,17.5,4.4,26.1"/>
				<path class="st3" d="M133.4,316.2c-2.2-8-3.6-16.3-4.2-24.6"/>
			</g>
			<g>
				<path class="st3" d="M115.2,264.8c-1.2,9.2-1.4,18.6-0.8,27.9"/>
				<path class="st3" d="M118.9,265.3c-1.1,9-1.4,18.1-0.8,27.1"/>
				<path class="st3" d="M125.5,291.9c-0.6-8.6-0.3-17.2,0.7-25.7"/>
				<path class="st3" d="M122.6,265.7c-1.1,8.8-1.4,17.6-0.8,26.4"/>
				<path class="st3" d="M129.2,291.6c-0.6-8.3-0.3-16.7,0.7-25"/>
			</g>
			<g>
				<path class="st3" d="M121.5,237.6c-3,8.8-5.1,18-6.3,27.2"/>
				<path class="st3" d="M125,238.8c-2.9,8.6-4.9,17.5-6.1,26.5"/>
				<path class="st3" d="M126.3,266.2c1.1-8.5,3-16.9,5.8-25"/>
				<path class="st3" d="M128.5,240c-2.8,8.4-4.8,17-5.9,25.8"/>
				<path class="st3" d="M129.9,266.7c1.1-8.3,2.9-16.4,5.6-24.3"/>
			</g>
			<g>
				<path class="st3" d="M133,212.2c-4.6,8.1-8.5,16.6-11.5,25.4"/>
				<path class="st3" d="M136.2,214c-4.5,7.9-8.3,16.2-11.2,24.8"/>
				<path class="st3" d="M132,241.1c2.7-8.1,6.3-16,10.6-23.4"/>
				<path class="st3" d="M139.4,215.9c-4.4,7.6-8.1,15.7-10.9,24.1"/>
				<path class="st3" d="M135.5,242.3c2.7-7.9,6.1-15.5,10.3-22.8"/>
			</g>
			<g>
				<path class="st3" d="M149.1,189.5c-6.1,7-11.5,14.6-16.2,22.7"/>
				<path class="st3" d="M151.9,191.9c-6,6.8-11.2,14.2-15.8,22.1"/>
				<path class="st3" d="M142.6,217.7c4.3-7.4,9.3-14.4,14.9-20.9"/>
				<path class="st3" d="M154.7,194.4c-5.8,6.6-10.9,13.9-15.3,21.5"/>
				<path class="st3" d="M145.8,219.6c4.2-7.2,9-14,14.5-20.3"/>
			</g>
			<g>
				<path class="st3" d="M169.4,170.4c-7.3,5.7-14.1,12.1-20.2,19.1"/>
				<path class="st3" d="M171.7,173.3c-7.2,5.6-13.8,11.8-19.7,18.6"/>
				<path class="st3" d="M157.5,196.8c5.6-6.5,11.9-12.4,18.7-17.6"/>
				<path class="st3" d="M173.9,176.2c-7,5.4-13.4,11.5-19.2,18.1"/>
				<path class="st3" d="M160.3,199.2c5.5-6.3,11.6-12,18.2-17.2"/>
			</g>
			<g>
				<path class="st3" d="M192.9,155.5c-8.3,4.2-16.2,9.2-23.6,14.9"/>
				<path class="st3" d="M194.6,158.8c-8.1,4.1-15.8,8.9-22.9,14.5"/>
				<path class="st3" d="M176.2,179.2c6.8-5.3,14.1-9.9,21.7-13.7"/>
				<path class="st3" d="M196.3,162.1c-7.9,4-15.4,8.7-22.3,14.1"/>
				<path class="st3" d="M178.5,182.1c6.6-5.1,13.7-9.6,21.1-13.3"/>
			</g>
			<g>
				<path class="st3" d="M218.9,145.5c-9,2.5-17.7,5.8-26,10"/>
				<path class="st3" d="M219.9,149.1c-8.7,2.4-17.2,5.7-25.3,9.8"/>
				<path class="st3" d="M197.9,165.4c7.7-3.9,15.7-7,24-9.2"/>
				<path class="st3" d="M220.9,152.6c-8.5,2.4-16.8,5.5-24.7,9.5"/>
				<path class="st3" d="M199.6,168.7c7.4-3.7,15.3-6.8,23.3-9"/>
			</g>
			<g>
				<path class="st3" d="M250.1,140.5l-3.1,0.2c-1,0.1-2.1,0.2-3.2,0.3l-4.3,0.4l-6.9,1l-6.8,1.4c-2.3,0.5-4.5,1.1-6.8,1.7"/>
				<path class="st3" d="M249.3,144.3l-2.7,0.2c-0.9,0.1-1.8,0.2-2.7,0.3l-3.9,0.4l-6.7,1l-6.7,1.3l-6.6,1.7"/>
				<polyline class="st3" points="221.9,156.2 228.2,154.6 234.5,153.4 240.8,152.4 244.1,152.1 247.7,151.8 				"/>
				<path class="st3" d="M248.5,148c-1.5,0.1-3,0.2-4.5,0.4l-3.6,0.4l-6.5,1l-6.5,1.3l-6.4,1.6"/>
				<polyline class="st3" points="222.9,159.8 229,158.2 235.1,157 241.3,156.1 246.9,155.5 				"/>
			</g>
			<g>
				<path class="st3" d="M269.9,169.9v-8.3c0-2,0-4,0-5.9c-0.1-1.9-0.4-3.7-1-5.2c-0.1-0.4-0.3-0.7-0.5-1.1c-0.2-0.3-0.3-0.7-0.5-1
					c-0.3-0.6-0.7-1.2-1.2-1.9c-1-1.3-2.3-2.5-3.6-3.5c-0.3-0.2-0.7-0.4-1-0.6c-0.2-0.1-0.3-0.2-0.5-0.3l-0.6-0.1l-2.4-0.6l-4.9-1.1
					l-3.6,0.2"/>
				<path class="st3" d="M266.2,169.9v-7.6c0-1.7,0-3.4,0-5c0-1.7-0.3-3.2-0.7-4.6c-0.2-0.7-0.4-1.3-0.7-1.9
					c-0.2-0.6-0.5-1.2-0.9-1.8c-0.8-1.2-1.9-2.3-3.2-3c-0.3-0.2-0.6-0.3-0.9-0.5c-0.2-0.1-0.3-0.1-0.4-0.2l-0.5-0.1l-2.1-0.4
					l-4.3-0.8l-3.1,0.2"/>
				<path class="st3" d="M247.7,151.8l2-0.1l3.2,0l1.6,0c0.5,0,1,0,1.5,0.2c1,0.4,1.8,1.2,2.2,2.2c0.2,0.5,0.3,1,0.3,1.5l0.1,1.6
					c0.2,2.1,0.1,4.3,0.1,6.5v6.2"/>
				<path class="st3" d="M262.5,169.9V163l0-4.2c0-1.4-0.2-2.7-0.4-3.9c-0.1-0.6-0.3-1.2-0.4-1.7c-0.1-0.5-0.3-1.1-0.6-1.6
					c-0.6-1.1-1.6-2.1-2.7-2.6c-0.3-0.1-0.6-0.2-0.8-0.3l-0.4-0.1l-0.5,0l-1.9-0.2l-3.7-0.4l-2.5,0.1"/>
				<path class="st3" d="M246.9,155.5l1.5-0.1l2.4-0.1l1.2-0.1c0.4,0,0.8,0,1.2,0.1c0.8,0.2,1.4,0.9,1.7,1.6
					c0.1,0.4,0.2,0.8,0.2,1.2v1.2v10.4"/>
			</g>
			<g>
				<line class="st3" x1="269.9" y1="195.3" x2="269.9" y2="169.9"/>
				<line class="st3" x1="266.2" y1="195.3" x2="266.2" y2="169.9"/>
				<line class="st3" x1="258.8" y1="169.9" x2="258.8" y2="195.3"/>
				<line class="st3" x1="262.5" y1="195.3" x2="262.5" y2="169.9"/>
				<line class="st3" x1="255.1" y1="169.9" x2="255.1" y2="195.3"/>
			</g>
			<g>
				<path class="st3" d="M270.2,196.8C270.2,196.8,270.2,196.8,270.2,196.8c-0.1,0-0.2-0.1-0.2-0.1c0,0,0,0,0,0c0,0,0,0,0,0
					c0,0,0,0,0,0c0,0,0-0.1,0-0.1l0,0c0,0,0-0.1,0-0.2v-0.4v-0.8"/>
				<path class="st3" d="M271.3,200.4c-0.6,0.2-1.2,0.2-1.9,0.1c-0.6-0.1-1.3-0.4-1.8-0.8c-0.5-0.4-0.9-0.9-1.1-1.5
					c0-0.2-0.1-0.3-0.2-0.4c0-0.2-0.1-0.3-0.1-0.5c0-0.2,0-0.3,0-0.5c0,0,0-0.4,0-0.6v-0.8"/>
				<path class="st3" d="M258.8,195.3c0,0.5,0,1.1,0,1.6l0.1,1.4l0.3,1.4c0.1,0.5,0.3,0.9,0.5,1.3c0.7,1.7,1.9,3.3,3.3,4.4
					c2.9,2.4,7,3.2,10.5,2.1"/>
				<path class="st3" d="M272.4,203.9c-2.4,0.7-5.1,0.2-7.1-1.4c-1-0.8-1.7-1.8-2.2-3c-0.1-0.3-0.2-0.6-0.3-0.9
					c-0.1-0.3-0.1-0.6-0.2-0.9c0-0.3,0-0.6-0.1-1c0-0.1,0-0.5,0-0.7v-0.8"/>
				<path class="st3" d="M255.1,195.3c0,0.5,0,1,0,1.6l0.1,1.8c0.1,0.6,0.2,1.2,0.4,1.8c0.1,0.6,0.4,1.2,0.6,1.8
					c0.9,2.3,2.5,4.3,4.4,5.9c3.8,3.1,9.2,4.2,14,2.7"/>
			</g>
			<g>
				<path class="st3" d="M287.9,184.5l-10.5,7.3l-5.2,3.7l-1.3,0.9l-0.7,0.5c-0.1,0.1,0,0-0.1,0c0,0,0,0,0,0c0,0,0,0,0,0"/>
				<path class="st3" d="M290,187.5l-10.4,7.3l-5.2,3.7l-1.3,0.9l-0.7,0.5c-0.1,0.1-0.1,0.1-0.2,0.1c-0.1,0.1-0.3,0.1-0.4,0.2
					c-0.2,0-0.3,0.1-0.5,0.2"/>
				<path class="st3" d="M273.5,207.5l1.3-0.5l1.2-0.7c0.2-0.1,0.4-0.2,0.6-0.4l0.7-0.5l1.3-0.9l5.2-3.6l10.4-7.3"/>
				<path class="st3" d="M292.1,190.6l-10.4,7.3l-5.2,3.7l-1.3,0.9l-0.7,0.5c-0.2,0.1-0.3,0.2-0.4,0.3c-0.3,0.1-0.6,0.3-0.8,0.4
					c-0.3,0.1-0.6,0.2-0.9,0.3"/>
				<path class="st3" d="M274.6,211c0.6-0.2,1.2-0.4,1.7-0.7l1.6-0.9c0.3-0.1,0.5-0.3,0.8-0.5l0.7-0.5l1.3-0.9l5.2-3.6l10.4-7.3"/>
			</g>
			<g>
				<line class="st3" x1="308.8" y1="169.8" x2="287.9" y2="184.5"/>
				<line class="st3" x1="310.9" y1="172.9" x2="290" y2="187.5"/>
				<line class="st3" x1="294.2" y1="193.6" x2="315.1" y2="179"/>
				<line class="st3" x1="313" y1="176" x2="292.1" y2="190.6"/>
				<line class="st3" x1="296.3" y1="196.7" x2="317.2" y2="182.1"/>
			</g>
			<g>
				<line class="st3" x1="329.7" y1="155.2" x2="308.8" y2="169.8"/>
				<line class="st3" x1="331.8" y1="158.3" x2="310.9" y2="172.9"/>
				<line class="st3" x1="315.1" y1="179" x2="335.9" y2="164.4"/>
				<line class="st3" x1="333.9" y1="161.4" x2="313" y2="176"/>
				<line class="st3" x1="317.2" y1="182.1" x2="338" y2="167.5"/>
			</g>
			<g>
				<line class="st3" x1="347.8" y1="142.6" x2="329.7" y2="155.2"/>
				<path class="st3" d="M350.6,145c-0.1,0.1-0.2,0.2-0.3,0.3c-0.1,0.1-0.3,0.2-0.5,0.4l-0.3,0.2l-0.7,0.5l-1.3,0.9l-5.2,3.7
					l-10.4,7.3"/>
				<path class="st3" d="M335.9,164.4l10.4-7.3l5.2-3.6l1.3-0.9l0.7-0.5l0.6-0.4c0.4-0.3,0.8-0.5,1.1-0.9c0.3-0.3,0.7-0.6,1-1"/>
				<path class="st3" d="M353.4,147.4c-0.2,0.3-0.4,0.4-0.7,0.7c-0.2,0.2-0.5,0.4-0.8,0.6l-0.4,0.3l-0.7,0.5l-1.3,0.9l-5.2,3.7
					l-10.4,7.3"/>
				<path class="st3" d="M338,167.5l10.4-7.3l5.2-3.6l1.3-0.9l1.4-1c0.5-0.4,1-0.7,1.4-1.1c0.4-0.4,0.9-0.8,1.3-1.3"/>
			</g>
			<g>
				<path class="st3" d="M344.7,140.2l2.6,1.8l0.2,0.1l0,0l0.1,0.1c0,0,0.1,0.1,0.1,0.1c0.1,0,0.1,0,0.1,0.1c0,0,0,0,0,0
					c0,0,0,0,0,0c0,0,0,0.1,0,0.2c0,0,0,0,0,0"/>
				<path class="st3" d="M346.7,137.1l2.6,1.8l0.2,0.1l0.1,0.1l0.1,0.1l0.3,0.2c0.1,0.1,0.2,0.1,0.2,0.2c0.1,0.1,0.1,0.1,0.2,0.2
					c0.4,0.5,0.8,1,0.9,1.6c0.4,1.3,0.1,2.7-0.8,3.6"/>
				<path class="st3" d="M356.2,149.8c2.5-2.8,3.3-6.9,2.2-10.5c-0.5-1.8-1.5-3.4-2.8-4.8c-0.4-0.3-0.6-0.7-1-0.9l-1.2-0.8l-2.6-1.8
					"/>
				<path class="st3" d="M348.8,134.1l2.6,1.8l0.9,0.7c0.3,0.2,0.5,0.4,0.7,0.6c0.9,0.9,1.5,2,1.9,3.2c0.7,2.4,0.1,5.2-1.5,7.1"/>
				<path class="st3" d="M359,152.2c3.3-3.8,4.4-9.2,3-13.9c-0.7-2.4-2-4.6-3.7-6.3c-0.5-0.4-0.9-0.9-1.4-1.2l-1.4-1l-2.6-1.8"/>
			</g>
			<g>
				<line class="st3" x1="323.7" y1="125.7" x2="344.7" y2="140.2"/>
				<line class="st3" x1="325.7" y1="122.7" x2="346.7" y2="137.1"/>
				<line class="st3" x1="350.8" y1="131" x2="329.9" y2="116.5"/>
				<line class="st3" x1="327.8" y1="119.6" x2="348.8" y2="134.1"/>
				<line class="st3" x1="352.8" y1="127.9" x2="331.9" y2="113.4"/>
			</g>
			<g>
				<line class="st3" x1="302.7" y1="111.2" x2="323.7" y2="125.7"/>
				<line class="st3" x1="304.8" y1="108.2" x2="325.7" y2="122.7"/>
				<line class="st3" x1="329.9" y1="116.5" x2="308.9" y2="102"/>
				<line class="st3" x1="306.8" y1="105.1" x2="327.8" y2="119.6"/>
				<line class="st3" x1="331.9" y1="113.4" x2="311" y2="99"/>
			</g>
			<g>
				<line class="st3" x1="281.7" y1="96.7" x2="302.7" y2="111.2"/>
				<line class="st3" x1="283.8" y1="93.7" x2="304.8" y2="108.2"/>
				<line class="st3" x1="308.9" y1="102" x2="288" y2="87.6"/>
				<line class="st3" x1="285.9" y1="90.6" x2="306.8" y2="105.1"/>
				<line class="st3" x1="311" y1="99" x2="290.1" y2="84.5"/>
			</g>
			<g>
				<path class="st3" d="M270.2,88.9C270.3,88.9,270.3,88.9,270.2,88.9c0.1,0,0.1,0,0.1,0c0,0,0,0,0,0c0,0,0,0,0,0l0,0l0.1,0.1
					l0.2,0.1l0.7,0.5l10.5,7.3"/>
				<path class="st3" d="M269.1,85.3c0.6-0.2,1.3-0.2,1.9-0.1c0.3,0,0.6,0.2,0.9,0.3c0.1,0.1,0.3,0.2,0.4,0.2l1,0.7l10.5,7.2"/>
				<path class="st3" d="M288,87.6l-10.5-7.2l-1.3-0.9l-1.2-0.7c-0.9-0.4-1.7-0.7-2.7-0.9c-1.8-0.4-3.7-0.2-5.5,0.3"/>
				<path class="st3" d="M268,81.8c1.2-0.4,2.5-0.5,3.7-0.2c0.6,0.1,1.2,0.3,1.8,0.6c0.3,0.2,0.5,0.3,0.8,0.4l1.1,0.8l10.5,7.2"/>
				<path class="st3" d="M290.1,84.5l-10.5-7.2l-1.4-0.9l-1.6-0.9c-1.1-0.5-2.3-0.9-3.5-1.1c-2.4-0.5-5-0.3-7.3,0.4"/>
			</g>
			<g>
				<path class="st3" d="M270,98.2v-6.4v-1.6v-0.8l0-0.4l0,0c0,0,0-0.1,0-0.1c0,0,0,0,0,0c0,0,0,0,0,0c0,0,0.1-0.1,0.2-0.1"/>
				<path class="st3" d="M266.3,98.2v-6.4v-1.6v-0.8l0-0.4l0-0.1c0-0.2,0-0.4,0-0.5c0.1-0.1,0.1-0.3,0.1-0.5
					c0.2-0.6,0.5-1.1,0.9-1.6c0.4-0.4,1.1-0.8,1.7-1"/>
				<path class="st3" d="M266.9,78.3c-3.6,1.1-6.5,4-7.5,7.6l-0.3,1.4c-0.1,0.5-0.1,0.9-0.1,1.4c-0.1,1,0,2.1,0,3.1v6.4"/>
				<path class="st3" d="M262.6,98.2v-6.4v-1.6v-0.8l0-0.4l0-0.2c0-0.3,0-0.6,0.1-1c0.1-0.3,0.1-0.6,0.2-0.9
					c0.7-2.4,2.6-4.4,5.1-5.1"/>
				<path class="st3" d="M265.7,74.7c-2.4,0.7-4.5,2-6.3,3.8c-1.7,1.8-3,4-3.7,6.4l-0.4,1.8c-0.1,0.6-0.1,1.2-0.2,1.8
					c0,0.3,0,0.6,0,0.9v0.8v1.6v6.4"/>
			</g>
			<g>
				<path class="st3" d="M269.4,130.1c0.1-0.5,0.2-0.9,0.3-1.4c0.1-0.5,0.2-1,0.2-1.5c0.1-1,0.1-2.1,0.1-3.2v-6.4v-6.8V98.2"/>
				<path class="st3" d="M265.9,128.2c0.4-1.6,0.5-3.4,0.4-5.2v-5.4v-6.7V98.2"/>
				<path class="st3" d="M258.9,98.2v12.7v6.4c0,2.4,0.1,4.8-0.1,7.1"/>
				<path class="st3" d="M262.3,126.3c0.2-1.4,0.3-2.9,0.2-4.4v-4.5v-6.5V98.2"/>
				<line class="st3" x1="255.2" y1="98.2" x2="255.2" y2="122.4"/>
			</g>
			<g>
				<path class="st3" d="M237.7,143c1-0.1,1.9-0.3,2.9-0.4l2.9-0.3l2.9-0.3l0.4,0l0.2,0l0.1,0l0.1,0l0.2,0l0.4,0
					c0.5,0,1-0.2,1.5-0.2l2.9-0.5l5.8-1l2.9-0.5c0.5-0.1,1-0.2,1.4-0.3c0.3-0.2,0.7-0.4,1-0.7c1.4-1,2.8-2.5,3.8-3.9
					c0.5-0.8,0.9-1.4,1.2-2.2c0.4-0.7,0.7-1.6,0.9-2.5"/>
				<path class="st3" d="M237.2,139.4c1-0.1,2-0.3,3-0.4l3-0.3l3-0.3l0.4,0c0.3,0,0.4,0,0.5,0l0.3,0c0.4,0,0.8-0.1,1.3-0.2l2.5-0.4
					l5-0.8l2.5-0.4c0.4-0.1,0.8-0.1,1.2-0.2c0.3-0.2,0.6-0.3,1-0.5c1.3-0.8,2.6-2.1,3.4-3.4c0.4-0.7,0.7-1.3,0.9-2
					c0.3-0.7,0.5-1.4,0.7-2.2"/>
				<path class="st3" d="M258.8,124.4l-0.1,1.7c0,0.6-0.1,1.1-0.3,1.7c-0.4,1.1-1.3,2-2.4,2.4c-0.5,0.2-1.1,0.2-1.7,0.2l-1.7,0.1
					l-3.5,0.3c-1.2,0.1-2.3,0.2-3.5,0.3l-3.1,0.3l-3.1,0.3c-1,0.1-2.1,0.3-3.1,0.4"/>
				<path class="st3" d="M236.7,135.7c1-0.1,2-0.3,3-0.4l3.1-0.3l3.1-0.3c1.4-0.1,2.9-0.3,4.3-0.5l4.3-0.5l2.1-0.3
					c0.4,0,0.7-0.1,1.1-0.1c0.3-0.1,0.6-0.2,0.9-0.3c1.2-0.6,2.3-1.7,2.9-2.9c0.3-0.6,0.5-1.2,0.6-1.8c0.2-0.6,0.3-1.3,0.4-2"/>
				<path class="st3" d="M255.2,122.4v1.3c0,0.4,0,0.9-0.1,1.3c-0.3,0.8-0.9,1.5-1.8,1.8c-0.4,0.1-0.9,0.1-1.3,0.1l-1.3,0.1
					l-2.6,0.1c-0.9,0.1-1.7,0-2.7,0.2l-3.2,0.3l-3.2,0.3c-1.1,0.1-2.1,0.3-3.2,0.4"/>
			</g>
			<g>
				<path class="st3" d="M215,148.1c1.9-0.5,3.7-1.2,5.6-1.6l5.7-1.4l5.7-1.1c1-0.2,1.9-0.3,2.9-0.5l2.9-0.4"/>
				<path class="st3" d="M213.9,144.5c1.9-0.5,3.8-1.2,5.8-1.7l5.8-1.4l5.9-1.2c1-0.2,2-0.4,3-0.5l3-0.4"/>
				<path class="st3" d="M236.2,132l-3.1,0.5c-1,0.1-2.1,0.3-3.1,0.5l-6.2,1.2l-6.1,1.5c-2,0.5-4,1.2-6,1.8"/>
				<path class="st3" d="M212.8,141c2-0.6,3.9-1.2,5.9-1.7l6-1.5l6-1.2c1-0.2,2-0.4,3-0.5l3-0.4"/>
				<path class="st3" d="M235.7,128.3l-3.2,0.5c-1.1,0.1-2.1,0.3-3.2,0.5l-6.3,1.2l-6.3,1.5c-2.1,0.5-4.1,1.2-6.2,1.8"/>
			</g>
			<g>
				<path class="st3" d="M193.3,156.8c7-3.5,14.2-6.4,21.6-8.7"/>
				<path class="st3" d="M191.7,153.5c7.1-3.6,14.6-6.6,22.2-8.9"/>
				<path class="st3" d="M211.7,137.5c-8,2.5-15.8,5.6-23.3,9.4"/>
				<path class="st3" d="M190,150.2c7.3-3.7,15-6.7,22.8-9.2"/>
				<path class="st3" d="M210.6,133.9c-8.2,2.6-16.2,5.8-23.9,9.6"/>
			</g>
			<g>
				<path class="st3" d="M173.4,169c6.3-4.6,12.9-8.7,19.9-12.2"/>
				<path class="st3" d="M171.2,166c6.5-4.7,13.3-8.9,20.4-12.5"/>
				<path class="st3" d="M188.3,146.9c-7.5,3.7-14.7,8.2-21.5,13.1"/>
				<path class="st3" d="M169.1,163c6.6-4.8,13.6-9.2,20.9-12.8"/>
				<path class="st3" d="M186.7,143.6c-7.7,3.8-15,8.4-22,13.4"/>
			</g>
			<g>
				<path class="st3" d="M155.7,184.2c5.5-5.5,11.4-10.6,17.7-15.2"/>
				<path class="st3" d="M153.1,181.6c5.6-5.7,11.7-10.9,18.1-15.6"/>
				<path class="st3" d="M166.9,160c-6.8,5-13.2,10.4-19.1,16.4"/>
				<path class="st3" d="M150.5,179c5.8-5.8,12-11.2,18.6-16"/>
				<path class="st3" d="M164.7,157c-6.9,5.1-13.5,10.7-19.5,16.8"/>
			</g>
			<g>
				<path class="st3" d="M140.8,202.2c4.5-6.4,9.4-12.4,14.9-17.9"/>
				<path class="st3" d="M137.8,200c4.6-6.5,9.7-12.7,15.3-18.4"/>
				<path class="st3" d="M147.8,176.4c-5.9,6-11.2,12.5-16.1,19.4"/>
				<path class="st3" d="M134.8,197.9c4.7-6.7,9.9-13,15.7-18.9"/>
				<path class="st3" d="M145.2,173.8c-6,6.1-11.5,12.8-16.5,19.8"/>
			</g>
			<g>
				<path class="st3" d="M129,222.3c3.4-7,7.3-13.7,11.8-20.1"/>
				<path class="st3" d="M125.7,220.7c3.5-7.2,7.5-14.1,12.1-20.6"/>
				<path class="st3" d="M131.7,195.8c-4.8,6.9-9.1,14.1-12.7,21.7"/>
				<path class="st3" d="M122.3,219c3.6-7.4,7.7-14.5,12.4-21.2"/>
				<path class="st3" d="M128.7,193.6c-4.9,7-9.3,14.5-13.1,22.2"/>
			</g>
			<g>
				<path class="st3" d="M120.8,244c2.1-7.5,4.9-14.8,8.2-21.8"/>
				<path class="st3" d="M117.2,243c2.2-7.7,5-15.2,8.5-22.4"/>
				<path class="st3" d="M119,217.5c-3.6,7.6-6.6,15.5-8.9,23.5"/>
				<path class="st3" d="M113.7,242c2.3-7.9,5.2-15.5,8.7-22.9"/>
				<path class="st3" d="M115.7,215.9c-3.7,7.8-6.7,15.8-9.1,24.1"/>
			</g>
			<g>
				<path class="st3" d="M116.2,266.9c0.8-7.7,2.4-15.4,4.5-22.8"/>
				<path class="st3" d="M112.6,266.5c0.8-7.9,2.5-15.8,4.7-23.5"/>
				<path class="st3" d="M110.1,241c-2.3,8.1-4,16.3-4.9,24.7"/>
				<path class="st3" d="M108.9,266.1c0.9-8.1,2.5-16.2,4.8-24.1"/>
				<path class="st3" d="M106.5,240c-2.4,8.3-4.1,16.7-5,25.3"/>
			</g>
			<g>
				<path class="st3" d="M115.5,290.2c-0.4-7.8-0.1-15.6,0.7-23.3"/>
				<path class="st3" d="M111.8,290.4c-0.4-8-0.1-16,0.7-23.9"/>
				<path class="st3" d="M105.2,265.6c-0.9,8.3-1.2,16.8-0.8,25.1"/>
				<path class="st3" d="M108.1,290.6c-0.4-8.2-0.1-16.4,0.8-24.5"/>
				<path class="st3" d="M101.5,265.2c-0.9,8.5-1.2,17.2-0.8,25.8"/>
			</g>
			<g>
				<path class="st3" d="M118.7,313.3c-1.7-7.6-2.7-15.3-3.2-23.1"/>
				<path class="st3" d="M115.1,314.1c-1.7-7.8-2.8-15.7-3.3-23.7"/>
				<path class="st3" d="M104.4,290.8c0.5,8.4,1.6,16.7,3.4,24.9"/>
				<path class="st3" d="M111.4,314.9c-1.8-8-2.9-16.1-3.3-24.3"/>
				<path class="st3" d="M100.7,291c0.5,8.6,1.7,17.1,3.5,25.5"/>
			</g>
			<g>
				<path class="st3" d="M125.6,335.5l-1.1-2.7c-0.4-0.9-0.7-1.8-1-2.7l-1.9-5.5L120,319c-0.5-1.9-0.9-3.8-1.4-5.7"/>
				<path class="st3" d="M122.2,336.9l-1.1-2.8c-0.4-0.9-0.7-1.9-1-2.8l-1.9-5.7l-1.6-5.8c-0.5-1.9-0.9-3.9-1.4-5.8"/>
				<path class="st3" d="M107.8,315.7c0.5,2,0.9,4.1,1.5,6.1l1.7,6.1l2,6c0.3,1,0.7,2,1.1,2.9l1.2,2.9"/>
				<path class="st3" d="M118.7,338.3l-1.1-2.9c-0.4-0.9-0.8-1.9-1.1-2.9l-2-5.8l-1.7-5.9c-0.6-2-1-4-1.4-6"/>
				<path class="st3" d="M104.2,316.5c0.5,2.1,0.9,4.2,1.5,6.3l1.8,6.2l2.1,6.1c0.3,1,0.7,2,1.1,3l1.2,3"/>
			</g>
			<g>
				<path class="st3" d="M136.1,356.3c-4.1-6.6-7.6-13.6-10.5-20.8"/>
				<path class="st3" d="M133,358.3c-4.2-6.8-7.8-14-10.8-21.3"/>
				<path class="st3" d="M115.3,339.7c3.2,7.8,7,15.3,11.3,22.4"/>
				<path class="st3" d="M129.8,360.2c-4.3-7-8-14.3-11.1-21.9"/>
				<path class="st3" d="M111.9,341.1c3.2,8,7.1,15.7,11.6,23"/>
			</g>
			<g>
				<path class="st3" d="M150,375.1c-5.1-5.9-9.8-12.1-13.9-18.8"/>
				<path class="st3" d="M147.2,377.5c-5.2-6-10-12.4-14.2-19.3"/>
				<path class="st3" d="M126.7,362.2c4.4,7.2,9.4,13.9,14.9,20.2"/>
				<path class="st3" d="M144.4,380c-5.4-6.2-10.3-12.8-14.6-19.7"/>
				<path class="st3" d="M123.5,364.1c4.5,7.3,9.7,14.2,15.3,20.7"/>
			</g>
			<g>
				<path class="st3" d="M166.7,391.4c-6-5-11.6-10.4-16.7-16.3"/>
				<path class="st3" d="M164.3,394.3c-6.2-5.1-11.9-10.7-17.1-16.7"/>
				<path class="st3" d="M141.6,382.4c5.5,6.3,11.5,12.2,18,17.6"/>
				<path class="st3" d="M162,397.1c-6.3-5.2-12.2-11-17.6-17.1"/>
				<path class="st3" d="M138.8,384.8c5.7,6.5,11.8,12.5,18.4,18"/>
			</g>
			<g>
				<path class="st3" d="M185.9,404.7c-6.7-3.9-13.1-8.4-19.2-13.3"/>
				<path class="st3" d="M184,407.9c-6.9-4-13.5-8.6-19.7-13.6"/>
				<path class="st3" d="M159.6,400c6.5,5.3,13.4,10.1,20.7,14.3"/>
				<path class="st3" d="M182.1,411.1c-7.1-4.1-13.8-8.8-20.2-14"/>
				<path class="st3" d="M157.3,402.8c6.7,5.4,13.7,10.4,21.2,14.7"/>
			</g>
			<g>
				<path class="st3" d="M206.9,414.7c-7.3-2.7-14.3-6.1-21.1-10"/>
				<path class="st3" d="M205.6,418.2c-7.5-2.8-14.7-6.3-21.6-10.3"/>
				<path class="st3" d="M180.3,414.3c7.3,4.2,14.8,7.9,22.7,10.8"/>
				<path class="st3" d="M204.3,421.6c-7.7-2.8-15.1-6.4-22.2-10.5"/>
				<path class="st3" d="M178.4,417.5c7.4,4.3,15.2,8.1,23.3,11.1"/>
			</g>
			<g>
				<path class="st3" d="M229.4,421.1c-7.6-1.5-15.1-3.7-22.4-6.4"/>
				<path class="st3" d="M228.6,424.7c-7.8-1.6-15.5-3.8-23-6.6"/>
				<path class="st3" d="M203,425.1c7.9,2.9,16,5.3,24.2,6.9"/>
				<path class="st3" d="M227.9,428.4c-8-1.6-15.9-3.9-23.6-6.8"/>
				<path class="st3" d="M201.7,428.6c8.1,3,16.3,5.4,24.8,7.1"/>
			</g>
			<g>
				<path class="st3" d="M252.6,423.7c-7.8-0.3-15.6-1.1-23.2-2.6"/>
				<path class="st3" d="M252.4,427.4c-8-0.3-16-1.1-23.8-2.7"/>
				<path class="st3" d="M227.2,432c8.2,1.7,16.6,2.5,25,2.8"/>
				<path class="st3" d="M252.3,431.1c-8.2-0.3-16.4-1.1-24.4-2.8"/>
				<path class="st3" d="M226.5,435.7c8.4,1.7,17,2.6,25.6,2.9"/>
			</g>
			<g>
				<path class="st3" d="M275.9,422.6c-1.9,0.2-3.9,0.5-5.8,0.6l-5.8,0.4l-5.9,0.1c-2,0.1-3.9-0.1-5.8-0.1"/>
				<path class="st3" d="M276.4,426.3c-2,0.2-4,0.5-6,0.7l-6,0.4l-6,0.1c-2,0.1-4-0.1-6-0.1"/>
				<path class="st3" d="M252.2,434.8c2.1,0,4.2,0.2,6.3,0.1l6.3-0.1l6.3-0.4c2.1-0.1,4.2-0.5,6.3-0.7"/>
				<path class="st3" d="M276.9,430c-2,0.2-4.1,0.5-6.1,0.7l-6.1,0.4l-6.1,0.1c-2,0.1-4.1-0.1-6.1-0.1"/>
				<path class="st3" d="M252.1,438.6c2.1,0,4.3,0.2,6.4,0.1l6.4-0.2l6.4-0.5c2.1-0.1,4.3-0.5,6.4-0.7"/>
			</g>
			<g>
				<path class="st3" d="M298.7,417.8c-7.5,2.2-15.1,3.8-22.8,4.9"/>
				<path class="st3" d="M299.8,421.3c-7.7,2.3-15.5,3.9-23.4,5"/>
				<path class="st3" d="M277.3,433.7c8.3-1.1,16.6-2.8,24.6-5.2"/>
				<path class="st3" d="M300.9,424.9c-7.8,2.3-15.9,4.1-24,5.1"/>
				<path class="st3" d="M277.8,437.3c8.5-1.1,17-2.9,25.2-5.4"/>
			</g>
			<g>
				<path class="st3" d="M320.4,409.2c-7,3.4-14.2,6.3-21.7,8.5"/>
				<path class="st3" d="M322.1,412.6c-7.2,3.5-14.6,6.5-22.3,8.8"/>
				<path class="st3" d="M301.9,428.4c8.1-2.4,15.9-5.5,23.4-9.2"/>
				<path class="st3" d="M323.7,415.9c-7.3,3.6-15,6.7-22.8,9"/>
				<path class="st3" d="M303,432c8.2-2.4,16.3-5.6,24-9.4"/>
			</g>
			<g>
				<path class="st3" d="M340.4,397.2c-6.3,4.5-13,8.5-20,12"/>
				<path class="st3" d="M342.6,400.3c-6.5,4.6-13.4,8.8-20.5,12.3"/>
				<path class="st3" d="M325.3,419.2c7.5-3.7,14.7-8,21.6-12.9"/>
				<path class="st3" d="M344.8,403.3c-6.7,4.8-13.7,9-21.1,12.6"/>
				<path class="st3" d="M327,422.5c7.7-3.8,15.1-8.2,22.1-13.2"/>
			</g>
			<g>
				<path class="st3" d="M358.2,382.2c-5.5,5.5-11.5,10.5-17.8,15.1"/>
				<path class="st3" d="M360.9,384.8c-5.6,5.7-11.8,10.8-18.3,15.5"/>
				<path class="st3" d="M346.9,406.3c6.8-4.9,13.3-10.3,19.2-16.3"/>
				<path class="st3" d="M363.5,387.4c-5.8,5.8-12.1,11.1-18.7,15.9"/>
				<path class="st3" d="M349.1,409.3c7-5,13.6-10.6,19.7-16.7"/>
			</g>
			<g>
				<path class="st3" d="M373.3,364.3c-4.5,6.3-9.5,12.3-15,17.8"/>
				<path class="st3" d="M376.3,366.5c-4.6,6.5-9.8,12.6-15.4,18.3"/>
				<path class="st3" d="M366.1,390c5.9-6,11.3-12.4,16.2-19.2"/>
				<path class="st3" d="M379.3,368.6c-4.7,6.7-10,13-15.8,18.8"/>
				<path class="st3" d="M368.7,392.6c6.1-6.1,11.6-12.7,16.6-19.7"/>
			</g>
			<g>
				<path class="st3" d="M385.2,344.3c-3.4,7-7.4,13.7-11.9,20"/>
				<path class="st3" d="M388.5,345.9c-3.5,7.2-7.6,14.1-12.2,20.6"/>
				<path class="st3" d="M382.3,370.8c4.9-6.8,9.2-14.1,12.9-21.6"/>
				<path class="st3" d="M391.9,347.5c-3.6,7.4-7.8,14.4-12.5,21.1"/>
				<path class="st3" d="M385.3,372.9c5-7,9.4-14.4,13.2-22.1"/>
			</g>
			<g>
				<path class="st3" d="M393.6,322.6c-2.2,7.5-5,14.7-8.4,21.7"/>
				<path class="st3" d="M397.2,323.6c-2.2,7.7-5.1,15.1-8.6,22.3"/>
				<path class="st3" d="M395.2,349.2c3.7-7.5,6.7-15.4,9.1-23.5"/>
				<path class="st3" d="M400.7,324.7c-2.3,7.9-5.2,15.5-8.9,22.9"/>
				<path class="st3" d="M398.5,350.8c3.8-7.7,6.9-15.8,9.3-24"/>
			</g>
			<g>
				<path class="st3" d="M398.3,299.7c-0.9,7.7-2.5,15.4-4.7,22.8"/>
				<path class="st3" d="M402,300.2c-1,7.9-2.6,15.8-4.8,23.4"/>
				<path class="st3" d="M404.3,325.7c2.4-8.1,4-16.3,5.1-24.6"/>
				<path class="st3" d="M405.6,300.6c-1,8.1-2.6,16.2-4.9,24"/>
				<path class="st3" d="M407.8,326.7c2.4-8.3,4.1-16.7,5.2-25.2"/>
			</g>
			<g>
				<path class="st3" d="M399.5,295.4c-0.1,0-0.2,0-0.3-0.1c-0.1,0-0.1-0.1-0.2-0.2c-0.1-0.1-0.1-0.4-0.1-0.5c0,0,0,0,0,0l0,0l0,0
					l0,0l0,0c0-0.1,0,0.1,0,0.1l0,0l0,0l-0.1,0.7l-0.2,1.5l-0.3,2.9"/>
				<path class="st3" d="M399.5,291.7c0.6,0,1.1,0.2,1.6,0.4c0.5,0.3,0.9,0.7,1.1,1.1c0.2,0.5,0.4,0.9,0.4,1.4l0,0.1l0,0l0,0l0,0
					l0,0l0,0.1l0,0l-0.1,0.7l-0.2,1.5l-0.3,3"/>
				<path class="st3" d="M409.3,301.1l0.3-3.1l0.2-1.6l0.1-0.8l0-0.7c0.1-1.8-0.4-3.7-1.3-5.3c-0.9-1.6-2.3-2.9-3.9-3.9
					c-1.6-0.9-3.4-1.4-5.3-1.4"/>
				<path class="st3" d="M399.5,288c1.2,0,2.4,0.3,3.4,0.9c1,0.6,1.9,1.5,2.5,2.5c0.6,1,0.9,2.2,0.8,3.4l0,0.5l-0.1,0.8l-0.2,1.5
					l-0.3,3.1"/>
				<path class="st3" d="M413,301.5l0.3-3.2l0.2-1.6l0.1-0.8l0-0.9c0.1-2.5-0.6-5-1.8-7.2c-1.2-2.2-3.1-4-5.2-5.3
					c-2.2-1.2-4.7-1.9-7.2-1.9"/>
			</g>
		</g>
	</g>
</g>
</svg>
