<?xml version="1.0" encoding="utf-8"?>
<!-- Generator: Adobe Illustrator 22.0.0, SVG Export Plug-In . SVG Version: 6.00 Build 0)  -->
<svg version="1.1" id="Layer_1" xmlns="http://www.w3.org/2000/svg" xmlns:xlink="http://www.w3.org/1999/xlink" x="0px" y="0px"
	 viewBox="0 0 512 512" style="enable-background:new 0 0 512 512;" xml:space="preserve">
<style type="text/css">
	.st0{fill:#600094;}
	.st1{fill:none;stroke:#6F6F6F;}
	.st2{fill:#FF0AAF;}
	.st3{fill:none;stroke:#FF65CD;}
</style>
<g>
	<circle class="st0" cx="257" cy="256.3" r="240.5"/>
	<g>
		<g>
			<g>
				<path class="st1" d="M5.2,229.8c-0.4,4.4-0.7,8.8-1,13.2l-0.3,13.2"/>
				<path class="st1" d="M8.9,230.1c-0.4,4.3-0.7,8.7-1,13l-0.3,13"/>
				<path class="st1" d="M15,256.3l0.3-12.7c0.3-4.2,0.6-8.4,1-12.6"/>
				<path class="st1" d="M12.6,230.5c-0.4,4.3-0.7,8.6-1,12.8l-0.3,12.9"/>
				<path class="st1" d="M18.7,256.3l0.3-12.5c0.3-4.1,0.6-8.3,1-12.4"/>
			</g>
			<g>
				<path class="st1" d="M9.4,203.6L9,205.3l-0.3,1.6l-0.6,3.3l-1.2,6.5c-0.7,4.4-1.1,8.8-1.7,13.1"/>
				<path class="st1" d="M13,204.4l-0.4,1.6l-0.3,1.6l-0.6,3.2l-1.1,6.4c-0.7,4.3-1.1,8.6-1.7,12.9"/>
				<path class="st1" d="M16.3,231c0.6-4.2,1-8.4,1.6-12.6l1.1-6.2l0.6-3.1l0.3-1.6l0.4-1.5"/>
				<path class="st1" d="M16.6,205.1l-0.4,1.6l-0.3,1.6l-0.6,3.2l-1.1,6.3c-0.6,4.2-1.1,8.5-1.7,12.8"/>
				<path class="st1" d="M20,231.4c0.5-4.1,1-8.3,1.6-12.4l1.1-6.1l0.5-3.1l0.3-1.5l0.4-1.5"/>
			</g>
			<g>
				<path class="st1" d="M16.2,178l-1.1,3.1l-0.9,3.2l-1.8,6.4c-0.6,2.1-1.1,4.3-1.6,6.4l-1.5,6.5"/>
				<path class="st1" d="M19.7,179.1l-1,3.1l-0.9,3.1l-1.8,6.3c-0.6,2.1-1.1,4.2-1.6,6.3l-1.5,6.4"/>
				<path class="st1" d="M20.2,206l1.4-6.2c0.5-2.1,0.9-4.1,1.5-6.1l1.7-6.1l0.9-3l1-3"/>
				<path class="st1" d="M23.3,180.4l-1,3.1l-0.9,3.1l-1.8,6.2c-0.6,2.1-1.1,4.2-1.6,6.2l-1.4,6.3"/>
				<path class="st1" d="M23.9,206.6l1.4-6.1c0.5-2,0.9-4.1,1.5-6.1l1.7-6l0.9-3l1-3"/>
			</g>
			<g>
				<path class="st1" d="M25.7,153.3c-1.9,4-3.5,8.1-5.1,12.2l-1.2,3.1c-0.4,1-0.7,2.1-1.1,3.1l-2.1,6.3"/>
				<path class="st1" d="M29.1,154.8c-1.9,3.9-3.4,8-5,12.1l-1.2,3c-0.4,1-0.7,2.1-1.1,3.1l-2.1,6.2"/>
				<path class="st1" d="M26.8,181.5l2-6c0.4-1,0.6-2,1-3l1.2-2.9c1.6-3.9,3-7.9,4.9-11.7"/>
				<path class="st1" d="M32.5,156.3c-1.8,3.9-3.4,7.9-4.9,11.9l-1.2,3c-0.4,1-0.7,2-1.1,3l-2.1,6.1"/>
				<path class="st1" d="M30.3,182.5l2-5.9c0.3-1,0.6-2,1-2.9l1.1-2.9c1.5-3.9,3-7.8,4.8-11.5"/>
			</g>
			<g>
				<path class="st1" d="M37.8,129.6l-3.3,5.7l-3,5.9c-1,2-2,3.9-3,5.9l-2.7,6"/>
				<path class="st1" d="M41,131.5l-3.3,5.7l-3,5.8c-1,1.9-2,3.9-2.9,5.8l-2.7,6"/>
				<path class="st1" d="M35.9,157.9l2.6-5.8c0.9-1.9,1.9-3.8,2.9-5.7l2.9-5.6l3.2-5.5"/>
				<path class="st1" d="M44.2,133.4L41,139l-2.9,5.7c-1,1.9-2,3.8-2.9,5.7l-2.7,5.9"/>
				<path class="st1" d="M39.3,159.4l2.6-5.7c0.9-1.9,1.9-3.7,2.8-5.6l2.9-5.6l3.1-5.4"/>
			</g>
			<g>
				<path class="st1" d="M52.2,107.5c-2.5,3.6-5.2,7.1-7.5,10.9l-3.6,5.6c-1.2,1.9-2.2,3.8-3.4,5.7"/>
				<path class="st1" d="M55.2,109.7c-2.5,3.6-5.1,7-7.4,10.8l-3.5,5.5c-1.2,1.8-2.2,3.8-3.3,5.6"/>
				<path class="st1" d="M47.4,135.3c1.1-1.8,2.1-3.7,3.2-5.5l3.4-5.3c2.2-3.6,4.7-7,7.2-10.4"/>
				<path class="st1" d="M58.2,111.9c-2.5,3.5-5,6.9-7.3,10.6l-3.5,5.4c-1.2,1.8-2.2,3.7-3.3,5.5"/>
				<path class="st1" d="M50.6,137.1c1.1-1.8,2-3.6,3.2-5.4l3.4-5.3c2.2-3.6,4.7-6.9,7.1-10.3"/>
			</g>
			<g>
				<path class="st1" d="M68.9,86.9l-4.3,5c-1.4,1.7-2.9,3.3-4.3,5.1l-4.1,5.2l-2,2.6l-1.9,2.7"/>
				<path class="st1" d="M71.6,89.4l-4.3,4.9c-1.4,1.7-2.9,3.3-4.2,5l-4,5.1l-2,2.6l-1.9,2.7"/>
				<path class="st1" d="M61.2,114l1.8-2.6l2-2.5l3.9-5c1.3-1.7,2.7-3.3,4.1-4.9l4.1-4.8"/>
				<path class="st1" d="M74.4,91.9l-4.2,4.9c-1.4,1.6-2.8,3.2-4.1,4.9l-4,5.1l-2,2.5l-1.9,2.6"/>
				<path class="st1" d="M64.2,116.2l1.8-2.5l1.9-2.5l3.9-4.9c1.3-1.7,2.7-3.2,4-4.8l4.1-4.7"/>
			</g>
			<g>
				<path class="st1" d="M87.6,68.2c-3.3,3-6.4,6.1-9.6,9.1c-3,3.2-6.1,6.4-9.1,9.6"/>
				<path class="st1" d="M90.1,70.9c-3.2,2.9-6.3,6-9.5,9c-3,3.2-6,6.3-9,9.5"/>
				<path class="st1" d="M77.1,94.4c2.8-3.1,5.8-6.1,8.7-9.2c3.1-2.9,6.1-5.9,9.2-8.7"/>
				<path class="st1" d="M92.6,73.7c-3.2,2.9-6.2,5.9-9.3,8.8c-2.9,3.1-6,6.2-8.8,9.3"/>
				<path class="st1" d="M79.9,96.8c2.8-3.1,5.7-6,8.6-9.1c3-2.9,6-5.8,9.1-8.6"/>
			</g>
			<g>
				<path class="st1" d="M108.2,51.5l-2.7,1.9l-2.6,2l-5.2,4.1c-1.8,1.3-3.4,2.8-5.1,4.3l-5,4.3"/>
				<path class="st1" d="M110.4,54.5l-2.7,1.9l-2.6,2l-5.1,4c-1.7,1.3-3.3,2.8-5,4.2l-4.9,4.3"/>
				<path class="st1" d="M95.1,76.4l4.8-4.1c1.6-1.4,3.2-2.8,4.9-4.1l5-3.9l2.5-2l2.6-1.8"/>
				<path class="st1" d="M112.6,57.5l-2.6,1.9l-2.5,2l-5.1,4c-1.7,1.3-3.3,2.7-4.9,4.1l-4.9,4.2"/>
				<path class="st1" d="M97.5,79.2l4.7-4.1c1.6-1.4,3.1-2.8,4.8-4l4.9-3.9l2.5-1.9l2.5-1.8"/>
			</g>
			<g>
				<path class="st1" d="M130.4,37c-1.9,1.1-3.9,2.2-5.7,3.4l-5.6,3.6c-3.8,2.3-7.3,5-10.9,7.5"/>
				<path class="st1" d="M132.3,40.3c-1.9,1.1-3.8,2.1-5.6,3.3l-5.5,3.5c-3.7,2.3-7.2,4.9-10.8,7.4"/>
				<path class="st1" d="M114.8,60.5c3.5-2.4,6.8-5,10.4-7.2l5.3-3.4c1.8-1.1,3.6-2.1,5.5-3.2"/>
				<path class="st1" d="M134.1,43.5c-1.8,1.1-3.7,2.1-5.5,3.3l-5.4,3.5c-3.7,2.2-7.1,4.8-10.6,7.3"/>
				<path class="st1" d="M116.9,63.5c3.4-2.4,6.7-4.9,10.3-7.1l5.3-3.4c1.7-1.1,3.6-2.1,5.4-3.2"/>
			</g>
			<g>
				<path class="st1" d="M154,25l-6,2.7c-2,0.9-3.9,2-5.9,3l-5.9,3l-5.7,3.3"/>
				<path class="st1" d="M155.5,28.4l-6,2.7c-2,0.9-3.9,2-5.8,2.9l-5.8,3l-5.7,3.3"/>
				<path class="st1" d="M136,46.7l5.5-3.2l5.6-2.9c1.9-0.9,3.7-2,5.7-2.9l5.8-2.6"/>
				<path class="st1" d="M157,31.8l-5.9,2.7c-1.9,0.9-3.8,1.9-5.7,2.9l-5.7,2.9l-5.6,3.2"/>
				<path class="st1" d="M137.9,49.9l5.4-3.1l5.6-2.9c1.9-0.9,3.7-1.9,5.6-2.8l5.7-2.6"/>
			</g>
			<g>
				<path class="st1" d="M178.8,15.5l-6.3,2.1c-1,0.4-2.1,0.7-3.1,1.1l-3.1,1.2c-4.1,1.6-8.2,3.2-12.2,5.1"/>
				<path class="st1" d="M179.9,19l-6.2,2.1c-1,0.4-2.1,0.7-3.1,1.1l-3,1.2c-4,1.6-8.1,3.1-12.1,5"/>
				<path class="st1" d="M158.6,35.2c3.8-1.8,7.8-3.3,11.7-4.9l2.9-1.2c1-0.4,2-0.7,3-1l6-2"/>
				<path class="st1" d="M181.1,22.5l-6.1,2.1c-1,0.4-2,0.7-3,1.1l-3,1.2c-4,1.6-8,3.1-11.9,4.9"/>
				<path class="st1" d="M160.1,38.5c3.8-1.8,7.7-3.3,11.5-4.8l2.9-1.1c1-0.4,2-0.7,2.9-1l5.9-2"/>
			</g>
			<g>
				<path class="st1" d="M204.4,8.7l-6.5,1.5c-2.2,0.5-4.3,1-6.4,1.6l-6.4,1.8l-3.2,0.9l-3.1,1.1"/>
				<path class="st1" d="M205.1,12.3l-6.4,1.5c-2.1,0.5-4.3,0.9-6.3,1.6l-6.3,1.8L183,18l-3.1,1"/>
				<path class="st1" d="M182.2,26l3-1l3-0.9l6.1-1.7c2-0.6,4.1-1.1,6.1-1.5l6.2-1.4"/>
				<path class="st1" d="M205.9,15.9l-6.3,1.4c-2.1,0.5-4.2,0.9-6.2,1.6l-6.2,1.8l-3.1,0.9l-3.1,1"/>
				<path class="st1" d="M183.3,29.5l3-1l3-0.9l6-1.7c2-0.6,4-1,6.1-1.5l6.1-1.4"/>
			</g>
			<g>
				<path class="st1" d="M230.5,4.5c-4.4,0.6-8.8,1.1-13.1,1.7l-6.5,1.2L207.6,8L206,8.3l-1.6,0.4"/>
				<path class="st1" d="M230.9,8.2c-4.3,0.6-8.6,1-12.9,1.7l-6.4,1.1l-3.2,0.6l-1.6,0.3l-1.6,0.4"/>
				<path class="st1" d="M206.7,19.5l1.5-0.4l1.6-0.3l3.1-0.6l6.2-1.1c4.2-0.6,8.4-1.1,12.6-1.6"/>
				<path class="st1" d="M231.3,11.9c-4.3,0.6-8.5,1-12.8,1.7l-6.3,1.1l-3.2,0.6l-1.6,0.3l-1.6,0.4"/>
				<path class="st1" d="M207.4,23.2l1.5-0.4l1.5-0.3l3.1-0.5l6.1-1.1c4.1-0.6,8.2-1.1,12.4-1.6"/>
			</g>
			<g>
				<path class="st1" d="M257,3l-13.2,0.3c-4.4,0.3-8.8,0.6-13.2,1"/>
				<path class="st1" d="M257,6.8L244,7c-4.3,0.3-8.7,0.6-13,1"/>
				<path class="st1" d="M231.7,15.5c4.2-0.4,8.4-0.7,12.6-1l12.7-0.3"/>
				<path class="st1" d="M257,10.5l-12.9,0.3c-4.3,0.3-8.6,0.6-12.8,1"/>
				<path class="st1" d="M232.1,19.3c4.1-0.4,8.3-0.6,12.4-1L257,18"/>
			</g>
			<g>
				<path class="st1" d="M283.5,4.5c-4.4-0.4-8.8-0.7-13.2-1l-13.2-0.3"/>
				<path class="st1" d="M283.1,8.2c-4.3-0.4-8.7-0.7-13-1l-13-0.3"/>
				<path class="st1" d="M257,14.3l12.7,0.3c4.2,0.3,8.4,0.6,12.6,1"/>
				<path class="st1" d="M282.7,11.9c-4.3-0.4-8.6-0.7-12.8-1L257,10.6"/>
				<path class="st1" d="M257,18l12.5,0.3c4.1,0.3,8.3,0.6,12.4,1"/>
			</g>
			<g>
				<path class="st1" d="M309.6,8.7L308,8.3L306.4,8l-3.3-0.6l-6.5-1.2c-4.4-0.7-8.8-1.1-13.1-1.7"/>
				<path class="st1" d="M308.9,12.3l-1.6-0.4l-1.6-0.3l-3.2-0.6l-6.4-1.1c-4.3-0.7-8.6-1.1-12.9-1.7"/>
				<path class="st1" d="M282.3,15.5c4.2,0.6,8.4,1,12.6,1.6l6.2,1.1l3.1,0.6l1.6,0.3l1.5,0.4"/>
				<path class="st1" d="M308.1,15.9l-1.6-0.4l-1.6-0.3l-3.2-0.6l-6.3-1.1c-4.2-0.6-8.5-1.1-12.8-1.7"/>
				<path class="st1" d="M281.9,19.3c4.1,0.5,8.3,1,12.4,1.6l6.1,1.1l3.1,0.5l1.5,0.3l1.5,0.4"/>
			</g>
			<g>
				<path class="st1" d="M335.2,15.5l-3.1-1.1l-3.2-0.9l-6.4-1.8c-2.1-0.6-4.3-1.1-6.4-1.6l-6.5-1.5"/>
				<path class="st1" d="M334.1,19l-3.1-1l-3.1-0.9l-6.3-1.8c-2.1-0.6-4.2-1.1-6.3-1.6l-6.4-1.5"/>
				<path class="st1" d="M307.3,19.5l6.2,1.4c2.1,0.5,4.1,0.9,6.1,1.5l6.1,1.7l3,0.9l3,1"/>
				<path class="st1" d="M332.9,22.5l-3.1-1l-3.1-0.9l-6.2-1.8c-2.1-0.6-4.2-1.1-6.2-1.6l-6.3-1.4"/>
				<path class="st1" d="M306.6,23.2l6.1,1.4c2,0.5,4.1,0.9,6.1,1.5l6,1.7l3,0.9l3,1"/>
			</g>
			<g>
				<path class="st1" d="M360,25c-4-1.9-8.1-3.5-12.2-5.1l-3.1-1.2c-1-0.4-2.1-0.7-3.1-1.1l-6.3-2.1"/>
				<path class="st1" d="M358.5,28.4c-3.9-1.9-8-3.4-12.1-5l-3-1.2c-1-0.4-2.1-0.7-3.1-1.1l-6.2-2.1"/>
				<path class="st1" d="M331.8,26l6,2c1,0.4,2,0.6,3,1l2.9,1.2c3.9,1.6,7.9,3,11.7,4.9"/>
				<path class="st1" d="M357,31.8c-3.9-1.8-7.9-3.4-11.9-4.9l-3-1.2c-1-0.4-2-0.7-3-1.1l-6.1-2.1"/>
				<path class="st1" d="M330.7,29.5l5.9,2c1,0.3,2,0.6,2.9,1l2.9,1.1c3.9,1.5,7.8,3,11.5,4.8"/>
			</g>
			<g>
				<path class="st1" d="M383.6,37l-5.7-3.3l-5.9-3c-2-1-3.9-2-5.9-3l-6-2.7"/>
				<path class="st1" d="M381.7,40.3L376,37l-5.8-3c-1.9-1-3.9-2-5.8-2.9l-6-2.7"/>
				<path class="st1" d="M355.4,35.2l5.8,2.6c1.9,0.9,3.8,1.9,5.7,2.9l5.6,2.9l5.5,3.2"/>
				<path class="st1" d="M379.9,43.5l-5.6-3.2l-5.7-2.9c-1.9-1-3.8-2-5.7-2.9l-5.9-2.7"/>
				<path class="st1" d="M353.9,38.5l5.7,2.6c1.9,0.9,3.7,1.9,5.6,2.8l5.6,2.9l5.4,3.1"/>
			</g>
			<g>
				<path class="st1" d="M405.8,51.5c-3.6-2.5-7.1-5.2-10.9-7.5l-5.6-3.6c-1.9-1.2-3.8-2.2-5.7-3.4"/>
				<path class="st1" d="M403.6,54.5c-3.6-2.5-7-5.1-10.8-7.4l-5.5-3.5c-1.8-1.2-3.8-2.2-5.6-3.3"/>
				<path class="st1" d="M378,46.7c1.8,1.1,3.7,2.1,5.5,3.2l5.3,3.4c3.6,2.2,7,4.7,10.4,7.2"/>
				<path class="st1" d="M401.4,57.5c-3.5-2.5-6.9-5-10.6-7.3l-5.4-3.5c-1.8-1.2-3.7-2.2-5.5-3.3"/>
				<path class="st1" d="M376.1,49.9c1.8,1.1,3.6,2,5.4,3.2l5.3,3.4c3.6,2.2,6.9,4.7,10.3,7.1"/>
			</g>
			<g>
				<path class="st1" d="M426.4,68.2l-5-4.3c-1.7-1.4-3.3-2.9-5.1-4.3l-5.2-4.1l-2.6-2l-2.7-1.9"/>
				<path class="st1" d="M423.9,70.9l-4.9-4.3c-1.7-1.4-3.3-2.9-5-4.2l-5.1-4l-2.6-2l-2.7-1.9"/>
				<path class="st1" d="M399.2,60.5l2.6,1.8l2.5,2l5,3.9c1.7,1.3,3.3,2.7,4.9,4.1l4.8,4.1"/>
				<path class="st1" d="M421.4,73.7l-4.9-4.2c-1.6-1.4-3.2-2.8-4.9-4.1l-5.1-4l-2.5-2l-2.6-1.9"/>
				<path class="st1" d="M397.1,63.5l2.5,1.8l2.5,1.9L407,71c1.7,1.3,3.2,2.7,4.8,4l4.7,4.1"/>
			</g>
			<g>
				<path class="st1" d="M445.1,86.9c-3-3.3-6.1-6.4-9.1-9.6c-3.2-3-6.4-6.1-9.6-9.1"/>
				<path class="st1" d="M442.4,89.4c-2.9-3.2-6-6.3-9-9.5c-3.2-3-6.3-6-9.5-9"/>
				<path class="st1" d="M418.9,76.4c3.1,2.8,6.1,5.8,9.2,8.7c2.9,3.1,5.9,6.1,8.7,9.2"/>
				<path class="st1" d="M439.6,91.9c-2.9-3.2-5.9-6.2-8.8-9.3c-3.1-2.9-6.2-6-9.3-8.8"/>
				<path class="st1" d="M416.5,79.2c3.1,2.8,6,5.7,9.1,8.6c2.9,3,5.8,6,8.6,9.1"/>
			</g>
			<g>
				<path class="st1" d="M461.8,107.5l-1.9-2.7l-2-2.6l-4.1-5.2c-1.3-1.8-2.8-3.4-4.3-5.1l-4.3-5"/>
				<path class="st1" d="M458.8,109.7l-1.9-2.7l-2-2.6l-4-5.1c-1.3-1.7-2.8-3.3-4.2-5l-4.3-4.9"/>
				<path class="st1" d="M436.9,94.4l4.1,4.8c1.4,1.6,2.8,3.2,4.1,4.9l3.9,5l2,2.5l1.8,2.6"/>
				<path class="st1" d="M455.8,111.9l-1.9-2.6l-2-2.5l-4-5.1c-1.3-1.7-2.7-3.3-4.1-4.9l-4.2-4.9"/>
				<path class="st1" d="M434.1,96.8l4.1,4.7c1.4,1.6,2.8,3.1,4,4.8l3.9,4.9l1.9,2.5l1.8,2.5"/>
			</g>
			<g>
				<path class="st1" d="M476.2,129.6c-1.1-1.9-2.2-3.9-3.4-5.7l-3.6-5.6c-2.3-3.8-5-7.3-7.5-10.9"/>
				<path class="st1" d="M473,131.5c-1.1-1.9-2.1-3.8-3.3-5.6l-3.5-5.5c-2.3-3.7-4.9-7.2-7.4-10.8"/>
				<path class="st1" d="M452.8,114c2.4,3.5,5,6.8,7.2,10.4l3.4,5.3c1.1,1.8,2.1,3.6,3.2,5.5"/>
				<path class="st1" d="M469.8,133.4c-1.1-1.8-2.1-3.7-3.3-5.5l-3.5-5.4c-2.2-3.7-4.8-7.1-7.3-10.6"/>
				<path class="st1" d="M449.8,116.2c2.4,3.4,4.9,6.7,7.1,10.3l3.4,5.3c1.1,1.7,2.1,3.6,3.2,5.4"/>
			</g>
			<g>
				<path class="st1" d="M488.3,153.3l-2.7-6c-0.9-2-2-3.9-3-5.9l-3-5.9l-3.3-5.7"/>
				<path class="st1" d="M484.9,154.8l-2.7-6c-0.9-2-2-3.9-2.9-5.8l-3-5.8l-3.3-5.7"/>
				<path class="st1" d="M466.6,135.3l3.2,5.5l2.9,5.6c0.9,1.9,2,3.7,2.9,5.7l2.6,5.8"/>
				<path class="st1" d="M481.5,156.3l-2.7-5.9c-0.9-1.9-1.9-3.8-2.9-5.7l-2.9-5.7l-3.2-5.6"/>
				<path class="st1" d="M463.4,137.1l3.1,5.4l2.9,5.6c0.9,1.9,1.9,3.7,2.8,5.6l2.6,5.7"/>
			</g>
			<g>
				<path class="st1" d="M497.8,178l-2.1-6.3c-0.4-1-0.7-2.1-1.1-3.1l-1.2-3.1c-1.6-4.1-3.2-8.2-5.1-12.2"/>
				<path class="st1" d="M494.3,179.1l-2.1-6.2c-0.4-1-0.7-2.1-1.1-3.1l-1.2-3c-1.6-4-3.1-8.1-5-12.1"/>
				<path class="st1" d="M478.1,157.9c1.8,3.8,3.3,7.8,4.9,11.7l1.2,2.9c0.4,1,0.7,2,1,3l2,6"/>
				<path class="st1" d="M490.7,180.4l-2.1-6.1c-0.4-1-0.7-2-1.1-3l-1.2-3c-1.6-4-3.1-8-4.9-11.9"/>
				<path class="st1" d="M474.7,159.4c1.8,3.8,3.3,7.7,4.8,11.5l1.1,2.9c0.4,1,0.7,2,1,2.9l2,5.9"/>
			</g>
			<g>
				<path class="st1" d="M504.6,203.6l-1.5-6.5c-0.5-2.2-1-4.3-1.6-6.4l-1.8-6.4l-0.9-3.2l-1.1-3.1"/>
				<path class="st1" d="M501,204.4l-1.5-6.4c-0.5-2.1-0.9-4.3-1.6-6.3l-1.8-6.3l-0.9-3.1l-1-3.1"/>
				<path class="st1" d="M487.2,181.5l1,3l0.9,3l1.7,6.1c0.6,2,1.1,4.1,1.5,6.1l1.4,6.2"/>
				<path class="st1" d="M497.4,205.1l-1.4-6.3c-0.5-2.1-0.9-4.2-1.6-6.2l-1.8-6.2l-0.9-3.1l-1-3.1"/>
				<path class="st1" d="M483.7,182.5l1,3l0.9,3l1.7,6c0.6,2,1,4,1.5,6.1l1.4,6.1"/>
			</g>
			<g>
				<path class="st1" d="M508.8,229.8c-0.6-4.4-1.1-8.8-1.7-13.1l-1.2-6.5l-0.6-3.3l-0.3-1.6l-0.4-1.6"/>
				<path class="st1" d="M505.1,230.1c-0.6-4.3-1-8.6-1.7-12.9l-1.1-6.4l-0.6-3.2l-0.3-1.6l-0.4-1.6"/>
				<path class="st1" d="M493.8,206l0.4,1.5l0.3,1.6l0.6,3.1l1.1,6.2c0.6,4.2,1.1,8.4,1.6,12.6"/>
				<path class="st1" d="M501.4,230.5c-0.6-4.3-1-8.5-1.7-12.8l-1.1-6.3l-0.6-3.2l-0.3-1.6l-0.4-1.6"/>
				<path class="st1" d="M490.1,206.6l0.4,1.5l0.3,1.5l0.5,3.1l1.1,6.1c0.6,4.1,1.1,8.2,1.6,12.4"/>
			</g>
			<g>
				<path class="st1" d="M510.2,256.3l-0.3-13.2c-0.3-4.4-0.6-8.8-1-13.2"/>
				<path class="st1" d="M506.5,256.3l-0.3-13c-0.3-4.3-0.6-8.7-1-13"/>
				<path class="st1" d="M497.7,231c0.4,4.2,0.7,8.4,1,12.6l0.3,12.7"/>
				<path class="st1" d="M502.7,256.3l-0.3-12.9c-0.3-4.3-0.6-8.6-1-12.8"/>
				<path class="st1" d="M494,231.4c0.4,4.1,0.6,8.3,1,12.4l0.3,12.5"/>
			</g>
			<g>
				<path class="st1" d="M508.8,282.8c0.4-4.4,0.7-8.8,1-13.2l0.3-13.2"/>
				<path class="st1" d="M505.1,282.4c0.4-4.3,0.7-8.7,1-13l0.3-13"/>
				<path class="st1" d="M499,256.3l-0.3,12.7c-0.3,4.2-0.6,8.4-1,12.6"/>
				<path class="st1" d="M501.4,282c0.4-4.3,0.7-8.6,1-12.8l0.3-12.9"/>
				<path class="st1" d="M495.3,256.3l-0.3,12.5c-0.3,4.1-0.6,8.3-1,12.4"/>
			</g>
			<g>
				<path class="st1" d="M504.6,308.9l0.4-1.6l0.3-1.6l0.6-3.3l1.2-6.5c0.7-4.4,1.1-8.8,1.7-13.1"/>
				<path class="st1" d="M501,308.1l0.4-1.6l0.3-1.6l0.6-3.2l1.1-6.4c0.7-4.3,1.1-8.6,1.7-12.9"/>
				<path class="st1" d="M497.7,281.6c-0.6,4.2-1,8.4-1.6,12.6l-1.1,6.2l-0.6,3.1l-0.3,1.6l-0.4,1.5"/>
				<path class="st1" d="M497.4,307.4l0.4-1.6l0.3-1.6l0.6-3.2l1.1-6.3c0.6-4.2,1.1-8.5,1.7-12.8"/>
				<path class="st1" d="M494,281.1c-0.5,4.1-1,8.3-1.6,12.4l-1.1,6.1l-0.5,3.1l-0.3,1.5l-0.4,1.5"/>
			</g>
			<g>
				<path class="st1" d="M497.8,334.5l1.1-3.1l0.9-3.2l1.7-6.4c0.6-2.1,1.1-4.3,1.6-6.4l1.5-6.5"/>
				<path class="st1" d="M494.3,333.4l1-3.1l0.9-3.1l1.8-6.3c0.6-2.1,1.1-4.2,1.6-6.3l1.5-6.4"/>
				<path class="st1" d="M493.8,306.6l-1.4,6.2c-0.5,2.1-0.9,4.1-1.5,6.1l-1.7,6.1l-0.9,3l-1,3"/>
				<path class="st1" d="M490.7,332.1l1-3.1l0.9-3.1l1.8-6.2c0.6-2.1,1.1-4.2,1.6-6.2l1.4-6.3"/>
				<path class="st1" d="M490.1,305.9l-1.4,6.1c-0.5,2-0.9,4.1-1.5,6.1l-1.7,6l-0.9,3l-1,3"/>
			</g>
			<g>
				<path class="st1" d="M488.3,359.3c1.9-4,3.5-8.1,5.1-12.2l1.2-3.1c0.4-1,0.7-2.1,1.1-3.1l2.1-6.3"/>
				<path class="st1" d="M484.9,357.8c1.9-3.9,3.4-8,5-12.1l1.2-3c0.4-1,0.7-2.1,1.1-3.1l2.1-6.2"/>
				<path class="st1" d="M487.2,331.1l-2,6c-0.4,1-0.6,2-1,3L483,343c-1.6,3.9-3,7.9-4.9,11.7"/>
				<path class="st1" d="M481.5,356.3c1.8-3.9,3.4-7.9,4.9-11.9l1.2-3c0.4-1,0.7-2,1.1-3l2.1-6.1"/>
				<path class="st1" d="M483.7,330l-2,5.9c-0.3,1-0.6,2-1,2.9l-1.1,2.9c-1.5,3.9-3,7.8-4.8,11.5"/>
			</g>
			<g>
				<path class="st1" d="M476.2,382.9l3.3-5.7l3-5.9c1-2,2-3.9,3-5.9l2.7-6"/>
				<path class="st1" d="M473,381l3.3-5.7l3-5.8c1-1.9,2-3.9,2.9-5.8l2.7-6"/>
				<path class="st1" d="M478.1,354.6l-2.6,5.8c-0.9,1.9-1.9,3.8-2.9,5.7l-2.9,5.6l-3.2,5.5"/>
				<path class="st1" d="M469.8,379.1l3.2-5.6l2.9-5.7c1-1.9,2-3.8,2.9-5.7l2.7-5.9"/>
				<path class="st1" d="M474.7,353.1l-2.6,5.7c-0.9,1.9-1.9,3.7-2.8,5.6l-2.9,5.6l-3.1,5.4"/>
			</g>
			<g>
				<path class="st1" d="M461.8,405.1c2.5-3.6,5.2-7.1,7.5-10.9l3.6-5.6c1.2-1.9,2.2-3.8,3.4-5.7"/>
				<path class="st1" d="M458.8,402.9c2.5-3.6,5.1-7,7.4-10.8l3.5-5.5c1.2-1.8,2.2-3.8,3.3-5.6"/>
				<path class="st1" d="M466.6,377.3c-1.1,1.8-2.1,3.7-3.2,5.5l-3.4,5.3c-2.2,3.6-4.7,7-7.2,10.4"/>
				<path class="st1" d="M455.8,400.6c2.5-3.5,5-6.9,7.3-10.6l3.5-5.4c1.2-1.8,2.2-3.7,3.3-5.5"/>
				<path class="st1" d="M463.4,375.4c-1.1,1.8-2,3.6-3.2,5.4l-3.4,5.3c-2.2,3.6-4.7,6.9-7.1,10.3"/>
			</g>
			<g>
				<path class="st1" d="M445.1,425.6l4.3-5c1.4-1.7,2.9-3.3,4.3-5.1l4.1-5.2l2-2.6l1.9-2.7"/>
				<path class="st1" d="M442.4,423.1l4.3-4.9c1.4-1.7,2.9-3.3,4.2-5l4-5.1l2-2.6l1.9-2.7"/>
				<path class="st1" d="M452.8,398.5L451,401l-2,2.5l-3.9,5c-1.3,1.7-2.7,3.3-4.1,4.9l-4.1,4.8"/>
				<path class="st1" d="M439.6,420.6l4.2-4.9c1.4-1.6,2.8-3.2,4.1-4.9l4-5.1l2-2.5l1.9-2.6"/>
				<path class="st1" d="M449.8,396.4l-1.8,2.5l-1.9,2.5l-3.9,4.9c-1.3,1.7-2.7,3.2-4,4.8l-4.1,4.7"/>
			</g>
			<g>
				<path class="st1" d="M426.4,444.4c3.3-3,6.4-6.1,9.6-9.1c3-3.2,6.1-6.4,9.1-9.6"/>
				<path class="st1" d="M423.9,441.6c3.2-2.9,6.3-6,9.5-9c3-3.2,6-6.3,9-9.5"/>
				<path class="st1" d="M436.9,418.1c-2.8,3.1-5.8,6.1-8.7,9.2c-3.1,2.9-6.1,5.9-9.2,8.7"/>
				<path class="st1" d="M421.4,438.9c3.2-2.9,6.2-5.9,9.3-8.8c2.9-3.1,6-6.2,8.8-9.3"/>
				<path class="st1" d="M434.1,415.8c-2.8,3.1-5.7,6-8.6,9.1c-3,2.9-6,5.8-9.1,8.6"/>
			</g>
			<g>
				<path class="st1" d="M405.8,461.1l2.7-1.9l2.6-2l5.2-4.1c1.8-1.3,3.4-2.8,5.1-4.3l5-4.3"/>
				<path class="st1" d="M403.6,458.1l2.7-1.9l2.6-2l5.1-4c1.7-1.3,3.3-2.8,5-4.2l4.9-4.3"/>
				<path class="st1" d="M418.9,436.1l-4.8,4.1c-1.6,1.4-3.2,2.8-4.9,4.1l-5,3.9l-2.5,2l-2.6,1.8"/>
				<path class="st1" d="M401.4,455.1l2.6-1.9l2.5-2l5.1-4c1.7-1.3,3.3-2.7,4.9-4.1l4.9-4.2"/>
				<path class="st1" d="M416.5,433.4l-4.7,4.1c-1.6,1.4-3.1,2.8-4.8,4l-4.9,3.9l-2.5,1.9l-2.5,1.8"/>
			</g>
			<g>
				<path class="st1" d="M383.6,475.5c1.9-1.1,3.9-2.2,5.7-3.4l5.6-3.6c3.8-2.3,7.3-5,10.9-7.5"/>
				<path class="st1" d="M381.7,472.3c1.9-1.1,3.8-2.1,5.6-3.3l5.5-3.5c3.7-2.3,7.2-4.9,10.8-7.4"/>
				<path class="st1" d="M399.2,452.1c-3.5,2.4-6.8,5-10.4,7.2l-5.3,3.4c-1.8,1.1-3.6,2.1-5.5,3.2"/>
				<path class="st1" d="M379.9,469.1c1.8-1.1,3.7-2.1,5.5-3.3l5.4-3.5c3.7-2.2,7.1-4.8,10.6-7.3"/>
				<path class="st1" d="M397.1,449.1c-3.4,2.4-6.7,4.9-10.3,7.1l-5.3,3.4c-1.7,1.1-3.6,2.1-5.4,3.2"/>
			</g>
			<g>
				<path class="st1" d="M360,487.6l6-2.7c2-0.9,3.9-2,5.9-3l5.9-3l5.7-3.3"/>
				<path class="st1" d="M358.5,484.1l6-2.7c2-0.9,3.9-2,5.8-2.9l5.8-3l5.7-3.3"/>
				<path class="st1" d="M378,465.9l-5.5,3.2l-5.6,2.9c-1.9,0.9-3.7,2-5.7,2.9l-5.8,2.6"/>
				<path class="st1" d="M357,480.8l5.9-2.7c1.9-0.9,3.8-1.9,5.7-2.9l5.7-2.9l5.6-3.2"/>
				<path class="st1" d="M376.1,462.6l-5.4,3.1l-5.6,2.9c-1.9,0.9-3.7,1.9-5.6,2.8l-5.7,2.6"/>
			</g>
			<g>
				<path class="st1" d="M335.2,497.1l6.3-2.1c1-0.4,2.1-0.7,3.1-1.1l3.1-1.2c4.1-1.6,8.2-3.2,12.2-5.1"/>
				<path class="st1" d="M334.1,493.6l6.2-2.1c1-0.4,2.1-0.7,3.1-1.1l3-1.2c4-1.6,8.1-3.1,12.1-5"/>
				<path class="st1" d="M355.4,477.4c-3.8,1.8-7.8,3.3-11.7,4.9l-2.9,1.2c-1,0.4-2,0.7-3,1l-6,2"/>
				<path class="st1" d="M332.9,490l6.1-2.1c1-0.4,2-0.7,3-1.1l3-1.2c4-1.6,8-3.1,11.9-4.9"/>
				<path class="st1" d="M353.9,474c-3.8,1.8-7.7,3.3-11.5,4.8l-2.9,1.1c-1,0.4-2,0.7-2.9,1l-5.9,2"/>
			</g>
			<g>
				<path class="st1" d="M309.6,503.9l6.5-1.5c2.2-0.5,4.3-1,6.4-1.6l6.4-1.8l3.2-0.9l3.1-1.1"/>
				<path class="st1" d="M308.9,500.3l6.4-1.5c2.1-0.5,4.3-0.9,6.3-1.6l6.3-1.8l3.1-0.9l3.1-1"/>
				<path class="st1" d="M331.8,486.5l-3,1l-3,0.9l-6.1,1.7c-2,0.6-4.1,1.1-6.1,1.5l-6.2,1.4"/>
				<path class="st1" d="M308.1,496.6l6.3-1.4c2.1-0.5,4.2-0.9,6.2-1.6l6.2-1.8l3.1-0.9l3.1-1"/>
				<path class="st1" d="M330.7,483l-3,1l-3,0.9l-6,1.7c-2,0.6-4,1-6.1,1.5l-6.1,1.4"/>
			</g>
			<g>
				<path class="st1" d="M283.5,508.1c4.4-0.6,8.8-1.1,13.1-1.7l6.5-1.2l3.3-0.6l1.6-0.3l1.6-0.4"/>
				<path class="st1" d="M283.1,504.4c4.3-0.6,8.6-1,12.9-1.7l6.4-1.1l3.2-0.6l1.6-0.3l1.6-0.4"/>
				<path class="st1" d="M307.3,493.1l-1.5,0.4l-1.6,0.3l-3.1,0.6l-6.2,1.1c-4.2,0.6-8.4,1.1-12.6,1.6"/>
				<path class="st1" d="M282.7,500.6c4.3-0.6,8.5-1,12.8-1.7l6.3-1.1l3.2-0.6l1.6-0.3l1.6-0.4"/>
				<path class="st1" d="M306.6,489.4l-1.5,0.4l-1.5,0.3l-3.1,0.5l-6.1,1.1c-4.1,0.6-8.2,1.1-12.4,1.6"/>
			</g>
			<g>
				<path class="st1" d="M257,509.5l13.2-0.3c4.4-0.3,8.8-0.6,13.2-1"/>
				<path class="st1" d="M257,505.8l13-0.3c4.3-0.3,8.7-0.6,13-1"/>
				<path class="st1" d="M282.3,497c-4.2,0.4-8.4,0.7-12.6,1l-12.7,0.3"/>
				<path class="st1" d="M257,502l12.9-0.3c4.3-0.3,8.6-0.6,12.8-1"/>
				<path class="st1" d="M281.9,493.3c-4.1,0.4-8.3,0.6-12.4,1l-12.5,0.3"/>
			</g>
			<g>
				<path class="st1" d="M230.5,508.1c4.4,0.4,8.8,0.7,13.2,1l13.2,0.3"/>
				<path class="st1" d="M230.9,504.4c4.3,0.4,8.7,0.7,13,1l13,0.3"/>
				<path class="st1" d="M257,498.3l-12.7-0.3c-4.2-0.3-8.4-0.6-12.6-1"/>
				<path class="st1" d="M231.3,500.6c4.3,0.4,8.6,0.7,12.8,1L257,502"/>
				<path class="st1" d="M257,494.6l-12.5-0.3c-4.1-0.3-8.3-0.6-12.4-1"/>
			</g>
			<g>
				<path class="st1" d="M204.4,503.9l1.6,0.4l1.6,0.3l3.3,0.6l6.5,1.2c4.4,0.7,8.8,1.1,13.1,1.7"/>
				<path class="st1" d="M205.1,500.3l1.6,0.4l1.6,0.3l3.2,0.6l6.4,1.1c4.3,0.7,8.6,1.1,12.9,1.7"/>
				<path class="st1" d="M231.7,497c-4.2-0.6-8.4-1-12.6-1.6l-6.2-1.1l-3.1-0.6l-1.6-0.3l-1.5-0.4"/>
				<path class="st1" d="M205.9,496.6l1.6,0.4l1.6,0.3l3.2,0.6l6.3,1.1c4.2,0.6,8.5,1.1,12.8,1.7"/>
				<path class="st1" d="M232.1,493.3c-4.1-0.5-8.3-1-12.4-1.6l-6.1-1.1l-3.1-0.5l-1.5-0.3l-1.5-0.4"/>
			</g>
			<g>
				<path class="st1" d="M178.8,497.1l3.1,1.1l3.2,0.9l6.4,1.7c2.1,0.6,4.3,1.1,6.4,1.6l6.5,1.5"/>
				<path class="st1" d="M179.9,493.6l3.1,1l3.1,0.9l6.3,1.8c2.1,0.6,4.2,1.1,6.3,1.6l6.4,1.5"/>
				<path class="st1" d="M206.7,493.1l-6.2-1.4c-2.1-0.5-4.1-0.9-6.1-1.5l-6.1-1.7l-3-0.9l-3-1"/>
				<path class="st1" d="M181.1,490l3.1,1l3.1,0.9l6.2,1.8c2.1,0.6,4.2,1.1,6.2,1.6l6.3,1.4"/>
				<path class="st1" d="M207.4,489.4l-6.1-1.4c-2-0.5-4.1-0.9-6.1-1.5l-6-1.7l-3-0.9l-3-1"/>
			</g>
			<g>
				<path class="st1" d="M154,487.6c4,1.9,8.1,3.5,12.2,5.1l3.1,1.2c1,0.4,2.1,0.7,3.1,1.1l6.3,2.1"/>
				<path class="st1" d="M155.5,484.1c3.9,1.9,8,3.4,12.1,5l3,1.2c1,0.4,2.1,0.7,3.1,1.1l6.2,2.1"/>
				<path class="st1" d="M182.2,486.5l-6-2c-1-0.4-2-0.6-3-1l-2.9-1.2c-3.9-1.6-7.9-3-11.7-4.9"/>
				<path class="st1" d="M157,480.8c3.9,1.8,7.9,3.4,11.9,4.9l3,1.2c1,0.4,2,0.7,3,1.1l6.1,2.1"/>
				<path class="st1" d="M183.3,483l-5.9-2c-1-0.3-2-0.6-2.9-1l-2.9-1.1c-3.9-1.5-7.8-3-11.5-4.8"/>
			</g>
			<g>
				<path class="st1" d="M130.4,475.5l5.7,3.3l5.9,3c2,1,3.9,2,5.9,3l6,2.7"/>
				<path class="st1" d="M132.3,472.3l5.7,3.3l5.8,3c1.9,1,3.9,2,5.8,2.9l6,2.7"/>
				<path class="st1" d="M158.6,477.4l-5.8-2.6c-1.9-0.9-3.8-1.9-5.7-2.9l-5.6-2.9l-5.5-3.2"/>
				<path class="st1" d="M134.1,469.1l5.6,3.2l5.7,2.9c1.9,1,3.8,2,5.7,2.9l5.9,2.7"/>
				<path class="st1" d="M160.1,474l-5.7-2.6c-1.9-0.9-3.7-1.9-5.6-2.8l-5.6-2.9l-5.4-3.1"/>
			</g>
			<g>
				<path class="st1" d="M108.2,461.1c3.6,2.5,7.1,5.2,10.9,7.5l5.6,3.6c1.9,1.2,3.8,2.2,5.7,3.4"/>
				<path class="st1" d="M110.4,458.1c3.6,2.5,7,5.1,10.8,7.4l5.5,3.5c1.8,1.2,3.8,2.2,5.6,3.3"/>
				<path class="st1" d="M136,465.9c-1.8-1.1-3.7-2.1-5.5-3.2l-5.3-3.4c-3.6-2.2-7-4.7-10.4-7.2"/>
				<path class="st1" d="M112.6,455.1c3.5,2.5,6.9,5,10.6,7.3l5.4,3.5c1.8,1.2,3.7,2.2,5.5,3.3"/>
				<path class="st1" d="M137.9,462.6c-1.8-1.1-3.6-2-5.4-3.2l-5.3-3.4c-3.6-2.2-6.9-4.7-10.3-7.1"/>
			</g>
			<g>
				<path class="st1" d="M87.6,444.4l5,4.3c1.7,1.4,3.3,2.9,5.1,4.3l5.2,4.1l2.6,2l2.7,1.9"/>
				<path class="st1" d="M90.1,441.6L95,446c1.7,1.4,3.3,2.9,5,4.2l5.1,4l2.6,2l2.7,1.9"/>
				<path class="st1" d="M114.8,452.1l-2.6-1.8l-2.5-2l-5-3.9c-1.7-1.3-3.3-2.7-4.9-4.1l-4.8-4.1"/>
				<path class="st1" d="M92.6,438.9l4.9,4.2c1.6,1.4,3.2,2.8,4.9,4.1l5.1,4l2.5,2l2.6,1.9"/>
				<path class="st1" d="M116.9,449.1l-2.5-1.8l-2.5-1.9l-4.9-3.9c-1.7-1.3-3.2-2.7-4.8-4l-4.7-4.1"/>
			</g>
			<g>
				<path class="st1" d="M68.9,425.6c3,3.3,6.1,6.4,9.1,9.6c3.2,3,6.4,6.1,9.6,9.1"/>
				<path class="st1" d="M71.6,423.1c2.9,3.2,6,6.3,9,9.5c3.2,3,6.3,6,9.5,9"/>
				<path class="st1" d="M95.1,436.1c-3.1-2.8-6.1-5.8-9.2-8.7c-2.9-3.1-5.9-6.1-8.7-9.2"/>
				<path class="st1" d="M74.4,420.6c2.9,3.2,5.9,6.2,8.8,9.3c3.1,2.9,6.2,6,9.3,8.8"/>
				<path class="st1" d="M97.5,433.4c-3.1-2.8-6-5.7-9.1-8.6c-2.9-3-5.8-6-8.6-9.1"/>
			</g>
			<g>
				<path class="st1" d="M52.2,405.1l1.9,2.7l2,2.6l4.1,5.2c1.3,1.8,2.8,3.4,4.3,5.1l4.3,5"/>
				<path class="st1" d="M55.2,402.9l1.9,2.7l2,2.6l4,5.1c1.3,1.7,2.8,3.3,4.2,5l4.3,4.9"/>
				<path class="st1" d="M77.1,418.1l-4.1-4.8c-1.4-1.6-2.8-3.2-4.1-4.9l-3.9-5l-2-2.5l-1.8-2.6"/>
				<path class="st1" d="M58.2,400.6l1.9,2.6l2,2.5l4,5.1c1.3,1.7,2.7,3.3,4.1,4.9l4.2,4.9"/>
				<path class="st1" d="M79.9,415.8l-4.1-4.7c-1.4-1.6-2.8-3.1-4-4.8l-3.9-4.9l-1.9-2.5l-1.8-2.5"/>
			</g>
			<g>
				<path class="st1" d="M37.8,382.9c1.1,1.9,2.2,3.9,3.4,5.7l3.6,5.6c2.3,3.8,5,7.3,7.5,10.9"/>
				<path class="st1" d="M41,381c1.1,1.9,2.1,3.8,3.3,5.6l3.5,5.5c2.3,3.7,4.9,7.2,7.4,10.8"/>
				<path class="st1" d="M61.2,398.5c-2.4-3.5-5-6.8-7.2-10.4l-3.4-5.3c-1.1-1.8-2.1-3.6-3.2-5.5"/>
				<path class="st1" d="M44.2,379.1c1.1,1.8,2.1,3.7,3.3,5.5L51,390c2.2,3.7,4.8,7.1,7.3,10.6"/>
				<path class="st1" d="M64.2,396.4c-2.4-3.4-4.9-6.7-7.1-10.3l-3.4-5.3c-1.1-1.7-2.1-3.6-3.2-5.4"/>
			</g>
			<g>
				<path class="st1" d="M25.7,359.3l2.7,6c0.9,2,2,3.9,3,5.9l3,5.9l3.3,5.7"/>
				<path class="st1" d="M29.1,357.8l2.7,6c0.9,2,2,3.9,2.9,5.8l3,5.8l3.3,5.7"/>
				<path class="st1" d="M47.4,377.3l-3.2-5.5l-2.9-5.6c-0.9-1.9-2-3.7-2.9-5.7l-2.6-5.8"/>
				<path class="st1" d="M32.5,356.3l2.7,5.9c0.9,1.9,1.9,3.8,2.9,5.7l2.9,5.7l3.2,5.6"/>
				<path class="st1" d="M50.6,375.4l-3.1-5.4l-2.9-5.6c-0.9-1.9-1.9-3.7-2.8-5.6l-2.6-5.7"/>
			</g>
			<g>
				<path class="st1" d="M16.2,334.5l2.1,6.3c0.4,1,0.7,2.1,1.1,3.1l1.2,3.1c1.6,4.1,3.2,8.2,5.1,12.2"/>
				<path class="st1" d="M19.7,333.4l2.1,6.2c0.4,1,0.7,2.1,1.1,3.1l1.2,3c1.6,4,3.1,8.1,5,12.1"/>
				<path class="st1" d="M35.9,354.6c-1.8-3.8-3.3-7.8-4.9-11.7l-1.2-2.9c-0.4-1-0.7-2-1-3l-2-6"/>
				<path class="st1" d="M23.3,332.1l2.1,6.1c0.4,1,0.7,2,1.1,3l1.2,3c1.6,4,3.1,8,4.9,11.9"/>
				<path class="st1" d="M39.3,353.1c-1.8-3.8-3.3-7.7-4.8-11.5l-1.1-2.9c-0.4-1-0.7-2-1-2.9l-2-5.9"/>
			</g>
			<g>
				<path class="st1" d="M9.4,308.9l1.5,6.5c0.5,2.2,1,4.3,1.6,6.4l1.8,6.4l0.9,3.2l1.1,3.1"/>
				<path class="st1" d="M13,308.1l1.5,6.4c0.5,2.1,0.9,4.3,1.6,6.3l1.8,6.3l0.9,3.1l1,3.1"/>
				<path class="st1" d="M26.8,331.1l-1-3l-0.9-3l-1.7-6.1c-0.6-2-1.1-4.1-1.5-6.1l-1.4-6.2"/>
				<path class="st1" d="M16.6,307.4l1.4,6.3c0.5,2.1,0.9,4.2,1.6,6.2l1.8,6.2l0.9,3.1l1,3.1"/>
				<path class="st1" d="M30.3,330l-1-3l-0.9-3l-1.7-6c-0.6-2-1-4-1.5-6.1l-1.4-6.1"/>
			</g>
			<g>
				<path class="st1" d="M5.2,282.8c0.6,4.4,1.1,8.8,1.7,13.1l1.2,6.5l0.6,3.3l0.3,1.6l0.4,1.6"/>
				<path class="st1" d="M8.9,282.4c0.6,4.3,1,8.6,1.7,12.9l1.1,6.4l0.6,3.2l0.3,1.6l0.4,1.6"/>
				<path class="st1" d="M20.2,306.6l-0.4-1.5l-0.3-1.6l-0.6-3.1l-1.1-6.2c-0.6-4.2-1.1-8.4-1.6-12.6"/>
				<path class="st1" d="M12.6,282c0.6,4.3,1,8.5,1.7,12.8l1.1,6.3l0.6,3.2l0.3,1.6l0.4,1.6"/>
				<path class="st1" d="M23.9,305.9l-0.4-1.5l-0.3-1.5l-0.5-3.1l-1.1-6.1c-0.6-4.1-1.1-8.2-1.6-12.4"/>
			</g>
			<g>
				<path class="st1" d="M3.8,256.3l0.3,13.2c0.3,4.4,0.6,8.8,1,13.2"/>
				<path class="st1" d="M7.5,256.3l0.3,13c0.3,4.3,0.6,8.7,1,13"/>
				<path class="st1" d="M16.3,281.6c-0.4-4.2-0.7-8.4-1-12.6L15,256.3"/>
				<path class="st1" d="M11.3,256.3l0.3,12.9c0.3,4.3,0.6,8.6,1,12.8"/>
				<path class="st1" d="M20,281.1c-0.4-4.1-0.6-8.3-1-12.4l-0.3-12.5"/>
			</g>
		</g>
	</g>
</g>
<g>
	<path class="st2" d="M115.7,251.5L115.7,251.5c0-19.6,15.9-35.5,35.5-35.5l215.1,0.1c19.6,0,35.5,15.9,35.5,35.5l0,0
		c0,19.6-15.9,35.5-35.5,35.5L151.2,287C131.6,287,115.7,271.1,115.7,251.5z"/>
	<g>
		<g>
			<g>
				<path class="st3" d="M114.6,220.1c-3.7,4.3-6.6,9.3-8.6,14.6c-2,5.3-3,11-3,16.7"/>
				<path class="st3" d="M117.4,222.6c-3.4,4-6.1,8.6-7.9,13.5c-1.8,4.9-2.8,10.2-2.8,15.4"/>
				<path class="st3" d="M114.2,251.4c0-8.7,3.2-17.4,8.9-24.1"/>
				<path class="st3" d="M120.3,225c-3.1,3.7-5.6,7.9-7.3,12.4c-1.7,4.5-2.5,9.3-2.6,14.1"/>
				<path class="st3" d="M117.9,251.5c0-7.9,2.9-15.7,8-21.7"/>
			</g>
			<g>
				<path class="st3" d="M143.8,204c-11.2,1.7-21.8,7.6-29.1,16.2"/>
				<path class="st3" d="M144.3,207.6c-10.4,1.6-20.2,7-26.9,15"/>
				<path class="st3" d="M123.1,227.4c5.6-6.7,13.8-11.2,22.4-12.5"/>
				<path class="st3" d="M144.9,211.3c-9.5,1.4-18.5,6.4-24.7,13.7"/>
				<path class="st3" d="M125.9,229.8c5.1-6,12.4-10.1,20.2-11.2"/>
			</g>
			<g>
				<path class="st3" d="M170.8,203.3l-12.6,0l-6.3,0l-0.8,0l-1.1,0l-2.1,0.1c-0.7,0.1-1.4,0.1-2.1,0.2l-2.1,0.3"/>
				<path class="st3" d="M170.8,207l-12.6,0l-6.3,0l-0.8,0l-1,0l-2,0.1c-0.7,0-1.3,0-2,0.1l-1.9,0.3"/>
				<path class="st3" d="M145.5,214.9l1.6-0.2c0.5-0.1,1.1-0.1,1.6-0.1c1.1,0,2.2-0.1,3.2-0.1l6.3,0l12.6,0"/>
				<path class="st3" d="M170.8,210.8l-12.6,0l-6.3,0l-0.8,0l-0.9,0l-1.8,0.1c-0.6,0-1.2,0-1.8,0.1l-1.8,0.3"/>
				<path class="st3" d="M146.1,218.6l1.5-0.2c0.5-0.1,1-0.1,1.5-0.1l1.5-0.1l0.7,0l0.8,0l6.3,0l12.4,0"/>
			</g>
			<g>
				<line class="st3" x1="195.9" y1="203.3" x2="170.8" y2="203.3"/>
				<line class="st3" x1="195.9" y1="207" x2="170.8" y2="207"/>
				<line class="st3" x1="170.8" y1="214.5" x2="195.9" y2="214.5"/>
				<line class="st3" x1="195.9" y1="210.8" x2="170.8" y2="210.8"/>
				<line class="st3" x1="170.8" y1="218.2" x2="195.9" y2="218.2"/>
			</g>
			<g>
				<line class="st3" x1="221.1" y1="203.3" x2="195.9" y2="203.3"/>
				<line class="st3" x1="221.1" y1="207" x2="195.9" y2="207"/>
				<line class="st3" x1="195.9" y1="214.5" x2="221.1" y2="214.5"/>
				<line class="st3" x1="221.1" y1="210.8" x2="195.9" y2="210.8"/>
				<line class="st3" x1="195.9" y1="218.2" x2="221.1" y2="218.2"/>
			</g>
			<g>
				<line class="st3" x1="246.2" y1="203.3" x2="221.1" y2="203.3"/>
				<line class="st3" x1="246.2" y1="207" x2="221.1" y2="207"/>
				<line class="st3" x1="221.1" y1="214.5" x2="246.2" y2="214.5"/>
				<line class="st3" x1="246.2" y1="210.8" x2="221.1" y2="210.8"/>
				<line class="st3" x1="221.1" y1="218.2" x2="246.2" y2="218.2"/>
			</g>
			<g>
				<line class="st3" x1="271.3" y1="203.3" x2="246.2" y2="203.3"/>
				<line class="st3" x1="271.3" y1="207" x2="246.2" y2="207"/>
				<line class="st3" x1="246.2" y1="214.5" x2="271.3" y2="214.5"/>
				<line class="st3" x1="271.3" y1="210.8" x2="246.2" y2="210.8"/>
				<line class="st3" x1="246.2" y1="218.2" x2="271.3" y2="218.2"/>
			</g>
			<g>
				<line class="st3" x1="296.4" y1="203.4" x2="271.3" y2="203.3"/>
				<line class="st3" x1="296.4" y1="207.1" x2="271.3" y2="207"/>
				<line class="st3" x1="271.3" y1="214.5" x2="296.4" y2="214.6"/>
				<line class="st3" x1="296.4" y1="210.9" x2="271.3" y2="210.8"/>
				<line class="st3" x1="271.3" y1="218.2" x2="296.4" y2="218.3"/>
			</g>
			<g>
				<line class="st3" x1="321.6" y1="203.4" x2="296.4" y2="203.4"/>
				<line class="st3" x1="321.6" y1="207.1" x2="296.4" y2="207.1"/>
				<line class="st3" x1="296.4" y1="214.6" x2="321.6" y2="214.6"/>
				<line class="st3" x1="321.6" y1="210.9" x2="296.4" y2="210.9"/>
				<line class="st3" x1="296.4" y1="218.3" x2="321.6" y2="218.3"/>
			</g>
			<g>
				<line class="st3" x1="346.7" y1="203.4" x2="321.6" y2="203.4"/>
				<line class="st3" x1="346.7" y1="207.1" x2="321.6" y2="207.1"/>
				<line class="st3" x1="321.6" y1="214.6" x2="346.7" y2="214.6"/>
				<line class="st3" x1="346.7" y1="210.9" x2="321.6" y2="210.9"/>
				<line class="st3" x1="321.6" y1="218.3" x2="346.7" y2="218.3"/>
			</g>
			<g>
				<path class="st3" d="M373.7,204.1l-2.1-0.3c-0.7-0.1-1.4-0.1-2.1-0.2l-2.1-0.1l-1.1,0l-0.8,0l-6.3,0l-12.6,0"/>
				<path class="st3" d="M373.1,207.7l-1.9-0.3c-0.6-0.1-1.3-0.1-2-0.1l-2-0.1l-1,0l-0.8,0l-6.3,0l-12.6,0"/>
				<path class="st3" d="M346.7,214.6l12.6,0l6.3,0c1,0,2.2,0.1,3.2,0.1c0.5,0,1.1,0,1.6,0.1l1.6,0.2"/>
				<path class="st3" d="M372.6,211.4l-1.8-0.3c-0.6-0.1-1.2-0.1-1.8-0.1l-1.8-0.1l-0.9,0l-0.8,0l-6.3,0l-12.6,0"/>
				<path class="st3" d="M346.7,218.3l12.6,0l6.3,0c0.5,0,1,0,1.5,0l1.5,0.1c0.5,0,1,0,1.5,0.1l1.5,0.2"/>
			</g>
			<g>
				<path class="st3" d="M402.9,220.3c-7.3-8.7-17.9-14.5-29.1-16.2"/>
				<path class="st3" d="M400.1,222.7c-6.8-8-16.5-13.4-26.9-15"/>
				<path class="st3" d="M372,215c8.6,1.3,16.8,5.8,22.4,12.5"/>
				<path class="st3" d="M397.2,225.1c-6.2-7.4-15.2-12.3-24.7-13.7"/>
				<path class="st3" d="M371.4,218.7c7.8,1.2,15.1,5.2,20.2,11.2"/>
			</g>
			<g>
				<path class="st3" d="M414.5,251.6c0-5.7-1-11.3-3-16.7c-2-5.3-4.9-10.3-8.6-14.6"/>
				<path class="st3" d="M410.8,251.6c0-5.2-1-10.5-2.8-15.4c-1.8-4.9-4.5-9.5-7.9-13.5"/>
				<path class="st3" d="M394.4,227.5c5.7,6.6,8.9,15.3,8.9,24.1"/>
				<path class="st3" d="M407,251.6c0-4.8-0.9-9.6-2.6-14.1c-1.7-4.5-4.1-8.7-7.3-12.4"/>
				<path class="st3" d="M391.6,229.9c5.1,6,8,13.8,8,21.7"/>
			</g>
			<g>
				<path class="st3" d="M402.9,282.9c3.7-4.3,6.6-9.3,8.6-14.6c2-5.3,3-11,3-16.7"/>
				<path class="st3" d="M400.1,280.5c3.4-4,6.1-8.6,7.9-13.5c1.8-4.9,2.8-10.2,2.8-15.4"/>
				<path class="st3" d="M403.3,251.6c0,8.7-3.2,17.4-8.9,24.1"/>
				<path class="st3" d="M397.2,278.1c3.1-3.7,5.6-7.9,7.3-12.4c1.7-4.5,2.5-9.3,2.6-14.1"/>
				<path class="st3" d="M399.6,251.6c0,7.9-2.9,15.7-8,21.7"/>
			</g>
			<g>
				<path class="st3" d="M373.7,299.1c11.2-1.7,21.8-7.6,29.1-16.2"/>
				<path class="st3" d="M373.1,295.5c10.4-1.6,20.2-7,26.9-15"/>
				<path class="st3" d="M394.4,275.7c-5.6,6.7-13.8,11.2-22.4,12.5"/>
				<path class="st3" d="M372.6,291.8c9.5-1.4,18.5-6.4,24.7-13.7"/>
				<path class="st3" d="M391.6,273.3c-5.1,6-12.4,10.1-20.2,11.2"/>
			</g>
			<g>
				<path class="st3" d="M346.7,299.8l12.6,0l6.3,0l0.8,0l1.1,0l2.1-0.1c0.7-0.1,1.4-0.1,2.1-0.2l2.1-0.3"/>
				<path class="st3" d="M346.7,296.1l12.6,0l6.3,0l0.8,0l1,0l2-0.1c0.7,0,1.3,0,2-0.1l1.9-0.3"/>
				<path class="st3" d="M372,288.2l-1.6,0.2c-0.5,0.1-1.1,0.1-1.6,0.1c-1.1,0-2.2,0.1-3.2,0.1l-6.3,0l-12.6,0"/>
				<path class="st3" d="M346.7,292.3l12.6,0l6.3,0l0.8,0l0.9,0l1.8-0.1c0.6,0,1.2,0,1.8-0.1l1.8-0.3"/>
				<path class="st3" d="M371.4,284.5l-1.5,0.2c-0.5,0.1-1,0.1-1.5,0.1l-1.5,0.1l-0.7,0l-0.8,0l-6.3,0l-12.6,0"/>
			</g>
			<g>
				<line class="st3" x1="321.6" y1="299.8" x2="346.7" y2="299.8"/>
				<line class="st3" x1="321.6" y1="296.1" x2="346.7" y2="296.1"/>
				<line class="st3" x1="346.7" y1="288.6" x2="321.6" y2="288.6"/>
				<line class="st3" x1="321.6" y1="292.3" x2="346.7" y2="292.3"/>
				<line class="st3" x1="346.7" y1="284.9" x2="321.6" y2="284.9"/>
			</g>
			<g>
				<line class="st3" x1="296.4" y1="299.8" x2="321.6" y2="299.8"/>
				<line class="st3" x1="296.4" y1="296.1" x2="321.6" y2="296.1"/>
				<line class="st3" x1="321.6" y1="288.6" x2="296.4" y2="288.6"/>
				<line class="st3" x1="296.4" y1="292.3" x2="321.6" y2="292.3"/>
				<line class="st3" x1="321.6" y1="284.9" x2="296.4" y2="284.9"/>
			</g>
			<g>
				<line class="st3" x1="271.3" y1="299.7" x2="296.4" y2="299.8"/>
				<line class="st3" x1="271.3" y1="296" x2="296.4" y2="296.1"/>
				<line class="st3" x1="296.4" y1="288.6" x2="271.3" y2="288.5"/>
				<line class="st3" x1="271.3" y1="292.2" x2="296.4" y2="292.3"/>
				<line class="st3" x1="296.4" y1="284.9" x2="271.3" y2="284.8"/>
			</g>
			<g>
				<line class="st3" x1="246.2" y1="299.7" x2="271.3" y2="299.7"/>
				<line class="st3" x1="246.2" y1="296" x2="271.3" y2="296"/>
				<line class="st3" x1="271.3" y1="288.5" x2="246.2" y2="288.5"/>
				<line class="st3" x1="246.2" y1="292.2" x2="271.3" y2="292.2"/>
				<line class="st3" x1="271.3" y1="284.8" x2="246.2" y2="284.8"/>
			</g>
			<g>
				<line class="st3" x1="221.1" y1="299.7" x2="246.2" y2="299.7"/>
				<line class="st3" x1="221.1" y1="296" x2="246.2" y2="296"/>
				<line class="st3" x1="246.2" y1="288.5" x2="221.1" y2="288.5"/>
				<line class="st3" x1="221.1" y1="292.2" x2="246.2" y2="292.2"/>
				<line class="st3" x1="246.2" y1="284.8" x2="221.1" y2="284.8"/>
			</g>
			<g>
				<line class="st3" x1="195.9" y1="299.7" x2="221.1" y2="299.7"/>
				<line class="st3" x1="195.9" y1="296" x2="221.1" y2="296"/>
				<line class="st3" x1="221.1" y1="288.5" x2="195.9" y2="288.5"/>
				<line class="st3" x1="195.9" y1="292.2" x2="221.1" y2="292.2"/>
				<line class="st3" x1="221.1" y1="284.8" x2="195.9" y2="284.8"/>
			</g>
			<g>
				<line class="st3" x1="170.8" y1="299.7" x2="195.9" y2="299.7"/>
				<line class="st3" x1="170.8" y1="296" x2="195.9" y2="296"/>
				<line class="st3" x1="195.9" y1="288.5" x2="170.8" y2="288.5"/>
				<line class="st3" x1="170.8" y1="292.2" x2="195.9" y2="292.2"/>
				<line class="st3" x1="195.9" y1="284.8" x2="170.8" y2="284.8"/>
			</g>
			<g>
				<path class="st3" d="M143.8,299l2.1,0.3c0.7,0.1,1.4,0.1,2.1,0.2l2.1,0.1l1.1,0l0.8,0l6.3,0l12.5,0"/>
				<path class="st3" d="M144.3,295.4l1.9,0.3c0.6,0.1,1.3,0.1,2,0.1l2,0.1l1,0l0.8,0l6.3,0l12.5,0"/>
				<path class="st3" d="M170.8,288.5l-12.6,0l-6.3,0c-1,0-2.2-0.1-3.2-0.1c-0.5,0-1.1,0-1.6-0.1l-1.6-0.2"/>
				<path class="st3" d="M144.9,291.7l1.8,0.3c0.6,0.1,1.2,0.1,1.8,0.1l1.8,0.1l0.9,0l0.8,0l6.3,0l12.5,0"/>
				<path class="st3" d="M170.8,284.8l-12.6,0l-6.3,0c-0.5,0-1,0-1.5,0l-1.5-0.1c-0.5,0-1,0-1.5-0.1l-1.5-0.2"/>
			</g>
			<g>
				<path class="st3" d="M114.6,282.7c7.3,8.7,17.9,14.5,29.1,16.2"/>
				<path class="st3" d="M117.4,280.4c6.8,8,16.5,13.4,26.9,15"/>
				<path class="st3" d="M145.5,288.1c-8.6-1.3-16.8-5.8-22.4-12.5"/>
				<path class="st3" d="M120.3,278c6.2,7.4,15.2,12.3,24.7,13.7"/>
				<path class="st3" d="M146.1,284.4c-7.8-1.2-15.1-5.2-20.2-11.2"/>
			</g>
			<g>
				<path class="st3" d="M103,251.4c0,5.7,1,11.3,3,16.7c2,5.3,4.9,10.3,8.6,14.6"/>
				<path class="st3" d="M106.7,251.4c0,5.2,1,10.5,2.8,15.4c1.8,4.9,4.5,9.5,7.9,13.5"/>
				<path class="st3" d="M123.1,275.6c-5.7-6.6-8.9-15.3-8.9-24.1"/>
				<path class="st3" d="M110.4,251.4c0,4.8,0.9,9.6,2.6,14.1c1.7,4.5,4.1,8.7,7.3,12.4"/>
				<path class="st3" d="M125.9,273.2c-5.1-6-8-13.8-8-21.7"/>
			</g>
		</g>
	</g>
</g>
</svg>
