<?xml version="1.0" encoding="utf-8"?>
<!-- Generator: Adobe Illustrator 22.0.0, SVG Export Plug-In . SVG Version: 6.00 Build 0)  -->
<svg version="1.1" id="Layer_1" xmlns="http://www.w3.org/2000/svg" xmlns:xlink="http://www.w3.org/1999/xlink" x="0px" y="0px"
	 viewBox="0 0 512 512" style="enable-background:new 0 0 512 512;" xml:space="preserve">
<style type="text/css">
	.st0{display:none;opacity:0.6;}
	.st1{fill:#F2F2F2;}
</style>
<ellipse class="st0" cx="256.2" cy="256.1" rx="256.2" ry="256"/>
<g>
	<g>
		<path class="st1" d="M394.4,385.2c0-54.3-16.6-108.2-48.1-152.5c-31.1-43.7-74.5-77.1-124.7-95.8c-29-10.8-60-16.1-90.9-16.2
			c-15.4-0.1-15.5,23.9,0,24c25.9,0.1,49.4,3.7,74.4,11.9c22.9,7.4,44.4,18.3,64.8,32.8c38.3,27.1,69.6,67.9,85.7,112
			c10.1,27.8,14.8,54.8,14.8,83.8C370.4,400.7,394.4,400.7,394.4,385.2L394.4,385.2z"/>
	</g>
</g>
<path class="st1" d="M93.9,143.4l66.4,38.3c5.1,2.9,11.5-0.7,11.5-6.6V98.5c0-5.9-6.4-9.6-11.5-6.6l-66.4,38.3
	C88.8,133.1,88.8,140.4,93.9,143.4z"/>
</svg>
