<?xml version="1.0" encoding="utf-8"?>
<!-- Generator: Adobe Illustrator 22.0.0, SVG Export Plug-In . SVG Version: 6.00 Build 0)  -->
<svg version="1.1" id="Layer_1" xmlns="http://www.w3.org/2000/svg" xmlns:xlink="http://www.w3.org/1999/xlink" x="0px" y="0px"
	 viewBox="0 0 512 512" style="enable-background:new 0 0 512 512;" xml:space="preserve">
<style type="text/css">
	.st0{display:none;opacity:0.6;}
	.st1{display:none;fill:#F2F2F2;}
	.st2{fill:#F2F2F2;}
</style>
<circle class="st0" cx="256.4" cy="256.1" r="256"/>
<path class="st1" d="M367.2,242.1h-96.5v-96.5c0-8.8-7.2-16-16-16s-16,7.2-16,16v96.5h-96.5c-8.8,0-16,7.2-16,16
	c0,4.4,1.8,8.4,4.7,11.3c2.9,2.9,6.9,4.7,11.3,4.7h96.5v96.5c0,4.4,1.8,8.4,4.7,11.3s6.9,4.7,11.3,4.7c8.8,0,16-7.2,16-16v-96.5
	h96.5c8.8,0,16-7.2,16-16S376,242.1,367.2,242.1z"/>
<g>
	<g>
		<path class="st2" d="M142.2,385.2c0-25.9,3.5-49.4,11.5-74.4c7.3-22.9,18.1-44.5,32.5-64.9c27-38.4,67.6-69.8,111.7-86.1
			c27.7-10.2,54.8-15,83.8-15.1c15.4-0.1,15.5-24.1,0-24c-54.2,0.3-108.1,17-152.3,48.7c-43.5,31.2-76.8,74.7-95.3,125
			c-10.7,29-15.9,60-15.9,90.8C118.2,400.7,142.2,400.7,142.2,385.2L142.2,385.2z"/>
	</g>
</g>
<path class="st2" d="M418.5,143.4l-66.3,38.3c-5.1,2.9-11.5-0.7-11.5-6.6V98.5c0-5.9,6.4-9.6,11.5-6.6l66.3,38.3
	C423.6,133.1,423.6,140.4,418.5,143.4z"/>
</svg>
